<svg width="284" height="179" viewBox="0 0 284 179" fill="none" xmlns="http://www.w3.org/2000/svg">
<g>
<path d="M231.54 89.1187L257.844 62.8148L231.54 36.511V89.1187Z" fill="#511A1E"/>
<path d="M205.237 62.8148L231.541 89.1187V36.511" fill="#471014"/>
<path d="M294.659 25.9987L320.963 -0.305176H268.355" fill="#4D161A"/>
<path d="M168.418 25.9987L231.538 -0.305176L205.235 62.8147L168.418 25.9987Z" fill="#481115"/>
<path d="M257.843 62.8147L231.539 -0.305176L294.659 25.9987L257.843 62.8147Z" fill="#511A1E"/>
<path d="M168.419 25.9987L194.723 -0.305176H142.115" fill="#541D21"/>
<path d="M231.538 -0.305176L168.418 25.9987L194.722 -0.305176H231.538Z" fill="#3E070B"/>
<path d="M231.539 -0.305176L294.659 25.9987L268.355 -0.305176H231.539Z" fill="#481115"/>
<path d="M231.539 -0.305176V36.5109L257.843 62.8147L231.539 -0.305176Z" fill="#4B1418"/>
<path d="M231.54 -0.305176L205.236 62.8147L231.54 36.5109V-0.305176Z" fill="#541D21"/>
<path d="M257.833 115.423L320.964 89.1189L294.66 152.239L257.833 115.423Z" fill="#481115"/>
<path d="M294.659 25.999L320.963 89.1189L257.843 62.8151L294.659 25.999Z" fill="#3E070B"/>
<path d="M284.136 89.1188L257.844 62.8149L231.54 89.1188H284.136Z" fill="#420B0F"/>
<path d="M257.832 115.423L284.136 89.1189H231.54" fill="#541D21"/>
<path d="M320.963 89.1188H284.135L257.843 62.8149L320.963 89.1188Z" fill="#4D161A"/>
<path d="M320.964 89.1189L257.833 115.423L284.136 89.1189H320.964Z" fill="#3E070B"/>
<path d="M52.6947 89.1187L78.9986 62.8148L52.6947 36.511V89.1187Z" fill="#511A1E"/>
<path d="M26.3914 62.8148L52.6953 89.1187V36.511" fill="#471014"/>
<path d="M115.813 25.9987L142.117 -0.305176H89.5096" fill="#4D161A"/>
<path d="M-10.4268 25.9987L52.6931 -0.305176L26.3892 62.8147L-10.4268 25.9987Z" fill="#481115"/>
<path d="M78.9978 62.8147L52.6939 -0.305176L115.814 25.9987L78.9978 62.8147Z" fill="#511A1E"/>
<path d="M-10.4263 25.9987L15.8776 -0.305176H-36.7302" fill="#541D21"/>
<path d="M52.6931 -0.305176L-10.4268 25.9987L15.877 -0.305176H52.6931Z" fill="#3E070B"/>
<path d="M52.6939 -0.305176L115.814 25.9987L89.5099 -0.305176H52.6939Z" fill="#481115"/>
<path d="M52.6939 -0.305176V36.5109L78.9978 62.8147L52.6939 -0.305176Z" fill="#4B1418"/>
<path d="M52.6945 -0.305176L26.3906 62.8147L52.6945 36.5109V-0.305176Z" fill="#541D21"/>
<path d="M142.119 178.542L168.423 152.238L142.119 125.935V178.542Z" fill="#511A1E"/>
<path d="M115.816 152.238L142.12 178.542V125.935" fill="#471014"/>
<path d="M231.542 89.1186L205.238 62.8147L178.934 89.1186H231.542Z" fill="#420B0F"/>
<path d="M205.238 115.422L231.542 89.1187H178.934" fill="#4D161A"/>
<path d="M78.9977 115.423L142.118 89.1189L115.814 152.239L78.9977 115.423Z" fill="#481115"/>
<path d="M205.238 62.8151L142.118 89.1189L168.422 25.999L205.238 62.8151Z" fill="#471014"/>
<path d="M168.422 152.239L142.118 89.1189L205.238 115.423L168.422 152.239Z" fill="#511A1E"/>
<path d="M115.814 25.999L142.118 89.1189L78.9977 62.8151L115.814 25.999Z" fill="#3E070B"/>
<path d="M105.302 89.1188L78.9982 62.8149L52.6944 89.1188H105.302Z" fill="#420B0F"/>
<path d="M78.9982 115.423L105.302 89.1189H52.6944" fill="#541D21"/>
<path d="M142.118 52.3028L168.422 25.9989L142.118 -0.304932V52.3028Z" fill="#511A1E"/>
<path d="M115.815 25.9989L142.119 52.3028V-0.304932" fill="#3E070B"/>
<path d="M142.118 89.1189V52.3029L168.422 25.999L142.118 89.1189Z" fill="#420B0F"/>
<path d="M142.119 89.1189L115.815 25.999L142.119 52.3029V89.1189Z" fill="#4F181C"/>
<path d="M142.118 89.1188H105.302L78.9977 62.8149L142.118 89.1188Z" fill="#4D161A"/>
<path d="M142.118 89.1189L78.9977 115.423L105.302 89.1189H142.118Z" fill="#3E070B"/>
<path d="M142.118 89.1188H178.934L205.238 62.8149L142.118 89.1188Z" fill="#541D21"/>
<path d="M142.118 89.1189L205.238 115.423L178.934 89.1189H142.118Z" fill="#481115"/>
<path d="M142.118 89.1189V125.935L168.422 152.239L142.118 89.1189Z" fill="#4B1418"/>
<path d="M142.119 89.1189L115.815 152.239L142.119 125.935V89.1189Z" fill="#541D21"/>
<path d="M320.963 178.542L294.659 152.239L268.355 178.542H320.963Z" fill="#420B0F"/>
<path d="M294.659 204.846L320.963 178.542H268.355" fill="#4D161A"/>
<path d="M168.418 204.835L231.538 178.542L205.235 241.662L168.418 204.835Z" fill="#481115"/>
<path d="M294.659 152.239L231.539 178.543L257.831 115.423L294.659 152.239Z" fill="#471014"/>
<path d="M257.843 241.662L231.539 178.542L294.659 204.846L257.843 241.662Z" fill="#511A1E"/>
<path d="M205.235 115.423L231.538 178.543L168.418 152.239L205.235 115.423Z" fill="#3E070B"/>
<path d="M194.723 178.542L168.419 152.239L142.115 178.542H194.723Z" fill="#420B0F"/>
<path d="M168.419 204.846L194.723 178.542H142.115" fill="#541D21"/>
<path d="M231.539 141.726L257.843 115.422L231.539 89.1187V141.726Z" fill="#511A1E"/>
<path d="M205.236 115.422L231.54 141.726V89.1187" fill="#3E070B"/>
<path d="M231.539 178.543V141.726L257.843 115.423L231.539 178.543Z" fill="#420B0F"/>
<path d="M231.54 178.543L205.236 115.423L231.54 141.726V178.543Z" fill="#4F181C"/>
<path d="M231.538 178.542H194.711L168.418 152.239L231.538 178.542Z" fill="#4D161A"/>
<path d="M231.538 178.542L168.418 204.846L194.722 178.542H231.538Z" fill="#3E070B"/>
<path d="M231.539 178.542H268.355L294.659 152.239L231.539 178.542Z" fill="#541D21"/>
<path d="M231.539 178.542L294.659 204.846L268.355 178.542H231.539Z" fill="#481115"/>
<path d="M231.539 178.542V215.359L257.843 241.662L231.539 178.542Z" fill="#4B1418"/>
<path d="M231.54 178.542L205.236 241.662L231.54 215.359V178.542Z" fill="#541D21"/>
<path d="M52.6949 89.1186L26.391 62.8147L0.0871735 89.1186H52.6949Z" fill="#420B0F"/>
<path d="M26.391 115.422L52.6949 89.1187H0.0871735" fill="#4D161A"/>
<path d="M26.3931 62.8151L-36.7268 89.1189L-10.4229 25.999L26.3931 62.8151Z" fill="#471014"/>
<path d="M-10.4229 152.239L-36.7268 89.1189L26.3931 115.423L-10.4229 152.239Z" fill="#511A1E"/>
<path d="M-36.7268 89.1188H0.0892601L26.3931 62.8149L-36.7268 89.1188Z" fill="#541D21"/>
<path d="M-36.7268 89.1189L26.3931 115.423L0.0892601 89.1189H-36.7268Z" fill="#481115"/>
<path d="M142.117 178.542L115.813 152.239L89.5096 178.542H142.117Z" fill="#420B0F"/>
<path d="M115.813 204.846L142.117 178.542H89.5096" fill="#4D161A"/>
<path d="M-10.4268 204.846L52.6931 178.542L26.3892 241.662L-10.4268 204.846Z" fill="#481115"/>
<path d="M115.814 152.239L52.6939 178.543L78.9978 115.423L115.814 152.239Z" fill="#471014"/>
<path d="M78.9978 241.662L52.6939 178.542L115.814 204.846L78.9978 241.662Z" fill="#511A1E"/>
<path d="M26.3892 115.423L52.6931 178.543L-10.4268 152.239L26.3892 115.423Z" fill="#3E070B"/>
<path d="M15.8776 178.542L-10.4263 152.239L-36.7302 178.542H15.8776Z" fill="#420B0F"/>
<path d="M-10.4263 204.846L15.8776 178.542H-36.7302" fill="#541D21"/>
<path d="M52.6939 141.726L78.9978 115.422L52.6939 89.1187V141.726Z" fill="#511A1E"/>
<path d="M26.3906 115.422L52.6945 141.726V89.1187" fill="#3E070B"/>
<path d="M52.6939 178.543V141.726L78.9978 115.423L52.6939 178.543Z" fill="#420B0F"/>
<path d="M52.6945 178.543L26.3906 115.423L52.6945 141.726V178.543Z" fill="#4F181C"/>
<path d="M52.6931 178.542H15.8653L-10.4268 152.239L52.6931 178.542Z" fill="#4D161A"/>
<path d="M52.6931 178.542L-10.4268 204.846L15.877 178.542H52.6931Z" fill="#3E070B"/>
<path d="M52.6939 178.542H89.5099L115.814 152.239L52.6939 178.542Z" fill="#541D21"/>
<path d="M52.6939 178.542L115.814 204.846L89.5099 178.542H52.6939Z" fill="#481115"/>
<path d="M52.6939 178.542V215.359L78.9978 241.662L52.6939 178.542Z" fill="#4B1418"/>
<path d="M52.6945 178.542L26.3906 241.662L52.6945 215.359V178.542Z" fill="#541D21"/>
<path d="M142.118 231.138L168.422 204.834L142.118 178.542V231.138Z" fill="#511A1E"/>
<path d="M115.815 204.846L142.119 231.138V178.542" fill="#3E070B"/>
</g>
</svg>
