<svg width="284" height="179" viewBox="0 0 284 179" fill="none" xmlns="http://www.w3.org/2000/svg">
<g clip-path="url(#clip0_23_1297)">
<path d="M231.54 89.1187L257.844 62.8148L231.54 36.511V89.1187Z" fill="#511A1E"/>
<path d="M205.237 62.8148L231.541 89.1187V36.511" fill="#471014"/>
<path d="M294.659 25.9987L320.963 -0.305176H268.355" fill="#4D161A"/>
<path d="M168.419 25.9987L231.538 -0.305176L205.235 62.8147L168.419 25.9987Z" fill="#481115"/>
<path d="M257.843 62.8147L231.539 -0.305176L294.659 25.9987L257.843 62.8147Z" fill="#511A1E"/>
<path d="M168.419 25.9987L194.723 -0.305176H142.115" fill="#541D21"/>
<path d="M231.538 -0.305176L168.419 25.9987L194.722 -0.305176H231.538Z" fill="#3E070B"/>
<path d="M231.539 -0.305176L294.659 25.9987L268.355 -0.305176H231.539Z" fill="#481115"/>
<path d="M231.539 -0.305176V36.5109L257.843 62.8147L231.539 -0.305176Z" fill="#4B1418"/>
<path d="M231.54 -0.305176L205.236 62.8147L231.54 36.5109V-0.305176Z" fill="#541D21"/>
<path d="M257.833 115.423L320.964 89.1189L294.66 152.239L257.833 115.423Z" fill="#481115"/>
<path d="M294.659 25.999L320.963 89.1189L257.843 62.8151L294.659 25.999Z" fill="#3E070B"/>
<path d="M284.136 89.1188L257.844 62.8149L231.54 89.1188H284.136Z" fill="#420B0F"/>
<path d="M257.832 115.423L284.136 89.1189H231.54" fill="#541D21"/>
<path d="M320.963 89.1188H284.135L257.843 62.8149L320.963 89.1188Z" fill="#4D161A"/>
<path d="M320.964 89.1189L257.833 115.423L284.136 89.1189H320.964Z" fill="#3E070B"/>
<path d="M52.6947 89.1187L78.9985 62.8148L52.6947 36.511V89.1187Z" fill="#511A1E"/>
<path d="M26.3914 62.8148L52.6952 89.1187V36.511" fill="#471014"/>
<path d="M115.813 25.9987L142.117 -0.305176H89.5095" fill="#4D161A"/>
<path d="M-10.4269 25.9987L52.693 -0.305176L26.3891 62.8147L-10.4269 25.9987Z" fill="#481115"/>
<path d="M78.9977 62.8147L52.6938 -0.305176L115.814 25.9987L78.9977 62.8147Z" fill="#511A1E"/>
<path d="M-10.4264 25.9987L15.8775 -0.305176H-36.7302" fill="#541D21"/>
<path d="M52.693 -0.305176L-10.4269 25.9987L15.877 -0.305176H52.693Z" fill="#3E070B"/>
<path d="M52.6938 -0.305176L115.814 25.9987L89.5099 -0.305176H52.6938Z" fill="#481115"/>
<path d="M52.6938 -0.305176V36.5109L78.9977 62.8147L52.6938 -0.305176Z" fill="#4B1418"/>
<path d="M52.6944 -0.305176L26.3905 62.8147L52.6944 36.5109V-0.305176Z" fill="#541D21"/>
<path d="M142.119 178.542L168.423 152.238L142.119 125.935V178.542Z" fill="#511A1E"/>
<path d="M115.816 152.238L142.12 178.542V125.935" fill="#471014"/>
<path d="M231.542 89.1186L205.238 62.8147L178.934 89.1186H231.542Z" fill="#420B0F"/>
<path d="M205.238 115.422L231.542 89.1187H178.934" fill="#4D161A"/>
<path d="M78.9977 115.423L142.118 89.1189L115.814 152.239L78.9977 115.423Z" fill="#481115"/>
<path d="M205.238 62.8151L142.118 89.1189L168.422 25.999L205.238 62.8151Z" fill="#471014"/>
<path d="M168.422 152.239L142.118 89.1189L205.238 115.423L168.422 152.239Z" fill="#511A1E"/>
<path d="M115.814 25.999L142.118 89.1189L78.9977 62.8151L115.814 25.999Z" fill="#3E070B"/>
<path d="M105.302 89.1188L78.9982 62.8149L52.6943 89.1188H105.302Z" fill="#420B0F"/>
<path d="M78.9982 115.423L105.302 89.1189H52.6943" fill="#541D21"/>
<path d="M142.118 52.3028L168.422 25.9989L142.118 -0.304932V52.3028Z" fill="#511A1E"/>
<path d="M115.815 25.9989L142.119 52.3028V-0.304932" fill="#3E070B"/>
<path d="M142.118 89.1189V52.3029L168.422 25.999L142.118 89.1189Z" fill="#420B0F"/>
<path d="M142.119 89.1189L115.815 25.999L142.119 52.3029V89.1189Z" fill="#4F181C"/>
<path d="M142.118 89.1188H105.302L78.9977 62.8149L142.118 89.1188Z" fill="#4D161A"/>
<path d="M142.118 89.1189L78.9977 115.423L105.302 89.1189H142.118Z" fill="#3E070B"/>
<path d="M142.118 89.1188H178.934L205.238 62.8149L142.118 89.1188Z" fill="#541D21"/>
<path d="M142.118 89.1189L205.238 115.423L178.934 89.1189H142.118Z" fill="#481115"/>
<path d="M142.118 89.1189V125.935L168.422 152.239L142.118 89.1189Z" fill="#4B1418"/>
<path d="M142.119 89.1189L115.815 152.239L142.119 125.935V89.1189Z" fill="#541D21"/>
<path d="M320.963 178.542L294.659 152.239L268.355 178.542H320.963Z" fill="#420B0F"/>
<path d="M294.659 204.846L320.963 178.542H268.355" fill="#4D161A"/>
<path d="M168.419 204.835L231.538 178.542L205.235 241.662L168.419 204.835Z" fill="#481115"/>
<path d="M294.659 152.239L231.539 178.543L257.831 115.423L294.659 152.239Z" fill="#471014"/>
<path d="M257.843 241.662L231.539 178.542L294.659 204.846L257.843 241.662Z" fill="#511A1E"/>
<path d="M205.235 115.423L231.538 178.543L168.419 152.239L205.235 115.423Z" fill="#3E070B"/>
<path d="M194.723 178.542L168.419 152.239L142.115 178.542H194.723Z" fill="#420B0F"/>
<path d="M168.419 204.846L194.723 178.542H142.115" fill="#541D21"/>
<path d="M231.539 141.726L257.843 115.422L231.539 89.1187V141.726Z" fill="#511A1E"/>
<path d="M205.236 115.422L231.54 141.726V89.1187" fill="#3E070B"/>
<path d="M231.539 178.543V141.726L257.843 115.423L231.539 178.543Z" fill="#420B0F"/>
<path d="M231.54 178.543L205.236 115.423L231.54 141.726V178.543Z" fill="#4F181C"/>
<path d="M231.538 178.542H194.711L168.419 152.239L231.538 178.542Z" fill="#4D161A"/>
<path d="M231.538 178.542L168.419 204.846L194.722 178.542H231.538Z" fill="#3E070B"/>
<path d="M231.539 178.542H268.355L294.659 152.239L231.539 178.542Z" fill="#541D21"/>
<path d="M231.539 178.542L294.659 204.846L268.355 178.542H231.539Z" fill="#481115"/>
<path d="M231.539 178.542V215.359L257.843 241.662L231.539 178.542Z" fill="#4B1418"/>
<path d="M231.54 178.542L205.236 241.662L231.54 215.359V178.542Z" fill="#541D21"/>
<path d="M52.6949 89.1186L26.391 62.8147L0.0871582 89.1186H52.6949Z" fill="#420B0F"/>
<path d="M26.391 115.422L52.6949 89.1187H0.0871582" fill="#4D161A"/>
<path d="M26.3931 62.8151L-36.7268 89.1189L-10.4229 25.999L26.3931 62.8151Z" fill="#471014"/>
<path d="M-10.4229 152.239L-36.7268 89.1189L26.3931 115.423L-10.4229 152.239Z" fill="#511A1E"/>
<path d="M-36.7268 89.1188H0.0892217L26.3931 62.8149L-36.7268 89.1188Z" fill="#541D21"/>
<path d="M-36.7268 89.1189L26.3931 115.423L0.0892217 89.1189H-36.7268Z" fill="#481115"/>
<path d="M142.117 178.542L115.813 152.239L89.5095 178.542H142.117Z" fill="#420B0F"/>
<path d="M115.813 204.846L142.117 178.542H89.5095" fill="#4D161A"/>
<path d="M-10.4269 204.846L52.693 178.542L26.3891 241.662L-10.4269 204.846Z" fill="#481115"/>
<path d="M115.814 152.239L52.6938 178.543L78.9977 115.423L115.814 152.239Z" fill="#471014"/>
<path d="M78.9977 241.662L52.6938 178.542L115.814 204.846L78.9977 241.662Z" fill="#511A1E"/>
<path d="M26.3891 115.423L52.693 178.543L-10.4269 152.239L26.3891 115.423Z" fill="#3E070B"/>
<path d="M15.8775 178.542L-10.4264 152.239L-36.7302 178.542H15.8775Z" fill="#420B0F"/>
<path d="M-10.4264 204.846L15.8775 178.542H-36.7302" fill="#541D21"/>
<path d="M52.6938 141.726L78.9977 115.422L52.6938 89.1187V141.726Z" fill="#511A1E"/>
<path d="M26.3905 115.422L52.6944 141.726V89.1187" fill="#3E070B"/>
<path d="M52.6938 178.543V141.726L78.9977 115.423L52.6938 178.543Z" fill="#420B0F"/>
<path d="M52.6944 178.543L26.3905 115.423L52.6944 141.726V178.543Z" fill="#4F181C"/>
<path d="M52.693 178.542H15.8652L-10.4269 152.239L52.693 178.542Z" fill="#4D161A"/>
<path d="M52.693 178.542L-10.4269 204.846L15.877 178.542H52.693Z" fill="#3E070B"/>
<path d="M52.6938 178.542H89.5099L115.814 152.239L52.6938 178.542Z" fill="#541D21"/>
<path d="M52.6938 178.542L115.814 204.846L89.5099 178.542H52.6938Z" fill="#481115"/>
<path d="M52.6938 178.542V215.359L78.9977 241.662L52.6938 178.542Z" fill="#4B1418"/>
<path d="M52.6944 178.542L26.3905 241.662L52.6944 215.359V178.542Z" fill="#541D21"/>
<path d="M142.118 231.138L168.422 204.834L142.118 178.542V231.138Z" fill="#511A1E"/>
<path d="M115.815 204.846L142.119 231.138V178.542" fill="#3E070B"/>
<path d="M38.75 87.75V93.75H33.1426C31.5451 93.7498 30.2502 92.4549 30.25 90.8574V87.75H38.75ZM56.75 68.25V93.75H39.25V68.25H56.75ZM65.75 87.75V90.8574C65.7499 92.4549 64.4549 93.7498 62.8574 93.75H57.25V87.75H65.75ZM65.75 81.25V87.25H57.25V81.25H65.75ZM38.75 81.25V87.25H30.25V81.25H38.75ZM65.75 74.75V80.75H57.25V74.75H65.75ZM38.75 74.75V80.75H30.25V74.75H38.75ZM62.8574 68.25C64.4549 68.2502 65.7498 69.5451 65.75 71.1426V74.25H57.25V68.25H62.8574ZM33.1426 68.25H38.75V74.25H30.25V71.1426C30.2502 69.5451 31.5451 68.2502 33.1426 68.25Z" fill="url(#paint0_linear_23_1297)" stroke="url(#paint1_radial_23_1297)" stroke-width="0.5"/>
</g>
<path d="M51.1663 20.3355C50.9531 20.4703 50.8267 20.5576 50.7951 20.6052C50.7635 20.6369 50.7161 20.6924 50.6529 20.7637C50.5897 20.8351 50.5265 20.9382 50.4476 21.0809C50.3686 21.2237 50.2817 21.3981 50.1711 21.6043C50.0605 21.8105 49.9421 22.0801 49.8157 22.4052C49.5945 22.9365 49.3497 23.5392 49.0811 24.2053C48.8126 24.8714 48.544 25.5533 48.2676 26.2511C47.9911 26.949 47.7147 27.6547 47.4461 28.3684C47.1776 29.0821 46.9169 29.7482 46.6721 30.3825L45.8585 32.0557H45.661C45.2977 31.1517 44.9502 30.2953 44.6342 29.4706C44.3183 28.6459 44.0102 27.8609 43.7101 27.1076C43.41 26.3542 43.1177 25.6168 42.8413 24.911C42.5648 24.2053 42.2884 23.4916 42.0119 22.7779C41.9329 22.5638 41.8618 22.3814 41.7987 22.2228C41.7355 22.0642 41.6723 21.9215 41.6091 21.7867C41.5459 21.6519 41.4906 21.525 41.4274 21.3981C41.3642 21.2792 41.301 21.1444 41.2379 21.0096C41.2063 20.9461 41.1589 20.8589 41.0878 20.7558C41.0246 20.6527 40.9298 20.5576 40.8113 20.4545C40.6929 20.3514 40.5507 20.2642 40.3848 20.1928C40.2189 20.1214 40.0057 20.0818 39.7529 20.0659V19.8835H44.729V20.0501C44.6737 20.058 44.571 20.0818 44.4289 20.0976C44.2867 20.1214 44.1366 20.1611 43.9866 20.2245C43.8365 20.288 43.7022 20.3752 43.5837 20.4862C43.4652 20.5972 43.41 20.74 43.41 20.9065C43.41 21.073 43.4731 21.2395 43.5916 21.6202C43.7101 21.9929 43.8681 22.4449 44.0655 22.9762C44.263 23.5074 44.4763 24.0863 44.7211 24.7128C44.966 25.3392 45.2029 25.9577 45.4478 26.5683C45.6847 27.1789 45.9138 27.7419 46.1192 28.2653C46.3324 28.7887 46.4983 29.2169 46.6168 29.5499C46.6721 29.431 46.7747 29.1693 46.9248 28.7807C47.0749 28.3922 47.2644 27.9085 47.4935 27.3296C47.7226 26.7507 47.9753 26.0925 48.2518 25.3551C48.5282 24.6176 48.8205 23.8484 49.1206 23.0475C49.3418 22.4369 49.4839 21.9691 49.555 21.6519C49.6182 21.3347 49.6577 21.1127 49.6577 20.9937C49.6577 20.8748 49.6024 20.6845 49.4918 20.5734C49.3813 20.4624 49.2391 20.3673 49.0732 20.2959C48.9073 20.2245 48.7336 20.169 48.5519 20.1294C48.3702 20.0897 48.2044 20.0659 48.0622 20.0501V19.8835H51.9404V20.0659C51.6481 20.0976 51.3954 20.1849 51.1821 20.3197L51.1663 20.3355Z" fill="#BAA14F"/>
<path d="M64.7361 23.7772C64.5939 23.2459 64.3728 22.7384 64.0884 22.2705C63.7962 21.8026 63.4565 21.3982 63.0616 21.0493C62.6667 20.7004 62.2244 20.4308 61.7267 20.2326C61.237 20.0343 60.7078 19.9312 60.1549 19.9312C59.602 19.9312 58.7095 20.1057 58.1092 20.4467C57.5089 20.7956 57.0113 21.2476 56.6006 21.8185C56.1978 22.3895 55.8818 23.0318 55.6686 23.7454C55.4553 24.4591 55.3447 25.2045 55.3447 25.9578C55.3447 26.7112 55.4553 27.5121 55.6844 28.2178C55.9134 28.9236 56.2373 29.5262 56.6559 30.0496C57.0745 30.565 57.5879 30.9774 58.1882 31.2787C58.7885 31.58 59.452 31.7307 60.1865 31.7307C60.9211 31.7307 61.3002 31.6276 61.8057 31.4135C62.3112 31.1994 62.7615 30.9219 63.1564 30.5809C63.5513 30.232 63.8831 29.8355 64.1516 29.3835C64.4202 28.9315 64.6097 28.4716 64.7124 27.9879H64.9099L64.8625 31.6673H64.665C64.5307 31.477 64.3965 31.3025 64.2464 31.1518C64.0963 31.0012 64.0015 30.9139 63.9462 30.9139C63.891 30.9139 63.8278 30.9695 63.6461 31.0884C63.4723 31.2073 63.2117 31.3342 62.8799 31.477C62.5482 31.6197 62.1454 31.7386 61.6636 31.8417C61.1896 31.9448 60.6368 32.0003 60.0128 32.0003C58.9781 32.0003 58.046 31.8497 57.2167 31.5563C56.3873 31.2629 55.6765 30.8426 55.092 30.3034C54.5075 29.7641 54.0652 29.1139 53.7492 28.3606C53.4412 27.6072 53.2832 26.7825 53.2832 25.8785C53.2832 24.9746 53.299 25.4503 53.3227 25.1966C53.3543 24.9428 53.4017 24.6653 53.4728 24.3798C53.5439 24.0943 53.6465 23.7851 53.7729 23.4679C53.8993 23.1507 54.0652 22.8335 54.2626 22.5084C54.4917 22.1278 54.7839 21.7709 55.1315 21.422C55.479 21.0731 55.8818 20.7718 56.3478 20.5101C56.8139 20.2484 57.3431 20.0422 57.9275 19.8836C58.512 19.725 59.1755 19.6458 59.9101 19.6458C60.6446 19.6458 61.1581 19.7092 61.6557 19.8281C62.1533 19.9471 62.5719 20.0819 62.9036 20.2326C63.2354 20.3753 63.496 20.5101 63.6698 20.637C63.8436 20.7559 63.9462 20.8194 63.9699 20.8194C63.9936 20.8194 64.0331 20.7956 64.0963 20.7401C64.1595 20.6846 64.2227 20.629 64.2938 20.5577C64.3649 20.4863 64.4439 20.3991 64.5149 20.3039C64.586 20.2088 64.665 20.1136 64.7282 20.0105H64.9099V23.7534L64.7124 23.7692L64.7361 23.7772Z" fill="#BAA14F"/>
<path d="M78.3058 22.794C77.8476 22.2231 77.4211 21.7394 77.0104 21.3429C76.5997 20.9464 76.1969 20.6451 75.8098 20.4547C75.6203 20.3675 75.2806 20.2882 74.783 20.2248C74.2933 20.1613 73.7167 20.1296 73.0611 20.1296C72.4055 20.1296 72.8242 20.1296 72.6741 20.1376C72.5319 20.1376 72.3898 20.1455 72.2555 20.1534C72.1212 20.1534 71.9948 20.1613 71.8842 20.1693C71.7658 20.1693 71.6789 20.1772 71.6236 20.1772C71.6157 20.2406 71.5999 20.312 71.5841 20.3754C71.5683 20.4389 71.5525 20.5182 71.5446 20.6133C71.5367 20.7006 71.5209 20.8195 71.513 20.9543C71.5051 21.0971 71.4893 21.2636 71.4814 21.4618C71.4735 21.8504 71.4656 22.2786 71.4577 22.7385C71.4498 23.1984 71.4498 23.6425 71.4498 24.0469V25.6329H71.75C71.9237 25.6329 72.1212 25.6329 72.3424 25.617C72.5556 25.6091 72.7847 25.5932 73.0137 25.5774C73.2507 25.5615 73.4403 25.5377 73.5982 25.4981C74.0011 25.4108 74.317 25.2919 74.5461 25.1492C74.783 25.0064 74.9647 24.832 75.099 24.6337C75.2332 24.4355 75.328 24.2134 75.3833 23.9756C75.4386 23.7377 75.486 23.476 75.5334 23.1984H75.7308V28.5827H75.5334C75.4465 28.2259 75.3201 27.8532 75.1463 27.4567C74.9805 27.0602 74.783 26.7589 74.5461 26.5448C74.3328 26.3545 74.1116 26.2117 73.8747 26.1166C73.6377 26.0214 73.3534 25.9659 73.0374 25.9421C72.8716 25.9342 72.7294 25.9263 72.603 25.9183C72.4845 25.9183 72.3661 25.9104 72.2555 25.9104H71.4577V27.9801C71.4577 28.2893 71.4577 28.5748 71.4656 28.8444C71.4656 29.1061 71.4735 29.3281 71.4735 29.5185C71.4814 29.8753 71.5051 30.2163 71.5288 30.5335C71.5604 30.8507 71.6236 31.0886 71.7184 31.2471C71.8132 31.4057 71.9869 31.5247 72.2239 31.604C72.4608 31.6833 72.8084 31.7388 73.2665 31.7626V31.9291H67.9429V31.7626C68.2193 31.715 68.48 31.6436 68.7169 31.5485C68.9539 31.4454 69.1513 31.3106 69.3093 31.1282C69.3646 31.0648 69.412 30.9617 69.4436 30.8348C69.4752 30.7079 69.5068 30.5573 69.5384 30.3907C69.57 30.2242 69.5858 30.0498 69.5937 29.8674C69.6016 29.685 69.6095 29.5026 69.6095 29.3202C69.6095 29.1378 69.6095 28.9554 69.6174 28.6858C69.6174 28.4162 69.6253 28.1228 69.6332 27.8056C69.6332 27.4884 69.6411 27.1633 69.6411 26.8303V22.6037C69.6411 22.4055 69.6411 22.1993 69.6332 21.9852C69.6332 21.7711 69.6174 21.5728 69.6016 21.3825C69.5858 21.1922 69.5542 21.0257 69.5226 20.875C69.491 20.7244 69.4278 20.6133 69.3646 20.5499C69.1987 20.3754 69.0171 20.2565 68.8354 20.2089C68.6458 20.1613 68.401 20.1138 68.1008 20.0662V19.8997H77.3579L78.4874 22.7068L78.3216 22.7861L78.3058 22.794Z" fill="#BAA14F"/>
<path d="M91.5754 23.7772C91.4332 23.2459 91.212 22.7384 90.9277 22.2705C90.6354 21.8026 90.2958 21.3982 89.9009 21.0493C89.5059 20.7004 89.0636 20.4308 88.566 20.2326C88.0684 20.0343 87.5471 19.9312 86.9942 19.9312C86.4413 19.9312 85.5488 20.1057 84.9485 20.4467C84.3482 20.7956 83.8427 21.2476 83.4399 21.8185C83.037 22.3895 82.7211 23.0318 82.5078 23.7454C82.2946 24.4591 82.184 25.2045 82.184 25.9578C82.184 26.7112 82.2946 27.5121 82.5236 28.2178C82.7527 28.9236 83.0765 29.5262 83.4952 30.0496C83.9138 30.565 84.4272 30.9774 85.0275 31.2787C85.6278 31.58 86.2912 31.7307 87.0258 31.7307C87.7604 31.7307 88.1474 31.6276 88.645 31.4135C89.1505 31.1994 89.6007 30.9219 89.9957 30.5809C90.3906 30.232 90.7223 29.8355 90.9988 29.3835C91.2673 28.9315 91.4569 28.4716 91.5596 27.9879H91.757L91.7096 31.6673H91.5122C91.3779 31.477 91.2436 31.3025 91.0936 31.1518C90.9435 31.0012 90.8487 30.9139 90.7934 30.9139C90.7381 30.9139 90.6749 30.9695 90.4933 31.0884C90.3195 31.2073 90.0588 31.3342 89.7271 31.477C89.3954 31.6197 88.9925 31.7386 88.5107 31.8417C88.0368 31.9448 87.4839 32.0003 86.8599 32.0003C85.8252 32.0003 84.8932 31.8497 84.0638 31.5563C83.2345 31.2629 82.5236 30.8426 81.9391 30.3034C81.3546 29.7641 80.9123 29.1139 80.5964 28.3606C80.2883 27.6072 80.1304 26.7825 80.1304 25.8785C80.1304 24.9746 80.1462 25.4503 80.1699 25.1966C80.1936 24.9428 80.2488 24.6653 80.3199 24.3798C80.391 24.0943 80.4937 23.7851 80.6201 23.4679C80.7465 23.1507 80.9123 22.8335 81.1098 22.5084C81.3467 22.1278 81.6311 21.7709 81.9786 21.422C82.3262 21.0731 82.729 20.7718 83.195 20.5101C83.661 20.2484 84.1902 20.0422 84.7747 19.8836C85.3592 19.725 86.0227 19.6458 86.7573 19.6458C87.4918 19.6458 88.0052 19.7092 88.5028 19.8281C89.0004 19.9471 89.4191 20.0819 89.7508 20.2326C90.0825 20.3753 90.3432 20.5101 90.517 20.637C90.6907 20.7559 90.7934 20.8194 90.8171 20.8194C90.8408 20.8194 90.8803 20.7956 90.9435 20.7401C91.0067 20.6846 91.0699 20.629 91.1409 20.5577C91.212 20.4863 91.291 20.3991 91.3621 20.3039C91.4411 20.2088 91.5122 20.1136 91.5754 20.0105H91.757V23.7534L91.5596 23.7692L91.5754 23.7772Z" fill="#BAA14F"/>
<path d="M23.2062 15.231C17.6606 15.231 13.1689 19.7226 13.1689 25.2682C13.1689 30.8138 17.6606 35.3054 23.2062 35.3054C28.7518 35.3054 33.2434 30.8138 33.2434 25.2682C33.2434 19.7226 28.7518 15.231 23.2062 15.231ZM23.2062 34.9244C17.8714 34.9244 13.55 30.603 13.55 25.2682C13.55 19.9334 17.8795 15.6039 23.2062 15.6039C28.5329 15.6039 32.8624 19.9253 32.8624 25.2601C32.8624 30.5949 28.541 34.9163 23.2062 34.9163V34.9244Z" fill="#BAA14F"/>
<path d="M23.2062 14.6228C17.3281 14.6228 12.569 19.3901 12.569 25.26C12.569 31.1299 17.3363 35.8972 23.2062 35.8972C29.0761 35.8972 33.8434 31.1299 33.8434 25.26C33.8434 19.3901 29.0842 14.6228 23.2062 14.6228ZM23.2062 35.508C17.5471 35.508 12.9581 30.9191 12.9581 25.26C12.9581 19.6009 17.5471 15.012 23.2062 15.012C28.8653 15.012 33.4542 19.6009 33.4542 25.26C33.4542 30.9191 28.8653 35.508 23.2062 35.508Z" fill="#BAA14F"/>
<path d="M23.2465 26.1842C23.7883 26.1842 24.2275 25.745 24.2275 25.2032C24.2275 24.6614 23.7883 24.2222 23.2465 24.2222C22.7047 24.2222 22.2655 24.6614 22.2655 25.2032C22.2655 25.745 22.7047 26.1842 23.2465 26.1842Z" fill="#BAA14F"/>
<path d="M23.2466 23.9141C22.5331 23.9141 21.9656 24.4897 21.9656 25.1951C21.9656 25.9004 22.5412 26.4761 23.2466 26.4761C23.9519 26.4761 24.5276 25.9004 24.5276 25.1951C24.5276 24.4897 23.9519 23.9141 23.2466 23.9141ZM23.2466 26.4031C22.5818 26.4031 22.0467 25.868 22.0467 25.2032C22.0467 24.5383 22.5818 24.0032 23.2466 24.0032C23.9114 24.0032 24.4465 24.5383 24.4465 25.2032C24.4465 25.868 23.9114 26.4031 23.2466 26.4031Z" fill="#BAA14F"/>
<path d="M24.3738 18.855L23.5306 23.7683C23.4414 23.752 23.3522 23.7439 23.2631 23.7439C23.1739 23.7439 23.036 23.7602 22.9225 23.7845L22.1199 18.8631C22.1118 18.7983 22.1199 18.7415 22.1361 18.6848C22.2415 18.4253 22.5901 17.72 23.2631 17.72C23.936 17.72 24.2603 18.4253 24.3576 18.6848C24.3819 18.7415 24.3819 18.8064 24.3738 18.8631V18.855Z" fill="#BAA14F"/>
<path d="M25.7114 20.0064C24.8034 20.8171 24.2358 22.6089 23.9277 23.8575L24.9006 19.1064C24.9088 19.0578 24.9412 19.0253 24.9898 19.0091C25.5574 18.8389 25.7195 19.6496 25.752 19.8929C25.752 19.9334 25.7438 19.9821 25.7114 20.0064Z" fill="#BAA14F"/>
<path d="M21.5927 19.1064L22.5657 23.8575C22.2576 22.6089 21.69 20.8252 20.782 20.0064C20.7496 19.9821 20.7333 19.9334 20.7414 19.8929C20.7739 19.6496 20.936 18.8389 21.5036 19.0091C21.5522 19.0253 21.5846 19.0578 21.5927 19.1064Z" fill="#BAA14F"/>
<path d="M24.3738 31.6081L23.5306 26.6949C23.4414 26.7111 23.3522 26.7192 23.2631 26.7192C23.1739 26.7192 23.036 26.703 22.9225 26.6787L22.1199 31.6C22.1118 31.6649 22.1199 31.7217 22.1361 31.7784C22.2415 32.0379 22.5901 32.7432 23.2631 32.7432C23.936 32.7432 24.2603 32.0379 24.3576 31.7784C24.3819 31.7217 24.3819 31.6649 24.3738 31.6V31.6081Z" fill="#BAA14F"/>
<path d="M25.7114 30.4488C24.8034 29.638 24.2358 27.8462 23.9277 26.5977L24.9006 31.3487C24.9088 31.3974 24.9412 31.4298 24.9898 31.446C25.5574 31.6163 25.7195 30.8055 25.752 30.5623C25.752 30.5217 25.7438 30.4731 25.7114 30.4488Z" fill="#BAA14F"/>
<path d="M21.5927 31.3568L22.5657 26.6057C22.2576 27.8543 21.69 29.638 20.782 30.4568C20.7496 30.4893 20.7333 30.5298 20.7414 30.5703C20.7739 30.8136 20.936 31.6243 21.5036 31.4541C21.5522 31.4379 21.5846 31.4054 21.5927 31.3568Z" fill="#BAA14F"/>
<path d="M29.6274 26.3223L24.7223 25.4791C24.7385 25.3899 24.7466 25.3007 24.7466 25.2115C24.7466 25.1224 24.7304 24.9845 24.7061 24.871L29.6274 24.0684C29.6922 24.0603 29.749 24.0684 29.8058 24.0846C30.0652 24.19 30.7706 24.5386 30.7706 25.2115C30.7706 25.8845 30.0652 26.2088 29.8058 26.3061C29.749 26.3304 29.6841 26.3304 29.6274 26.3223Z" fill="#BAA14F"/>
<path d="M28.4761 27.668C27.6654 26.7599 25.8736 26.1924 24.625 25.8843L29.3761 26.8572C29.4247 26.8653 29.4571 26.8977 29.4734 26.9464C29.6436 27.5139 28.8329 27.6761 28.5896 27.7085C28.5491 27.7085 28.5004 27.7004 28.4761 27.668Z" fill="#BAA14F"/>
<path d="M29.3761 23.5494L24.625 24.5223C25.8736 24.2142 27.6573 23.6467 28.4761 22.7386C28.5086 22.7062 28.5491 22.69 28.5896 22.6981C28.8329 22.7305 29.6436 22.8927 29.4734 23.4602C29.4571 23.5089 29.4247 23.5413 29.3761 23.5494Z" fill="#BAA14F"/>
<path d="M16.874 26.3223L21.7791 25.4791C21.7629 25.3899 21.7548 25.3007 21.7548 25.2115C21.7548 25.1224 21.771 24.9845 21.7953 24.871L16.874 24.0684C16.8091 24.0603 16.7524 24.0684 16.6956 24.0846C16.4362 24.19 15.7308 24.5386 15.7308 25.2115C15.7308 25.8845 16.4362 26.2088 16.6956 26.3061C16.7524 26.3304 16.8091 26.3304 16.874 26.3223Z" fill="#BAA14F"/>
<path d="M18.0335 27.668C18.8442 26.7599 20.636 26.1924 21.8846 25.8843L17.1335 26.8572C17.0849 26.8653 17.0524 26.8977 17.0362 26.9464C16.866 27.5139 17.6767 27.6761 17.92 27.7085C17.9605 27.7085 18.001 27.7004 18.0335 27.668Z" fill="#BAA14F"/>
<path d="M17.1253 23.5494L21.8764 24.5223C20.6278 24.2142 18.8442 23.6467 18.0253 22.7386C17.9929 22.7062 17.9523 22.69 17.9118 22.6981C17.6686 22.7305 16.8578 22.8927 17.0281 23.4602C17.0443 23.5089 17.0767 23.5413 17.1253 23.5494Z" fill="#BAA14F"/>
<path d="M17.6053 138.11H17.1453L17.2053 136.96L16.2353 137.58L16.0153 137.19L17.0353 136.67L16.0153 136.15L16.2353 135.75L17.2053 136.38L17.1453 135.23H17.6053L17.5453 136.38L18.5053 135.75L18.7353 136.15L17.7153 136.67L18.7353 137.19L18.5053 137.58L17.5453 136.96L17.6053 138.11ZM21.0037 138.11H20.5437L20.6037 136.96L19.6337 137.58L19.4137 137.19L20.4337 136.67L19.4137 136.15L19.6337 135.75L20.6037 136.38L20.5437 135.23H21.0037L20.9437 136.38L21.9037 135.75L22.1337 136.15L21.1137 136.67L22.1337 137.19L21.9037 137.58L20.9437 136.96L21.0037 138.11ZM24.4022 138.11H23.9422L24.0022 136.96L23.0322 137.58L22.8122 137.19L23.8322 136.67L22.8122 136.15L23.0322 135.75L24.0022 136.38L23.9422 135.23H24.4022L24.3422 136.38L25.3022 135.75L25.5322 136.15L24.5122 136.67L25.5322 137.19L25.3022 137.58L24.3422 136.96L24.4022 138.11ZM27.8006 138.11H27.3406L27.4006 136.96L26.4306 137.58L26.2106 137.19L27.2306 136.67L26.2106 136.15L26.4306 135.75L27.4006 136.38L27.3406 135.23H27.8006L27.7406 136.38L28.7006 135.75L28.9306 136.15L27.9106 136.67L28.9306 137.19L28.7006 137.58L27.7406 136.96L27.8006 138.11ZM33.7869 138.11H33.3269L33.3869 136.96L32.4169 137.58L32.1969 137.19L33.2169 136.67L32.1969 136.15L32.4169 135.75L33.3869 136.38L33.3269 135.23H33.7869L33.7269 136.38L34.6869 135.75L34.9169 136.15L33.8969 136.67L34.9169 137.19L34.6869 137.58L33.7269 136.96L33.7869 138.11ZM37.1854 138.11H36.7254L36.7854 136.96L35.8154 137.58L35.5954 137.19L36.6154 136.67L35.5954 136.15L35.8154 135.75L36.7854 136.38L36.7254 135.23H37.1854L37.1254 136.38L38.0854 135.75L38.3154 136.15L37.2954 136.67L38.3154 137.19L38.0854 137.58L37.1254 136.96L37.1854 138.11ZM40.5838 138.11H40.1238L40.1838 136.96L39.2138 137.58L38.9938 137.19L40.0138 136.67L38.9938 136.15L39.2138 135.75L40.1838 136.38L40.1238 135.23H40.5838L40.5238 136.38L41.4838 135.75L41.7138 136.15L40.6938 136.67L41.7138 137.19L41.4838 137.58L40.5238 136.96L40.5838 138.11ZM43.9822 138.11H43.5222L43.5822 136.96L42.6122 137.58L42.3922 137.19L43.4122 136.67L42.3922 136.15L42.6122 135.75L43.5822 136.38L43.5222 135.23H43.9822L43.9222 136.38L44.8822 135.75L45.1122 136.15L44.0922 136.67L45.1122 137.19L44.8822 137.58L43.9222 136.96L43.9822 138.11ZM49.9686 138.11H49.5086L49.5686 136.96L48.5986 137.58L48.3786 137.19L49.3986 136.67L48.3786 136.15L48.5986 135.75L49.5686 136.38L49.5086 135.23H49.9686L49.9086 136.38L50.8686 135.75L51.0986 136.15L50.0786 136.67L51.0986 137.19L50.8686 137.58L49.9086 136.96L49.9686 138.11ZM53.367 138.11H52.907L52.967 136.96L51.997 137.58L51.777 137.19L52.797 136.67L51.777 136.15L51.997 135.75L52.967 136.38L52.907 135.23H53.367L53.307 136.38L54.267 135.75L54.497 136.15L53.477 136.67L54.497 137.19L54.267 137.58L53.307 136.96L53.367 138.11ZM56.7654 138.11H56.3054L56.3654 136.96L55.3954 137.58L55.1754 137.19L56.1954 136.67L55.1754 136.15L55.3954 135.75L56.3654 136.38L56.3054 135.23H56.7654L56.7054 136.38L57.6654 135.75L57.8954 136.15L56.8754 136.67L57.8954 137.19L57.6654 137.58L56.7054 136.96L56.7654 138.11ZM65.9418 142H61.3618V141.33C63.7618 139.45 65.0718 138.34 65.0718 137.19C65.0718 136.33 64.3618 135.97 63.6718 135.97C62.8718 135.97 62.2518 136.31 61.8618 136.81L61.3518 136.28C61.8618 135.6 62.7318 135.23 63.6718 135.23C64.7818 135.23 65.9118 135.86 65.9118 137.19C65.9118 138.55 64.5318 139.79 62.6718 141.26H65.9418V142ZM71.0207 142H70.1907V140.31H67.0207V139.62L69.8807 135.33H71.0207V139.58H71.9607V140.31H71.0207V142ZM70.1907 139.58V136.1L67.8507 139.58H70.1907ZM77.3969 142H72.8169V141.33C75.2169 139.45 76.5269 138.34 76.5269 137.19C76.5269 136.33 75.8169 135.97 75.1269 135.97C74.3269 135.97 73.7069 136.31 73.3169 136.81L72.8069 136.28C73.3169 135.6 74.1869 135.23 75.1269 135.23C76.2369 135.23 77.3669 135.86 77.3669 137.19C77.3669 138.55 75.9869 139.79 74.1269 141.26H77.3969V142ZM83.2758 142H78.6958V141.33C81.0958 139.45 82.4058 138.34 82.4058 137.19C82.4058 136.33 81.6958 135.97 81.0058 135.97C80.2058 135.97 79.5858 136.31 79.1958 136.81L78.6858 136.28C79.1958 135.6 80.0658 135.23 81.0058 135.23C82.1158 135.23 83.2458 135.86 83.2458 137.19C83.2458 138.55 81.8658 139.79 80.0058 141.26H83.2758V142Z" fill="#AD9696"/>
<path d="M24.8433 157H23.4393V150.82L20.9913 157H20.3913L17.9313 150.82V157H16.5273V148.996H18.5073L20.6913 154.492L22.8633 148.996H24.8433V157ZM27.1468 150.496C26.7148 150.496 26.3668 150.148 26.3668 149.716C26.3668 149.284 26.7148 148.936 27.1468 148.936C27.5788 148.936 27.9268 149.284 27.9268 149.716C27.9268 150.148 27.5788 150.496 27.1468 150.496ZM27.7708 157H26.5108V151.204H27.7708V157ZM32.0454 157.144C30.2934 157.144 29.0574 155.848 29.0574 154.096C29.0574 152.344 30.2934 151.06 32.0454 151.06C33.1854 151.06 33.8574 151.54 34.2654 152.092L33.4374 152.848C33.1134 152.392 32.6694 152.176 32.1054 152.176C31.0614 152.176 30.3534 152.968 30.3534 154.096C30.3534 155.224 31.0614 156.028 32.1054 156.028C32.6694 156.028 33.1134 155.788 33.4374 155.332L34.2654 156.112C33.8574 156.652 33.1854 157.144 32.0454 157.144ZM40.5659 157H39.3059V153.352C39.3059 152.44 38.8499 152.176 38.1419 152.176C37.4939 152.176 36.9419 152.56 36.6539 152.944V157H35.3939V148.996H36.6539V151.984C37.0379 151.528 37.7819 151.06 38.6939 151.06C39.9419 151.06 40.5659 151.708 40.5659 152.896V157ZM44.8902 157.144C43.1382 157.144 41.8542 155.932 41.8542 154.096C41.8542 152.416 43.0782 151.06 44.7942 151.06C46.5342 151.06 47.6382 152.38 47.6382 154.204V154.516H43.1742C43.2702 155.38 43.9182 156.112 45.0102 156.112C45.5862 156.112 46.2462 155.884 46.6662 155.464L47.2422 156.292C46.6542 156.844 45.8022 157.144 44.8902 157.144ZM46.4262 153.616C46.3902 152.932 45.9222 152.092 44.7822 152.092C43.7142 152.092 43.2102 152.92 43.1622 153.616H46.4262ZM53.6939 157H52.4339V156.364C52.0019 156.868 51.3179 157.144 50.5499 157.144C49.6139 157.144 48.5459 156.496 48.5459 155.224C48.5459 153.88 49.6019 153.328 50.5499 153.328C51.3419 153.328 52.0019 153.58 52.4339 154.072V153.208C52.4339 152.536 51.8699 152.128 51.0779 152.128C50.4299 152.128 49.8539 152.368 49.3619 152.872L48.8339 151.996C49.5059 151.348 50.3459 151.06 51.2699 151.06C52.5659 151.06 53.6939 151.6 53.6939 153.148V157ZM51.0539 156.28C51.5939 156.28 52.1339 156.076 52.4339 155.68V154.792C52.1339 154.396 51.5939 154.192 51.0539 154.192C50.3459 154.192 49.8059 154.612 49.8059 155.236C49.8059 155.872 50.3459 156.28 51.0539 156.28ZM56.5872 157H55.3272V148.996H56.5872V157ZM64.0995 157.144C62.6235 157.144 61.5555 156.616 60.8355 155.872L61.6275 154.78C62.1675 155.368 63.0435 155.896 64.1595 155.896C65.3115 155.896 65.7555 155.332 65.7555 154.792C65.7555 153.112 61.0995 154.156 61.0995 151.216C61.0995 149.884 62.2515 148.864 64.0155 148.864C65.2515 148.864 66.2715 149.272 67.0035 149.992L66.2115 151.036C65.5755 150.4 64.7235 150.112 63.8835 150.112C63.0675 150.112 62.5395 150.52 62.5395 151.108C62.5395 152.608 67.1955 151.684 67.1955 154.66C67.1955 155.992 66.2475 157.144 64.0995 157.144ZM73.6125 157H72.3525V156.232C71.9445 156.688 71.2245 157.144 70.3125 157.144C69.0645 157.144 68.4405 156.484 68.4405 155.308V151.204H69.7005V154.84C69.7005 155.74 70.1565 156.028 70.8765 156.028C71.5125 156.028 72.0645 155.656 72.3525 155.272V151.204H73.6125V157ZM76.5091 157H75.2491V151.204H76.5091V152.044C76.9531 151.492 77.6491 151.06 78.3931 151.06V152.308C78.2851 152.284 78.1651 152.272 78.0091 152.272C77.4691 152.272 76.7611 152.632 76.5091 153.052V157Z" fill="#BFBFBF"/>
<path d="M111.825 142H107.455V135.33H111.825V136.07H108.285V138.22H111.755V138.96H108.285V141.26H111.825V142ZM117.119 142H116.259L114.799 140.02L113.349 142H112.489L114.339 139.52L112.589 137.17H113.459L114.799 139.01L116.149 137.17H117.009L115.259 139.52L117.119 142ZM120.372 142.12C119.712 142.12 119.142 141.8 118.742 141.27V143.84H117.992V137.17H118.742V137.89C119.092 137.4 119.692 137.05 120.372 137.05C121.642 137.05 122.522 138.01 122.522 139.58C122.522 141.14 121.642 142.12 120.372 142.12ZM120.182 141.45C121.152 141.45 121.732 140.65 121.732 139.58C121.732 138.51 121.152 137.72 120.182 137.72C119.592 137.72 119.002 138.07 118.742 138.49V140.67C119.002 141.09 119.592 141.45 120.182 141.45ZM124.046 142.1C123.746 142.1 123.496 141.85 123.496 141.55C123.496 141.25 123.746 141 124.046 141C124.346 141 124.596 141.25 124.596 141.55C124.596 141.85 124.346 142.1 124.046 142.1ZM130.858 142H128.578V135.33H130.858C132.938 135.33 134.278 136.78 134.278 138.67C134.278 140.57 132.938 142 130.858 142ZM130.858 141.26C132.478 141.26 133.418 140.1 133.418 138.67C133.418 137.23 132.508 136.07 130.858 136.07H129.408V141.26H130.858ZM139.32 142H138.57V141.45C138.18 141.89 137.62 142.12 136.97 142.12C136.16 142.12 135.29 141.57 135.29 140.52C135.29 139.43 136.15 138.93 136.97 138.93C137.63 138.93 138.18 139.14 138.57 139.58V138.71C138.57 138.07 138.05 137.7 137.35 137.7C136.77 137.7 136.3 137.9 135.87 138.37L135.52 137.85C136.04 137.31 136.66 137.05 137.45 137.05C138.48 137.05 139.32 137.51 139.32 138.68V142ZM137.25 141.58C137.77 141.58 138.28 141.38 138.57 140.98V140.06C138.28 139.67 137.77 139.47 137.25 139.47C136.54 139.47 136.05 139.91 136.05 140.52C136.05 141.14 136.54 141.58 137.25 141.58ZM142.063 142.12C141.343 142.12 140.983 141.71 140.983 140.99V137.83H140.183V137.17H140.983V135.85H141.743V137.17H142.723V137.83H141.743V140.83C141.743 141.19 141.903 141.45 142.223 141.45C142.443 141.45 142.633 141.35 142.733 141.24L142.953 141.81C142.763 141.99 142.493 142.12 142.063 142.12ZM145.963 142.12C144.523 142.12 143.493 141.09 143.493 139.58C143.493 138.18 144.493 137.05 145.873 137.05C147.333 137.05 148.193 138.19 148.193 139.64V139.83H144.293C144.353 140.74 144.983 141.5 146.023 141.5C146.583 141.5 147.133 141.28 147.523 140.88L147.883 141.37C147.393 141.85 146.743 142.12 145.963 142.12ZM147.453 139.27C147.443 138.56 146.963 137.67 145.863 137.67C144.833 137.67 144.323 138.54 144.283 139.27H147.453Z" fill="#AD9696"/>
<path d="M109.886 157.099C109.417 157.099 108.999 157.019 108.632 156.858C108.267 156.697 107.977 156.473 107.762 156.187C107.549 155.898 107.433 155.563 107.414 155.182H108.309C108.328 155.416 108.408 155.619 108.55 155.789C108.692 155.957 108.878 156.087 109.108 156.18C109.337 156.272 109.592 156.318 109.871 156.318C110.184 156.318 110.461 156.264 110.702 156.155C110.944 156.046 111.133 155.894 111.27 155.7C111.408 155.506 111.476 155.281 111.476 155.026C111.476 154.758 111.41 154.522 111.278 154.319C111.145 154.113 110.951 153.952 110.695 153.836C110.439 153.72 110.127 153.662 109.758 153.662H109.175V152.881H109.758C110.047 152.881 110.3 152.829 110.518 152.724C110.738 152.62 110.909 152.473 111.033 152.284C111.158 152.095 111.221 151.872 111.221 151.616C111.221 151.37 111.166 151.156 111.057 150.974C110.948 150.791 110.795 150.649 110.596 150.548C110.399 150.446 110.167 150.395 109.9 150.395C109.649 150.395 109.412 150.441 109.189 150.533C108.969 150.623 108.789 150.755 108.65 150.928C108.51 151.098 108.434 151.304 108.422 151.545H107.57C107.584 151.164 107.699 150.83 107.915 150.544C108.13 150.255 108.412 150.03 108.76 149.869C109.11 149.708 109.495 149.628 109.914 149.628C110.364 149.628 110.75 149.719 111.072 149.901C111.394 150.081 111.641 150.319 111.814 150.615C111.987 150.911 112.073 151.231 112.073 151.574C112.073 151.983 111.965 152.333 111.75 152.621C111.537 152.91 111.247 153.11 110.88 153.222V153.278C111.339 153.354 111.698 153.549 111.956 153.864C112.214 154.177 112.343 154.564 112.343 155.026C112.343 155.421 112.235 155.776 112.02 156.091C111.807 156.403 111.515 156.65 111.146 156.83C110.777 157.009 110.357 157.099 109.886 157.099ZM116.167 157.099C115.632 157.099 115.177 156.954 114.8 156.663C114.424 156.369 114.136 155.944 113.937 155.388C113.739 154.829 113.639 154.154 113.639 153.364C113.639 152.578 113.739 151.906 113.937 151.35C114.139 150.791 114.427 150.365 114.804 150.072C115.183 149.776 115.637 149.628 116.167 149.628C116.698 149.628 117.151 149.776 117.528 150.072C117.906 150.365 118.195 150.791 118.394 151.35C118.595 151.906 118.696 152.578 118.696 153.364C118.696 154.154 118.596 154.829 118.398 155.388C118.199 155.944 117.911 156.369 117.535 156.663C117.158 156.954 116.703 157.099 116.167 157.099ZM116.167 156.318C116.698 156.318 117.11 156.062 117.403 155.551C117.697 155.04 117.844 154.311 117.844 153.364C117.844 152.734 117.776 152.198 117.641 151.755C117.509 151.312 117.317 150.975 117.066 150.743C116.817 150.511 116.518 150.395 116.167 150.395C115.642 150.395 115.231 150.654 114.935 151.173C114.639 151.689 114.491 152.419 114.491 153.364C114.491 153.993 114.558 154.528 114.69 154.969C114.823 155.409 115.013 155.744 115.262 155.974C115.513 156.203 115.815 156.318 116.167 156.318ZM122.631 149.386L120.287 158.094H119.52L121.864 149.386H122.631ZM126.067 157.099C125.598 157.099 125.181 157.019 124.814 156.858C124.449 156.697 124.159 156.473 123.944 156.187C123.731 155.898 123.615 155.563 123.596 155.182H124.49C124.509 155.416 124.59 155.619 124.732 155.789C124.874 155.957 125.06 156.087 125.289 156.18C125.519 156.272 125.774 156.318 126.053 156.318C126.365 156.318 126.642 156.264 126.884 156.155C127.125 156.046 127.315 155.894 127.452 155.7C127.589 155.506 127.658 155.281 127.658 155.026C127.658 154.758 127.592 154.522 127.459 154.319C127.327 154.113 127.133 153.952 126.877 153.836C126.621 153.72 126.309 153.662 125.939 153.662H125.357V152.881H125.939C126.228 152.881 126.481 152.829 126.699 152.724C126.919 152.62 127.091 152.473 127.214 152.284C127.34 152.095 127.402 151.872 127.402 151.616C127.402 151.37 127.348 151.156 127.239 150.974C127.13 150.791 126.976 150.649 126.777 150.548C126.581 150.446 126.349 150.395 126.081 150.395C125.83 150.395 125.594 150.441 125.371 150.533C125.151 150.623 124.971 150.755 124.831 150.928C124.692 151.098 124.616 151.304 124.604 151.545H123.752C123.766 151.164 123.881 150.83 124.096 150.544C124.312 150.255 124.593 150.03 124.941 149.869C125.292 149.708 125.677 149.628 126.096 149.628C126.545 149.628 126.931 149.719 127.253 149.901C127.575 150.081 127.823 150.319 127.995 150.615C128.168 150.911 128.255 151.231 128.255 151.574C128.255 151.983 128.147 152.333 127.932 152.621C127.718 152.91 127.428 153.11 127.061 153.222V153.278C127.521 153.354 127.879 153.549 128.137 153.864C128.396 154.177 128.525 154.564 128.525 155.026C128.525 155.421 128.417 155.776 128.201 156.091C127.988 156.403 127.697 156.65 127.328 156.83C126.958 157.009 126.538 157.099 126.067 157.099ZM132.349 157.099C131.814 157.099 131.358 156.954 130.982 156.663C130.606 156.369 130.318 155.944 130.119 155.388C129.92 154.829 129.821 154.154 129.821 153.364C129.821 152.578 129.92 151.906 130.119 151.35C130.32 150.791 130.609 150.365 130.985 150.072C131.364 149.776 131.819 149.628 132.349 149.628C132.879 149.628 133.333 149.776 133.709 150.072C134.088 150.365 134.377 150.791 134.576 151.35C134.777 151.906 134.878 152.578 134.878 153.364C134.878 154.154 134.778 154.829 134.579 155.388C134.38 155.944 134.093 156.369 133.716 156.663C133.34 156.954 132.884 157.099 132.349 157.099ZM132.349 156.318C132.879 156.318 133.291 156.062 133.585 155.551C133.878 155.04 134.025 154.311 134.025 153.364C134.025 152.734 133.958 152.198 133.823 151.755C133.69 151.312 133.499 150.975 133.248 150.743C132.999 150.511 132.7 150.395 132.349 150.395C131.824 150.395 131.413 150.654 131.117 151.173C130.821 151.689 130.673 152.419 130.673 153.364C130.673 153.993 130.739 154.528 130.872 154.969C131.004 155.409 131.195 155.744 131.444 155.974C131.695 156.203 131.996 156.318 132.349 156.318Z" fill="#BFBFBF"/>
<path d="M265.79 32.9999C265.37 32.8299 265.07 32.4499 265 31.9999C264.95 31.7399 265 31.5599 265.4 30.8399C266.9 28.1399 267.67 25.0899 267.63 21.9999C267.67 18.9999 266.94 16.0699 265.5 13.4399C265.29 12.9999 265.1 12.5799 264.94 12.1299C265 11.7499 265.19 11.3999 265.5 11.1899C265.95 10.9499 266.5 10.9999 266.91 11.2799C267.19 11.6399 267.43 11.9999 267.63 12.4199C268.706 14.4808 269.439 16.7032 269.8 18.9999C270.03 20.8099 270.06 22.6499 269.89 24.4699C269.58 26.8099 268.89 29.0699 267.83 31.1799C267.19 32.4599 266.83 32.9999 266.45 32.9999H265.79ZM261.43 30.7899C260.86 30.6299 260.5 30.0499 260.62 29.4699C260.62 29.3499 260.93 28.7999 261.21 28.2399C262.39 25.9699 262.9 23.4099 262.67 20.8599C262.53 19.0299 262 17.2499 261.13 15.6399C260.5 14.3799 260.46 14.1799 260.83 13.6399C261.27 13.1499 262 13.0799 262.54 13.4999C263.26 14.5599 263.83 15.7199 264.25 16.9399C265.53 20.7299 265.33 24.8599 263.69 28.4999C262.85 30.3899 262.26 30.9999 261.43 30.7399V30.7899ZM256.93 28.5599C256.752 28.48 256.594 28.3613 256.468 28.2125C256.341 28.0637 256.25 27.8886 256.2 27.6999C256.2 27.4999 256.2 27.2399 256.65 26.4399C257.383 25.1107 257.767 23.6177 257.767 22.0999C257.767 20.5821 257.383 19.0891 256.65 17.7599C256 16.4999 256 16.2399 256.53 15.7599C256.72 15.5399 257 15.4299 257.3 15.4699C257.94 15.4699 258.3 15.7799 258.84 16.9099C259.691 18.4708 260.131 20.2222 260.12 21.9999C260.16 23.8099 259.72 25.6099 258.85 27.1999C258.31 28.2499 258.04 28.4999 257.5 28.5899C257.31 28.6099 257.11 28.5899 256.93 28.4999V28.5599ZM252.72 26.4299C252.39 26.2699 252.13 25.9999 252 25.6499C251.9 25.2999 252 24.9999 252.4 24.3599C252.9 23.6799 253.14 22.8399 253.09 21.9999C253.16 21.1499 252.93 20.3099 252.44 19.6099C252.274 19.358 252.127 19.0939 252 18.8199C251.89 18.1899 252.31 17.5899 253 17.4699C253.54 17.3699 253.92 17.5999 254.42 18.3599C255.129 19.4395 255.507 20.7031 255.507 21.9949C255.507 23.2867 255.129 24.5503 254.42 25.6299C253.91 26.3999 253.33 26.6299 252.73 26.4299H252.72Z" fill="#BAA14F"/>
<path d="M246.487 134.91H232.268V160.451H246.487V134.91Z" fill="#FF5F00"/>
<path d="M233.171 147.675C233.171 142.712 235.471 137.972 239.354 134.91C232.315 129.361 222.073 130.581 216.523 137.667C211.021 144.706 212.241 154.902 219.316 160.451C225.229 165.097 233.488 165.097 239.401 160.451C235.471 157.377 233.171 152.649 233.171 147.686V147.675Z" fill="#EB001B"/>
<path d="M265.658 147.675C265.658 156.65 258.396 163.924 249.409 163.924C245.748 163.924 242.229 162.704 239.389 160.451C246.429 154.902 247.649 144.706 242.1 137.62C241.29 136.623 240.387 135.684 239.389 134.91C246.429 129.361 256.671 130.581 262.174 137.667C264.426 140.506 265.646 144.026 265.646 147.686L265.658 147.675Z" fill="#F79E1B"/>
<defs>
<linearGradient id="paint0_linear_23_1297" x1="68" y1="71.0588" x2="32.8318" y2="97.7335" gradientUnits="userSpaceOnUse">
<stop stop-color="#D9C59F"/>
<stop offset="0.503106" stop-color="#FEF4E4"/>
<stop offset="1" stop-color="#DCC8A3"/>
</linearGradient>
<radialGradient id="paint1_radial_23_1297" cx="0" cy="0" r="1" gradientTransform="matrix(-34 18.3529 -18.2878 -26.9661 64 75.6471)" gradientUnits="userSpaceOnUse">
<stop stop-color="#F8F3E0"/>
<stop offset="0.150538" stop-color="#DECDAB"/>
<stop offset="0.644611" stop-color="#DAC7A3"/>
<stop offset="0.814742" stop-color="#FBF8E7"/>
<stop offset="1" stop-color="#B8A77F"/>
</radialGradient>
<clipPath id="clip0_23_1297">
<rect width="283.476" height="179" fill="white"/>
</clipPath>
</defs>
</svg>
