<svg width="369" height="145" viewBox="0 0 369 145" fill="none" xmlns="http://www.w3.org/2000/svg">
<path opacity="0.5" d="M132.868 33V24.446H129.816V23.06H137.432V24.446H134.38V33H132.868ZM142.295 33.224C141.334 33.224 140.508 33.0187 139.817 32.608C139.126 32.188 138.594 31.5907 138.221 30.816C137.848 30.0413 137.661 29.1173 137.661 28.044C137.661 26.9707 137.848 26.0467 138.221 25.272C138.594 24.488 139.126 23.886 139.817 23.466C140.508 23.046 141.334 22.836 142.295 22.836C143.266 22.836 144.096 23.046 144.787 23.466C145.487 23.886 146.019 24.488 146.383 25.272C146.756 26.0467 146.943 26.9707 146.943 28.044C146.943 29.1173 146.756 30.0413 146.383 30.816C146.019 31.5907 145.487 32.188 144.787 32.608C144.096 33.0187 143.266 33.224 142.295 33.224ZM142.295 31.838C142.939 31.838 143.49 31.6887 143.947 31.39C144.414 31.0913 144.768 30.662 145.011 30.102C145.254 29.5327 145.375 28.8467 145.375 28.044C145.375 27.2413 145.254 26.5553 145.011 25.986C144.768 25.4167 144.414 24.9827 143.947 24.684C143.49 24.376 142.939 24.222 142.295 24.222C141.66 24.222 141.114 24.376 140.657 24.684C140.2 24.9827 139.845 25.4167 139.593 25.986C139.35 26.5553 139.229 27.2413 139.229 28.044C139.229 28.8467 139.35 29.5327 139.593 30.102C139.845 30.662 140.2 31.0913 140.657 31.39C141.114 31.6887 141.66 31.838 142.295 31.838ZM150.218 33V24.446H147.166V23.06H154.782V24.446H151.73V33H150.218ZM153.936 33L157.52 23.06H159.438L163.022 33H161.412L160.502 30.41H156.442L155.546 33H153.936ZM156.918 29.038H160.04L158.472 24.502L156.918 29.038ZM164.294 33V23.06H165.806V32.44L165.008 31.614H170.65V33H164.294ZM175.86 33V23.06H179.43C180.625 23.06 181.526 23.2747 182.132 23.704C182.739 24.1333 183.042 24.8147 183.042 25.748C183.042 26.168 182.954 26.5367 182.776 26.854C182.599 27.1713 182.338 27.4233 181.992 27.61C181.656 27.7873 181.255 27.8807 180.788 27.89L180.774 27.834C181.624 27.8527 182.282 28.086 182.748 28.534C183.224 28.9727 183.462 29.5513 183.462 30.27C183.462 31.1753 183.159 31.8567 182.552 32.314C181.946 32.7713 181.082 33 179.962 33H175.86ZM177.372 31.642H179.92C180.546 31.642 181.031 31.516 181.376 31.264C181.731 31.0027 181.908 30.6247 181.908 30.13C181.908 29.6447 181.731 29.2667 181.376 28.996C181.031 28.7253 180.546 28.59 179.92 28.59H177.372V31.642ZM177.372 27.302H179.402C180.065 27.302 180.578 27.176 180.942 26.924C181.306 26.672 181.488 26.3173 181.488 25.86C181.488 25.3747 181.311 25.0153 180.956 24.782C180.611 24.5393 180.093 24.418 179.402 24.418H177.372V27.302ZM184.26 33L187.844 23.06H189.762L193.346 33H191.736L190.826 30.41H186.766L185.87 33H184.26ZM187.242 29.038H190.364L188.796 24.502L187.242 29.038ZM194.618 33V23.06H196.13V32.44L195.332 31.614H200.974V33H194.618ZM201.583 33L205.167 23.06H207.085L210.669 33H209.059L208.149 30.41H204.089L203.193 33H201.583ZM204.565 29.038H207.687L206.119 24.502L204.565 29.038ZM211.858 33V23.06H213.776L218.368 31.166V23.06H219.88V33H217.892L213.37 25.076V33H211.858ZM226.033 33.224C225.137 33.224 224.348 33.0187 223.667 32.608C222.986 32.188 222.454 31.5907 222.071 30.816C221.688 30.0413 221.497 29.1173 221.497 28.044C221.497 26.98 221.684 26.0607 222.057 25.286C222.44 24.502 222.972 23.9 223.653 23.48C224.334 23.0507 225.132 22.836 226.047 22.836C227.279 22.836 228.236 23.144 228.917 23.76C229.598 24.376 230.042 25.23 230.247 26.322L228.665 26.406C228.534 25.7247 228.254 25.1927 227.825 24.81C227.396 24.418 226.803 24.222 226.047 24.222C225.44 24.222 224.913 24.376 224.465 24.684C224.026 24.992 223.681 25.4307 223.429 26C223.186 26.5693 223.065 27.2507 223.065 28.044C223.065 28.8373 223.186 29.5187 223.429 30.088C223.681 30.6573 224.031 31.0913 224.479 31.39C224.927 31.6887 225.445 31.838 226.033 31.838C226.836 31.838 227.456 31.628 227.895 31.208C228.343 30.7787 228.623 30.1907 228.735 29.444L230.317 29.528C230.196 30.284 229.953 30.9373 229.589 31.488C229.225 32.0387 228.744 32.468 228.147 32.776C227.55 33.0747 226.845 33.224 226.033 33.224ZM232.024 33V23.06H238.492V24.446H233.536V27.344H238.324V28.688H233.536V31.614H238.604V33H232.024Z" fill="#5D0615"/>
<path d="M105.239 90.612C103.103 90.612 101.303 90.144 99.8387 89.208C98.3747 88.272 97.2107 87.012 96.3467 85.428C95.5067 83.844 94.9547 82.104 94.6907 80.208H91.2347L91.3787 78.624H94.5107C94.4867 78.384 94.4747 78.144 94.4747 77.904C94.4747 77.664 94.4747 77.424 94.4747 77.184C94.4747 76.896 94.4747 76.62 94.4747 76.356C94.4747 76.068 94.4867 75.792 94.5107 75.528H91.7387L91.8827 73.944H94.7267C95.0627 71.832 95.6987 70.032 96.6347 68.544C97.5947 67.056 98.7827 65.916 100.199 65.124C101.639 64.332 103.211 63.936 104.915 63.936C106.259 63.936 107.399 64.116 108.335 64.476C109.271 64.836 110.039 65.304 110.639 65.88L110.999 63.9H112.259L113.375 70.596L111.971 70.956C111.467 69.66 110.891 68.616 110.243 67.824C109.619 67.008 108.887 66.408 108.047 66.024C107.231 65.64 106.271 65.448 105.167 65.448C103.103 65.448 101.531 66.18 100.451 67.644C99.3947 69.108 98.7347 71.208 98.4707 73.944H106.751L106.607 75.528H98.3627C98.3387 75.792 98.3267 76.056 98.3267 76.32C98.3267 76.584 98.3267 76.86 98.3267 77.148C98.3267 77.388 98.3267 77.64 98.3267 77.904C98.3267 78.144 98.3387 78.384 98.3627 78.624H106.247L106.103 80.208H98.5067C98.7227 82.224 99.1547 83.892 99.8027 85.212C100.451 86.532 101.255 87.516 102.215 88.164C103.175 88.788 104.219 89.1 105.347 89.1C106.475 89.1 107.459 88.872 108.299 88.416C109.139 87.96 109.847 87.324 110.423 86.508C111.023 85.692 111.515 84.732 111.899 83.628L113.303 83.916L112.223 90.648H110.999L110.603 88.596C110.315 88.932 109.895 89.256 109.343 89.568C108.815 89.856 108.191 90.096 107.471 90.288C106.775 90.504 106.031 90.612 105.239 90.612ZM122.76 90V88.812L126 88.344C126.504 88.248 126.828 88.068 126.972 87.804C127.116 87.516 127.188 87.108 127.188 86.58V83.772H116.28L116.028 82.332L127.26 64.62L130.356 64.08L130.752 64.404V81.828H134.676V83.772H130.752V86.688C130.752 87.216 130.824 87.612 130.968 87.876C131.112 88.14 131.448 88.308 131.976 88.38L134.028 88.668V90H122.76ZM118.404 81.828H127.188V68.076H127.116L118.404 81.828ZM142.729 90V88.812L145.969 88.344C146.473 88.248 146.797 88.068 146.941 87.804C147.085 87.516 147.157 87.108 147.157 86.58V83.772H136.249L135.997 82.332L147.229 64.62L150.325 64.08L150.721 64.404V81.828H154.645V83.772H150.721V86.688C150.721 87.216 150.793 87.612 150.937 87.876C151.081 88.14 151.417 88.308 151.945 88.38L153.997 88.668V90H142.729ZM138.373 81.828H147.157V68.076H147.085L138.373 81.828ZM159.566 96.048L158.738 94.968C159.482 94.368 160.082 93.792 160.538 93.24C160.994 92.688 161.318 92.136 161.51 91.584C161.726 91.056 161.846 90.528 161.87 90H161.042C160.466 90 159.998 89.916 159.638 89.748C159.302 89.58 159.05 89.352 158.882 89.064C158.714 88.752 158.63 88.38 158.63 87.948C158.63 87.228 158.87 86.628 159.35 86.148C159.83 85.644 160.454 85.392 161.222 85.392C162.254 85.392 162.998 85.74 163.454 86.436C163.934 87.132 164.174 87.948 164.174 88.884C164.174 89.58 164.006 90.372 163.67 91.26C163.334 92.148 162.818 93.012 162.122 93.852C161.45 94.692 160.598 95.424 159.566 96.048ZM176.886 90.468C175.278 90.468 173.814 90.228 172.494 89.748C171.198 89.244 170.166 88.5 169.398 87.516C168.63 86.532 168.246 85.284 168.246 83.772C168.246 82.86 168.426 81.972 168.786 81.108C169.146 80.22 169.746 79.392 170.586 78.624C171.426 77.856 172.614 77.22 174.15 76.716C172.878 76.068 171.894 75.432 171.198 74.808C170.502 74.16 170.01 73.476 169.722 72.756C169.434 72.012 169.29 71.196 169.29 70.308C169.29 69.3 169.566 68.304 170.118 67.32C170.694 66.336 171.558 65.532 172.71 64.908C173.862 64.26 175.326 63.936 177.102 63.936C178.758 63.936 180.15 64.188 181.278 64.692C182.43 65.172 183.294 65.832 183.87 66.672C184.47 67.488 184.77 68.412 184.77 69.444C184.77 70.428 184.578 71.304 184.194 72.072C183.81 72.84 183.282 73.524 182.61 74.124C181.938 74.724 181.134 75.264 180.198 75.744C181.662 76.368 182.802 77.064 183.618 77.832C184.434 78.6 185.01 79.416 185.346 80.28C185.706 81.12 185.886 82.008 185.886 82.944C185.886 84.168 185.634 85.248 185.13 86.184C184.626 87.12 183.942 87.912 183.078 88.56C182.238 89.184 181.278 89.664 180.198 90C179.142 90.312 178.038 90.468 176.886 90.468ZM177.21 88.812C178.242 88.812 179.118 88.632 179.838 88.272C180.582 87.888 181.158 87.324 181.566 86.58C181.974 85.836 182.178 84.9 182.178 83.772C182.178 82.956 182.046 82.26 181.782 81.684C181.518 81.084 181.11 80.544 180.558 80.064C180.03 79.584 179.346 79.128 178.506 78.696C177.666 78.264 176.658 77.844 175.482 77.436C174.138 78.204 173.19 79.128 172.638 80.208C172.11 81.288 171.846 82.404 171.846 83.556C171.846 84.708 172.062 85.668 172.494 86.436C172.926 87.204 173.538 87.792 174.33 88.2C175.146 88.608 176.106 88.812 177.21 88.812ZM178.722 75.168C179.562 74.472 180.222 73.668 180.702 72.756C181.206 71.844 181.458 70.848 181.458 69.768C181.458 68.784 181.242 67.98 180.81 67.356C180.402 66.732 179.85 66.276 179.154 65.988C178.482 65.676 177.75 65.52 176.958 65.52C176.166 65.52 175.434 65.652 174.762 65.916C174.114 66.18 173.586 66.6 173.178 67.176C172.794 67.752 172.602 68.508 172.602 69.444C172.602 70.212 172.77 70.908 173.106 71.532C173.466 72.156 174.09 72.756 174.978 73.332C175.866 73.884 177.114 74.496 178.722 75.168ZM192.734 90.396L192.266 90.036C192.266 88.98 192.35 87.66 192.518 86.076C192.71 84.492 193.106 82.716 193.706 80.748C194.306 78.756 195.218 76.656 196.442 74.448C197.666 72.216 199.334 69.948 201.446 67.644H193.238C192.494 67.644 191.882 67.692 191.402 67.788C190.922 67.86 190.526 68.028 190.214 68.292C189.926 68.532 189.662 68.892 189.422 69.372C189.206 69.828 188.978 70.452 188.738 71.244H187.262L187.946 64.44H203.642L203.93 66.96C202.466 68.784 201.254 70.572 200.294 72.324C199.334 74.052 198.566 75.828 197.99 77.652C197.438 79.452 197.03 81.372 196.766 83.412C196.526 85.428 196.406 87.624 196.406 90L192.734 90.396ZM213.327 90.468C212.151 90.468 211.119 90.312 210.231 90C209.367 89.712 208.623 89.328 207.999 88.848C207.375 88.368 206.859 87.852 206.451 87.3C206.043 86.748 205.719 86.208 205.479 85.68L206.667 84.744C207.099 85.392 207.603 85.992 208.179 86.544C208.779 87.072 209.463 87.492 210.231 87.804C211.023 88.116 211.947 88.272 213.003 88.272C214.131 88.272 215.067 88.044 215.811 87.588C216.555 87.108 217.107 86.472 217.467 85.68C217.851 84.864 218.043 83.952 218.043 82.944C218.043 81.048 217.467 79.692 216.315 78.876C215.187 78.036 213.567 77.652 211.455 77.724L211.635 76.176C213.003 76.032 214.107 75.708 214.947 75.204C215.811 74.676 216.447 74.004 216.855 73.188C217.263 72.348 217.467 71.388 217.467 70.308C217.467 68.94 217.095 67.848 216.351 67.032C215.631 66.192 214.575 65.772 213.183 65.772C212.295 65.772 211.479 65.94 210.735 66.276C210.015 66.612 209.487 67.032 209.151 67.536C209.655 68.112 210.015 68.592 210.231 68.976C210.471 69.36 210.591 69.684 210.591 69.948C210.591 70.236 210.495 70.524 210.303 70.812C210.135 71.1 209.895 71.328 209.583 71.496C209.295 71.664 208.947 71.748 208.539 71.748C207.987 71.748 207.531 71.64 207.171 71.424C206.835 71.184 206.583 70.872 206.415 70.488C206.271 70.104 206.199 69.72 206.199 69.336C206.199 68.448 206.499 67.596 207.099 66.78C207.723 65.94 208.599 65.256 209.727 64.728C210.855 64.2 212.187 63.936 213.723 63.936C215.211 63.936 216.495 64.188 217.575 64.692C218.655 65.172 219.495 65.88 220.095 66.816C220.695 67.752 220.995 68.892 220.995 70.236C220.995 71.292 220.767 72.24 220.311 73.08C219.855 73.896 219.243 74.604 218.475 75.204C217.707 75.78 216.867 76.224 215.955 76.536V76.644C217.083 76.836 218.091 77.184 218.979 77.688C219.867 78.192 220.575 78.876 221.103 79.74C221.631 80.58 221.895 81.672 221.895 83.016C221.895 84.216 221.667 85.272 221.211 86.184C220.755 87.096 220.119 87.876 219.303 88.524C218.511 89.172 217.599 89.664 216.567 90C215.535 90.312 214.455 90.468 213.327 90.468ZM229.815 90.576C229.023 90.576 228.375 90.336 227.871 89.856C227.367 89.352 227.115 88.704 227.115 87.912C227.115 87.144 227.367 86.508 227.871 86.004C228.375 85.5 229.023 85.248 229.815 85.248C230.607 85.248 231.255 85.5 231.759 86.004C232.263 86.484 232.515 87.108 232.515 87.876C232.515 88.668 232.263 89.316 231.759 89.82C231.255 90.324 230.607 90.576 229.815 90.576ZM246.234 90.468C244.266 90.468 242.598 89.916 241.23 88.812C239.862 87.684 238.83 86.16 238.134 84.24C237.438 82.296 237.09 80.088 237.09 77.616C237.09 75.072 237.354 72.924 237.882 71.172C238.434 69.42 239.154 68.016 240.042 66.96C240.954 65.88 241.974 65.112 243.102 64.656C244.23 64.176 245.382 63.936 246.558 63.936C248.166 63.936 249.642 64.392 250.986 65.304C252.354 66.216 253.446 67.62 254.262 69.516C255.102 71.412 255.522 73.824 255.522 76.752C255.522 79.752 255.102 82.272 254.262 84.312C253.446 86.352 252.33 87.888 250.914 88.92C249.522 89.952 247.962 90.468 246.234 90.468ZM246.522 88.776C247.386 88.776 248.142 88.56 248.79 88.128C249.438 87.672 249.978 86.988 250.41 86.076C250.866 85.14 251.202 83.952 251.418 82.512C251.658 81.048 251.778 79.308 251.778 77.292C251.778 75.252 251.658 73.5 251.418 72.036C251.178 70.548 250.818 69.324 250.338 68.364C249.858 67.404 249.27 66.696 248.574 66.24C247.902 65.784 247.122 65.556 246.234 65.556C245.418 65.556 244.674 65.76 244.002 66.168C243.354 66.552 242.79 67.2 242.31 68.112C241.83 69 241.458 70.176 241.194 71.64C240.93 73.08 240.798 74.868 240.798 77.004C240.798 78.876 240.918 80.544 241.158 82.008C241.422 83.472 241.794 84.708 242.274 85.716C242.754 86.7 243.354 87.456 244.074 87.984C244.794 88.512 245.61 88.776 246.522 88.776ZM267.328 90.468C265.36 90.468 263.692 89.916 262.324 88.812C260.956 87.684 259.924 86.16 259.228 84.24C258.532 82.296 258.184 80.088 258.184 77.616C258.184 75.072 258.448 72.924 258.976 71.172C259.528 69.42 260.248 68.016 261.136 66.96C262.048 65.88 263.068 65.112 264.196 64.656C265.324 64.176 266.476 63.936 267.652 63.936C269.26 63.936 270.736 64.392 272.08 65.304C273.448 66.216 274.54 67.62 275.356 69.516C276.196 71.412 276.616 73.824 276.616 76.752C276.616 79.752 276.196 82.272 275.356 84.312C274.54 86.352 273.424 87.888 272.008 88.92C270.616 89.952 269.056 90.468 267.328 90.468ZM267.616 88.776C268.48 88.776 269.236 88.56 269.884 88.128C270.532 87.672 271.072 86.988 271.504 86.076C271.96 85.14 272.296 83.952 272.512 82.512C272.752 81.048 272.872 79.308 272.872 77.292C272.872 75.252 272.752 73.5 272.512 72.036C272.272 70.548 271.912 69.324 271.432 68.364C270.952 67.404 270.364 66.696 269.668 66.24C268.996 65.784 268.216 65.556 267.328 65.556C266.512 65.556 265.768 65.76 265.096 66.168C264.448 66.552 263.884 67.2 263.404 68.112C262.924 69 262.552 70.176 262.288 71.64C262.024 73.08 261.892 74.868 261.892 77.004C261.892 78.876 262.012 80.544 262.252 82.008C262.516 83.472 262.888 84.708 263.368 85.716C263.848 86.7 264.448 87.456 265.168 87.984C265.888 88.512 266.704 88.776 267.616 88.776Z" fill="#5D0615"/>
<path d="M121.816 111.283C125.319 110.229 129.161 111.747 131.685 115.836C131.901 116.187 132.01 116.363 132.071 116.635C132.116 116.836 132.116 117.165 132.071 117.366C132.01 117.638 131.902 117.814 131.685 118.164C131.293 118.8 130.869 119.374 130.419 119.886" stroke="#5D0615" stroke-width="1.5" stroke-linecap="round" stroke-linejoin="round"/>
<path d="M121.918 115.27C121.528 115.739 121.293 116.342 121.293 117C121.293 118.496 122.506 119.709 124.001 119.709C124.671 119.709 125.284 119.466 125.756 119.063" stroke="#5D0615" stroke-width="1.5" stroke-linecap="round" stroke-linejoin="round"/>
<path d="M119.187 112.625C118.125 113.415 117.148 114.485 116.314 115.836C116.098 116.187 115.99 116.362 115.928 116.634C115.883 116.836 115.883 117.164 115.929 117.366C115.99 117.638 116.098 117.813 116.315 118.165C119.361 123.1 124.327 124.29 128.299 121.733" stroke="#5D0615" stroke-width="1.5" stroke-linecap="round" stroke-linejoin="round"/>
<path d="M116.293 109.291L131.71 124.708" stroke="#5D0615" stroke-width="1.5" stroke-linecap="round" stroke-linejoin="round"/>
<path d="M141.672 122V112.06H143.184V116.848L142.456 116.316H148.504L147.776 116.848V112.06H149.288V122H147.776V117.156L148.504 117.688H142.456L143.184 117.156V122H141.672ZM151.293 122V114.552H152.777V122H151.293ZM151.265 113.474V111.99H152.805V113.474H151.265ZM157.384 122.168C156.75 122.168 156.194 122.009 155.718 121.692C155.252 121.375 154.892 120.927 154.64 120.348C154.398 119.76 154.276 119.069 154.276 118.276C154.276 117.483 154.402 116.797 154.654 116.218C154.906 115.63 155.266 115.177 155.732 114.86C156.199 114.543 156.75 114.384 157.384 114.384C157.898 114.384 158.355 114.491 158.756 114.706C159.158 114.921 159.461 115.219 159.666 115.602V112.06H161.15V122H159.764L159.722 120.88C159.517 121.281 159.204 121.599 158.784 121.832C158.374 122.056 157.907 122.168 157.384 122.168ZM157.776 120.88C158.178 120.88 158.518 120.777 158.798 120.572C159.078 120.367 159.293 120.068 159.442 119.676C159.592 119.284 159.666 118.817 159.666 118.276C159.666 117.716 159.592 117.245 159.442 116.862C159.293 116.47 159.078 116.176 158.798 115.98C158.518 115.775 158.178 115.672 157.776 115.672C157.179 115.672 156.703 115.905 156.348 116.372C155.994 116.829 155.816 117.464 155.816 118.276C155.816 119.079 155.994 119.713 156.348 120.18C156.703 120.647 157.179 120.88 157.776 120.88ZM166.185 122.168C165.457 122.168 164.827 122.009 164.295 121.692C163.773 121.375 163.367 120.922 163.077 120.334C162.797 119.746 162.657 119.06 162.657 118.276C162.657 117.492 162.797 116.811 163.077 116.232C163.367 115.644 163.773 115.191 164.295 114.874C164.818 114.547 165.434 114.384 166.143 114.384C166.815 114.384 167.408 114.543 167.921 114.86C168.435 115.168 168.831 115.616 169.111 116.204C169.401 116.792 169.545 117.501 169.545 118.332V118.71H164.197C164.235 119.438 164.426 119.984 164.771 120.348C165.126 120.712 165.602 120.894 166.199 120.894C166.638 120.894 167.002 120.791 167.291 120.586C167.581 120.381 167.781 120.105 167.893 119.76L169.433 119.858C169.237 120.549 168.85 121.109 168.271 121.538C167.702 121.958 167.007 122.168 166.185 122.168ZM164.197 117.59H167.977C167.931 116.927 167.739 116.437 167.403 116.12C167.077 115.803 166.657 115.644 166.143 115.644C165.611 115.644 165.173 115.812 164.827 116.148C164.491 116.475 164.281 116.955 164.197 117.59ZM173.82 122L177.404 112.06H179.322L182.906 122H181.296L180.386 119.41H176.326L175.43 122H173.82ZM176.802 118.038H179.924L178.356 113.502L176.802 118.038ZM185.566 122C185.08 122 184.688 121.874 184.39 121.622C184.091 121.37 183.942 120.969 183.942 120.418V112.06H185.426V120.278C185.426 120.446 185.468 120.572 185.552 120.656C185.645 120.74 185.776 120.782 185.944 120.782H186.532V122H185.566ZM189.38 122C188.895 122 188.503 121.874 188.204 121.622C187.905 121.37 187.756 120.969 187.756 120.418V112.06H189.24V120.278C189.24 120.446 189.282 120.572 189.366 120.656C189.459 120.74 189.59 120.782 189.758 120.782H190.346V122H189.38ZM195.266 122V112.06H198.836C200.03 112.06 200.931 112.275 201.538 112.704C202.144 113.133 202.448 113.815 202.448 114.748C202.448 115.168 202.359 115.537 202.182 115.854C202.004 116.171 201.743 116.423 201.398 116.61C201.062 116.787 200.66 116.881 200.194 116.89L200.18 116.834C201.029 116.853 201.687 117.086 202.154 117.534C202.63 117.973 202.868 118.551 202.868 119.27C202.868 120.175 202.564 120.857 201.958 121.314C201.351 121.771 200.488 122 199.368 122H195.266ZM196.778 120.642H199.326C199.951 120.642 200.436 120.516 200.782 120.264C201.136 120.003 201.314 119.625 201.314 119.13C201.314 118.645 201.136 118.267 200.782 117.996C200.436 117.725 199.951 117.59 199.326 117.59H196.778V120.642ZM196.778 116.302H198.808C199.47 116.302 199.984 116.176 200.348 115.924C200.712 115.672 200.894 115.317 200.894 114.86C200.894 114.375 200.716 114.015 200.362 113.782C200.016 113.539 199.498 113.418 198.808 113.418H196.778V116.302ZM206.727 122.168C205.952 122.168 205.331 121.991 204.865 121.636C204.407 121.281 204.179 120.782 204.179 120.138C204.179 119.494 204.37 118.995 204.753 118.64C205.145 118.276 205.747 118.015 206.559 117.856L209.121 117.366C209.121 116.787 208.985 116.358 208.715 116.078C208.444 115.789 208.043 115.644 207.511 115.644C207.035 115.644 206.661 115.751 206.391 115.966C206.12 116.171 205.933 116.479 205.831 116.89L204.305 116.792C204.445 116.045 204.79 115.457 205.341 115.028C205.901 114.599 206.624 114.384 207.511 114.384C208.519 114.384 209.284 114.655 209.807 115.196C210.339 115.728 210.605 116.479 210.605 117.45V120.348C210.605 120.525 210.633 120.651 210.689 120.726C210.754 120.791 210.857 120.824 210.997 120.824H211.263V122C211.216 122.009 211.141 122.019 211.039 122.028C210.936 122.037 210.829 122.042 210.717 122.042C210.399 122.042 210.124 121.991 209.891 121.888C209.667 121.785 209.499 121.617 209.387 121.384C209.275 121.141 209.219 120.819 209.219 120.418L209.373 120.488C209.298 120.815 209.135 121.104 208.883 121.356C208.64 121.608 208.327 121.809 207.945 121.958C207.571 122.098 207.165 122.168 206.727 122.168ZM206.965 120.992C207.413 120.992 207.795 120.908 208.113 120.74C208.43 120.563 208.677 120.32 208.855 120.012C209.032 119.704 209.121 119.354 209.121 118.962V118.486L206.937 118.906C206.489 118.99 206.171 119.125 205.985 119.312C205.807 119.489 205.719 119.718 205.719 119.998C205.719 120.315 205.826 120.563 206.041 120.74C206.265 120.908 206.573 120.992 206.965 120.992ZM214.044 122C213.559 122 213.167 121.874 212.868 121.622C212.569 121.37 212.42 120.969 212.42 120.418V112.06H213.904V120.278C213.904 120.446 213.946 120.572 214.03 120.656C214.123 120.74 214.254 120.782 214.422 120.782H215.01V122H214.044ZM218.444 122.168C217.669 122.168 217.048 121.991 216.582 121.636C216.124 121.281 215.896 120.782 215.896 120.138C215.896 119.494 216.087 118.995 216.47 118.64C216.862 118.276 217.464 118.015 218.276 117.856L220.838 117.366C220.838 116.787 220.702 116.358 220.432 116.078C220.161 115.789 219.76 115.644 219.228 115.644C218.752 115.644 218.378 115.751 218.108 115.966C217.837 116.171 217.65 116.479 217.548 116.89L216.022 116.792C216.162 116.045 216.507 115.457 217.058 115.028C217.618 114.599 218.341 114.384 219.228 114.384C220.236 114.384 221.001 114.655 221.524 115.196C222.056 115.728 222.322 116.479 222.322 117.45V120.348C222.322 120.525 222.35 120.651 222.406 120.726C222.471 120.791 222.574 120.824 222.714 120.824H222.98V122C222.933 122.009 222.858 122.019 222.756 122.028C222.653 122.037 222.546 122.042 222.434 122.042C222.116 122.042 221.841 121.991 221.608 121.888C221.384 121.785 221.216 121.617 221.104 121.384C220.992 121.141 220.936 120.819 220.936 120.418L221.09 120.488C221.015 120.815 220.852 121.104 220.6 121.356C220.357 121.608 220.044 121.809 219.662 121.958C219.288 122.098 218.882 122.168 218.444 122.168ZM218.682 120.992C219.13 120.992 219.512 120.908 219.83 120.74C220.147 120.563 220.394 120.32 220.572 120.012C220.749 119.704 220.838 119.354 220.838 118.962V118.486L218.654 118.906C218.206 118.99 217.888 119.125 217.702 119.312C217.524 119.489 217.436 119.718 217.436 119.998C217.436 120.315 217.543 120.563 217.758 120.74C217.982 120.908 218.29 120.992 218.682 120.992ZM224.233 122V114.552H225.591L225.647 116.54L225.465 116.442C225.549 115.957 225.707 115.565 225.941 115.266C226.174 114.967 226.459 114.748 226.795 114.608C227.131 114.459 227.495 114.384 227.887 114.384C228.447 114.384 228.909 114.51 229.273 114.762C229.646 115.005 229.926 115.341 230.113 115.77C230.309 116.19 230.407 116.671 230.407 117.212V122H228.923V117.66C228.923 117.221 228.876 116.853 228.783 116.554C228.689 116.255 228.535 116.027 228.321 115.868C228.106 115.709 227.826 115.63 227.481 115.63C226.958 115.63 226.533 115.803 226.207 116.148C225.88 116.493 225.717 116.997 225.717 117.66V122H224.233ZM235.406 122.168C234.697 122.168 234.076 122.009 233.544 121.692C233.012 121.375 232.601 120.922 232.312 120.334C232.023 119.746 231.878 119.06 231.878 118.276C231.878 117.492 232.023 116.811 232.312 116.232C232.601 115.644 233.012 115.191 233.544 114.874C234.076 114.547 234.697 114.384 235.406 114.384C236.013 114.384 236.549 114.491 237.016 114.706C237.492 114.911 237.875 115.215 238.164 115.616C238.463 116.017 238.654 116.507 238.738 117.086L237.184 117.17C237.109 116.685 236.913 116.316 236.596 116.064C236.279 115.803 235.882 115.672 235.406 115.672C234.781 115.672 234.291 115.905 233.936 116.372C233.591 116.829 233.418 117.464 233.418 118.276C233.418 119.088 233.591 119.727 233.936 120.194C234.291 120.651 234.781 120.88 235.406 120.88C235.882 120.88 236.279 120.749 236.596 120.488C236.913 120.217 237.109 119.811 237.184 119.27L238.738 119.354C238.654 119.923 238.463 120.418 238.164 120.838C237.875 121.258 237.492 121.585 237.016 121.818C236.549 122.051 236.013 122.168 235.406 122.168ZM243.158 122.168C242.43 122.168 241.8 122.009 241.268 121.692C240.745 121.375 240.339 120.922 240.05 120.334C239.77 119.746 239.63 119.06 239.63 118.276C239.63 117.492 239.77 116.811 240.05 116.232C240.339 115.644 240.745 115.191 241.268 114.874C241.791 114.547 242.407 114.384 243.116 114.384C243.788 114.384 244.381 114.543 244.894 114.86C245.407 115.168 245.804 115.616 246.084 116.204C246.373 116.792 246.518 117.501 246.518 118.332V118.71H241.17C241.207 119.438 241.399 119.984 241.744 120.348C242.099 120.712 242.575 120.894 243.172 120.894C243.611 120.894 243.975 120.791 244.264 120.586C244.553 120.381 244.754 120.105 244.866 119.76L246.406 119.858C246.21 120.549 245.823 121.109 245.244 121.538C244.675 121.958 243.979 122.168 243.158 122.168ZM241.17 117.59H244.95C244.903 116.927 244.712 116.437 244.376 116.12C244.049 115.803 243.629 115.644 243.116 115.644C242.584 115.644 242.145 115.812 241.8 116.148C241.464 116.475 241.254 116.955 241.17 117.59ZM250.892 122.168C250.192 122.168 249.599 122.061 249.114 121.846C248.638 121.631 248.269 121.337 248.008 120.964C247.746 120.581 247.597 120.143 247.56 119.648L249.086 119.578C249.16 119.989 249.338 120.315 249.618 120.558C249.898 120.801 250.322 120.922 250.892 120.922C251.358 120.922 251.727 120.847 251.998 120.698C252.268 120.549 252.404 120.311 252.404 119.984C252.404 119.807 252.357 119.657 252.264 119.536C252.18 119.405 252.012 119.298 251.76 119.214C251.508 119.121 251.134 119.032 250.64 118.948C249.902 118.808 249.324 118.645 248.904 118.458C248.484 118.271 248.185 118.033 248.008 117.744C247.83 117.455 247.742 117.105 247.742 116.694C247.742 116.013 247.994 115.457 248.498 115.028C249.011 114.599 249.748 114.384 250.71 114.384C251.354 114.384 251.895 114.496 252.334 114.72C252.772 114.935 253.113 115.229 253.356 115.602C253.608 115.966 253.766 116.377 253.832 116.834L252.306 116.918C252.259 116.657 252.166 116.433 252.026 116.246C251.895 116.05 251.718 115.901 251.494 115.798C251.27 115.686 251.004 115.63 250.696 115.63C250.22 115.63 249.865 115.723 249.632 115.91C249.398 116.097 249.282 116.339 249.282 116.638C249.282 116.862 249.333 117.044 249.436 117.184C249.548 117.324 249.725 117.441 249.968 117.534C250.21 117.618 250.532 117.693 250.934 117.758C251.708 117.889 252.315 118.052 252.754 118.248C253.192 118.435 253.5 118.668 253.678 118.948C253.855 119.228 253.944 119.569 253.944 119.97C253.944 120.437 253.813 120.833 253.552 121.16C253.29 121.487 252.931 121.739 252.474 121.916C252.016 122.084 251.489 122.168 250.892 122.168Z" fill="#5D0615"/>
<path d="M140.468 123.75H254.532V124.45H140.468V123.75Z" fill="#5D0615"/>
</svg>
