<svg width="895" height="895" viewBox="0 0 895 895" fill="none" xmlns="http://www.w3.org/2000/svg">
<path d="M0.119141 178.848L26.423 152.544L0.119141 126.24V178.848Z" fill="#cccccc"/>
<path d="M420.815 599.544L447.119 625.848V573.24" fill="#3a3a3a"/>
<path d="M89.5413 89.423L63.2374 63.1191L36.9336 89.423H89.5413Z" fill="#1c1c1c"/>
<path d="M63.2377 115.727L89.5416 89.4236H36.9338" fill="#8c8c8c"/>
<path d="M383.998 562.728L447.118 536.424L420.814 599.544L383.998 562.728Z" fill="#555555"/>
<path d="M63.238 63.1207L0.118164 89.4246L26.422 26.3047L63.238 63.1207Z" fill="#3a3a3a"/>
<path d="M26.422 152.544L0.118164 89.4238L63.238 115.728L26.422 152.544Z" fill="#cccccc"/>
<path d="M420.814 473.305L447.118 536.425L383.998 510.121L420.814 473.305Z" fill="#000000"/>
<path d="M410.302 536.423L383.998 510.119L357.694 536.423H410.302Z" fill="#1c1c1c"/>
<path d="M383.998 562.728L410.302 536.424H357.694" fill="#ffffff"/>
<path d="M0.118164 52.6077L26.422 26.3039L0.118164 0V52.6077Z" fill="#cccccc"/>
<path d="M420.815 473.304L447.119 499.608V447" fill="#000000"/>
<path d="M0.118164 89.4246V52.6086L26.422 26.3047L0.118164 89.4246Z" fill="#1c1c1c"/>
<path d="M447.119 536.425L420.815 473.305L447.119 499.609V536.425Z" fill="#aaaaaa"/>
<path d="M447.118 536.423H410.302L383.998 510.119L447.118 536.423Z" fill="#8c8c8c"/>
<path d="M447.118 536.424L383.998 562.728L410.302 536.424H447.118Z" fill="#000000"/>
<path d="M0.118164 89.423H36.9342L63.238 63.1191L0.118164 89.423Z" fill="#ffffff"/>
<path d="M0.118164 89.4238L63.238 115.728L36.9342 89.4238H0.118164Z" fill="#555555"/>
<path d="M0.118164 89.4238V126.24L26.422 152.544L0.118164 89.4238Z" fill="#707070"/>
<path d="M447.119 536.424L420.815 599.544L447.119 573.24V536.424Z" fill="#ffffff"/>
<path d="M89.54 268.272L115.844 241.968L89.54 215.664V268.272Z" fill="#cccccc"/>
<path d="M63.2373 241.968L89.5412 268.272V215.664" fill="#3a3a3a"/>
<path d="M178.963 178.847L152.659 152.543L126.355 178.847H178.963Z" fill="#1c1c1c"/>
<path d="M152.659 205.151L178.963 178.847H126.355" fill="#8c8c8c"/>
<path d="M26.4189 205.151L89.5389 178.847L63.235 241.967L26.4189 205.151Z" fill="#555555"/>
<path d="M152.659 152.544L89.5391 178.848L115.843 115.728L152.659 152.544Z" fill="#3a3a3a"/>
<path d="M115.843 241.967L89.5393 178.847L152.659 205.151L115.843 241.967Z" fill="#cccccc"/>
<path d="M63.235 115.728L89.5389 178.848L26.4189 152.544L63.235 115.728Z" fill="#000000"/>
<path d="M52.723 178.847L26.4191 152.543L0.115234 178.847H52.723Z" fill="#1c1c1c"/>
<path d="M26.4191 205.151L52.723 178.847H0.115234" fill="#ffffff"/>
<path d="M89.5393 142.031L115.843 115.727L89.5393 89.4236V142.031Z" fill="#cccccc"/>
<path d="M63.2363 115.727L89.5402 142.031V89.4236" fill="#000000"/>
<path d="M89.5391 178.848V142.032L115.843 115.728L89.5391 178.848Z" fill="#1c1c1c"/>
<path d="M89.5402 178.848L63.2363 115.728L89.5402 142.032V178.848Z" fill="#aaaaaa"/>
<path d="M89.5389 178.847H52.7228L26.4189 152.543L89.5389 178.847Z" fill="#8c8c8c"/>
<path d="M89.5389 178.847L26.4189 205.151L52.7228 178.847H89.5389Z" fill="#000000"/>
<path d="M89.5391 178.847H126.355L152.659 152.543L89.5391 178.847Z" fill="#ffffff"/>
<path d="M89.5393 178.847L152.659 205.151L126.355 178.847H89.5393Z" fill="#555555"/>
<path d="M89.5393 178.847V215.663L115.843 241.967L89.5393 178.847Z" fill="#707070"/>
<path d="M89.5402 178.847L63.2363 241.967L89.5402 215.663V178.847Z" fill="#ffffff"/>
<path d="M178.965 357.696L205.269 331.392L178.965 305.088V357.696Z" fill="#cccccc"/>
<path d="M152.661 331.392L178.965 357.696V305.088" fill="#3a3a3a"/>
<path d="M268.387 268.271L242.083 241.967L215.779 268.271H268.387Z" fill="#1c1c1c"/>
<path d="M242.083 294.575L268.387 268.271H215.779" fill="#8c8c8c"/>
<path d="M115.833 294.575L178.965 268.271L152.661 331.391L115.833 294.575Z" fill="#555555"/>
<path d="M242.084 241.966L178.964 268.27L205.256 205.15L242.084 241.966Z" fill="#3a3a3a"/>
<path d="M205.268 331.391L178.964 268.271L242.084 294.575L205.268 331.391Z" fill="#cccccc"/>
<path d="M152.66 205.15L178.964 268.27L115.844 241.966L152.66 205.15Z" fill="#000000"/>
<path d="M142.148 268.271L115.844 241.967L89.54 268.271H142.148Z" fill="#1c1c1c"/>
<path d="M115.844 294.575L142.148 268.271H89.54" fill="#ffffff"/>
<path d="M178.964 231.455L205.268 205.152L178.964 178.848V231.455Z" fill="#cccccc"/>
<path d="M152.661 205.152L178.965 231.455V178.848" fill="#000000"/>
<path d="M178.964 268.27V231.454L205.268 205.15L178.964 268.27Z" fill="#1c1c1c"/>
<path d="M178.965 268.27L152.661 205.15L178.965 231.454V268.27Z" fill="#aaaaaa"/>
<path d="M178.964 268.271H142.136L115.844 241.967L178.964 268.271Z" fill="#8c8c8c"/>
<path d="M178.964 268.271L115.844 294.575L142.148 268.271H178.964Z" fill="#000000"/>
<path d="M178.964 268.271H215.78L242.084 241.967L178.964 268.271Z" fill="#ffffff"/>
<path d="M178.964 268.271L242.084 294.575L215.78 268.271H178.964Z" fill="#555555"/>
<path d="M178.964 268.271V305.088L205.268 331.391L178.964 268.271Z" fill="#707070"/>
<path d="M178.965 268.271L152.661 331.391L178.965 305.088V268.271Z" fill="#ffffff"/>
<path d="M268.389 447.119L294.693 420.816L268.389 394.512V447.119Z" fill="#cccccc"/>
<path d="M242.085 420.816L268.389 447.119V394.512" fill="#3a3a3a"/>
<path d="M357.811 357.695L331.507 331.391L305.203 357.695H357.811Z" fill="#1c1c1c"/>
<path d="M331.507 383.999L357.811 357.695H305.203" fill="#8c8c8c"/>
<path d="M205.257 383.999L268.388 357.695L242.085 420.815L205.257 383.999Z" fill="#555555"/>
<path d="M331.508 331.392L268.388 357.696L294.68 294.576L331.508 331.392Z" fill="#3a3a3a"/>
<path d="M294.692 420.815L268.388 357.695L331.508 383.999L294.692 420.815Z" fill="#cccccc"/>
<path d="M242.084 294.576L268.387 357.696L205.268 331.392L242.084 294.576Z" fill="#000000"/>
<path d="M231.56 357.695L205.268 331.391L178.964 357.695H231.56Z" fill="#1c1c1c"/>
<path d="M205.256 383.999L231.56 357.695H178.964" fill="#ffffff"/>
<path d="M268.388 320.867L294.68 294.575L268.388 268.271V320.867Z" fill="#cccccc"/>
<path d="M242.085 294.575L268.389 320.867V268.271" fill="#000000"/>
<path d="M268.388 357.696V320.868L294.68 294.576L268.388 357.696Z" fill="#1c1c1c"/>
<path d="M268.389 357.696L242.085 294.576L268.389 320.868V357.696Z" fill="#aaaaaa"/>
<path d="M268.387 357.695H231.56L205.268 331.391L268.387 357.695Z" fill="#8c8c8c"/>
<path d="M268.388 357.695L205.257 383.999L231.561 357.695H268.388Z" fill="#000000"/>
<path d="M268.388 357.695H305.204L331.508 331.391L268.388 357.695Z" fill="#ffffff"/>
<path d="M268.388 357.695L331.508 383.999L305.204 357.695H268.388Z" fill="#555555"/>
<path d="M268.388 357.695V394.511L294.692 420.815L268.388 357.695Z" fill="#707070"/>
<path d="M268.389 357.695L242.085 420.815L268.389 394.511V357.695Z" fill="#ffffff"/>
<path d="M357.813 536.543L384.106 510.239L357.813 483.936V536.543Z" fill="#cccccc"/>
<path d="M331.51 510.239L357.814 536.543V483.936" fill="#3a3a3a"/>
<path d="M447.236 447.118L420.932 420.814L394.628 447.118H447.236Z" fill="#1c1c1c"/>
<path d="M420.932 473.423L447.236 447.119H394.628" fill="#8c8c8c"/>
<path d="M294.683 473.423L357.814 447.119L331.51 510.239L294.683 473.423Z" fill="#555555"/>
<path d="M420.933 420.816L357.813 447.12L384.106 384L420.933 420.816Z" fill="#3a3a3a"/>
<path d="M384.106 510.239L357.814 447.119L420.934 473.423L384.106 510.239Z" fill="#cccccc"/>
<path d="M331.508 384L357.812 447.12L294.692 420.816L331.508 384Z" fill="#000000"/>
<path d="M320.986 447.118L294.693 420.814L268.39 447.118H320.986Z" fill="#1c1c1c"/>
<path d="M294.682 473.423L320.986 447.119H268.39" fill="#ffffff"/>
<path d="M357.814 410.291L384.106 383.999L357.814 357.695V410.291Z" fill="#cccccc"/>
<path d="M331.51 383.999L357.814 410.291V357.695" fill="#000000"/>
<path d="M357.813 447.12V410.292L384.106 384L357.813 447.12Z" fill="#1c1c1c"/>
<path d="M357.814 447.12L331.51 384L357.814 410.292V447.12Z" fill="#aaaaaa"/>
<path d="M357.812 447.118H320.985L294.692 420.814L357.812 447.118Z" fill="#8c8c8c"/>
<path d="M357.814 447.119L294.683 473.423L320.987 447.119H357.814Z" fill="#000000"/>
<path d="M357.813 447.118H394.63L420.933 420.814L357.813 447.118Z" fill="#ffffff"/>
<path d="M357.814 447.119L420.934 473.423L394.63 447.119H357.814Z" fill="#555555"/>
<path d="M357.814 447.119V483.935L384.106 510.239L357.814 447.119Z" fill="#707070"/>
<path d="M357.814 447.119L331.51 510.239L357.814 483.935V447.119Z" fill="#ffffff"/>
<path d="M357.694 715.272L383.998 688.968L357.694 662.664V715.272Z" fill="#cccccc"/>
<path d="M331.391 688.968L357.695 715.272V662.664" fill="#3a3a3a"/>
<path d="M447.117 625.847L420.813 599.543L394.509 625.847H447.117Z" fill="#1c1c1c"/>
<path d="M420.813 652.152L447.117 625.848H394.509" fill="#8c8c8c"/>
<path d="M294.573 652.152L357.693 625.848L331.389 688.968L294.573 652.152Z" fill="#555555"/>
<path d="M420.813 599.545L357.693 625.848L383.997 562.729L420.813 599.545Z" fill="#3a3a3a"/>
<path d="M383.997 688.968L357.693 625.848L420.813 652.152L383.997 688.968Z" fill="#cccccc"/>
<path d="M331.389 562.729L357.693 625.848L294.573 599.545L331.389 562.729Z" fill="#000000"/>
<path d="M320.877 625.847L294.573 599.543L268.27 625.847H320.877Z" fill="#1c1c1c"/>
<path d="M294.573 652.151L320.877 625.848H268.27" fill="#ffffff"/>
<path d="M357.693 589.032L383.997 562.728L357.693 536.424V589.032Z" fill="#cccccc"/>
<path d="M331.391 562.728L357.695 589.032V536.424" fill="#000000"/>
<path d="M357.693 625.848V589.032L383.997 562.729L357.693 625.848Z" fill="#1c1c1c"/>
<path d="M357.695 625.848L331.391 562.729L357.695 589.032V625.848Z" fill="#aaaaaa"/>
<path d="M357.693 625.847H320.877L294.573 599.543L357.693 625.847Z" fill="#8c8c8c"/>
<path d="M357.693 625.848L294.573 652.152L320.877 625.848H357.693Z" fill="#000000"/>
<path d="M357.693 625.847H394.509L420.813 599.543L357.693 625.847Z" fill="#ffffff"/>
<path d="M357.693 625.848L420.813 652.152L394.509 625.848H357.693Z" fill="#555555"/>
<path d="M357.693 625.848V662.664L383.997 688.968L357.693 625.848Z" fill="#707070"/>
<path d="M357.695 625.848L331.391 688.968L357.695 662.664V625.848Z" fill="#ffffff"/>
<path d="M0.119141 357.696L26.423 331.392L0.119141 305.088V357.696Z" fill="#cccccc"/>
<path d="M420.815 778.392L447.119 804.696V752.088" fill="#3a3a3a"/>
<path d="M89.5413 268.271L63.2374 241.967L36.9336 268.271H89.5413Z" fill="#1c1c1c"/>
<path d="M63.2377 294.575L89.5416 268.271H36.9338" fill="#8c8c8c"/>
<path d="M383.998 741.575L447.118 715.271L420.814 778.391L383.998 741.575Z" fill="#555555"/>
<path d="M63.238 241.966L0.118164 268.27L26.422 205.15L63.238 241.966Z" fill="#3a3a3a"/>
<path d="M26.422 331.391L0.118164 268.271L63.238 294.575L26.422 331.391Z" fill="#cccccc"/>
<path d="M420.814 652.15L447.118 715.27L383.998 688.966L420.814 652.15Z" fill="#000000"/>
<path d="M410.302 715.271L383.998 688.967L357.694 715.271H410.302Z" fill="#1c1c1c"/>
<path d="M383.998 741.575L410.302 715.271H357.694" fill="#ffffff"/>
<path d="M0.118164 231.455L26.422 205.152L0.118164 178.848V231.455Z" fill="#cccccc"/>
<path d="M420.815 652.152L447.119 678.455V625.848" fill="#000000"/>
<path d="M0.118164 268.27V231.454L26.422 205.15L0.118164 268.27Z" fill="#1c1c1c"/>
<path d="M447.119 715.27L420.815 652.15L447.119 678.454V715.27Z" fill="#aaaaaa"/>
<path d="M447.118 715.271H410.29L383.998 688.967L447.118 715.271Z" fill="#8c8c8c"/>
<path d="M447.118 715.271L383.998 741.575L410.302 715.271H447.118Z" fill="#000000"/>
<path d="M0.118164 268.271H36.9342L63.238 241.967L0.118164 268.271Z" fill="#ffffff"/>
<path d="M0.118164 268.271L63.238 294.575L36.9342 268.271H0.118164Z" fill="#555555"/>
<path d="M0.118164 268.271V305.088L26.422 331.391L0.118164 268.271Z" fill="#707070"/>
<path d="M447.119 715.271L420.815 778.391L447.119 752.088V715.271Z" fill="#ffffff"/>
<path d="M89.54 447.119L115.844 420.816L89.54 394.512V447.119Z" fill="#cccccc"/>
<path d="M63.2373 420.816L89.5412 447.119V394.512" fill="#3a3a3a"/>
<path d="M178.963 357.695L152.659 331.391L126.355 357.695H178.963Z" fill="#1c1c1c"/>
<path d="M152.659 383.999L178.963 357.695H126.355" fill="#8c8c8c"/>
<path d="M26.4189 383.999L89.5389 357.695L63.235 420.815L26.4189 383.999Z" fill="#555555"/>
<path d="M152.659 331.392L89.5391 357.696L115.831 294.576L152.659 331.392Z" fill="#3a3a3a"/>
<path d="M115.843 420.815L89.5393 357.695L152.659 383.999L115.843 420.815Z" fill="#cccccc"/>
<path d="M63.235 294.576L89.5389 357.696L26.4189 331.392L63.235 294.576Z" fill="#000000"/>
<path d="M52.723 357.695L26.4191 331.391L0.115234 357.695H52.723Z" fill="#1c1c1c"/>
<path d="M26.4191 383.999L52.723 357.695H0.115234" fill="#ffffff"/>
<path d="M89.5393 320.879L115.843 294.575L89.5393 268.271V320.879Z" fill="#cccccc"/>
<path d="M63.2363 294.575L89.5402 320.879V268.271" fill="#000000"/>
<path d="M89.5391 357.696V320.88L115.843 294.576L89.5391 357.696Z" fill="#1c1c1c"/>
<path d="M89.5402 357.696L63.2363 294.576L89.5402 320.88V357.696Z" fill="#aaaaaa"/>
<path d="M89.5389 357.695H52.7111L26.4189 331.391L89.5389 357.695Z" fill="#8c8c8c"/>
<path d="M89.5389 357.695L26.4189 383.999L52.7228 357.695H89.5389Z" fill="#000000"/>
<path d="M89.5391 357.695H126.355L152.659 331.391L89.5391 357.695Z" fill="#ffffff"/>
<path d="M89.5393 357.695L152.659 383.999L126.355 357.695H89.5393Z" fill="#555555"/>
<path d="M89.5393 357.695V394.511L115.843 420.815L89.5393 357.695Z" fill="#707070"/>
<path d="M89.5402 357.695L63.2363 420.815L89.5402 394.511V357.695Z" fill="#ffffff"/>
<path d="M178.965 536.543L205.269 510.239L178.965 483.936V536.543Z" fill="#cccccc"/>
<path d="M152.661 510.239L178.965 536.543V483.936" fill="#3a3a3a"/>
<path d="M268.387 447.118L242.083 420.814L215.779 447.118H268.387Z" fill="#1c1c1c"/>
<path d="M242.083 473.423L268.387 447.119H215.779" fill="#8c8c8c"/>
<path d="M115.833 473.423L178.965 447.119L152.661 510.239L115.833 473.423Z" fill="#555555"/>
<path d="M242.084 420.816L178.964 447.12L205.256 384L242.084 420.816Z" fill="#3a3a3a"/>
<path d="M205.268 510.239L178.964 447.119L242.084 473.423L205.268 510.239Z" fill="#cccccc"/>
<path d="M152.66 384L178.964 447.12L115.844 420.816L152.66 384Z" fill="#000000"/>
<path d="M142.136 447.118L115.844 420.814L89.54 447.118H142.136Z" fill="#1c1c1c"/>
<path d="M115.832 473.423L142.136 447.119H89.54" fill="#ffffff"/>
<path d="M178.964 410.291L205.256 383.999L178.964 357.695V410.291Z" fill="#cccccc"/>
<path d="M152.661 383.999L178.965 410.291V357.695" fill="#000000"/>
<path d="M178.964 447.12V410.292L205.256 384L178.964 447.12Z" fill="#1c1c1c"/>
<path d="M178.965 447.12L152.661 384L178.965 410.292V447.12Z" fill="#aaaaaa"/>
<path d="M178.964 447.118H142.136L115.844 420.814L178.964 447.118Z" fill="#8c8c8c"/>
<path d="M178.965 447.119L115.833 473.423L142.137 447.119H178.965Z" fill="#000000"/>
<path d="M178.964 447.118H215.78L242.084 420.814L178.964 447.118Z" fill="#ffffff"/>
<path d="M178.964 447.119L242.084 473.423L215.78 447.119H178.964Z" fill="#555555"/>
<path d="M178.964 447.119V483.935L205.268 510.239L178.964 447.119Z" fill="#707070"/>
<path d="M178.965 447.119L152.661 510.239L178.965 483.935V447.119Z" fill="#ffffff"/>
<path d="M268.389 625.967L294.681 599.663L268.389 573.359V625.967Z" fill="#cccccc"/>
<path d="M242.085 599.663L268.389 625.967V573.359" fill="#3a3a3a"/>
<path d="M357.811 536.542L331.507 510.238L305.203 536.542H357.811Z" fill="#1c1c1c"/>
<path d="M331.507 562.835L357.811 536.543H305.203" fill="#8c8c8c"/>
<path d="M205.257 562.835L268.388 536.543L242.085 599.663L205.257 562.835Z" fill="#555555"/>
<path d="M331.508 510.24L268.388 536.544L294.68 473.424L331.508 510.24Z" fill="#3a3a3a"/>
<path d="M294.68 599.663L268.388 536.543L331.508 562.835L294.68 599.663Z" fill="#cccccc"/>
<path d="M242.084 473.424L268.387 536.544L205.268 510.24L242.084 473.424Z" fill="#000000"/>
<path d="M231.56 536.542L205.268 510.238L178.964 536.542H231.56Z" fill="#1c1c1c"/>
<path d="M205.256 562.835L231.56 536.543H178.964" fill="#ffffff"/>
<path d="M268.388 499.715L294.68 473.423L268.388 447.119V499.715Z" fill="#cccccc"/>
<path d="M242.085 473.423L268.389 499.715V447.119" fill="#000000"/>
<path d="M268.388 536.544V499.716L294.68 473.424L268.388 536.544Z" fill="#1c1c1c"/>
<path d="M268.389 536.544L242.085 473.424L268.389 499.716V536.544Z" fill="#aaaaaa"/>
<path d="M268.387 536.542H231.56L205.268 510.238L268.387 536.542Z" fill="#8c8c8c"/>
<path d="M268.388 536.543L205.257 562.835L231.561 536.543H268.388Z" fill="#000000"/>
<path d="M268.388 536.542H305.204L331.508 510.238L268.388 536.542Z" fill="#ffffff"/>
<path d="M268.388 536.543L331.508 562.835L305.204 536.543H268.388Z" fill="#555555"/>
<path d="M268.388 536.543V573.359L294.68 599.663L268.388 536.543Z" fill="#707070"/>
<path d="M268.389 536.543L242.085 599.663L268.389 573.359V536.543Z" fill="#ffffff"/>
<path d="M268.272 804.696L294.576 778.392L268.272 752.088V804.696Z" fill="#cccccc"/>
<path d="M241.97 778.392L268.274 804.696V752.088" fill="#3a3a3a"/>
<path d="M357.696 715.271L331.392 688.967L305.088 715.271H357.696Z" fill="#1c1c1c"/>
<path d="M331.392 741.575L357.696 715.271H305.088" fill="#8c8c8c"/>
<path d="M205.153 741.575L268.273 715.271L241.969 778.391L205.153 741.575Z" fill="#555555"/>
<path d="M331.393 688.966L268.273 715.27L294.577 652.15L331.393 688.966Z" fill="#3a3a3a"/>
<path d="M294.577 778.391L268.273 715.271L331.393 741.575L294.577 778.391Z" fill="#cccccc"/>
<path d="M241.969 652.15L268.273 715.27L205.153 688.966L241.969 652.15Z" fill="#000000"/>
<path d="M231.457 715.271L205.153 688.967L178.85 715.271H231.457Z" fill="#1c1c1c"/>
<path d="M205.153 741.575L231.457 715.271H178.85" fill="#ffffff"/>
<path d="M268.273 678.455L294.577 652.152L268.273 625.848V678.455Z" fill="#cccccc"/>
<path d="M241.971 652.152L268.275 678.455V625.848" fill="#000000"/>
<path d="M268.273 715.27V678.454L294.577 652.15L268.273 715.27Z" fill="#1c1c1c"/>
<path d="M268.275 715.27L241.971 652.15L268.275 678.454V715.27Z" fill="#aaaaaa"/>
<path d="M268.273 715.271H231.457L205.153 688.967L268.273 715.271Z" fill="#8c8c8c"/>
<path d="M268.273 715.271L205.153 741.575L231.457 715.271H268.273Z" fill="#000000"/>
<path d="M268.273 715.271H305.089L331.393 688.967L268.273 715.271Z" fill="#ffffff"/>
<path d="M268.273 715.271L331.393 741.575L305.089 715.271H268.273Z" fill="#555555"/>
<path d="M268.273 715.271V752.088L294.577 778.391L268.273 715.271Z" fill="#707070"/>
<path d="M268.275 715.271L241.971 778.391L268.275 752.088V715.271Z" fill="#ffffff"/>
<path d="M357.694 894.119L383.998 867.816L357.694 841.512V894.119Z" fill="#cccccc"/>
<path d="M331.391 867.816L357.695 894.119V841.512" fill="#3a3a3a"/>
<path d="M447.117 804.695L420.813 778.391L394.509 804.695H447.117Z" fill="#1c1c1c"/>
<path d="M420.813 830.999L447.117 804.695H394.509" fill="#8c8c8c"/>
<path d="M294.573 830.999L357.693 804.695L331.389 867.815L294.573 830.999Z" fill="#555555"/>
<path d="M420.813 778.392L357.693 804.696L383.997 741.576L420.813 778.392Z" fill="#3a3a3a"/>
<path d="M383.997 867.815L357.693 804.695L420.813 830.999L383.997 867.815Z" fill="#cccccc"/>
<path d="M331.389 741.576L357.693 804.696L294.573 778.392L331.389 741.576Z" fill="#000000"/>
<path d="M320.877 804.695L294.573 778.391L268.27 804.695H320.877Z" fill="#1c1c1c"/>
<path d="M294.573 830.999L320.877 804.695H268.27" fill="#ffffff"/>
<path d="M357.693 767.879L383.997 741.575L357.693 715.271V767.879Z" fill="#cccccc"/>
<path d="M331.391 741.575L357.695 767.879V715.271" fill="#000000"/>
<path d="M357.693 804.696V767.88L383.997 741.576L357.693 804.696Z" fill="#1c1c1c"/>
<path d="M357.695 804.696L331.391 741.576L357.695 767.88V804.696Z" fill="#aaaaaa"/>
<path d="M357.693 804.695H320.877L294.573 778.391L357.693 804.695Z" fill="#8c8c8c"/>
<path d="M357.693 804.695L294.573 830.999L320.877 804.695H357.693Z" fill="#000000"/>
<path d="M357.693 804.695H394.509L420.813 778.391L357.693 804.695Z" fill="#ffffff"/>
<path d="M357.693 804.695L420.813 830.999L394.509 804.695H357.693Z" fill="#555555"/>
<path d="M357.693 804.695V841.511L383.997 867.815L357.693 804.695Z" fill="#707070"/>
<path d="M357.695 804.695L331.391 867.815L357.695 841.511V804.695Z" fill="#ffffff"/>
<path d="M0.119141 536.543L26.423 510.239L0.119141 483.936V536.543Z" fill="#cccccc"/>
<path d="M420.815 63.1202L447.119 89.4241V36.8164" fill="#3a3a3a"/>
<path d="M89.5413 447.118L63.2374 420.814L36.9336 447.118H89.5413Z" fill="#1c1c1c"/>
<path d="M63.2377 473.423L89.5416 447.119H36.9338" fill="#8c8c8c"/>
<path d="M383.998 26.3038L447.118 0L420.814 63.1199L383.998 26.3038Z" fill="#555555"/>
<path d="M63.238 420.816L0.118164 447.12L26.422 384L63.238 420.816Z" fill="#3a3a3a"/>
<path d="M26.422 510.239L0.118164 447.119L63.238 473.423L26.422 510.239Z" fill="#cccccc"/>
<path d="M420.814 831L447.118 894.12L383.998 867.816L420.814 831Z" fill="#000000"/>
<path d="M410.302 894.118L383.998 867.814L357.694 894.118H410.302Z" fill="#1c1c1c"/>
<path d="M383.998 26.3038L410.302 0H357.694" fill="#ffffff"/>
<path d="M0.118164 410.303L26.422 383.999L0.118164 357.695V410.303Z" fill="#cccccc"/>
<path d="M420.815 830.999L447.119 857.303V804.695" fill="#000000"/>
<path d="M0.118164 447.12V410.304L26.422 384L0.118164 447.12Z" fill="#1c1c1c"/>
<path d="M447.119 894.12L420.815 831L447.119 857.304V894.12Z" fill="#aaaaaa"/>
<path d="M447.118 894.118H410.302L383.998 867.814L447.118 894.118Z" fill="#8c8c8c"/>
<path d="M447.118 0L383.998 26.3038L410.302 0H447.118Z" fill="#000000"/>
<path d="M0.118164 447.118H36.9342L63.238 420.814L0.118164 447.118Z" fill="#ffffff"/>
<path d="M0.118164 447.119L63.238 473.423L36.9342 447.119H0.118164Z" fill="#555555"/>
<path d="M0.118164 447.119V483.935L26.422 510.239L0.118164 447.119Z" fill="#707070"/>
<path d="M447.119 0L420.815 63.1199L447.119 36.816V0Z" fill="#ffffff"/>
<path d="M89.54 625.967L115.844 599.663L89.54 573.359V625.967Z" fill="#cccccc"/>
<path d="M63.2373 599.663L89.5412 625.967V573.359" fill="#3a3a3a"/>
<path d="M178.963 536.542L152.659 510.238L126.355 536.542H178.963Z" fill="#1c1c1c"/>
<path d="M152.659 562.847L178.963 536.543H126.355" fill="#8c8c8c"/>
<path d="M26.4189 562.835L89.5389 536.543L63.235 599.663L26.4189 562.835Z" fill="#555555"/>
<path d="M152.659 510.24L89.5391 536.544L115.831 473.424L152.659 510.24Z" fill="#3a3a3a"/>
<path d="M115.843 599.663L89.5393 536.543L152.659 562.847L115.843 599.663Z" fill="#cccccc"/>
<path d="M63.235 473.424L89.5389 536.544L26.4189 510.24L63.235 473.424Z" fill="#000000"/>
<path d="M52.723 536.542L26.4191 510.238L0.115234 536.542H52.723Z" fill="#1c1c1c"/>
<path d="M26.4191 562.847L52.723 536.543H0.115234" fill="#ffffff"/>
<path d="M89.5393 499.727L115.843 473.423L89.5393 447.119V499.727Z" fill="#cccccc"/>
<path d="M63.2363 473.423L89.5402 499.727V447.119" fill="#000000"/>
<path d="M89.5391 536.544V499.728L115.843 473.424L89.5391 536.544Z" fill="#1c1c1c"/>
<path d="M89.5402 536.544L63.2363 473.424L89.5402 499.728V536.544Z" fill="#aaaaaa"/>
<path d="M89.5389 536.542H52.7111L26.4189 510.238L89.5389 536.542Z" fill="#8c8c8c"/>
<path d="M89.5389 536.543L26.4189 562.847L52.7228 536.543H89.5389Z" fill="#000000"/>
<path d="M89.5391 536.542H126.355L152.659 510.238L89.5391 536.542Z" fill="#ffffff"/>
<path d="M89.5393 536.543L152.659 562.847L126.355 536.543H89.5393Z" fill="#555555"/>
<path d="M89.5393 536.543V573.359L115.843 599.663L89.5393 536.543Z" fill="#707070"/>
<path d="M89.5402 536.543L63.2363 599.663L89.5402 573.359V536.543Z" fill="#ffffff"/>
<path d="M178.965 715.391L205.269 689.087L178.965 662.783V715.391Z" fill="#cccccc"/>
<path d="M152.661 689.087L178.965 715.391V662.783" fill="#3a3a3a"/>
<path d="M268.387 625.968L242.083 599.664L215.779 625.968H268.387Z" fill="#1c1c1c"/>
<path d="M242.083 652.271L268.387 625.967H215.779" fill="#8c8c8c"/>
<path d="M115.833 652.259L178.965 625.967L152.661 689.087L115.833 652.259Z" fill="#555555"/>
<path d="M242.084 599.664L178.964 625.968L205.256 562.836L242.084 599.664Z" fill="#3a3a3a"/>
<path d="M205.268 689.087L178.964 625.967L242.084 652.271L205.268 689.087Z" fill="#cccccc"/>
<path d="M152.66 562.846L178.964 625.966L115.844 599.662L152.66 562.846Z" fill="#000000"/>
<path d="M142.136 625.966L115.844 599.662L89.54 625.966H142.136Z" fill="#1c1c1c"/>
<path d="M115.832 652.259L142.136 625.967H89.54" fill="#ffffff"/>
<path d="M178.964 589.139L205.256 562.835L178.964 536.543V589.139Z" fill="#cccccc"/>
<path d="M152.661 562.847L178.965 589.139V536.543" fill="#000000"/>
<path d="M178.964 625.968V589.14L205.256 562.836L178.964 625.968Z" fill="#1c1c1c"/>
<path d="M178.965 625.966L152.661 562.846L178.965 589.138V625.966Z" fill="#aaaaaa"/>
<path d="M178.964 625.966H142.136L115.844 599.662L178.964 625.966Z" fill="#8c8c8c"/>
<path d="M178.965 625.967L115.833 652.259L142.137 625.967H178.965Z" fill="#000000"/>
<path d="M178.964 625.966H215.78L242.084 599.662L178.964 625.966Z" fill="#ffffff"/>
<path d="M178.964 625.967L242.084 652.271L215.78 625.967H178.964Z" fill="#555555"/>
<path d="M178.964 625.967V662.783L205.268 689.087L178.964 625.967Z" fill="#707070"/>
<path d="M178.965 625.967L152.661 689.087L178.965 662.783V625.967Z" fill="#ffffff"/>
<path d="M178.849 894.119L205.152 867.816L178.849 841.512V894.119Z" fill="#cccccc"/>
<path d="M152.545 867.816L178.849 894.119V841.512" fill="#3a3a3a"/>
<path d="M268.271 804.695L241.967 778.391L215.663 804.695H268.271Z" fill="#1c1c1c"/>
<path d="M241.967 830.999L268.271 804.695H215.663" fill="#8c8c8c"/>
<path d="M115.729 830.999L178.848 804.695L152.545 867.815L115.729 830.999Z" fill="#555555"/>
<path d="M241.969 778.392L178.849 804.696L205.152 741.576L241.969 778.392Z" fill="#3a3a3a"/>
<path d="M205.152 867.815L178.849 804.695L241.969 830.999L205.152 867.815Z" fill="#cccccc"/>
<path d="M152.545 741.576L178.848 804.696L115.729 778.392L152.545 741.576Z" fill="#000000"/>
<path d="M142.033 804.695L115.729 778.391L89.4248 804.695H142.033Z" fill="#1c1c1c"/>
<path d="M115.729 830.999L142.033 804.695H89.4248" fill="#ffffff"/>
<path d="M178.849 767.879L205.152 741.575L178.849 715.271V767.879Z" fill="#cccccc"/>
<path d="M152.546 741.575L178.85 767.879V715.271" fill="#000000"/>
<path d="M178.849 804.696V767.88L205.152 741.576L178.849 804.696Z" fill="#1c1c1c"/>
<path d="M178.85 804.696L152.546 741.576L178.85 767.88V804.696Z" fill="#aaaaaa"/>
<path d="M178.848 804.695H142.032L115.729 778.391L178.848 804.695Z" fill="#8c8c8c"/>
<path d="M178.848 804.695L115.729 830.999L142.032 804.695H178.848Z" fill="#000000"/>
<path d="M178.849 804.695H215.665L241.969 778.391L178.849 804.695Z" fill="#ffffff"/>
<path d="M178.849 804.695L241.969 830.999L215.665 804.695H178.849Z" fill="#555555"/>
<path d="M178.849 804.695V841.511L205.152 867.815L178.849 804.695Z" fill="#707070"/>
<path d="M178.85 804.695L152.546 867.815L178.85 841.511V804.695Z" fill="#ffffff"/>
<path d="M268.272 89.4241L294.576 63.1202L268.272 36.8164V89.4241Z" fill="#cccccc"/>
<path d="M241.97 63.1202L268.274 89.4241V36.8164" fill="#3a3a3a"/>
<path d="M357.696 894.118L331.392 867.814L305.088 894.118H357.696Z" fill="#1c1c1c"/>
<path d="M331.392 26.3038L357.696 0H305.088" fill="#8c8c8c"/>
<path d="M205.153 26.3038L268.273 0L241.969 63.1199L205.153 26.3038Z" fill="#555555"/>
<path d="M331.393 867.816L268.273 894.12L294.577 831L331.393 867.816Z" fill="#3a3a3a"/>
<path d="M294.577 63.1199L268.273 0L331.393 26.3038L294.577 63.1199Z" fill="#cccccc"/>
<path d="M241.969 831L268.273 894.12L205.153 867.816L241.969 831Z" fill="#000000"/>
<path d="M231.457 894.118L205.153 867.814L178.85 894.118H231.457Z" fill="#1c1c1c"/>
<path d="M205.153 26.3038L231.457 0H178.85" fill="#ffffff"/>
<path d="M268.273 857.303L294.577 830.999L268.273 804.695V857.303Z" fill="#cccccc"/>
<path d="M241.971 830.999L268.275 857.303V804.695" fill="#000000"/>
<path d="M268.273 894.12V857.304L294.577 831L268.273 894.12Z" fill="#1c1c1c"/>
<path d="M268.275 894.12L241.971 831L268.275 857.304V894.12Z" fill="#aaaaaa"/>
<path d="M268.273 894.118H231.457L205.153 867.814L268.273 894.118Z" fill="#8c8c8c"/>
<path d="M268.273 0L205.153 26.3038L231.457 0H268.273Z" fill="#000000"/>
<path d="M268.273 894.118H305.089L331.393 867.814L268.273 894.118Z" fill="#ffffff"/>
<path d="M268.273 0L331.393 26.3038L305.089 0H268.273Z" fill="#555555"/>
<path d="M268.273 0V36.816L294.577 63.1199L268.273 0Z" fill="#707070"/>
<path d="M268.275 0L241.971 63.1199L268.275 36.816V0Z" fill="#ffffff"/>
<path d="M357.694 178.848L383.998 152.544L357.694 126.24V178.848Z" fill="#cccccc"/>
<path d="M331.391 152.544L357.695 178.848V126.24" fill="#3a3a3a"/>
<path d="M447.117 89.423L420.813 63.1191L394.509 89.423H447.117Z" fill="#1c1c1c"/>
<path d="M420.813 115.728L447.117 89.4238H394.509" fill="#8c8c8c"/>
<path d="M294.573 115.728L357.693 89.4238L331.389 152.544L294.573 115.728Z" fill="#555555"/>
<path d="M420.813 63.1207L357.693 89.4246L383.997 26.3047L420.813 63.1207Z" fill="#3a3a3a"/>
<path d="M383.997 152.544L357.693 89.4238L420.813 115.728L383.997 152.544Z" fill="#cccccc"/>
<path d="M331.389 26.3047L357.693 89.4246L294.573 63.1207L331.389 26.3047Z" fill="#000000"/>
<path d="M320.877 89.423L294.573 63.1191L268.27 89.423H320.877Z" fill="#1c1c1c"/>
<path d="M294.573 115.728L320.877 89.4238H268.27" fill="#ffffff"/>
<path d="M357.693 52.6077L383.997 26.3038L357.693 0V52.6077Z" fill="#cccccc"/>
<path d="M331.391 26.3038L357.695 52.6077V0" fill="#000000"/>
<path d="M357.693 89.4246V52.6086L383.997 26.3047L357.693 89.4246Z" fill="#1c1c1c"/>
<path d="M357.695 89.4246L331.391 26.3047L357.695 52.6086V89.4246Z" fill="#aaaaaa"/>
<path d="M357.693 89.423H320.865L294.573 63.1191L357.693 89.423Z" fill="#8c8c8c"/>
<path d="M357.693 89.4238L294.573 115.728L320.877 89.4238H357.693Z" fill="#000000"/>
<path d="M357.693 89.423H394.509L420.813 63.1191L357.693 89.423Z" fill="#ffffff"/>
<path d="M357.693 89.4238L420.813 115.728L394.509 89.4238H357.693Z" fill="#555555"/>
<path d="M357.693 89.4238V126.24L383.997 152.544L357.693 89.4238Z" fill="#707070"/>
<path d="M357.695 89.4238L331.391 152.544L357.695 126.24V89.4238Z" fill="#ffffff"/>
<path d="M0.119141 715.391L26.423 689.087L0.119141 662.783V715.391Z" fill="#cccccc"/>
<path d="M420.815 241.968L447.119 268.272V215.664" fill="#3a3a3a"/>
<path d="M89.5413 625.968L63.2374 599.664L36.9336 625.968H89.5413Z" fill="#1c1c1c"/>
<path d="M63.2377 652.271L89.5416 625.967H36.9338" fill="#8c8c8c"/>
<path d="M383.998 205.14L447.118 178.848L420.814 241.968L383.998 205.14Z" fill="#555555"/>
<path d="M63.238 599.664L0.118164 625.968L26.422 562.836L63.238 599.664Z" fill="#3a3a3a"/>
<path d="M26.422 689.087L0.118164 625.967L63.238 652.271L26.422 689.087Z" fill="#cccccc"/>
<path d="M420.814 115.727L447.118 178.846L383.998 152.543L420.814 115.727Z" fill="#000000"/>
<path d="M410.29 178.847L383.998 152.543L357.694 178.847H410.29Z" fill="#1c1c1c"/>
<path d="M383.998 205.14L410.29 178.848H357.694" fill="#ffffff"/>
<path d="M0.118164 589.139L26.422 562.835L0.118164 536.543V589.139Z" fill="#cccccc"/>
<path d="M420.815 115.728L447.119 142.02V89.4238" fill="#000000"/>
<path d="M0.118164 625.968V589.14L26.422 562.836L0.118164 625.968Z" fill="#1c1c1c"/>
<path d="M447.119 178.846L420.815 115.727L447.119 142.03V178.846Z" fill="#aaaaaa"/>
<path d="M447.118 178.847H410.29L383.998 152.543L447.118 178.847Z" fill="#8c8c8c"/>
<path d="M447.118 178.848L383.998 205.14L410.29 178.848H447.118Z" fill="#000000"/>
<path d="M0.118164 625.966H36.9342L63.238 599.662L0.118164 625.966Z" fill="#ffffff"/>
<path d="M0.118164 625.967L63.238 652.271L36.9342 625.967H0.118164Z" fill="#555555"/>
<path d="M0.118164 625.967V662.783L26.422 689.087L0.118164 625.967Z" fill="#707070"/>
<path d="M447.119 178.848L420.815 241.968L447.119 215.664V178.848Z" fill="#ffffff"/>
<path d="M89.54 804.815L115.832 778.511L89.54 752.207V804.815Z" fill="#cccccc"/>
<path d="M63.2373 778.511L89.5412 804.815V752.207" fill="#3a3a3a"/>
<path d="M178.963 715.39L152.659 689.086L126.355 715.39H178.963Z" fill="#1c1c1c"/>
<path d="M152.659 741.683L178.963 715.391H126.355" fill="#8c8c8c"/>
<path d="M26.4189 741.683L89.5389 715.391L63.235 778.51L26.4189 741.683Z" fill="#555555"/>
<path d="M152.659 689.086L89.5391 715.389L115.831 652.258L152.659 689.086Z" fill="#3a3a3a"/>
<path d="M115.831 778.51L89.5391 715.391L152.659 741.683L115.831 778.51Z" fill="#cccccc"/>
<path d="M63.235 652.271L89.5389 715.391L26.4189 689.088L63.235 652.271Z" fill="#000000"/>
<path d="M52.7112 715.39L26.4191 689.086L0.115234 715.39H52.7112Z" fill="#1c1c1c"/>
<path d="M26.4191 741.683L52.7112 715.391H0.115234" fill="#ffffff"/>
<path d="M89.5393 678.563L115.831 652.259L89.5393 625.967V678.563Z" fill="#cccccc"/>
<path d="M63.2363 652.271L89.5402 678.563V625.967" fill="#000000"/>
<path d="M89.5391 715.389V678.562L115.831 652.258L89.5391 715.389Z" fill="#1c1c1c"/>
<path d="M89.5402 715.391L63.2363 652.271L89.5402 678.564V715.391Z" fill="#aaaaaa"/>
<path d="M89.5389 715.39H52.7111L26.4189 689.086L89.5389 715.39Z" fill="#8c8c8c"/>
<path d="M89.5389 715.391L26.4189 741.683L52.7111 715.391H89.5389Z" fill="#000000"/>
<path d="M89.5391 715.39H126.355L152.659 689.086L89.5391 715.39Z" fill="#ffffff"/>
<path d="M89.5391 715.391L152.659 741.694L126.355 715.391H89.5391Z" fill="#555555"/>
<path d="M89.5391 715.391V752.207L115.843 778.51L89.5391 715.391Z" fill="#707070"/>
<path d="M89.5402 715.391L63.2363 778.51L89.5402 752.207V715.391Z" fill="#ffffff"/>
<path d="M89.4238 89.4241L115.728 63.1202L89.4238 36.8164V89.4241Z" fill="#cccccc"/>
<path d="M63.1201 63.1202L89.424 89.4241V36.8164" fill="#3a3a3a"/>
<path d="M178.846 894.118L152.542 867.814L126.238 894.118H178.846Z" fill="#1c1c1c"/>
<path d="M152.542 26.3038L178.846 0H126.239" fill="#8c8c8c"/>
<path d="M26.3037 26.3038L89.4236 0L63.1197 63.1199L26.3037 26.3038Z" fill="#555555"/>
<path d="M152.544 867.816L89.4238 894.12L115.728 831L152.544 867.816Z" fill="#3a3a3a"/>
<path d="M115.728 63.1199L89.4238 0L152.544 26.3038L115.728 63.1199Z" fill="#cccccc"/>
<path d="M63.1197 831L89.4236 894.12L26.3037 867.816L63.1197 831Z" fill="#000000"/>
<path d="M52.6077 894.118L26.3039 867.814L0 894.118H52.6077Z" fill="#1c1c1c"/>
<path d="M26.3039 26.3038L52.6077 0H0" fill="#ffffff"/>
<path d="M89.4238 857.303L115.728 830.999L89.4238 804.695V857.303Z" fill="#cccccc"/>
<path d="M63.1211 830.999L89.425 857.303V804.695" fill="#000000"/>
<path d="M89.4238 894.12V857.304L115.728 831L89.4238 894.12Z" fill="#1c1c1c"/>
<path d="M89.425 894.12L63.1211 831L89.425 857.304V894.12Z" fill="#aaaaaa"/>
<path d="M89.4236 894.118H52.6076L26.3037 867.814L89.4236 894.118Z" fill="#8c8c8c"/>
<path d="M89.4236 0L26.3037 26.3038L52.6076 0H89.4236Z" fill="#000000"/>
<path d="M89.4238 894.118H126.24L152.544 867.814L89.4238 894.118Z" fill="#ffffff"/>
<path d="M89.4238 0L152.544 26.3038L126.24 0H89.4238Z" fill="#555555"/>
<path d="M89.4238 0V36.816L115.728 63.1199L89.4238 0Z" fill="#707070"/>
<path d="M89.425 0L63.1211 63.1199L89.425 36.816V0Z" fill="#ffffff"/>
<path d="M178.849 178.848L205.152 152.544L178.849 126.24V178.848Z" fill="#cccccc"/>
<path d="M152.545 152.544L178.849 178.848V126.24" fill="#3a3a3a"/>
<path d="M268.271 89.423L241.967 63.1191L215.663 89.423H268.271Z" fill="#1c1c1c"/>
<path d="M241.967 115.728L268.271 89.4238H215.663" fill="#8c8c8c"/>
<path d="M115.729 115.728L178.848 89.4238L152.545 152.544L115.729 115.728Z" fill="#555555"/>
<path d="M241.969 63.1207L178.849 89.4246L205.152 26.3047L241.969 63.1207Z" fill="#3a3a3a"/>
<path d="M205.152 152.544L178.849 89.4238L241.969 115.728L205.152 152.544Z" fill="#cccccc"/>
<path d="M152.545 26.3047L178.848 89.4246L115.729 63.1207L152.545 26.3047Z" fill="#000000"/>
<path d="M142.021 89.423L115.729 63.1191L89.4248 89.423H142.021Z" fill="#1c1c1c"/>
<path d="M115.729 115.728L142.021 89.4238H89.4248" fill="#ffffff"/>
<path d="M178.849 52.6077L205.152 26.3038L178.849 0V52.6077Z" fill="#cccccc"/>
<path d="M152.546 26.3038L178.85 52.6077V0" fill="#000000"/>
<path d="M178.849 89.4246V52.6086L205.152 26.3047L178.849 89.4246Z" fill="#1c1c1c"/>
<path d="M178.85 89.4246L152.546 26.3047L178.85 52.6086V89.4246Z" fill="#aaaaaa"/>
<path d="M178.848 89.423H142.021L115.729 63.1191L178.848 89.423Z" fill="#8c8c8c"/>
<path d="M178.848 89.4238L115.729 115.728L142.021 89.4238H178.848Z" fill="#000000"/>
<path d="M178.849 89.423H215.665L241.969 63.1191L178.849 89.423Z" fill="#ffffff"/>
<path d="M178.849 89.4238L241.969 115.728L215.665 89.4238H178.849Z" fill="#555555"/>
<path d="M178.849 89.4238V126.24L205.152 152.544L178.849 89.4238Z" fill="#707070"/>
<path d="M178.85 89.4238L152.546 152.544L178.85 126.24V89.4238Z" fill="#ffffff"/>
<path d="M268.272 268.272L294.576 241.968L268.272 215.664V268.272Z" fill="#cccccc"/>
<path d="M241.97 241.968L268.274 268.272V215.664" fill="#3a3a3a"/>
<path d="M357.696 178.849L331.392 152.545L305.088 178.849H357.696Z" fill="#1c1c1c"/>
<path d="M331.392 205.152L357.696 178.848H305.088" fill="#8c8c8c"/>
<path d="M205.153 205.14L268.273 178.848L241.969 241.968L205.153 205.14Z" fill="#555555"/>
<path d="M331.393 152.543L268.273 178.846L294.566 115.727L331.393 152.543Z" fill="#3a3a3a"/>
<path d="M294.577 241.968L268.273 178.848L331.393 205.152L294.577 241.968Z" fill="#cccccc"/>
<path d="M241.969 115.727L268.273 178.846L205.153 152.543L241.969 115.727Z" fill="#000000"/>
<path d="M231.446 178.847L205.153 152.543L178.85 178.847H231.446Z" fill="#1c1c1c"/>
<path d="M205.153 205.14L231.446 178.848H178.85" fill="#ffffff"/>
<path d="M268.273 142.02L294.577 115.716L268.273 89.4238V142.02Z" fill="#cccccc"/>
<path d="M241.971 115.728L268.275 142.02V89.4238" fill="#000000"/>
<path d="M268.273 178.848V142.021L294.577 115.717L268.273 178.848Z" fill="#1c1c1c"/>
<path d="M268.275 178.846L241.971 115.727L268.275 142.03V178.846Z" fill="#aaaaaa"/>
<path d="M268.273 178.847H231.445L205.153 152.543L268.273 178.847Z" fill="#8c8c8c"/>
<path d="M268.273 178.848L205.153 205.14L231.445 178.848H268.273Z" fill="#000000"/>
<path d="M268.273 178.847H305.089L331.393 152.543L268.273 178.847Z" fill="#ffffff"/>
<path d="M268.273 178.848L331.393 205.152L305.089 178.848H268.273Z" fill="#555555"/>
<path d="M268.273 178.848V215.664L294.577 241.968L268.273 178.848Z" fill="#707070"/>
<path d="M268.275 178.848L241.971 241.968L268.275 215.664V178.848Z" fill="#ffffff"/>
<path d="M357.694 357.696L383.986 331.392L357.694 305.088V357.696Z" fill="#cccccc"/>
<path d="M331.391 331.392L357.695 357.696V305.088" fill="#3a3a3a"/>
<path d="M447.117 268.271L420.813 241.967L394.509 268.271H447.117Z" fill="#1c1c1c"/>
<path d="M420.813 294.564L447.117 268.271H394.509" fill="#8c8c8c"/>
<path d="M294.573 294.564L357.693 268.271L331.389 331.391L294.573 294.564Z" fill="#555555"/>
<path d="M420.813 241.968L357.693 268.272L383.985 205.152L420.813 241.968Z" fill="#3a3a3a"/>
<path d="M383.985 331.391L357.693 268.271L420.813 294.564L383.985 331.391Z" fill="#cccccc"/>
<path d="M331.389 205.152L357.693 268.272L294.573 241.968L331.389 205.152Z" fill="#000000"/>
<path d="M320.866 268.271L294.573 241.967L268.27 268.271H320.866Z" fill="#1c1c1c"/>
<path d="M294.573 294.564L320.866 268.271H268.27" fill="#ffffff"/>
<path d="M357.693 231.444L383.997 205.14L357.693 178.848V231.444Z" fill="#cccccc"/>
<path d="M331.391 205.152L357.695 231.444V178.848" fill="#000000"/>
<path d="M357.693 268.27V231.443L383.997 205.139L357.693 268.27Z" fill="#1c1c1c"/>
<path d="M357.695 268.272L331.391 205.152L357.695 231.444V268.272Z" fill="#aaaaaa"/>
<path d="M357.693 268.271H320.865L294.573 241.967L357.693 268.271Z" fill="#8c8c8c"/>
<path d="M357.693 268.271L294.573 294.564L320.865 268.271H357.693Z" fill="#000000"/>
<path d="M357.693 268.271H394.509L420.813 241.967L357.693 268.271Z" fill="#ffffff"/>
<path d="M357.693 268.271L420.813 294.575L394.509 268.271H357.693Z" fill="#555555"/>
<path d="M357.693 268.271V305.088L383.985 331.391L357.693 268.271Z" fill="#707070"/>
<path d="M357.695 268.271L331.391 331.391L357.695 305.088V268.271Z" fill="#ffffff"/>
<path d="M0.119141 894.239L26.4113 867.935L0.119141 841.631V894.239Z" fill="#cccccc"/>
<path d="M420.815 420.816L447.119 447.12V394.512" fill="#3a3a3a"/>
<path d="M89.5413 804.814L63.2374 778.51L36.9336 804.814H89.5413Z" fill="#1c1c1c"/>
<path d="M63.2377 831.107L89.5416 804.814H36.9338" fill="#8c8c8c"/>
<path d="M383.998 383.988L447.118 357.695L420.814 420.815L383.998 383.988Z" fill="#555555"/>
<path d="M63.238 778.509L0.118164 804.813L26.4103 741.693L63.238 778.509Z" fill="#3a3a3a"/>
<path d="M26.4103 867.934L0.118164 804.814L63.238 831.107L26.4103 867.934Z" fill="#cccccc"/>
<path d="M420.814 294.574L447.118 357.694L383.998 331.39L420.814 294.574Z" fill="#000000"/>
<path d="M410.29 357.695L383.998 331.391L357.694 357.695H410.29Z" fill="#1c1c1c"/>
<path d="M383.998 383.987L410.29 357.695H357.694" fill="#ffffff"/>
<path d="M0.118164 767.987L26.422 741.683L0.118164 715.391V767.987Z" fill="#cccccc"/>
<path d="M420.815 294.575L447.119 320.867V268.271" fill="#000000"/>
<path d="M0.118164 804.815V767.988L26.422 741.684L0.118164 804.815Z" fill="#1c1c1c"/>
<path d="M447.119 357.694L420.815 294.574L447.119 320.866V357.694Z" fill="#aaaaaa"/>
<path d="M447.119 357.695H410.291L383.987 331.391L447.119 357.695Z" fill="#8c8c8c"/>
<path d="M447.118 357.695L383.998 383.988L410.29 357.695H447.118Z" fill="#000000"/>
<path d="M0.118164 804.814H36.9342L63.238 778.51L0.118164 804.814Z" fill="#ffffff"/>
<path d="M0.118164 804.814L63.238 831.107L36.9342 804.814H0.118164Z" fill="#555555"/>
<path d="M0.118164 804.814V841.63L26.4103 867.934L0.118164 804.814Z" fill="#707070"/>
<path d="M447.119 357.695L420.815 420.815L447.119 394.511V357.695Z" fill="#ffffff"/>
<path d="M447.119 178.848L473.423 152.544L447.119 126.24V178.848Z" fill="#cccccc"/>
<path d="M867.815 599.544L894.119 625.848V573.24" fill="#3a3a3a"/>
<path d="M536.541 89.423L510.237 63.1191L483.934 89.423H536.541Z" fill="#1c1c1c"/>
<path d="M510.237 115.727L536.541 89.4236H483.934" fill="#8c8c8c"/>
<path d="M830.998 562.728L894.118 536.424L867.814 599.544L830.998 562.728Z" fill="#555555"/>
<path d="M510.238 63.1207L447.118 89.4246L473.422 26.3047L510.238 63.1207Z" fill="#3a3a3a"/>
<path d="M473.422 152.544L447.118 89.4238L510.238 115.728L473.422 152.544Z" fill="#cccccc"/>
<path d="M867.814 473.305L894.118 536.425L830.998 510.121L867.814 473.305Z" fill="#000000"/>
<path d="M857.302 536.423L830.998 510.119L804.694 536.423H857.302Z" fill="#1c1c1c"/>
<path d="M830.998 562.728L857.302 536.424H804.694" fill="#ffffff"/>
<path d="M447.118 52.6077L473.422 26.3039L447.118 0V52.6077Z" fill="#cccccc"/>
<path d="M867.815 473.304L894.119 499.608V447" fill="#000000"/>
<path d="M447.118 89.4246V52.6086L473.422 26.3047L447.118 89.4246Z" fill="#1c1c1c"/>
<path d="M894.119 536.425L867.815 473.305L894.119 499.609V536.425Z" fill="#aaaaaa"/>
<path d="M894.118 536.423H857.302L830.998 510.119L894.118 536.423Z" fill="#8c8c8c"/>
<path d="M894.118 536.424L830.998 562.728L857.302 536.424H894.118Z" fill="#000000"/>
<path d="M447.118 89.423H483.934L510.238 63.1191L447.118 89.423Z" fill="#ffffff"/>
<path d="M447.118 89.4238L510.238 115.728L483.934 89.4238H447.118Z" fill="#555555"/>
<path d="M447.118 89.4238V126.24L473.422 152.544L447.118 89.4238Z" fill="#707070"/>
<path d="M894.119 536.424L867.815 599.544L894.119 573.24V536.424Z" fill="#ffffff"/>
<path d="M536.54 268.272L562.844 241.968L536.54 215.664V268.272Z" fill="#cccccc"/>
<path d="M510.237 241.968L536.541 268.272V215.664" fill="#3a3a3a"/>
<path d="M625.963 178.847L599.659 152.543L573.355 178.847H625.963Z" fill="#1c1c1c"/>
<path d="M599.659 205.151L625.963 178.847H573.355" fill="#8c8c8c"/>
<path d="M473.419 205.151L536.539 178.847L510.235 241.967L473.419 205.151Z" fill="#555555"/>
<path d="M599.659 152.544L536.539 178.848L562.843 115.728L599.659 152.544Z" fill="#3a3a3a"/>
<path d="M562.843 241.967L536.539 178.847L599.659 205.151L562.843 241.967Z" fill="#cccccc"/>
<path d="M510.235 115.728L536.539 178.848L473.419 152.544L510.235 115.728Z" fill="#000000"/>
<path d="M499.723 178.847L473.419 152.543L447.115 178.847H499.723Z" fill="#1c1c1c"/>
<path d="M473.419 205.151L499.723 178.847H447.115" fill="#ffffff"/>
<path d="M536.539 142.031L562.843 115.727L536.539 89.4236V142.031Z" fill="#cccccc"/>
<path d="M510.236 115.727L536.54 142.031V89.4236" fill="#000000"/>
<path d="M536.539 178.848V142.032L562.843 115.728L536.539 178.848Z" fill="#1c1c1c"/>
<path d="M536.54 178.848L510.236 115.728L536.54 142.032V178.848Z" fill="#aaaaaa"/>
<path d="M536.539 178.847H499.723L473.419 152.543L536.539 178.847Z" fill="#8c8c8c"/>
<path d="M536.539 178.847L473.419 205.151L499.723 178.847H536.539Z" fill="#000000"/>
<path d="M536.539 178.847H573.355L599.659 152.543L536.539 178.847Z" fill="#ffffff"/>
<path d="M536.539 178.847L599.659 205.151L573.355 178.847H536.539Z" fill="#555555"/>
<path d="M536.539 178.847V215.663L562.843 241.967L536.539 178.847Z" fill="#707070"/>
<path d="M536.54 178.847L510.236 241.967L536.54 215.663V178.847Z" fill="#ffffff"/>
<path d="M625.965 357.696L652.269 331.392L625.965 305.088V357.696Z" fill="#cccccc"/>
<path d="M599.661 331.392L625.965 357.696V305.088" fill="#3a3a3a"/>
<path d="M715.387 268.271L689.083 241.967L662.779 268.271H715.387Z" fill="#1c1c1c"/>
<path d="M689.083 294.575L715.387 268.271H662.779" fill="#8c8c8c"/>
<path d="M562.833 294.575L625.965 268.271L599.661 331.391L562.833 294.575Z" fill="#555555"/>
<path d="M689.084 241.966L625.964 268.27L652.256 205.15L689.084 241.966Z" fill="#3a3a3a"/>
<path d="M652.268 331.391L625.964 268.271L689.084 294.575L652.268 331.391Z" fill="#cccccc"/>
<path d="M599.66 205.15L625.964 268.27L562.844 241.966L599.66 205.15Z" fill="#000000"/>
<path d="M589.148 268.271L562.844 241.967L536.54 268.271H589.148Z" fill="#1c1c1c"/>
<path d="M562.844 294.575L589.148 268.271H536.54" fill="#ffffff"/>
<path d="M625.964 231.455L652.268 205.152L625.964 178.848V231.455Z" fill="#cccccc"/>
<path d="M599.661 205.152L625.965 231.455V178.848" fill="#000000"/>
<path d="M625.964 268.27V231.454L652.268 205.15L625.964 268.27Z" fill="#1c1c1c"/>
<path d="M625.965 268.27L599.661 205.15L625.965 231.454V268.27Z" fill="#aaaaaa"/>
<path d="M625.964 268.271H589.136L562.844 241.967L625.964 268.271Z" fill="#8c8c8c"/>
<path d="M625.964 268.271L562.844 294.575L589.148 268.271H625.964Z" fill="#000000"/>
<path d="M625.964 268.271H662.78L689.084 241.967L625.964 268.271Z" fill="#ffffff"/>
<path d="M625.964 268.271L689.084 294.575L662.78 268.271H625.964Z" fill="#555555"/>
<path d="M625.964 268.271V305.088L652.268 331.391L625.964 268.271Z" fill="#707070"/>
<path d="M625.965 268.271L599.661 331.391L625.965 305.088V268.271Z" fill="#ffffff"/>
<path d="M715.389 447.119L741.693 420.816L715.389 394.512V447.119Z" fill="#cccccc"/>
<path d="M689.085 420.816L715.389 447.119V394.512" fill="#3a3a3a"/>
<path d="M804.811 357.695L778.507 331.391L752.203 357.695H804.811Z" fill="#1c1c1c"/>
<path d="M778.507 383.999L804.811 357.695H752.203" fill="#8c8c8c"/>
<path d="M652.257 383.999L715.388 357.695L689.085 420.815L652.257 383.999Z" fill="#555555"/>
<path d="M778.508 331.392L715.388 357.696L741.68 294.576L778.508 331.392Z" fill="#3a3a3a"/>
<path d="M741.692 420.815L715.388 357.695L778.508 383.999L741.692 420.815Z" fill="#cccccc"/>
<path d="M689.084 294.576L715.387 357.696L652.268 331.392L689.084 294.576Z" fill="#000000"/>
<path d="M678.56 357.695L652.268 331.391L625.964 357.695H678.56Z" fill="#1c1c1c"/>
<path d="M652.256 383.999L678.56 357.695H625.964" fill="#ffffff"/>
<path d="M715.388 320.867L741.68 294.575L715.388 268.271V320.867Z" fill="#cccccc"/>
<path d="M689.085 294.575L715.389 320.867V268.271" fill="#000000"/>
<path d="M715.388 357.696V320.868L741.68 294.576L715.388 357.696Z" fill="#1c1c1c"/>
<path d="M715.389 357.696L689.085 294.576L715.389 320.868V357.696Z" fill="#aaaaaa"/>
<path d="M715.387 357.695H678.56L652.268 331.391L715.387 357.695Z" fill="#8c8c8c"/>
<path d="M715.388 357.695L652.257 383.999L678.561 357.695H715.388Z" fill="#000000"/>
<path d="M715.388 357.695H752.204L778.508 331.391L715.388 357.695Z" fill="#ffffff"/>
<path d="M715.388 357.695L778.508 383.999L752.204 357.695H715.388Z" fill="#555555"/>
<path d="M715.388 357.695V394.511L741.692 420.815L715.388 357.695Z" fill="#707070"/>
<path d="M715.389 357.695L689.085 420.815L715.389 394.511V357.695Z" fill="#ffffff"/>
<path d="M804.813 536.543L831.106 510.239L804.813 483.936V536.543Z" fill="#cccccc"/>
<path d="M778.51 510.239L804.814 536.543V483.936" fill="#3a3a3a"/>
<path d="M894.236 447.118L867.932 420.814L841.628 447.118H894.236Z" fill="#1c1c1c"/>
<path d="M867.932 473.423L894.236 447.119H841.628" fill="#8c8c8c"/>
<path d="M741.683 473.423L804.814 447.119L778.51 510.239L741.683 473.423Z" fill="#555555"/>
<path d="M867.933 420.816L804.813 447.12L831.106 384L867.933 420.816Z" fill="#3a3a3a"/>
<path d="M831.106 510.239L804.814 447.119L867.934 473.423L831.106 510.239Z" fill="#cccccc"/>
<path d="M778.508 384L804.812 447.12L741.692 420.816L778.508 384Z" fill="#000000"/>
<path d="M767.986 447.118L741.693 420.814L715.39 447.118H767.986Z" fill="#1c1c1c"/>
<path d="M741.682 473.423L767.986 447.119H715.39" fill="#ffffff"/>
<path d="M804.814 410.291L831.106 383.999L804.814 357.695V410.291Z" fill="#cccccc"/>
<path d="M778.51 383.999L804.814 410.291V357.695" fill="#000000"/>
<path d="M804.813 447.12V410.292L831.106 384L804.813 447.12Z" fill="#1c1c1c"/>
<path d="M804.814 447.12L778.51 384L804.814 410.292V447.12Z" fill="#aaaaaa"/>
<path d="M804.812 447.118H767.985L741.692 420.814L804.812 447.118Z" fill="#8c8c8c"/>
<path d="M804.814 447.119L741.683 473.423L767.987 447.119H804.814Z" fill="#000000"/>
<path d="M804.813 447.118H841.63L867.933 420.814L804.813 447.118Z" fill="#ffffff"/>
<path d="M804.814 447.119L867.934 473.423L841.63 447.119H804.814Z" fill="#555555"/>
<path d="M804.814 447.119V483.935L831.106 510.239L804.814 447.119Z" fill="#707070"/>
<path d="M804.814 447.119L778.51 510.239L804.814 483.935V447.119Z" fill="#ffffff"/>
<path d="M804.694 715.272L830.998 688.968L804.694 662.664V715.272Z" fill="#cccccc"/>
<path d="M778.391 688.968L804.695 715.272V662.664" fill="#3a3a3a"/>
<path d="M894.117 625.847L867.813 599.543L841.509 625.847H894.117Z" fill="#1c1c1c"/>
<path d="M867.813 652.152L894.117 625.848H841.509" fill="#8c8c8c"/>
<path d="M741.573 652.152L804.693 625.848L778.389 688.968L741.573 652.152Z" fill="#555555"/>
<path d="M867.813 599.545L804.693 625.848L830.997 562.729L867.813 599.545Z" fill="#3a3a3a"/>
<path d="M830.997 688.968L804.693 625.848L867.813 652.152L830.997 688.968Z" fill="#cccccc"/>
<path d="M778.389 562.729L804.693 625.848L741.573 599.545L778.389 562.729Z" fill="#000000"/>
<path d="M767.877 625.847L741.573 599.543L715.27 625.847H767.877Z" fill="#1c1c1c"/>
<path d="M741.573 652.151L767.877 625.848H715.27" fill="#ffffff"/>
<path d="M804.693 589.032L830.997 562.728L804.693 536.424V589.032Z" fill="#cccccc"/>
<path d="M778.391 562.728L804.695 589.032V536.424" fill="#000000"/>
<path d="M804.693 625.848V589.032L830.997 562.729L804.693 625.848Z" fill="#1c1c1c"/>
<path d="M804.695 625.848L778.391 562.729L804.695 589.032V625.848Z" fill="#aaaaaa"/>
<path d="M804.693 625.847H767.877L741.573 599.543L804.693 625.847Z" fill="#8c8c8c"/>
<path d="M804.693 625.848L741.573 652.152L767.877 625.848H804.693Z" fill="#000000"/>
<path d="M804.693 625.847H841.509L867.813 599.543L804.693 625.847Z" fill="#ffffff"/>
<path d="M804.693 625.848L867.813 652.152L841.509 625.848H804.693Z" fill="#555555"/>
<path d="M804.693 625.848V662.664L830.997 688.968L804.693 625.848Z" fill="#707070"/>
<path d="M804.695 625.848L778.391 688.968L804.695 662.664V625.848Z" fill="#ffffff"/>
<path d="M447.119 357.696L473.423 331.392L447.119 305.088V357.696Z" fill="#cccccc"/>
<path d="M867.815 778.392L894.119 804.696V752.088" fill="#3a3a3a"/>
<path d="M536.541 268.271L510.237 241.967L483.934 268.271H536.541Z" fill="#1c1c1c"/>
<path d="M510.237 294.575L536.541 268.271H483.934" fill="#8c8c8c"/>
<path d="M830.998 741.575L894.118 715.271L867.814 778.391L830.998 741.575Z" fill="#555555"/>
<path d="M510.238 241.966L447.118 268.27L473.422 205.15L510.238 241.966Z" fill="#3a3a3a"/>
<path d="M473.422 331.391L447.118 268.271L510.238 294.575L473.422 331.391Z" fill="#cccccc"/>
<path d="M867.814 652.15L894.118 715.27L830.998 688.966L867.814 652.15Z" fill="#000000"/>
<path d="M857.302 715.271L830.998 688.967L804.694 715.271H857.302Z" fill="#1c1c1c"/>
<path d="M830.998 741.575L857.302 715.271H804.694" fill="#ffffff"/>
<path d="M447.118 231.455L473.422 205.152L447.118 178.848V231.455Z" fill="#cccccc"/>
<path d="M867.815 652.152L894.119 678.455V625.848" fill="#000000"/>
<path d="M447.118 268.27V231.454L473.422 205.15L447.118 268.27Z" fill="#1c1c1c"/>
<path d="M894.119 715.27L867.815 652.15L894.119 678.454V715.27Z" fill="#aaaaaa"/>
<path d="M894.118 715.271H857.29L830.998 688.967L894.118 715.271Z" fill="#8c8c8c"/>
<path d="M894.118 715.271L830.998 741.575L857.302 715.271H894.118Z" fill="#000000"/>
<path d="M447.118 268.271H483.934L510.238 241.967L447.118 268.271Z" fill="#ffffff"/>
<path d="M447.118 268.271L510.238 294.575L483.934 268.271H447.118Z" fill="#555555"/>
<path d="M447.118 268.271V305.088L473.422 331.391L447.118 268.271Z" fill="#707070"/>
<path d="M894.119 715.271L867.815 778.391L894.119 752.088V715.271Z" fill="#ffffff"/>
<path d="M536.54 447.119L562.844 420.816L536.54 394.512V447.119Z" fill="#cccccc"/>
<path d="M510.237 420.816L536.541 447.119V394.512" fill="#3a3a3a"/>
<path d="M625.963 357.695L599.659 331.391L573.355 357.695H625.963Z" fill="#1c1c1c"/>
<path d="M599.659 383.999L625.963 357.695H573.355" fill="#8c8c8c"/>
<path d="M473.419 383.999L536.539 357.695L510.235 420.815L473.419 383.999Z" fill="#555555"/>
<path d="M599.659 331.392L536.539 357.696L562.831 294.576L599.659 331.392Z" fill="#3a3a3a"/>
<path d="M562.843 420.815L536.539 357.695L599.659 383.999L562.843 420.815Z" fill="#cccccc"/>
<path d="M510.235 294.576L536.539 357.696L473.419 331.392L510.235 294.576Z" fill="#000000"/>
<path d="M499.723 357.695L473.419 331.391L447.115 357.695H499.723Z" fill="#1c1c1c"/>
<path d="M473.419 383.999L499.723 357.695H447.115" fill="#ffffff"/>
<path d="M536.539 320.879L562.843 294.575L536.539 268.271V320.879Z" fill="#cccccc"/>
<path d="M510.236 294.575L536.54 320.879V268.271" fill="#000000"/>
<path d="M536.539 357.696V320.88L562.843 294.576L536.539 357.696Z" fill="#1c1c1c"/>
<path d="M536.54 357.696L510.236 294.576L536.54 320.88V357.696Z" fill="#aaaaaa"/>
<path d="M536.539 357.695H499.711L473.419 331.391L536.539 357.695Z" fill="#8c8c8c"/>
<path d="M536.539 357.695L473.419 383.999L499.723 357.695H536.539Z" fill="#000000"/>
<path d="M536.539 357.695H573.355L599.659 331.391L536.539 357.695Z" fill="#ffffff"/>
<path d="M536.539 357.695L599.659 383.999L573.355 357.695H536.539Z" fill="#555555"/>
<path d="M536.539 357.695V394.511L562.843 420.815L536.539 357.695Z" fill="#707070"/>
<path d="M536.54 357.695L510.236 420.815L536.54 394.511V357.695Z" fill="#ffffff"/>
<path d="M625.965 536.543L652.269 510.239L625.965 483.936V536.543Z" fill="#cccccc"/>
<path d="M599.661 510.239L625.965 536.543V483.936" fill="#3a3a3a"/>
<path d="M715.387 447.118L689.083 420.814L662.779 447.118H715.387Z" fill="#1c1c1c"/>
<path d="M689.083 473.423L715.387 447.119H662.779" fill="#8c8c8c"/>
<path d="M562.833 473.423L625.965 447.119L599.661 510.239L562.833 473.423Z" fill="#555555"/>
<path d="M689.084 420.816L625.964 447.12L652.256 384L689.084 420.816Z" fill="#3a3a3a"/>
<path d="M652.268 510.239L625.964 447.119L689.084 473.423L652.268 510.239Z" fill="#cccccc"/>
<path d="M599.66 384L625.964 447.12L562.844 420.816L599.66 384Z" fill="#000000"/>
<path d="M589.136 447.118L562.844 420.814L536.54 447.118H589.136Z" fill="#1c1c1c"/>
<path d="M562.832 473.423L589.136 447.119H536.54" fill="#ffffff"/>
<path d="M625.964 410.291L652.256 383.999L625.964 357.695V410.291Z" fill="#cccccc"/>
<path d="M599.661 383.999L625.965 410.291V357.695" fill="#000000"/>
<path d="M625.964 447.12V410.292L652.256 384L625.964 447.12Z" fill="#1c1c1c"/>
<path d="M625.965 447.12L599.661 384L625.965 410.292V447.12Z" fill="#aaaaaa"/>
<path d="M625.964 447.118H589.136L562.844 420.814L625.964 447.118Z" fill="#8c8c8c"/>
<path d="M625.965 447.119L562.833 473.423L589.137 447.119H625.965Z" fill="#000000"/>
<path d="M625.964 447.118H662.78L689.084 420.814L625.964 447.118Z" fill="#ffffff"/>
<path d="M625.964 447.119L689.084 473.423L662.78 447.119H625.964Z" fill="#555555"/>
<path d="M625.964 447.119V483.935L652.268 510.239L625.964 447.119Z" fill="#707070"/>
<path d="M625.965 447.119L599.661 510.239L625.965 483.935V447.119Z" fill="#ffffff"/>
<path d="M715.389 625.967L741.681 599.663L715.389 573.359V625.967Z" fill="#cccccc"/>
<path d="M689.085 599.663L715.389 625.967V573.359" fill="#3a3a3a"/>
<path d="M804.811 536.542L778.507 510.238L752.203 536.542H804.811Z" fill="#1c1c1c"/>
<path d="M778.507 562.835L804.811 536.543H752.203" fill="#8c8c8c"/>
<path d="M652.257 562.835L715.388 536.543L689.085 599.663L652.257 562.835Z" fill="#555555"/>
<path d="M778.508 510.24L715.388 536.544L741.68 473.424L778.508 510.24Z" fill="#3a3a3a"/>
<path d="M741.68 599.663L715.388 536.543L778.508 562.835L741.68 599.663Z" fill="#cccccc"/>
<path d="M689.084 473.424L715.387 536.544L652.268 510.24L689.084 473.424Z" fill="#000000"/>
<path d="M678.56 536.542L652.268 510.238L625.964 536.542H678.56Z" fill="#1c1c1c"/>
<path d="M652.256 562.835L678.56 536.543H625.964" fill="#ffffff"/>
<path d="M715.388 499.715L741.68 473.423L715.388 447.119V499.715Z" fill="#cccccc"/>
<path d="M689.085 473.423L715.389 499.715V447.119" fill="#000000"/>
<path d="M715.388 536.544V499.716L741.68 473.424L715.388 536.544Z" fill="#1c1c1c"/>
<path d="M715.389 536.544L689.085 473.424L715.389 499.716V536.544Z" fill="#aaaaaa"/>
<path d="M715.387 536.542H678.56L652.268 510.238L715.387 536.542Z" fill="#8c8c8c"/>
<path d="M715.388 536.543L652.257 562.835L678.561 536.543H715.388Z" fill="#000000"/>
<path d="M715.388 536.542H752.204L778.508 510.238L715.388 536.542Z" fill="#ffffff"/>
<path d="M715.388 536.543L778.508 562.835L752.204 536.543H715.388Z" fill="#555555"/>
<path d="M715.388 536.543V573.359L741.68 599.663L715.388 536.543Z" fill="#707070"/>
<path d="M715.389 536.543L689.085 599.663L715.389 573.359V536.543Z" fill="#ffffff"/>
<path d="M715.272 804.696L741.576 778.392L715.272 752.088V804.696Z" fill="#cccccc"/>
<path d="M688.97 778.392L715.274 804.696V752.088" fill="#3a3a3a"/>
<path d="M804.696 715.271L778.392 688.967L752.088 715.271H804.696Z" fill="#1c1c1c"/>
<path d="M778.392 741.575L804.696 715.271H752.088" fill="#8c8c8c"/>
<path d="M652.153 741.575L715.273 715.271L688.969 778.391L652.153 741.575Z" fill="#555555"/>
<path d="M778.393 688.966L715.273 715.27L741.577 652.15L778.393 688.966Z" fill="#3a3a3a"/>
<path d="M741.577 778.391L715.273 715.271L778.393 741.575L741.577 778.391Z" fill="#cccccc"/>
<path d="M688.969 652.15L715.273 715.27L652.153 688.966L688.969 652.15Z" fill="#000000"/>
<path d="M678.457 715.271L652.153 688.967L625.85 715.271H678.457Z" fill="#1c1c1c"/>
<path d="M652.153 741.575L678.457 715.271H625.85" fill="#ffffff"/>
<path d="M715.273 678.455L741.577 652.152L715.273 625.848V678.455Z" fill="#cccccc"/>
<path d="M688.971 652.152L715.275 678.455V625.848" fill="#000000"/>
<path d="M715.273 715.27V678.454L741.577 652.15L715.273 715.27Z" fill="#1c1c1c"/>
<path d="M715.275 715.27L688.971 652.15L715.275 678.454V715.27Z" fill="#aaaaaa"/>
<path d="M715.273 715.271H678.457L652.153 688.967L715.273 715.271Z" fill="#8c8c8c"/>
<path d="M715.273 715.271L652.153 741.575L678.457 715.271H715.273Z" fill="#000000"/>
<path d="M715.273 715.271H752.089L778.393 688.967L715.273 715.271Z" fill="#ffffff"/>
<path d="M715.273 715.271L778.393 741.575L752.089 715.271H715.273Z" fill="#555555"/>
<path d="M715.273 715.271V752.088L741.577 778.391L715.273 715.271Z" fill="#707070"/>
<path d="M715.275 715.271L688.971 778.391L715.275 752.088V715.271Z" fill="#ffffff"/>
<path d="M804.694 894.119L830.998 867.816L804.694 841.512V894.119Z" fill="#cccccc"/>
<path d="M778.391 867.816L804.695 894.119V841.512" fill="#3a3a3a"/>
<path d="M894.117 804.695L867.813 778.391L841.509 804.695H894.117Z" fill="#1c1c1c"/>
<path d="M867.813 830.999L894.117 804.695H841.509" fill="#8c8c8c"/>
<path d="M741.573 830.999L804.693 804.695L778.389 867.815L741.573 830.999Z" fill="#555555"/>
<path d="M867.813 778.392L804.693 804.696L830.997 741.576L867.813 778.392Z" fill="#3a3a3a"/>
<path d="M830.997 867.815L804.693 804.695L867.813 830.999L830.997 867.815Z" fill="#cccccc"/>
<path d="M778.389 741.576L804.693 804.696L741.573 778.392L778.389 741.576Z" fill="#000000"/>
<path d="M767.877 804.695L741.573 778.391L715.27 804.695H767.877Z" fill="#1c1c1c"/>
<path d="M741.573 830.999L767.877 804.695H715.27" fill="#ffffff"/>
<path d="M804.693 767.879L830.997 741.575L804.693 715.271V767.879Z" fill="#cccccc"/>
<path d="M778.391 741.575L804.695 767.879V715.271" fill="#000000"/>
<path d="M804.693 804.696V767.88L830.997 741.576L804.693 804.696Z" fill="#1c1c1c"/>
<path d="M804.695 804.696L778.391 741.576L804.695 767.88V804.696Z" fill="#aaaaaa"/>
<path d="M804.693 804.695H767.877L741.573 778.391L804.693 804.695Z" fill="#8c8c8c"/>
<path d="M804.693 804.695L741.573 830.999L767.877 804.695H804.693Z" fill="#000000"/>
<path d="M804.693 804.695H841.509L867.813 778.391L804.693 804.695Z" fill="#ffffff"/>
<path d="M804.693 804.695L867.813 830.999L841.509 804.695H804.693Z" fill="#555555"/>
<path d="M804.693 804.695V841.511L830.997 867.815L804.693 804.695Z" fill="#707070"/>
<path d="M804.695 804.695L778.391 867.815L804.695 841.511V804.695Z" fill="#ffffff"/>
<path d="M447.119 536.543L473.423 510.239L447.119 483.936V536.543Z" fill="#cccccc"/>
<path d="M867.815 63.1202L894.119 89.4241V36.8164" fill="#3a3a3a"/>
<path d="M536.541 447.118L510.237 420.814L483.934 447.118H536.541Z" fill="#1c1c1c"/>
<path d="M510.237 473.423L536.541 447.119H483.934" fill="#8c8c8c"/>
<path d="M830.998 26.3038L894.118 0L867.814 63.1199L830.998 26.3038Z" fill="#555555"/>
<path d="M510.238 420.816L447.118 447.12L473.422 384L510.238 420.816Z" fill="#3a3a3a"/>
<path d="M473.422 510.239L447.118 447.119L510.238 473.423L473.422 510.239Z" fill="#cccccc"/>
<path d="M867.814 831L894.118 894.12L830.998 867.816L867.814 831Z" fill="#000000"/>
<path d="M857.302 894.118L830.998 867.814L804.694 894.118H857.302Z" fill="#1c1c1c"/>
<path d="M830.998 26.3038L857.302 0H804.694" fill="#ffffff"/>
<path d="M447.118 410.303L473.422 383.999L447.118 357.695V410.303Z" fill="#cccccc"/>
<path d="M867.815 830.999L894.119 857.303V804.695" fill="#000000"/>
<path d="M447.118 447.12V410.304L473.422 384L447.118 447.12Z" fill="#1c1c1c"/>
<path d="M894.119 894.12L867.815 831L894.119 857.304V894.12Z" fill="#aaaaaa"/>
<path d="M894.118 894.118H857.302L830.998 867.814L894.118 894.118Z" fill="#8c8c8c"/>
<path d="M894.118 0L830.998 26.3038L857.302 0H894.118Z" fill="#000000"/>
<path d="M447.118 447.118H483.934L510.238 420.814L447.118 447.118Z" fill="#ffffff"/>
<path d="M447.118 447.119L510.238 473.423L483.934 447.119H447.118Z" fill="#555555"/>
<path d="M447.118 447.119V483.935L473.422 510.239L447.118 447.119Z" fill="#707070"/>
<path d="M894.119 0L867.815 63.1199L894.119 36.816V0Z" fill="#ffffff"/>
<path d="M536.54 625.967L562.844 599.663L536.54 573.359V625.967Z" fill="#cccccc"/>
<path d="M510.237 599.663L536.541 625.967V573.359" fill="#3a3a3a"/>
<path d="M625.963 536.542L599.659 510.238L573.355 536.542H625.963Z" fill="#1c1c1c"/>
<path d="M599.659 562.847L625.963 536.543H573.355" fill="#8c8c8c"/>
<path d="M473.419 562.835L536.539 536.543L510.235 599.663L473.419 562.835Z" fill="#555555"/>
<path d="M599.659 510.24L536.539 536.544L562.831 473.424L599.659 510.24Z" fill="#3a3a3a"/>
<path d="M562.843 599.663L536.539 536.543L599.659 562.847L562.843 599.663Z" fill="#cccccc"/>
<path d="M510.235 473.424L536.539 536.544L473.419 510.24L510.235 473.424Z" fill="#000000"/>
<path d="M499.723 536.542L473.419 510.238L447.115 536.542H499.723Z" fill="#1c1c1c"/>
<path d="M473.419 562.847L499.723 536.543H447.115" fill="#ffffff"/>
<path d="M536.539 499.727L562.843 473.423L536.539 447.119V499.727Z" fill="#cccccc"/>
<path d="M510.236 473.423L536.54 499.727V447.119" fill="#000000"/>
<path d="M536.539 536.544V499.728L562.843 473.424L536.539 536.544Z" fill="#1c1c1c"/>
<path d="M536.54 536.544L510.236 473.424L536.54 499.728V536.544Z" fill="#aaaaaa"/>
<path d="M536.539 536.542H499.711L473.419 510.238L536.539 536.542Z" fill="#8c8c8c"/>
<path d="M536.539 536.543L473.419 562.847L499.723 536.543H536.539Z" fill="#000000"/>
<path d="M536.539 536.542H573.355L599.659 510.238L536.539 536.542Z" fill="#ffffff"/>
<path d="M536.539 536.543L599.659 562.847L573.355 536.543H536.539Z" fill="#555555"/>
<path d="M536.539 536.543V573.359L562.843 599.663L536.539 536.543Z" fill="#707070"/>
<path d="M536.54 536.543L510.236 599.663L536.54 573.359V536.543Z" fill="#ffffff"/>
<path d="M625.965 715.391L652.269 689.087L625.965 662.783V715.391Z" fill="#cccccc"/>
<path d="M599.661 689.087L625.965 715.391V662.783" fill="#3a3a3a"/>
<path d="M715.387 625.968L689.083 599.664L662.779 625.968H715.387Z" fill="#1c1c1c"/>
<path d="M689.083 652.271L715.387 625.967H662.779" fill="#8c8c8c"/>
<path d="M562.833 652.259L625.965 625.967L599.661 689.087L562.833 652.259Z" fill="#555555"/>
<path d="M689.084 599.664L625.964 625.968L652.256 562.836L689.084 599.664Z" fill="#3a3a3a"/>
<path d="M652.268 689.087L625.964 625.967L689.084 652.271L652.268 689.087Z" fill="#cccccc"/>
<path d="M599.66 562.846L625.964 625.966L562.844 599.662L599.66 562.846Z" fill="#000000"/>
<path d="M589.136 625.966L562.844 599.662L536.54 625.966H589.136Z" fill="#1c1c1c"/>
<path d="M562.832 652.259L589.136 625.967H536.54" fill="#ffffff"/>
<path d="M625.964 589.139L652.256 562.835L625.964 536.543V589.139Z" fill="#cccccc"/>
<path d="M599.661 562.847L625.965 589.139V536.543" fill="#000000"/>
<path d="M625.964 625.968V589.14L652.256 562.836L625.964 625.968Z" fill="#1c1c1c"/>
<path d="M625.965 625.966L599.661 562.846L625.965 589.138V625.966Z" fill="#aaaaaa"/>
<path d="M625.964 625.966H589.136L562.844 599.662L625.964 625.966Z" fill="#8c8c8c"/>
<path d="M625.965 625.967L562.833 652.259L589.137 625.967H625.965Z" fill="#000000"/>
<path d="M625.964 625.966H662.78L689.084 599.662L625.964 625.966Z" fill="#ffffff"/>
<path d="M625.964 625.967L689.084 652.271L662.78 625.967H625.964Z" fill="#555555"/>
<path d="M625.964 625.967V662.783L652.268 689.087L625.964 625.967Z" fill="#707070"/>
<path d="M625.965 625.967L599.661 689.087L625.965 662.783V625.967Z" fill="#ffffff"/>
<path d="M625.849 894.119L652.152 867.816L625.849 841.512V894.119Z" fill="#cccccc"/>
<path d="M599.545 867.816L625.849 894.119V841.512" fill="#3a3a3a"/>
<path d="M715.271 804.695L688.967 778.391L662.663 804.695H715.271Z" fill="#1c1c1c"/>
<path d="M688.967 830.999L715.271 804.695H662.663" fill="#8c8c8c"/>
<path d="M562.729 830.999L625.848 804.695L599.545 867.815L562.729 830.999Z" fill="#555555"/>
<path d="M688.969 778.392L625.849 804.696L652.152 741.576L688.969 778.392Z" fill="#3a3a3a"/>
<path d="M652.152 867.815L625.849 804.695L688.969 830.999L652.152 867.815Z" fill="#cccccc"/>
<path d="M599.545 741.576L625.848 804.696L562.729 778.392L599.545 741.576Z" fill="#000000"/>
<path d="M589.033 804.695L562.729 778.391L536.425 804.695H589.033Z" fill="#1c1c1c"/>
<path d="M562.729 830.999L589.033 804.695H536.425" fill="#ffffff"/>
<path d="M625.849 767.879L652.152 741.575L625.849 715.271V767.879Z" fill="#cccccc"/>
<path d="M599.546 741.575L625.85 767.879V715.271" fill="#000000"/>
<path d="M625.849 804.696V767.88L652.152 741.576L625.849 804.696Z" fill="#1c1c1c"/>
<path d="M625.85 804.696L599.546 741.576L625.85 767.88V804.696Z" fill="#aaaaaa"/>
<path d="M625.848 804.695H589.032L562.729 778.391L625.848 804.695Z" fill="#8c8c8c"/>
<path d="M625.848 804.695L562.729 830.999L589.032 804.695H625.848Z" fill="#000000"/>
<path d="M625.849 804.695H662.665L688.969 778.391L625.849 804.695Z" fill="#ffffff"/>
<path d="M625.849 804.695L688.969 830.999L662.665 804.695H625.849Z" fill="#555555"/>
<path d="M625.849 804.695V841.511L652.152 867.815L625.849 804.695Z" fill="#707070"/>
<path d="M625.85 804.695L599.546 867.815L625.85 841.511V804.695Z" fill="#ffffff"/>
<path d="M715.272 89.4241L741.576 63.1202L715.272 36.8164V89.4241Z" fill="#cccccc"/>
<path d="M688.97 63.1202L715.274 89.4241V36.8164" fill="#3a3a3a"/>
<path d="M804.696 894.118L778.392 867.814L752.088 894.118H804.696Z" fill="#1c1c1c"/>
<path d="M778.392 26.3038L804.696 0H752.088" fill="#8c8c8c"/>
<path d="M652.153 26.3038L715.273 0L688.969 63.1199L652.153 26.3038Z" fill="#555555"/>
<path d="M778.393 867.816L715.273 894.12L741.577 831L778.393 867.816Z" fill="#3a3a3a"/>
<path d="M741.577 63.1199L715.273 0L778.393 26.3038L741.577 63.1199Z" fill="#cccccc"/>
<path d="M688.969 831L715.273 894.12L652.153 867.816L688.969 831Z" fill="#000000"/>
<path d="M678.457 894.118L652.153 867.814L625.85 894.118H678.457Z" fill="#1c1c1c"/>
<path d="M652.153 26.3038L678.457 0H625.85" fill="#ffffff"/>
<path d="M715.273 857.303L741.577 830.999L715.273 804.695V857.303Z" fill="#cccccc"/>
<path d="M688.971 830.999L715.275 857.303V804.695" fill="#000000"/>
<path d="M715.273 894.12V857.304L741.577 831L715.273 894.12Z" fill="#1c1c1c"/>
<path d="M715.275 894.12L688.971 831L715.275 857.304V894.12Z" fill="#aaaaaa"/>
<path d="M715.273 894.118H678.457L652.153 867.814L715.273 894.118Z" fill="#8c8c8c"/>
<path d="M715.273 0L652.153 26.3038L678.457 0H715.273Z" fill="#000000"/>
<path d="M715.273 894.118H752.089L778.393 867.814L715.273 894.118Z" fill="#ffffff"/>
<path d="M715.273 0L778.393 26.3038L752.089 0H715.273Z" fill="#555555"/>
<path d="M715.273 0V36.816L741.577 63.1199L715.273 0Z" fill="#707070"/>
<path d="M715.275 0L688.971 63.1199L715.275 36.816V0Z" fill="#ffffff"/>
<path d="M804.694 178.848L830.998 152.544L804.694 126.24V178.848Z" fill="#cccccc"/>
<path d="M778.391 152.544L804.695 178.848V126.24" fill="#3a3a3a"/>
<path d="M894.117 89.423L867.813 63.1191L841.509 89.423H894.117Z" fill="#1c1c1c"/>
<path d="M867.813 115.728L894.117 89.4238H841.509" fill="#8c8c8c"/>
<path d="M741.573 115.728L804.693 89.4238L778.389 152.544L741.573 115.728Z" fill="#555555"/>
<path d="M867.813 63.1207L804.693 89.4246L830.997 26.3047L867.813 63.1207Z" fill="#3a3a3a"/>
<path d="M830.997 152.544L804.693 89.4238L867.813 115.728L830.997 152.544Z" fill="#cccccc"/>
<path d="M778.389 26.3047L804.693 89.4246L741.573 63.1207L778.389 26.3047Z" fill="#000000"/>
<path d="M767.877 89.423L741.573 63.1191L715.27 89.423H767.877Z" fill="#1c1c1c"/>
<path d="M741.573 115.728L767.877 89.4238H715.27" fill="#ffffff"/>
<path d="M804.693 52.6077L830.997 26.3038L804.693 0V52.6077Z" fill="#cccccc"/>
<path d="M778.391 26.3038L804.695 52.6077V0" fill="#000000"/>
<path d="M804.693 89.4246V52.6086L830.997 26.3047L804.693 89.4246Z" fill="#1c1c1c"/>
<path d="M804.695 89.4246L778.391 26.3047L804.695 52.6086V89.4246Z" fill="#aaaaaa"/>
<path d="M804.693 89.423H767.865L741.573 63.1191L804.693 89.423Z" fill="#8c8c8c"/>
<path d="M804.693 89.4238L741.573 115.728L767.877 89.4238H804.693Z" fill="#000000"/>
<path d="M804.693 89.423H841.509L867.813 63.1191L804.693 89.423Z" fill="#ffffff"/>
<path d="M804.693 89.4238L867.813 115.728L841.509 89.4238H804.693Z" fill="#555555"/>
<path d="M804.693 89.4238V126.24L830.997 152.544L804.693 89.4238Z" fill="#707070"/>
<path d="M804.695 89.4238L778.391 152.544L804.695 126.24V89.4238Z" fill="#ffffff"/>
<path d="M447.119 715.391L473.423 689.087L447.119 662.783V715.391Z" fill="#cccccc"/>
<path d="M867.815 241.968L894.119 268.272V215.664" fill="#3a3a3a"/>
<path d="M536.541 625.968L510.237 599.664L483.934 625.968H536.541Z" fill="#1c1c1c"/>
<path d="M510.237 652.271L536.541 625.967H483.934" fill="#8c8c8c"/>
<path d="M830.998 205.14L894.118 178.848L867.814 241.968L830.998 205.14Z" fill="#555555"/>
<path d="M510.238 599.664L447.118 625.968L473.422 562.836L510.238 599.664Z" fill="#3a3a3a"/>
<path d="M473.422 689.087L447.118 625.967L510.238 652.271L473.422 689.087Z" fill="#cccccc"/>
<path d="M867.814 115.727L894.118 178.846L830.998 152.543L867.814 115.727Z" fill="#000000"/>
<path d="M857.29 178.847L830.998 152.543L804.694 178.847H857.29Z" fill="#1c1c1c"/>
<path d="M830.998 205.14L857.29 178.848H804.694" fill="#ffffff"/>
<path d="M447.118 589.139L473.422 562.835L447.118 536.543V589.139Z" fill="#cccccc"/>
<path d="M867.815 115.728L894.119 142.02V89.4238" fill="#000000"/>
<path d="M447.118 625.968V589.14L473.422 562.836L447.118 625.968Z" fill="#1c1c1c"/>
<path d="M894.119 178.846L867.815 115.727L894.119 142.03V178.846Z" fill="#aaaaaa"/>
<path d="M894.118 178.847H857.29L830.998 152.543L894.118 178.847Z" fill="#8c8c8c"/>
<path d="M894.118 178.848L830.998 205.14L857.29 178.848H894.118Z" fill="#000000"/>
<path d="M447.118 625.966H483.934L510.238 599.662L447.118 625.966Z" fill="#ffffff"/>
<path d="M447.118 625.967L510.238 652.271L483.934 625.967H447.118Z" fill="#555555"/>
<path d="M447.118 625.967V662.783L473.422 689.087L447.118 625.967Z" fill="#707070"/>
<path d="M894.119 178.848L867.815 241.968L894.119 215.664V178.848Z" fill="#ffffff"/>
<path d="M536.54 804.815L562.832 778.511L536.54 752.207V804.815Z" fill="#cccccc"/>
<path d="M510.237 778.511L536.541 804.815V752.207" fill="#3a3a3a"/>
<path d="M625.963 715.39L599.659 689.086L573.355 715.39H625.963Z" fill="#1c1c1c"/>
<path d="M599.659 741.683L625.963 715.391H573.355" fill="#8c8c8c"/>
<path d="M473.419 741.683L536.539 715.391L510.235 778.51L473.419 741.683Z" fill="#555555"/>
<path d="M599.659 689.086L536.539 715.389L562.831 652.258L599.659 689.086Z" fill="#3a3a3a"/>
<path d="M562.831 778.51L536.539 715.391L599.659 741.683L562.831 778.51Z" fill="#cccccc"/>
<path d="M510.235 652.271L536.539 715.391L473.419 689.088L510.235 652.271Z" fill="#000000"/>
<path d="M499.711 715.39L473.419 689.086L447.115 715.39H499.711Z" fill="#1c1c1c"/>
<path d="M473.419 741.683L499.711 715.391H447.115" fill="#ffffff"/>
<path d="M536.539 678.563L562.831 652.259L536.539 625.967V678.563Z" fill="#cccccc"/>
<path d="M510.236 652.271L536.54 678.563V625.967" fill="#000000"/>
<path d="M536.539 715.389V678.562L562.831 652.258L536.539 715.389Z" fill="#1c1c1c"/>
<path d="M536.54 715.391L510.236 652.271L536.54 678.564V715.391Z" fill="#aaaaaa"/>
<path d="M536.539 715.39H499.711L473.419 689.086L536.539 715.39Z" fill="#8c8c8c"/>
<path d="M536.539 715.391L473.419 741.683L499.711 715.391H536.539Z" fill="#000000"/>
<path d="M536.539 715.39H573.355L599.659 689.086L536.539 715.39Z" fill="#ffffff"/>
<path d="M536.539 715.391L599.659 741.694L573.355 715.391H536.539Z" fill="#555555"/>
<path d="M536.539 715.391V752.207L562.843 778.51L536.539 715.391Z" fill="#707070"/>
<path d="M536.54 715.391L510.236 778.51L536.54 752.207V715.391Z" fill="#ffffff"/>
<path d="M536.424 89.4241L562.728 63.1202L536.424 36.8164V89.4241Z" fill="#cccccc"/>
<path d="M510.12 63.1202L536.424 89.4241V36.8164" fill="#3a3a3a"/>
<path d="M625.846 894.118L599.542 867.814L573.238 894.118H625.846Z" fill="#1c1c1c"/>
<path d="M599.542 26.3038L625.846 0H573.238" fill="#8c8c8c"/>
<path d="M473.304 26.3038L536.424 0L510.12 63.1199L473.304 26.3038Z" fill="#555555"/>
<path d="M599.544 867.816L536.424 894.12L562.728 831L599.544 867.816Z" fill="#3a3a3a"/>
<path d="M562.728 63.1199L536.424 0L599.544 26.3038L562.728 63.1199Z" fill="#cccccc"/>
<path d="M510.12 831L536.424 894.12L473.304 867.816L510.12 831Z" fill="#000000"/>
<path d="M499.608 894.118L473.304 867.814L447 894.118H499.608Z" fill="#1c1c1c"/>
<path d="M473.304 26.3038L499.608 0H447" fill="#ffffff"/>
<path d="M536.424 857.303L562.728 830.999L536.424 804.695V857.303Z" fill="#cccccc"/>
<path d="M510.121 830.999L536.425 857.303V804.695" fill="#000000"/>
<path d="M536.424 894.12V857.304L562.728 831L536.424 894.12Z" fill="#1c1c1c"/>
<path d="M536.425 894.12L510.121 831L536.425 857.304V894.12Z" fill="#aaaaaa"/>
<path d="M536.424 894.118H499.608L473.304 867.814L536.424 894.118Z" fill="#8c8c8c"/>
<path d="M536.424 0L473.304 26.3038L499.608 0H536.424Z" fill="#000000"/>
<path d="M536.424 894.118H573.24L599.544 867.814L536.424 894.118Z" fill="#ffffff"/>
<path d="M536.424 0L599.544 26.3038L573.24 0H536.424Z" fill="#555555"/>
<path d="M536.424 0V36.816L562.728 63.1199L536.424 0Z" fill="#707070"/>
<path d="M536.425 0L510.121 63.1199L536.425 36.816V0Z" fill="#ffffff"/>
<path d="M625.849 178.848L652.152 152.544L625.849 126.24V178.848Z" fill="#cccccc"/>
<path d="M599.545 152.544L625.849 178.848V126.24" fill="#3a3a3a"/>
<path d="M715.271 89.423L688.967 63.1191L662.663 89.423H715.271Z" fill="#1c1c1c"/>
<path d="M688.967 115.728L715.271 89.4238H662.663" fill="#8c8c8c"/>
<path d="M562.729 115.728L625.848 89.4238L599.545 152.544L562.729 115.728Z" fill="#555555"/>
<path d="M688.969 63.1207L625.849 89.4246L652.152 26.3047L688.969 63.1207Z" fill="#3a3a3a"/>
<path d="M652.152 152.544L625.849 89.4238L688.969 115.728L652.152 152.544Z" fill="#cccccc"/>
<path d="M599.545 26.3047L625.848 89.4246L562.729 63.1207L599.545 26.3047Z" fill="#000000"/>
<path d="M589.021 89.423L562.729 63.1191L536.425 89.423H589.021Z" fill="#1c1c1c"/>
<path d="M562.729 115.728L589.021 89.4238H536.425" fill="#ffffff"/>
<path d="M625.849 52.6077L652.152 26.3038L625.849 0V52.6077Z" fill="#cccccc"/>
<path d="M599.546 26.3038L625.85 52.6077V0" fill="#000000"/>
<path d="M625.849 89.4246V52.6086L652.152 26.3047L625.849 89.4246Z" fill="#1c1c1c"/>
<path d="M625.85 89.4246L599.546 26.3047L625.85 52.6086V89.4246Z" fill="#aaaaaa"/>
<path d="M625.848 89.423H589.021L562.729 63.1191L625.848 89.423Z" fill="#8c8c8c"/>
<path d="M625.848 89.4238L562.729 115.728L589.021 89.4238H625.848Z" fill="#000000"/>
<path d="M625.849 89.423H662.665L688.969 63.1191L625.849 89.423Z" fill="#ffffff"/>
<path d="M625.849 89.4238L688.969 115.728L662.665 89.4238H625.849Z" fill="#555555"/>
<path d="M625.849 89.4238V126.24L652.152 152.544L625.849 89.4238Z" fill="#707070"/>
<path d="M625.85 89.4238L599.546 152.544L625.85 126.24V89.4238Z" fill="#ffffff"/>
<path d="M715.272 268.272L741.576 241.968L715.272 215.664V268.272Z" fill="#cccccc"/>
<path d="M688.97 241.968L715.274 268.272V215.664" fill="#3a3a3a"/>
<path d="M804.696 178.849L778.392 152.545L752.088 178.849H804.696Z" fill="#1c1c1c"/>
<path d="M778.392 205.152L804.696 178.848H752.088" fill="#8c8c8c"/>
<path d="M652.153 205.14L715.273 178.848L688.969 241.968L652.153 205.14Z" fill="#555555"/>
<path d="M778.393 152.543L715.273 178.846L741.566 115.727L778.393 152.543Z" fill="#3a3a3a"/>
<path d="M741.577 241.968L715.273 178.848L778.393 205.152L741.577 241.968Z" fill="#cccccc"/>
<path d="M688.969 115.727L715.273 178.846L652.153 152.543L688.969 115.727Z" fill="#000000"/>
<path d="M678.446 178.847L652.153 152.543L625.85 178.847H678.446Z" fill="#1c1c1c"/>
<path d="M652.153 205.14L678.446 178.848H625.85" fill="#ffffff"/>
<path d="M715.273 142.02L741.577 115.716L715.273 89.4238V142.02Z" fill="#cccccc"/>
<path d="M688.971 115.728L715.275 142.02V89.4238" fill="#000000"/>
<path d="M715.273 178.848V142.021L741.577 115.717L715.273 178.848Z" fill="#1c1c1c"/>
<path d="M715.275 178.846L688.971 115.727L715.275 142.03V178.846Z" fill="#aaaaaa"/>
<path d="M715.273 178.847H678.445L652.153 152.543L715.273 178.847Z" fill="#8c8c8c"/>
<path d="M715.273 178.848L652.153 205.14L678.445 178.848H715.273Z" fill="#000000"/>
<path d="M715.273 178.847H752.089L778.393 152.543L715.273 178.847Z" fill="#ffffff"/>
<path d="M715.273 178.848L778.393 205.152L752.089 178.848H715.273Z" fill="#555555"/>
<path d="M715.273 178.848V215.664L741.577 241.968L715.273 178.848Z" fill="#707070"/>
<path d="M715.275 178.848L688.971 241.968L715.275 215.664V178.848Z" fill="#ffffff"/>
<path d="M804.694 357.696L830.986 331.392L804.694 305.088V357.696Z" fill="#cccccc"/>
<path d="M778.391 331.392L804.695 357.696V305.088" fill="#3a3a3a"/>
<path d="M894.117 268.271L867.813 241.967L841.509 268.271H894.117Z" fill="#1c1c1c"/>
<path d="M867.813 294.564L894.117 268.271H841.509" fill="#8c8c8c"/>
<path d="M741.573 294.564L804.693 268.271L778.389 331.391L741.573 294.564Z" fill="#555555"/>
<path d="M867.813 241.968L804.693 268.272L830.985 205.152L867.813 241.968Z" fill="#3a3a3a"/>
<path d="M830.985 331.391L804.693 268.271L867.813 294.564L830.985 331.391Z" fill="#cccccc"/>
<path d="M778.389 205.152L804.693 268.272L741.573 241.968L778.389 205.152Z" fill="#000000"/>
<path d="M767.866 268.271L741.573 241.967L715.27 268.271H767.866Z" fill="#1c1c1c"/>
<path d="M741.573 294.564L767.866 268.271H715.27" fill="#ffffff"/>
<path d="M804.693 231.444L830.997 205.14L804.693 178.848V231.444Z" fill="#cccccc"/>
<path d="M778.391 205.152L804.695 231.444V178.848" fill="#000000"/>
<path d="M804.693 268.27V231.443L830.997 205.139L804.693 268.27Z" fill="#1c1c1c"/>
<path d="M804.695 268.272L778.391 205.152L804.695 231.444V268.272Z" fill="#aaaaaa"/>
<path d="M804.693 268.271H767.865L741.573 241.967L804.693 268.271Z" fill="#8c8c8c"/>
<path d="M804.693 268.271L741.573 294.564L767.865 268.271H804.693Z" fill="#000000"/>
<path d="M804.693 268.271H841.509L867.813 241.967L804.693 268.271Z" fill="#ffffff"/>
<path d="M804.693 268.271L867.813 294.575L841.509 268.271H804.693Z" fill="#555555"/>
<path d="M804.693 268.271V305.088L830.985 331.391L804.693 268.271Z" fill="#707070"/>
<path d="M804.695 268.271L778.391 331.391L804.695 305.088V268.271Z" fill="#ffffff"/>
<path d="M447.119 894.239L473.411 867.935L447.119 841.631V894.239Z" fill="#cccccc"/>
<path d="M867.815 420.816L894.119 447.12V394.512" fill="#3a3a3a"/>
<path d="M536.541 804.814L510.237 778.51L483.934 804.814H536.541Z" fill="#1c1c1c"/>
<path d="M510.237 831.107L536.541 804.814H483.934" fill="#8c8c8c"/>
<path d="M830.998 383.988L894.118 357.695L867.814 420.815L830.998 383.988Z" fill="#555555"/>
<path d="M510.238 778.509L447.118 804.813L473.41 741.693L510.238 778.509Z" fill="#3a3a3a"/>
<path d="M473.41 867.934L447.118 804.814L510.238 831.107L473.41 867.934Z" fill="#cccccc"/>
<path d="M867.814 294.574L894.118 357.694L830.998 331.39L867.814 294.574Z" fill="#000000"/>
<path d="M857.29 357.695L830.998 331.391L804.694 357.695H857.29Z" fill="#1c1c1c"/>
<path d="M830.998 383.987L857.29 357.695H804.694" fill="#ffffff"/>
<path d="M447.118 767.987L473.422 741.683L447.118 715.391V767.987Z" fill="#cccccc"/>
<path d="M867.815 294.575L894.119 320.867V268.271" fill="#000000"/>
<path d="M447.118 804.815V767.988L473.422 741.684L447.118 804.815Z" fill="#1c1c1c"/>
<path d="M894.119 357.694L867.815 294.574L894.119 320.866V357.694Z" fill="#aaaaaa"/>
<path d="M894.119 357.695H857.291L830.987 331.391L894.119 357.695Z" fill="#8c8c8c"/>
<path d="M894.118 357.695L830.998 383.988L857.29 357.695H894.118Z" fill="#000000"/>
<path d="M447.118 804.814H483.934L510.238 778.51L447.118 804.814Z" fill="#ffffff"/>
<path d="M447.118 804.814L510.238 831.107L483.934 804.814H447.118Z" fill="#555555"/>
<path d="M447.118 804.814V841.63L473.41 867.934L447.118 804.814Z" fill="#707070"/>
<path d="M894.119 357.695L867.815 420.815L894.119 394.511V357.695Z" fill="#ffffff"/>
</svg>
