<svg width="370" height="107" viewBox="0 0 370 107" fill="none" xmlns="http://www.w3.org/2000/svg">
<g clip-path="url(#clip0_372_27774)">
<rect width="177" height="75" rx="37.5" fill="white"/>
<g filter="url(#filter0_dd_372_27774)">
<path d="M4 37.5C4 18.9985 18.9985 4 37.5 4H139.5C158.002 4 173 18.9985 173 37.5V37.5C173 56.0015 158.002 71 139.5 71H37.5C18.9985 71 4 56.0015 4 37.5V37.5Z" fill="white"/>
<path d="M4 37.5C4 18.9985 18.9985 4 37.5 4H139.5C158.002 4 173 18.9985 173 37.5V37.5C173 56.0015 158.002 71 139.5 71H37.5C18.9985 71 4 56.0015 4 37.5V37.5Z" fill="#D43515"/>
</g>
<g filter="url(#filter1_i_372_27774)">
<rect x="2.5" y="2.5" width="172" height="70" rx="35" stroke="url(#paint0_linear_372_27774)" stroke-width="3"/>
</g>
<g filter="url(#filter2_d_372_27774)">
<path d="M96.8016 41.4268C96.8014 41.8408 96.4657 42.1768 96.0516 42.1768C95.6377 42.1766 95.3018 41.8407 95.3016 41.4268V31.7578L81.7801 45.2793C81.4872 45.5722 81.0125 45.5722 80.7196 45.2793C80.4269 44.9864 80.4267 44.5116 80.7196 44.2188L94.2411 30.6973H84.5731C84.1589 30.6973 83.8231 30.3615 83.8231 29.9473C83.8231 29.5331 84.1589 29.1973 84.5731 29.1973H96.0516C96.4658 29.1973 96.8016 29.5331 96.8016 29.9473V41.4268Z" fill="url(#paint1_linear_372_27774)"/>
</g>
</g>
<rect x="0.5" y="0.5" width="176" height="74" rx="37" stroke="black" stroke-opacity="0.2"/>
<path d="M61.3206 101V91.224H57.8326V89.64H66.5366V91.224H63.0486V101H61.3206ZM67.1688 101V92.488H68.7208L68.7848 94.744L68.6408 94.696C68.7581 93.928 68.9928 93.368 69.3448 93.016C69.7074 92.664 70.1928 92.488 70.8008 92.488H71.6168V94.008H70.8008C70.3741 94.008 70.0168 94.0773 69.7288 94.216C69.4408 94.3547 69.2221 94.568 69.0728 94.856C68.9341 95.144 68.8648 95.5173 68.8648 95.976V101H67.1688ZM75.2403 101.192C74.3549 101.192 73.6456 100.989 73.1123 100.584C72.5896 100.179 72.3283 99.608 72.3283 98.872C72.3283 98.136 72.5469 97.5653 72.9843 97.16C73.4323 96.744 74.1203 96.4453 75.0483 96.264L77.9763 95.704C77.9763 95.0427 77.8216 94.552 77.5123 94.232C77.2029 93.9013 76.7443 93.736 76.1363 93.736C75.5923 93.736 75.1656 93.8587 74.8563 94.104C74.5469 94.3387 74.3336 94.6907 74.2163 95.16L72.4723 95.048C72.6323 94.1947 73.0269 93.5227 73.6562 93.032C74.2963 92.5413 75.1229 92.296 76.1363 92.296C77.2883 92.296 78.1629 92.6053 78.7603 93.224C79.3683 93.832 79.6723 94.6907 79.6723 95.8V99.112C79.6723 99.3147 79.7043 99.4587 79.7683 99.544C79.8429 99.6187 79.9603 99.656 80.1203 99.656H80.4243V101C80.3709 101.011 80.2856 101.021 80.1683 101.032C80.0509 101.043 79.9283 101.048 79.8003 101.048C79.4376 101.048 79.1229 100.989 78.8563 100.872C78.6003 100.755 78.4083 100.563 78.2803 100.296C78.1523 100.019 78.0883 99.6507 78.0883 99.192L78.2643 99.272C78.1789 99.6453 77.9923 99.976 77.7043 100.264C77.4269 100.552 77.0696 100.781 76.6323 100.952C76.2056 101.112 75.7416 101.192 75.2403 101.192ZM75.5123 99.848C76.0243 99.848 76.4616 99.752 76.8243 99.56C77.1869 99.3573 77.4696 99.08 77.6723 98.728C77.8749 98.376 77.9763 97.976 77.9763 97.528V96.984L75.4803 97.464C74.9683 97.56 74.6056 97.7147 74.3923 97.928C74.1896 98.1307 74.0883 98.392 74.0883 98.712C74.0883 99.0747 74.2109 99.3573 74.4563 99.56C74.7123 99.752 75.0643 99.848 75.5123 99.848ZM81.8563 101V92.488H83.4083L83.4723 94.76L83.2643 94.648C83.3603 94.0933 83.5416 93.6453 83.8083 93.304C84.0749 92.9627 84.4003 92.712 84.7843 92.552C85.1683 92.3813 85.5843 92.296 86.0323 92.296C86.6723 92.296 87.2003 92.44 87.6163 92.728C88.0429 93.0053 88.3629 93.3893 88.5763 93.88C88.8003 94.36 88.9123 94.9093 88.9123 95.528V101H87.2163V96.04C87.2163 95.5387 87.1629 95.1173 87.0563 94.776C86.9496 94.4347 86.7736 94.1733 86.5283 93.992C86.2829 93.8107 85.9629 93.72 85.5683 93.72C84.9709 93.72 84.4856 93.9173 84.1123 94.312C83.7389 94.7067 83.5523 95.2827 83.5523 96.04V101H81.8563ZM94.4019 101.192C93.6019 101.192 92.9245 101.069 92.3699 100.824C91.8259 100.579 91.4045 100.243 91.1059 99.816C90.8072 99.3787 90.6365 98.8773 90.5939 98.312L92.3379 98.232C92.4232 98.7013 92.6259 99.0747 92.9459 99.352C93.2659 99.6293 93.7512 99.768 94.4019 99.768C94.9352 99.768 95.3565 99.6827 95.6659 99.512C95.9752 99.3413 96.1299 99.0693 96.1299 98.696C96.1299 98.4933 96.0765 98.3227 95.9699 98.184C95.8739 98.0347 95.6819 97.912 95.3939 97.816C95.1059 97.7093 94.6792 97.608 94.1139 97.512C93.2712 97.352 92.6099 97.1653 92.1299 96.952C91.6499 96.7387 91.3085 96.4667 91.1059 96.136C90.9032 95.8053 90.8019 95.4053 90.8019 94.936C90.8019 94.1573 91.0899 93.5227 91.6659 93.032C92.2525 92.5413 93.0952 92.296 94.1939 92.296C94.9299 92.296 95.5485 92.424 96.0499 92.68C96.5512 92.9253 96.9405 93.2613 97.2179 93.688C97.5059 94.104 97.6872 94.5733 97.7619 95.096L96.0179 95.192C95.9645 94.8933 95.8579 94.6373 95.6979 94.424C95.5485 94.2 95.3459 94.0293 95.0899 93.912C94.8339 93.784 94.5299 93.72 94.1779 93.72C93.6339 93.72 93.2285 93.8267 92.9619 94.04C92.6952 94.2533 92.5619 94.5307 92.5619 94.872C92.5619 95.128 92.6205 95.336 92.7379 95.496C92.8659 95.656 93.0685 95.7893 93.3459 95.896C93.6232 95.992 93.9912 96.0773 94.4499 96.152C95.3352 96.3013 96.0285 96.488 96.5299 96.712C97.0312 96.9253 97.3832 97.192 97.5859 97.512C97.7885 97.832 97.8899 98.2213 97.8899 98.68C97.8899 99.2133 97.7405 99.6667 97.4419 100.04C97.1432 100.413 96.7325 100.701 96.2099 100.904C95.6872 101.096 95.0845 101.192 94.4019 101.192ZM100.142 101V91.944C100.142 91.24 100.339 90.68 100.734 90.264C101.129 89.848 101.747 89.64 102.59 89.64H104.094V91.032H102.814C102.483 91.032 102.238 91.1227 102.078 91.304C101.918 91.4747 101.838 91.72 101.838 92.04V101H100.142ZM98.9581 93.976V92.6H103.966V93.976H98.9581ZM108.704 101.192C107.872 101.192 107.152 101.011 106.544 100.648C105.947 100.285 105.483 99.768 105.152 99.096C104.832 98.424 104.672 97.64 104.672 96.744C104.672 95.848 104.832 95.0693 105.152 94.408C105.483 93.736 105.947 93.2187 106.544 92.856C107.141 92.4827 107.845 92.296 108.656 92.296C109.424 92.296 110.101 92.4773 110.688 92.84C111.275 93.192 111.728 93.704 112.048 94.376C112.379 95.048 112.544 95.8587 112.544 96.808V97.24H106.432C106.475 98.072 106.693 98.696 107.088 99.112C107.493 99.528 108.037 99.736 108.72 99.736C109.221 99.736 109.637 99.6187 109.968 99.384C110.299 99.1493 110.528 98.8347 110.656 98.44L112.416 98.552C112.192 99.3413 111.749 99.9813 111.088 100.472C110.437 100.952 109.643 101.192 108.704 101.192ZM106.432 95.96H110.752C110.699 95.2027 110.48 94.6427 110.096 94.28C109.723 93.9173 109.243 93.736 108.656 93.736C108.048 93.736 107.547 93.928 107.152 94.312C106.768 94.6853 106.528 95.2347 106.432 95.96ZM114.263 101V92.488H115.815L115.879 94.744L115.735 94.696C115.852 93.928 116.087 93.368 116.439 93.016C116.801 92.664 117.287 92.488 117.895 92.488H118.711V94.008H117.895C117.468 94.008 117.111 94.0773 116.823 94.216C116.535 94.3547 116.316 94.568 116.167 94.856C116.028 95.144 115.959 95.5173 115.959 95.976V101H114.263Z" fill="#373130"/>
<g clip-path="url(#clip1_372_27774)">
<path d="M193 37.5C193 16.7893 209.789 0 230.5 0H332.5C353.211 0 370 16.7893 370 37.5V37.5C370 58.2107 353.211 75 332.5 75H230.5C209.789 75 193 58.2107 193 37.5V37.5Z" fill="white"/>
<g filter="url(#filter3_ddi_372_27774)">
<path d="M197 37.5C197 18.9985 211.998 4 230.5 4H332.5C351.002 4 366 18.9985 366 37.5V37.5C366 56.0015 351.002 71 332.5 71H230.5C211.998 71 197 56.0015 197 37.5V37.5Z" fill="white"/>
<path d="M197 37.5C197 18.9985 211.998 4 230.5 4H332.5C351.002 4 366 18.9985 366 37.5V37.5C366 56.0015 351.002 71 332.5 71H230.5C211.998 71 197 56.0015 197 37.5V37.5Z" fill="#D43515"/>
</g>
<g filter="url(#filter4_i_372_27774)">
<rect x="195.5" y="2.5" width="172" height="70" rx="35" stroke="url(#paint2_linear_372_27774)" stroke-width="3"/>
</g>
<path d="M292.428 37.5C292.428 35.0863 291.36 32.9229 289.67 31.4532C289.357 31.1814 289.325 30.7071 289.597 30.3946C289.868 30.0823 290.342 30.049 290.654 30.3204C292.658 32.0628 293.928 34.6339 293.928 37.5C293.928 42.7525 289.669 47.0108 284.417 47.0108H281.19L284.021 49.6387C284.324 49.9206 284.341 50.3948 284.06 50.6983C283.778 51.0017 283.304 51.0192 283 50.7374L278.771 46.8106C278.618 46.6687 278.531 46.4692 278.531 46.2608C278.531 46.0526 278.618 45.8538 278.771 45.712L283 41.7842C283.303 41.5026 283.778 41.5202 284.06 41.8233C284.341 42.1268 284.324 42.602 284.021 42.8838L281.191 45.5108H284.417C288.841 45.5108 292.428 41.9241 292.428 37.5Z" fill="#EEE8E7"/>
<path d="M270.07 37.5012C270.07 32.2488 274.329 27.9905 279.581 27.9905H282.808L279.978 25.3626C279.674 25.0807 279.657 24.6055 279.938 24.302C280.22 23.9986 280.696 23.9811 280.999 24.2629L285.228 28.1907C285.38 28.3325 285.468 28.5311 285.468 28.7395C285.468 28.9481 285.38 29.1474 285.228 29.2893L280.999 33.2161C280.695 33.4979 280.22 33.4805 279.938 33.177C279.657 32.8736 279.674 32.3992 279.978 32.1174L282.807 29.4905H279.581C275.157 29.4905 271.57 33.0772 271.57 37.5012C271.57 39.9156 272.638 42.0794 274.329 43.5491C274.642 43.8207 274.675 44.295 274.403 44.6077C274.132 44.9203 273.657 44.9535 273.345 44.6819C271.34 42.9395 270.07 40.368 270.07 37.5012Z" fill="#EEE8E7"/>
</g>
<path d="M230.5 0.5H332.5C352.935 0.5 369.5 17.0655 369.5 37.5C369.5 57.9345 352.935 74.5 332.5 74.5H230.5C210.065 74.5 193.5 57.9345 193.5 37.5C193.5 17.3848 209.552 1.01829 229.545 0.511719L230.5 0.5Z" stroke="black" stroke-opacity="0.2"/>
<path d="M246.228 101V89.64H253.62V91.224H247.956V94.536H253.428V96.072H247.956V99.416H253.748V101H246.228ZM254.869 101L257.957 96.648L254.997 92.488H256.885L258.981 95.544L261.013 92.488H262.949L260.021 96.68L263.077 101H261.189L258.997 97.752L256.789 101H254.869ZM267.665 101.192C266.854 101.192 266.145 101.011 265.537 100.648C264.929 100.285 264.46 99.768 264.129 99.096C263.798 98.424 263.633 97.64 263.633 96.744C263.633 95.848 263.798 95.0693 264.129 94.408C264.46 93.736 264.929 93.2187 265.537 92.856C266.145 92.4827 266.854 92.296 267.665 92.296C268.358 92.296 268.972 92.4187 269.505 92.664C270.049 92.8987 270.486 93.2453 270.817 93.704C271.158 94.1627 271.377 94.7227 271.473 95.384L269.697 95.48C269.612 94.9253 269.388 94.504 269.025 94.216C268.662 93.9173 268.209 93.768 267.665 93.768C266.95 93.768 266.39 94.0347 265.985 94.568C265.59 95.0907 265.393 95.816 265.393 96.744C265.393 97.672 265.59 98.4027 265.985 98.936C266.39 99.4587 266.95 99.72 267.665 99.72C268.209 99.72 268.662 99.5707 269.025 99.272C269.388 98.9627 269.612 98.4987 269.697 97.88L271.473 97.976C271.377 98.6267 271.158 99.192 270.817 99.672C270.486 100.152 270.049 100.525 269.505 100.792C268.972 101.059 268.358 101.192 267.665 101.192ZM273.02 101V89.64H274.716V94.408L274.508 94.376C274.604 93.896 274.78 93.5067 275.036 93.208C275.292 92.8987 275.607 92.6693 275.98 92.52C276.354 92.3707 276.764 92.296 277.212 92.296C277.831 92.296 278.354 92.4347 278.78 92.712C279.207 92.9787 279.527 93.3573 279.74 93.848C279.964 94.3387 280.076 94.8987 280.076 95.528V101H278.38V95.976C278.38 95.208 278.247 94.6427 277.98 94.28C277.724 93.9067 277.319 93.72 276.764 93.72C276.146 93.72 275.65 93.9173 275.276 94.312C274.903 94.696 274.716 95.2613 274.716 96.008V101H273.02ZM284.686 101.192C283.8 101.192 283.091 100.989 282.558 100.584C282.035 100.179 281.774 99.608 281.774 98.872C281.774 98.136 281.992 97.5653 282.43 97.16C282.878 96.744 283.566 96.4453 284.494 96.264L287.422 95.704C287.422 95.0427 287.267 94.552 286.958 94.232C286.648 93.9013 286.19 93.736 285.582 93.736C285.038 93.736 284.611 93.8587 284.302 94.104C283.992 94.3387 283.779 94.6907 283.662 95.16L281.918 95.048C282.078 94.1947 282.472 93.5227 283.102 93.032C283.742 92.5413 284.568 92.296 285.582 92.296C286.734 92.296 287.608 92.6053 288.206 93.224C288.814 93.832 289.118 94.6907 289.118 95.8V99.112C289.118 99.3147 289.15 99.4587 289.214 99.544C289.288 99.6187 289.406 99.656 289.566 99.656H289.87V101C289.816 101.011 289.731 101.021 289.614 101.032C289.496 101.043 289.374 101.048 289.246 101.048C288.883 101.048 288.568 100.989 288.302 100.872C288.046 100.755 287.854 100.563 287.726 100.296C287.598 100.019 287.534 99.6507 287.534 99.192L287.71 99.272C287.624 99.6453 287.438 99.976 287.15 100.264C286.872 100.552 286.515 100.781 286.078 100.952C285.651 101.112 285.187 101.192 284.686 101.192ZM284.958 99.848C285.47 99.848 285.907 99.752 286.27 99.56C286.632 99.3573 286.915 99.08 287.118 98.728C287.32 98.376 287.422 97.976 287.422 97.528V96.984L284.926 97.464C284.414 97.56 284.051 97.7147 283.838 97.928C283.635 98.1307 283.534 98.392 283.534 98.712C283.534 99.0747 283.656 99.3573 283.902 99.56C284.158 99.752 284.51 99.848 284.958 99.848ZM291.302 101V92.488H292.854L292.918 94.76L292.71 94.648C292.806 94.0933 292.987 93.6453 293.254 93.304C293.52 92.9627 293.846 92.712 294.23 92.552C294.614 92.3813 295.03 92.296 295.478 92.296C296.118 92.296 296.646 92.44 297.062 92.728C297.488 93.0053 297.808 93.3893 298.022 93.88C298.246 94.36 298.358 94.9093 298.358 95.528V101H296.662V96.04C296.662 95.5387 296.608 95.1173 296.502 94.776C296.395 94.4347 296.219 94.1733 295.974 93.992C295.728 93.8107 295.408 93.72 295.014 93.72C294.416 93.72 293.931 93.9173 293.558 94.312C293.184 94.7067 292.998 95.2827 292.998 96.04V101H291.302ZM303.991 103.592C303.319 103.592 302.727 103.491 302.215 103.288C301.703 103.085 301.282 102.797 300.951 102.424C300.621 102.061 300.397 101.635 300.279 101.144L302.039 101.032C302.157 101.384 302.359 101.661 302.647 101.864C302.946 102.077 303.394 102.184 303.991 102.184C304.695 102.184 305.234 102.035 305.607 101.736C305.991 101.437 306.183 100.984 306.183 100.376V99.144C305.981 99.5813 305.655 99.928 305.207 100.184C304.759 100.44 304.258 100.568 303.703 100.568C302.989 100.568 302.354 100.392 301.799 100.04C301.245 99.688 300.813 99.2027 300.503 98.584C300.194 97.9653 300.039 97.2507 300.039 96.44C300.039 95.6187 300.189 94.8987 300.487 94.28C300.797 93.6613 301.223 93.176 301.767 92.824C302.322 92.472 302.946 92.296 303.639 92.296C304.247 92.296 304.781 92.4347 305.239 92.712C305.709 92.9893 306.045 93.3627 306.247 93.832V92.488H307.879V100.328C307.879 101.032 307.719 101.624 307.399 102.104C307.09 102.595 306.642 102.963 306.055 103.208C305.479 103.464 304.791 103.592 303.991 103.592ZM303.975 99.128C304.637 99.128 305.165 98.888 305.559 98.408C305.965 97.928 306.173 97.2667 306.183 96.424C306.194 95.8693 306.109 95.3947 305.927 95C305.746 94.5947 305.485 94.2853 305.143 94.072C304.813 93.848 304.423 93.736 303.975 93.736C303.282 93.736 302.743 93.9813 302.359 94.472C301.986 94.952 301.799 95.6027 301.799 96.424C301.799 97.256 301.991 97.9173 302.375 98.408C302.77 98.888 303.303 99.128 303.975 99.128ZM313.634 101.192C312.802 101.192 312.082 101.011 311.474 100.648C310.876 100.285 310.412 99.768 310.082 99.096C309.762 98.424 309.602 97.64 309.602 96.744C309.602 95.848 309.762 95.0693 310.082 94.408C310.412 93.736 310.876 93.2187 311.474 92.856C312.071 92.4827 312.775 92.296 313.586 92.296C314.354 92.296 315.031 92.4773 315.618 92.84C316.204 93.192 316.658 93.704 316.978 94.376C317.308 95.048 317.474 95.8587 317.474 96.808V97.24H311.362C311.404 98.072 311.623 98.696 312.018 99.112C312.423 99.528 312.967 99.736 313.65 99.736C314.151 99.736 314.567 99.6187 314.898 99.384C315.228 99.1493 315.458 98.8347 315.586 98.44L317.346 98.552C317.122 99.3413 316.679 99.9813 316.018 100.472C315.367 100.952 314.572 101.192 313.634 101.192ZM311.362 95.96H315.682C315.628 95.2027 315.41 94.6427 315.026 94.28C314.652 93.9173 314.172 93.736 313.586 93.736C312.978 93.736 312.476 93.928 312.082 94.312C311.698 94.6853 311.458 95.2347 311.362 95.96Z" fill="#373130"/>
<defs>
<filter id="filter0_dd_372_27774" x="-17" y="-4" width="199" height="97" filterUnits="userSpaceOnUse" color-interpolation-filters="sRGB">
<feFlood flood-opacity="0" result="BackgroundImageFix"/>
<feColorMatrix in="SourceAlpha" type="matrix" values="0 0 0 0 0 0 0 0 0 0 0 0 0 0 0 0 0 0 127 0" result="hardAlpha"/>
<feOffset dx="-6" dy="7"/>
<feGaussianBlur stdDeviation="7.5"/>
<feComposite in2="hardAlpha" operator="out"/>
<feColorMatrix type="matrix" values="0 0 0 0 0 0 0 0 0 0 0 0 0 0 0 0 0 0 0.04 0"/>
<feBlend mode="normal" in2="BackgroundImageFix" result="effect1_dropShadow_372_27774"/>
<feColorMatrix in="SourceAlpha" type="matrix" values="0 0 0 0 0 0 0 0 0 0 0 0 0 0 0 0 0 0 127 0" result="hardAlpha"/>
<feOffset dx="-1" dy="1"/>
<feGaussianBlur stdDeviation="1"/>
<feComposite in2="hardAlpha" operator="out"/>
<feColorMatrix type="matrix" values="0 0 0 0 0 0 0 0 0 0 0 0 0 0 0 0 0 0 0.2 0"/>
<feBlend mode="normal" in2="effect1_dropShadow_372_27774" result="effect2_dropShadow_372_27774"/>
<feBlend mode="normal" in="SourceGraphic" in2="effect2_dropShadow_372_27774" result="shape"/>
</filter>
<filter id="filter1_i_372_27774" x="0.5" y="1" width="175.5" height="73.5" filterUnits="userSpaceOnUse" color-interpolation-filters="sRGB">
<feFlood flood-opacity="0" result="BackgroundImageFix"/>
<feBlend mode="normal" in="SourceGraphic" in2="BackgroundImageFix" result="shape"/>
<feColorMatrix in="SourceAlpha" type="matrix" values="0 0 0 0 0 0 0 0 0 0 0 0 0 0 0 0 0 0 127 0" result="hardAlpha"/>
<feOffset dx="-0.5" dy="0.5"/>
<feGaussianBlur stdDeviation="0.25"/>
<feComposite in2="hardAlpha" operator="arithmetic" k2="-1" k3="1"/>
<feColorMatrix type="matrix" values="0 0 0 0 1 0 0 0 0 1 0 0 0 0 1 0 0 0 1 0"/>
<feBlend mode="normal" in2="shape" result="effect1_innerShadow_372_27774"/>
</filter>
<filter id="filter2_d_372_27774" x="66.5" y="15.1973" width="44.3008" height="44.3008" filterUnits="userSpaceOnUse" color-interpolation-filters="sRGB">
<feFlood flood-opacity="0" result="BackgroundImageFix"/>
<feColorMatrix in="SourceAlpha" type="matrix" values="0 0 0 0 0 0 0 0 0 0 0 0 0 0 0 0 0 0 127 0" result="hardAlpha"/>
<feOffset/>
<feGaussianBlur stdDeviation="7"/>
<feComposite in2="hardAlpha" operator="out"/>
<feColorMatrix type="matrix" values="0 0 0 0 0.984314 0 0 0 0 0.929412 0 0 0 0 0.831373 0 0 0 1 0"/>
<feBlend mode="normal" in2="BackgroundImageFix" result="effect1_dropShadow_372_27774"/>
<feBlend mode="normal" in="SourceGraphic" in2="effect1_dropShadow_372_27774" result="shape"/>
</filter>
<filter id="filter3_ddi_372_27774" x="176" y="-4" width="199" height="97" filterUnits="userSpaceOnUse" color-interpolation-filters="sRGB">
<feFlood flood-opacity="0" result="BackgroundImageFix"/>
<feColorMatrix in="SourceAlpha" type="matrix" values="0 0 0 0 0 0 0 0 0 0 0 0 0 0 0 0 0 0 127 0" result="hardAlpha"/>
<feOffset dx="-6" dy="7"/>
<feGaussianBlur stdDeviation="7.5"/>
<feComposite in2="hardAlpha" operator="out"/>
<feColorMatrix type="matrix" values="0 0 0 0 0 0 0 0 0 0 0 0 0 0 0 0 0 0 0.04 0"/>
<feBlend mode="normal" in2="BackgroundImageFix" result="effect1_dropShadow_372_27774"/>
<feColorMatrix in="SourceAlpha" type="matrix" values="0 0 0 0 0 0 0 0 0 0 0 0 0 0 0 0 0 0 127 0" result="hardAlpha"/>
<feOffset dx="-1" dy="1"/>
<feGaussianBlur stdDeviation="1"/>
<feComposite in2="hardAlpha" operator="out"/>
<feColorMatrix type="matrix" values="0 0 0 0 0 0 0 0 0 0 0 0 0 0 0 0 0 0 0.2 0"/>
<feBlend mode="normal" in2="effect1_dropShadow_372_27774" result="effect2_dropShadow_372_27774"/>
<feBlend mode="normal" in="SourceGraphic" in2="effect2_dropShadow_372_27774" result="shape"/>
<feColorMatrix in="SourceAlpha" type="matrix" values="0 0 0 0 0 0 0 0 0 0 0 0 0 0 0 0 0 0 127 0" result="hardAlpha"/>
<feOffset dx="-0.5" dy="0.5"/>
<feGaussianBlur stdDeviation="0.25"/>
<feComposite in2="hardAlpha" operator="arithmetic" k2="-1" k3="1"/>
<feColorMatrix type="matrix" values="0 0 0 0 1 0 0 0 0 1 0 0 0 0 1 0 0 0 1 0"/>
<feBlend mode="normal" in2="shape" result="effect3_innerShadow_372_27774"/>
</filter>
<filter id="filter4_i_372_27774" x="193.5" y="1" width="175.5" height="73.5" filterUnits="userSpaceOnUse" color-interpolation-filters="sRGB">
<feFlood flood-opacity="0" result="BackgroundImageFix"/>
<feBlend mode="normal" in="SourceGraphic" in2="BackgroundImageFix" result="shape"/>
<feColorMatrix in="SourceAlpha" type="matrix" values="0 0 0 0 0 0 0 0 0 0 0 0 0 0 0 0 0 0 127 0" result="hardAlpha"/>
<feOffset dx="-0.5" dy="0.5"/>
<feGaussianBlur stdDeviation="0.25"/>
<feComposite in2="hardAlpha" operator="arithmetic" k2="-1" k3="1"/>
<feColorMatrix type="matrix" values="0 0 0 0 1 0 0 0 0 1 0 0 0 0 1 0 0 0 1 0"/>
<feBlend mode="normal" in2="shape" result="effect1_innerShadow_372_27774"/>
</filter>
<linearGradient id="paint0_linear_372_27774" x1="88.5" y1="1" x2="88.5" y2="74" gradientUnits="userSpaceOnUse">
<stop stop-color="#F5D4A9"/>
<stop offset="1" stop-color="#DFA457"/>
</linearGradient>
<linearGradient id="paint1_linear_372_27774" x1="88.6509" y1="29.9473" x2="88.6509" y2="44.7494" gradientUnits="userSpaceOnUse">
<stop stop-color="#FCF1DE"/>
<stop offset="1" stop-color="#F7DDAC"/>
</linearGradient>
<linearGradient id="paint2_linear_372_27774" x1="281.5" y1="1" x2="281.5" y2="74" gradientUnits="userSpaceOnUse">
<stop stop-color="#F5D4A9"/>
<stop offset="1" stop-color="#DFA457"/>
</linearGradient>
<clipPath id="clip0_372_27774">
<rect width="177" height="75" rx="37.5" fill="white"/>
</clipPath>
<clipPath id="clip1_372_27774">
<path d="M193 37.5C193 16.7893 209.789 0 230.5 0H332.5C353.211 0 370 16.7893 370 37.5V37.5C370 58.2107 353.211 75 332.5 75H230.5C209.789 75 193 58.2107 193 37.5V37.5Z" fill="white"/>
</clipPath>
</defs>
</svg>
