<svg width="29" height="29" viewBox="0 0 29 29" fill="none" xmlns="http://www.w3.org/2000/svg">
<path d="M24.9277 14.5C24.9276 12.0863 23.8603 9.92286 22.1699 8.45317C21.8574 8.18139 21.8249 7.70715 22.0967 7.39458C22.3684 7.08225 22.8418 7.04896 23.1543 7.32036C25.1584 9.06279 26.4276 11.6339 26.4277 14.5C26.4277 19.7525 22.1695 24.0108 16.917 24.0108H13.6904L16.5205 26.6387C16.824 26.9206 16.8414 27.3948 16.5596 27.6983C16.2777 28.0017 15.8035 28.0192 15.5 27.7374L11.2705 23.8106C11.1179 23.6687 11.0312 23.4692 11.0312 23.2608C11.0313 23.0526 11.118 22.8538 11.2705 22.712L15.5 18.7842C15.8034 18.5026 16.2777 18.5202 16.5596 18.8233C16.8414 19.1268 16.824 19.602 16.5205 19.8838L13.6914 22.5108H16.917C21.3411 22.5108 24.9277 18.9241 24.9277 14.5Z" fill="#EEE8E7"/>
<path d="M2.57031 14.5012C2.57031 9.24878 6.82859 4.99049 12.0811 4.99049H15.3076L12.4775 2.36256C12.1741 2.08069 12.1567 1.6055 12.4385 1.30201C12.7203 0.998584 13.1955 0.981129 13.499 1.26295L17.7275 5.19068C17.8802 5.33251 17.9677 5.53112 17.9678 5.73951C17.9678 5.94806 17.8804 6.1474 17.7275 6.28931L13.499 10.2161C13.1955 10.4979 12.7203 10.4805 12.4385 10.177C12.1569 9.87356 12.1743 9.39925 12.4775 9.11744L15.3066 6.49049H12.0811C7.65702 6.49049 4.07031 10.0772 4.07031 14.5012C4.07041 16.9156 5.13806 19.0794 6.8291 20.5491C7.14169 20.8207 7.17489 21.295 6.90332 21.6077C6.63163 21.9203 6.15737 21.9535 5.84473 21.6819C3.83982 19.9395 2.57041 17.368 2.57031 14.5012Z" fill="#EEE8E7"/>
</svg>
