<svg width="402" height="76" viewBox="0 0 402 76" fill="none" xmlns="http://www.w3.org/2000/svg">
<g filter="url(#filter0_dd_343_25597)">
<mask id="path-1-inside-1_343_25597" fill="white">
<path d="M0 2H402V76H0V2Z"/>
</mask>
<path d="M0 2H402V76H0V2Z" fill="white"/>
<path d="M0 2V3H402V2V1H0V2Z" fill="black" fill-opacity="0.1" mask="url(#path-1-inside-1_343_25597)"/>
<path d="M59.25 22.4045V30.7496H60.75V22.4045H59.25ZM44.25 30.7496V22.4045H42.75V30.7496H44.25ZM44.6749 21.4656L50.9249 15.9732L49.9347 14.8464L43.6847 20.3388L44.6749 21.4656ZM52.5751 15.9732L58.8251 21.4656L59.8153 20.3388L53.5653 14.8464L52.5751 15.9732ZM51.5 27.9996H52V26.4996H51.5V27.9996ZM53.25 29.2496V31.7496H54.75V29.2496H53.25ZM50.25 31.7496V29.2496H48.75V31.7496H50.25ZM48.5 31.9996H45.5V33.4996H48.5V31.9996ZM55 33.4996H58V31.9996H55V33.4996ZM48.75 31.7496C48.75 31.8877 48.6381 31.9996 48.5 31.9996V33.4996C49.4665 33.4996 50.25 32.7161 50.25 31.7496H48.75ZM53.25 31.7496C53.25 32.7161 54.0335 33.4996 55 33.4996V31.9996C54.8619 31.9996 54.75 31.8877 54.75 31.7496H53.25ZM52 27.9996C52.6904 27.9996 53.25 28.5592 53.25 29.2496H54.75C54.75 27.7308 53.5188 26.4996 52 26.4996V27.9996ZM51.5 26.4996C49.9812 26.4996 48.75 27.7308 48.75 29.2496H50.25C50.25 28.5592 50.8096 27.9996 51.5 27.9996V26.4996ZM50.9249 15.9732C51.3968 15.5584 52.1032 15.5584 52.5751 15.9732L53.5653 14.8464C52.5271 13.934 50.9729 13.934 49.9347 14.8464L50.9249 15.9732ZM42.75 30.7496C42.75 32.2684 43.9812 33.4996 45.5 33.4996V31.9996C44.8096 31.9996 44.25 31.44 44.25 30.7496H42.75ZM59.25 30.7496C59.25 31.44 58.6904 31.9996 58 31.9996V33.4996C59.5188 33.4996 60.75 32.2684 60.75 30.7496H59.25ZM60.75 22.4045C60.75 21.6136 60.4094 20.8609 59.8153 20.3388L58.8251 21.4656C59.0952 21.7029 59.25 22.045 59.25 22.4045H60.75ZM44.25 22.4045C44.25 22.045 44.4048 21.7029 44.6749 21.4656L43.6847 20.3388C43.0906 20.8609 42.75 21.6136 42.75 22.4045H44.25Z" fill="#A89491"/>
<path d="M36.3816 51.5V42.98H37.6776V47.084L37.0536 46.628H42.2376L41.6136 47.084V42.98H42.9096V51.5H41.6136V47.348L42.2376 47.804H37.0536L37.6776 47.348V51.5H36.3816ZM47.3503 51.644C46.7423 51.644 46.2103 51.508 45.7543 51.236C45.2983 50.964 44.9463 50.576 44.6983 50.072C44.4503 49.568 44.3263 48.98 44.3263 48.308C44.3263 47.628 44.4503 47.04 44.6983 46.544C44.9463 46.048 45.2983 45.664 45.7543 45.392C46.2103 45.112 46.7423 44.972 47.3503 44.972C47.9583 44.972 48.4903 45.112 48.9463 45.392C49.4023 45.664 49.7543 46.048 50.0023 46.544C50.2503 47.04 50.3743 47.628 50.3743 48.308C50.3743 48.98 50.2503 49.568 50.0023 50.072C49.7543 50.576 49.4023 50.964 48.9463 51.236C48.4903 51.508 47.9583 51.644 47.3503 51.644ZM47.3503 50.54C47.8943 50.54 48.3143 50.344 48.6103 49.952C48.9063 49.552 49.0543 49.004 49.0543 48.308C49.0543 47.612 48.9063 47.068 48.6103 46.676C48.3143 46.276 47.8943 46.076 47.3503 46.076C46.8143 46.076 46.3943 46.276 46.0903 46.676C45.7943 47.068 45.6463 47.612 45.6463 48.308C45.6463 49.004 45.7943 49.552 46.0903 49.952C46.3943 50.344 46.8143 50.54 47.3503 50.54ZM51.6598 51.5V45.116H52.8238L52.8598 46.7L52.7158 46.652C52.7878 46.3 52.9118 46 53.0878 45.752C53.2718 45.504 53.4958 45.312 53.7598 45.176C54.0238 45.04 54.3118 44.972 54.6238 44.972C55.1678 44.972 55.6118 45.128 55.9558 45.44C56.2998 45.744 56.5158 46.164 56.6038 46.7H56.3998C56.4718 46.324 56.5918 46.012 56.7598 45.764C56.9358 45.508 57.1598 45.312 57.4318 45.176C57.7038 45.04 58.0118 44.972 58.3558 44.972C58.8038 44.972 59.1838 45.068 59.4958 45.26C59.8158 45.444 60.0558 45.716 60.2158 46.076C60.3838 46.436 60.4678 46.876 60.4678 47.396V51.5H59.1958V47.708C59.1958 47.156 59.0958 46.74 58.8958 46.46C58.6958 46.18 58.3918 46.04 57.9838 46.04C57.7198 46.04 57.4878 46.108 57.2878 46.244C57.0878 46.38 56.9318 46.576 56.8198 46.832C56.7158 47.088 56.6638 47.396 56.6638 47.756V51.5H55.4518V47.756C55.4518 47.212 55.3598 46.792 55.1758 46.496C54.9998 46.192 54.6958 46.04 54.2638 46.04C53.9918 46.04 53.7558 46.108 53.5558 46.244C53.3638 46.38 53.2118 46.58 53.0998 46.844C52.9878 47.1 52.9318 47.404 52.9318 47.756V51.5H51.6598ZM64.7643 51.644C64.1403 51.644 63.6003 51.508 63.1443 51.236C62.6963 50.964 62.3483 50.576 62.1003 50.072C61.8603 49.568 61.7403 48.98 61.7403 48.308C61.7403 47.636 61.8603 47.052 62.1003 46.556C62.3483 46.052 62.6963 45.664 63.1443 45.392C63.5923 45.112 64.1203 44.972 64.7283 44.972C65.3043 44.972 65.8123 45.108 66.2523 45.38C66.6923 45.644 67.0323 46.028 67.2723 46.532C67.5203 47.036 67.6443 47.644 67.6443 48.356V48.68H63.0603C63.0923 49.304 63.2563 49.772 63.5523 50.084C63.8563 50.396 64.2643 50.552 64.7763 50.552C65.1523 50.552 65.4643 50.464 65.7123 50.288C65.9603 50.112 66.1323 49.876 66.2283 49.58L67.5483 49.664C67.3803 50.256 67.0483 50.736 66.5523 51.104C66.0643 51.464 65.4683 51.644 64.7643 51.644ZM63.0603 47.72H66.3003C66.2603 47.152 66.0963 46.732 65.8083 46.46C65.5283 46.188 65.1683 46.052 64.7283 46.052C64.2723 46.052 63.8963 46.196 63.6003 46.484C63.3123 46.764 63.1323 47.176 63.0603 47.72Z" fill="#A89491"/>
<path d="M143.25 32.75V16.25C143.25 15.2835 144.034 14.5 145 14.5H151.586C152.05 14.5 152.495 14.6845 152.823 15.0127L158.737 20.9268C159.065 21.2548 159.25 21.6999 159.25 22.1641V32.75C159.25 33.7165 158.467 34.5 157.5 34.5H145C144.034 34.5 143.25 33.7165 143.25 32.75ZM144.75 32.75C144.75 32.8881 144.862 33 145 33H157.5C157.638 33 157.75 32.8881 157.75 32.75V22.1641C157.75 22.1144 157.735 22.0662 157.708 22.0254L157.677 21.9873L151.763 16.0732C151.716 16.0265 151.652 16 151.586 16H145C144.862 16 144.75 16.1119 144.75 16.25V32.75Z" fill="#A89491"/>
<path d="M154.5 29C154.914 29 155.25 29.3358 155.25 29.75C155.25 30.1642 154.914 30.5 154.5 30.5H148C147.586 30.5 147.25 30.1642 147.25 29.75C147.25 29.3358 147.586 29 148 29H154.5ZM151.5 25C151.914 25 152.25 25.3358 152.25 25.75C152.25 26.1642 151.914 26.5 151.5 26.5H148C147.586 26.5 147.25 26.1642 147.25 25.75C147.25 25.3358 147.586 25 148 25H151.5Z" fill="#A89491"/>
<path d="M151.25 20.75V15.75C151.25 15.3358 151.586 15 152 15C152.414 15 152.75 15.3358 152.75 15.75V20.75C152.75 20.8881 152.862 21 153 21H158C158.414 21 158.75 21.3358 158.75 21.75C158.75 22.1642 158.414 22.5 158 22.5H153C152.033 22.5 151.25 21.7165 151.25 20.75Z" fill="#A89491"/>
<path d="M118.016 51.5V44.168H115.4V42.98H121.928V44.168H119.312V51.5H118.016ZM122.402 51.5V45.116H123.566L123.614 46.808L123.506 46.772C123.594 46.196 123.77 45.776 124.034 45.512C124.306 45.248 124.67 45.116 125.126 45.116H125.738V46.256H125.126C124.806 46.256 124.538 46.308 124.322 46.412C124.106 46.516 123.942 46.676 123.83 46.892C123.726 47.108 123.674 47.388 123.674 47.732V51.5H122.402ZM128.456 51.644C127.792 51.644 127.26 51.492 126.86 51.188C126.468 50.884 126.272 50.456 126.272 49.904C126.272 49.352 126.436 48.924 126.764 48.62C127.1 48.308 127.616 48.084 128.312 47.948L130.508 47.528C130.508 47.032 130.392 46.664 130.16 46.424C129.928 46.176 129.584 46.052 129.128 46.052C128.72 46.052 128.4 46.144 128.168 46.328C127.936 46.504 127.776 46.768 127.688 47.12L126.38 47.036C126.5 46.396 126.796 45.892 127.268 45.524C127.748 45.156 128.368 44.972 129.128 44.972C129.992 44.972 130.648 45.204 131.096 45.668C131.552 46.124 131.78 46.768 131.78 47.6V50.084C131.78 50.236 131.804 50.344 131.852 50.408C131.908 50.464 131.996 50.492 132.116 50.492H132.344V51.5C132.304 51.508 132.24 51.516 132.152 51.524C132.064 51.532 131.972 51.536 131.876 51.536C131.604 51.536 131.368 51.492 131.168 51.404C130.976 51.316 130.832 51.172 130.736 50.972C130.64 50.764 130.592 50.488 130.592 50.144L130.724 50.204C130.66 50.484 130.52 50.732 130.304 50.948C130.096 51.164 129.828 51.336 129.5 51.464C129.18 51.584 128.832 51.644 128.456 51.644ZM128.66 50.636C129.044 50.636 129.372 50.564 129.644 50.42C129.916 50.268 130.128 50.06 130.28 49.796C130.432 49.532 130.508 49.232 130.508 48.896V48.488L128.636 48.848C128.252 48.92 127.98 49.036 127.82 49.196C127.668 49.348 127.592 49.544 127.592 49.784C127.592 50.056 127.684 50.268 127.868 50.42C128.06 50.564 128.324 50.636 128.66 50.636ZM133.418 51.5V45.116H134.582L134.63 46.82L134.474 46.736C134.546 46.32 134.682 45.984 134.882 45.728C135.082 45.472 135.326 45.284 135.614 45.164C135.902 45.036 136.214 44.972 136.55 44.972C137.03 44.972 137.426 45.08 137.738 45.296C138.058 45.504 138.298 45.792 138.458 46.16C138.626 46.52 138.71 46.932 138.71 47.396V51.5H137.438V47.78C137.438 47.404 137.398 47.088 137.318 46.832C137.238 46.576 137.106 46.38 136.922 46.244C136.738 46.108 136.498 46.04 136.202 46.04C135.754 46.04 135.39 46.188 135.11 46.484C134.83 46.78 134.69 47.212 134.69 47.78V51.5H133.418ZM142.827 51.644C142.227 51.644 141.719 51.552 141.303 51.368C140.895 51.184 140.579 50.932 140.355 50.612C140.131 50.284 140.003 49.908 139.971 49.484L141.279 49.424C141.343 49.776 141.495 50.056 141.735 50.264C141.975 50.472 142.339 50.576 142.827 50.576C143.227 50.576 143.543 50.512 143.775 50.384C144.007 50.256 144.123 50.052 144.123 49.772C144.123 49.62 144.083 49.492 144.003 49.388C143.931 49.276 143.787 49.184 143.571 49.112C143.355 49.032 143.035 48.956 142.611 48.884C141.979 48.764 141.483 48.624 141.123 48.464C140.763 48.304 140.507 48.1 140.355 47.852C140.203 47.604 140.127 47.304 140.127 46.952C140.127 46.368 140.343 45.892 140.775 45.524C141.215 45.156 141.847 44.972 142.671 44.972C143.223 44.972 143.687 45.068 144.063 45.26C144.439 45.444 144.731 45.696 144.939 46.016C145.155 46.328 145.291 46.68 145.347 47.072L144.039 47.144C143.999 46.92 143.919 46.728 143.799 46.568C143.687 46.4 143.535 46.272 143.343 46.184C143.151 46.088 142.923 46.04 142.659 46.04C142.251 46.04 141.947 46.12 141.747 46.28C141.547 46.44 141.447 46.648 141.447 46.904C141.447 47.096 141.491 47.252 141.579 47.372C141.675 47.492 141.827 47.592 142.035 47.672C142.243 47.744 142.519 47.808 142.863 47.864C143.527 47.976 144.047 48.116 144.423 48.284C144.799 48.444 145.063 48.644 145.215 48.884C145.367 49.124 145.443 49.416 145.443 49.76C145.443 50.16 145.331 50.5 145.107 50.78C144.883 51.06 144.575 51.276 144.183 51.428C143.791 51.572 143.339 51.644 142.827 51.644ZM148.647 51.644C147.983 51.644 147.451 51.492 147.051 51.188C146.659 50.884 146.463 50.456 146.463 49.904C146.463 49.352 146.627 48.924 146.955 48.62C147.291 48.308 147.807 48.084 148.503 47.948L150.699 47.528C150.699 47.032 150.583 46.664 150.351 46.424C150.119 46.176 149.775 46.052 149.319 46.052C148.911 46.052 148.591 46.144 148.359 46.328C148.127 46.504 147.967 46.768 147.879 47.12L146.571 47.036C146.691 46.396 146.987 45.892 147.459 45.524C147.939 45.156 148.559 44.972 149.319 44.972C150.183 44.972 150.839 45.204 151.287 45.668C151.743 46.124 151.971 46.768 151.971 47.6V50.084C151.971 50.236 151.995 50.344 152.043 50.408C152.099 50.464 152.187 50.492 152.307 50.492H152.535V51.5C152.495 51.508 152.431 51.516 152.343 51.524C152.255 51.532 152.163 51.536 152.067 51.536C151.795 51.536 151.559 51.492 151.359 51.404C151.167 51.316 151.023 51.172 150.927 50.972C150.831 50.764 150.783 50.488 150.783 50.144L150.915 50.204C150.851 50.484 150.711 50.732 150.495 50.948C150.287 51.164 150.019 51.336 149.691 51.464C149.371 51.584 149.023 51.644 148.647 51.644ZM148.851 50.636C149.235 50.636 149.563 50.564 149.835 50.42C150.107 50.268 150.319 50.06 150.471 49.796C150.623 49.532 150.699 49.232 150.699 48.896V48.488L148.827 48.848C148.443 48.92 148.171 49.036 148.011 49.196C147.859 49.348 147.783 49.544 147.783 49.784C147.783 50.056 147.875 50.268 148.059 50.42C148.251 50.564 148.515 50.636 148.851 50.636ZM156.19 51.644C155.582 51.644 155.05 51.508 154.594 51.236C154.138 50.964 153.786 50.576 153.538 50.072C153.29 49.568 153.166 48.98 153.166 48.308C153.166 47.636 153.29 47.052 153.538 46.556C153.786 46.052 154.138 45.664 154.594 45.392C155.05 45.112 155.582 44.972 156.19 44.972C156.71 44.972 157.17 45.064 157.57 45.248C157.978 45.424 158.306 45.684 158.554 46.028C158.81 46.372 158.974 46.792 159.046 47.288L157.714 47.36C157.65 46.944 157.482 46.628 157.21 46.412C156.938 46.188 156.598 46.076 156.19 46.076C155.654 46.076 155.234 46.276 154.93 46.676C154.634 47.068 154.486 47.612 154.486 48.308C154.486 49.004 154.634 49.552 154.93 49.952C155.234 50.344 155.654 50.54 156.19 50.54C156.598 50.54 156.938 50.428 157.21 50.204C157.482 49.972 157.65 49.624 157.714 49.16L159.046 49.232C158.974 49.72 158.81 50.144 158.554 50.504C158.306 50.864 157.978 51.144 157.57 51.344C157.17 51.544 156.71 51.644 156.19 51.644ZM162.42 51.5C161.812 51.5 161.364 51.36 161.076 51.08C160.788 50.8 160.644 50.364 160.644 49.772V43.616H161.916V49.676C161.916 49.972 161.98 50.176 162.108 50.288C162.236 50.4 162.432 50.456 162.696 50.456H163.608V51.5H162.42ZM159.672 46.16V45.116H163.608V46.16H159.672ZM164.824 51.5V45.116H166.096V51.5H164.824ZM164.8 44.192V42.92H166.12V44.192H164.8ZM170.405 51.644C169.797 51.644 169.265 51.508 168.809 51.236C168.353 50.964 168.001 50.576 167.753 50.072C167.505 49.568 167.381 48.98 167.381 48.308C167.381 47.628 167.505 47.04 167.753 46.544C168.001 46.048 168.353 45.664 168.809 45.392C169.265 45.112 169.797 44.972 170.405 44.972C171.013 44.972 171.545 45.112 172.001 45.392C172.457 45.664 172.809 46.048 173.057 46.544C173.305 47.04 173.429 47.628 173.429 48.308C173.429 48.98 173.305 49.568 173.057 50.072C172.809 50.576 172.457 50.964 172.001 51.236C171.545 51.508 171.013 51.644 170.405 51.644ZM170.405 50.54C170.949 50.54 171.369 50.344 171.665 49.952C171.961 49.552 172.109 49.004 172.109 48.308C172.109 47.612 171.961 47.068 171.665 46.676C171.369 46.276 170.949 46.076 170.405 46.076C169.869 46.076 169.449 46.276 169.145 46.676C168.849 47.068 168.701 47.612 168.701 48.308C168.701 49.004 168.849 49.552 169.145 49.952C169.449 50.344 169.869 50.54 170.405 50.54ZM174.714 51.5V45.116H175.878L175.926 46.82L175.77 46.736C175.842 46.32 175.978 45.984 176.178 45.728C176.378 45.472 176.622 45.284 176.91 45.164C177.198 45.036 177.51 44.972 177.846 44.972C178.326 44.972 178.722 45.08 179.034 45.296C179.354 45.504 179.594 45.792 179.754 46.16C179.922 46.52 180.006 46.932 180.006 47.396V51.5H178.734V47.78C178.734 47.404 178.694 47.088 178.614 46.832C178.534 46.576 178.402 46.38 178.218 46.244C178.034 46.108 177.794 46.04 177.498 46.04C177.05 46.04 176.686 46.188 176.406 46.484C176.126 46.78 175.986 47.212 175.986 47.78V51.5H174.714ZM184.124 51.644C183.524 51.644 183.016 51.552 182.6 51.368C182.192 51.184 181.876 50.932 181.652 50.612C181.428 50.284 181.3 49.908 181.268 49.484L182.576 49.424C182.64 49.776 182.792 50.056 183.032 50.264C183.272 50.472 183.636 50.576 184.124 50.576C184.524 50.576 184.84 50.512 185.072 50.384C185.304 50.256 185.42 50.052 185.42 49.772C185.42 49.62 185.38 49.492 185.3 49.388C185.228 49.276 185.084 49.184 184.868 49.112C184.652 49.032 184.332 48.956 183.908 48.884C183.276 48.764 182.78 48.624 182.42 48.464C182.06 48.304 181.804 48.1 181.652 47.852C181.5 47.604 181.424 47.304 181.424 46.952C181.424 46.368 181.64 45.892 182.072 45.524C182.512 45.156 183.144 44.972 183.968 44.972C184.52 44.972 184.984 45.068 185.36 45.26C185.736 45.444 186.028 45.696 186.236 46.016C186.452 46.328 186.588 46.68 186.644 47.072L185.336 47.144C185.296 46.92 185.216 46.728 185.096 46.568C184.984 46.4 184.832 46.272 184.64 46.184C184.448 46.088 184.22 46.04 183.956 46.04C183.548 46.04 183.244 46.12 183.044 46.28C182.844 46.44 182.744 46.648 182.744 46.904C182.744 47.096 182.788 47.252 182.876 47.372C182.972 47.492 183.124 47.592 183.332 47.672C183.54 47.744 183.816 47.808 184.16 47.864C184.824 47.976 185.344 48.116 185.72 48.284C186.096 48.444 186.36 48.644 186.512 48.884C186.664 49.124 186.74 49.416 186.74 49.76C186.74 50.16 186.628 50.5 186.404 50.78C186.18 51.06 185.872 51.276 185.48 51.428C185.088 51.572 184.636 51.644 184.124 51.644Z" fill="#A89491"/>
<path d="M203 24C203 15.1634 210.163 8 219 8H282.5C291.337 8 298.5 15.1634 298.5 24V44C298.5 52.8366 291.337 60 282.5 60H219C210.163 60 203 52.8366 203 44V24Z" fill="url(#paint0_radial_343_25597)"/>
<path fill-rule="evenodd" clip-rule="evenodd" d="M243.5 16.5039C241.981 16.5039 240.75 17.7351 240.75 19.2539V21.501H260.746V23.001H240.75V29.7471C240.75 31.2659 241.981 32.4971 243.5 32.4971H257.996C259.515 32.4971 260.746 31.2659 260.746 29.7471V21.5469C260.746 20.7807 260.746 20.014 260.746 19.2475C260.745 17.7303 259.513 16.5039 257.998 16.5039H243.5ZM245.5 25.001C245.086 25.001 244.75 25.3368 244.75 25.751C244.75 26.1652 245.086 26.501 245.5 26.501H248.5C248.914 26.501 249.25 26.1652 249.25 25.751C249.25 25.3368 248.914 25.001 248.5 25.001H245.5Z" fill="url(#paint1_linear_343_25597)"/>
<path d="M244 18H257C258.105 18 259 18.8954 259 20V21.5" stroke="url(#paint2_linear_343_25597)" stroke-width="2"/>
<path d="M238.596 51.692C237.828 51.692 237.152 51.516 236.568 51.164C235.984 50.804 235.528 50.292 235.2 49.628C234.872 48.964 234.708 48.172 234.708 47.252C234.708 46.34 234.868 45.552 235.188 44.888C235.516 44.216 235.972 43.7 236.556 43.34C237.14 42.972 237.824 42.788 238.608 42.788C239.664 42.788 240.484 43.052 241.068 43.58C241.652 44.108 242.032 44.84 242.208 45.776L240.852 45.848C240.74 45.264 240.5 44.808 240.132 44.48C239.764 44.144 239.256 43.976 238.608 43.976C238.088 43.976 237.636 44.108 237.252 44.372C236.876 44.636 236.58 45.012 236.364 45.5C236.156 45.988 236.052 46.572 236.052 47.252C236.052 47.932 236.156 48.516 236.364 49.004C236.58 49.492 236.88 49.864 237.264 50.12C237.648 50.376 238.092 50.504 238.596 50.504C239.284 50.504 239.816 50.324 240.192 49.964C240.576 49.596 240.816 49.092 240.912 48.452L242.268 48.524C242.164 49.172 241.956 49.732 241.644 50.204C241.332 50.676 240.92 51.044 240.408 51.308C239.896 51.564 239.292 51.692 238.596 51.692ZM245.352 51.644C244.688 51.644 244.156 51.492 243.756 51.188C243.364 50.884 243.168 50.456 243.168 49.904C243.168 49.352 243.332 48.924 243.66 48.62C243.996 48.308 244.512 48.084 245.208 47.948L247.404 47.528C247.404 47.032 247.288 46.664 247.056 46.424C246.824 46.176 246.48 46.052 246.024 46.052C245.616 46.052 245.296 46.144 245.064 46.328C244.832 46.504 244.672 46.768 244.584 47.12L243.276 47.036C243.396 46.396 243.692 45.892 244.164 45.524C244.644 45.156 245.264 44.972 246.024 44.972C246.888 44.972 247.544 45.204 247.992 45.668C248.448 46.124 248.676 46.768 248.676 47.6V50.084C248.676 50.236 248.7 50.344 248.748 50.408C248.804 50.464 248.892 50.492 249.012 50.492H249.24V51.5C249.2 51.508 249.136 51.516 249.048 51.524C248.96 51.532 248.868 51.536 248.772 51.536C248.5 51.536 248.264 51.492 248.064 51.404C247.872 51.316 247.728 51.172 247.632 50.972C247.536 50.764 247.488 50.488 247.488 50.144L247.62 50.204C247.556 50.484 247.416 50.732 247.2 50.948C246.992 51.164 246.724 51.336 246.396 51.464C246.076 51.584 245.728 51.644 245.352 51.644ZM245.556 50.636C245.94 50.636 246.268 50.564 246.54 50.42C246.812 50.268 247.024 50.06 247.176 49.796C247.328 49.532 247.404 49.232 247.404 48.896V48.488L245.532 48.848C245.148 48.92 244.876 49.036 244.716 49.196C244.564 49.348 244.488 49.544 244.488 49.784C244.488 50.056 244.58 50.268 244.764 50.42C244.956 50.564 245.22 50.636 245.556 50.636ZM250.314 51.5V45.116H251.478L251.526 46.808L251.418 46.772C251.506 46.196 251.682 45.776 251.946 45.512C252.218 45.248 252.582 45.116 253.038 45.116H253.65V46.256H253.038C252.718 46.256 252.45 46.308 252.234 46.412C252.018 46.516 251.854 46.676 251.742 46.892C251.638 47.108 251.586 47.388 251.586 47.732V51.5H250.314ZM256.824 51.644C256.28 51.644 255.804 51.508 255.396 51.236C254.996 50.964 254.688 50.58 254.472 50.084C254.264 49.58 254.16 48.988 254.16 48.308C254.16 47.628 254.268 47.04 254.484 46.544C254.7 46.04 255.008 45.652 255.408 45.38C255.808 45.108 256.28 44.972 256.824 44.972C257.264 44.972 257.656 45.064 258 45.248C258.344 45.432 258.604 45.688 258.78 46.016V42.98H260.052V51.5H258.864L258.828 50.54C258.652 50.884 258.384 51.156 258.024 51.356C257.672 51.548 257.272 51.644 256.824 51.644ZM257.16 50.54C257.504 50.54 257.796 50.452 258.036 50.276C258.276 50.1 258.46 49.844 258.588 49.508C258.716 49.172 258.78 48.772 258.78 48.308C258.78 47.828 258.716 47.424 258.588 47.096C258.46 46.76 258.276 46.508 258.036 46.34C257.796 46.164 257.504 46.076 257.16 46.076C256.648 46.076 256.24 46.276 255.936 46.676C255.632 47.068 255.48 47.612 255.48 48.308C255.48 48.996 255.632 49.54 255.936 49.94C256.24 50.34 256.648 50.54 257.16 50.54ZM264.2 51.644C263.6 51.644 263.092 51.552 262.676 51.368C262.268 51.184 261.952 50.932 261.728 50.612C261.504 50.284 261.376 49.908 261.344 49.484L262.652 49.424C262.716 49.776 262.868 50.056 263.108 50.264C263.348 50.472 263.712 50.576 264.2 50.576C264.6 50.576 264.916 50.512 265.148 50.384C265.38 50.256 265.496 50.052 265.496 49.772C265.496 49.62 265.456 49.492 265.376 49.388C265.304 49.276 265.16 49.184 264.944 49.112C264.728 49.032 264.408 48.956 263.984 48.884C263.352 48.764 262.856 48.624 262.496 48.464C262.136 48.304 261.88 48.1 261.728 47.852C261.576 47.604 261.5 47.304 261.5 46.952C261.5 46.368 261.716 45.892 262.148 45.524C262.588 45.156 263.22 44.972 264.044 44.972C264.596 44.972 265.06 45.068 265.436 45.26C265.812 45.444 266.104 45.696 266.312 46.016C266.528 46.328 266.664 46.68 266.72 47.072L265.412 47.144C265.372 46.92 265.292 46.728 265.172 46.568C265.06 46.4 264.908 46.272 264.716 46.184C264.524 46.088 264.296 46.04 264.032 46.04C263.624 46.04 263.32 46.12 263.12 46.28C262.92 46.44 262.82 46.648 262.82 46.904C262.82 47.096 262.864 47.252 262.952 47.372C263.048 47.492 263.2 47.592 263.408 47.672C263.616 47.744 263.892 47.808 264.236 47.864C264.9 47.976 265.42 48.116 265.796 48.284C266.172 48.444 266.436 48.644 266.588 48.884C266.74 49.124 266.816 49.416 266.816 49.76C266.816 50.16 266.704 50.5 266.48 50.78C266.256 51.06 265.948 51.276 265.556 51.428C265.164 51.572 264.712 51.644 264.2 51.644Z" fill="#A89491"/>
<path d="M357.25 25.75H351.5V32.5H357C357.138 32.5 357.25 32.3881 357.25 32.25V25.75ZM344.25 32.25C344.25 32.3881 344.362 32.5 344.5 32.5H350V25.75H344.25V32.25ZM358.25 21.75C358.25 21.6119 358.138 21.5 358 21.5H351.5V24.25H358C358.138 24.25 358.25 24.1381 358.25 24V21.75ZM343.25 24C343.25 24.1381 343.362 24.25 343.5 24.25H350V21.5H343.5C343.362 21.5 343.25 21.6119 343.25 21.75V24ZM355 17.417C355 16.9107 354.589 16.5 354.083 16.5C352.657 16.5002 351.5 17.6565 351.5 19.083V20H352.417C353.843 19.9998 355 18.8435 355 17.417ZM346.5 17.417C346.5 18.8435 347.657 19.9998 349.083 20H350V19.083C350 17.6565 348.843 16.5002 347.417 16.5C346.911 16.5 346.5 16.9107 346.5 17.417ZM356.5 17.417C356.5 18.3972 356.154 19.2962 355.578 20H358C358.967 20 359.75 20.7835 359.75 21.75V24C359.75 24.6977 359.341 25.298 358.75 25.5791V32.25C358.75 33.2165 357.967 34 357 34H344.5C343.534 34 342.75 33.2165 342.75 32.25V25.5791C342.159 25.298 341.75 24.6977 341.75 24V21.75C341.75 20.7835 342.534 20 343.5 20H345.922C345.346 19.2962 345 18.3972 345 17.417C345 16.0823 346.082 15 347.417 15C348.794 15.0001 350.01 15.6824 350.75 16.7266C351.49 15.6824 352.706 15.0001 354.083 15C355.418 15 356.5 16.0823 356.5 17.417Z" fill="#A89491"/>
<path d="M330.008 51.692C329.328 51.692 328.736 51.568 328.232 51.32C327.736 51.072 327.344 50.728 327.056 50.288C326.768 49.848 326.6 49.336 326.552 48.752L327.884 48.668C327.94 49.068 328.056 49.408 328.232 49.688C328.408 49.96 328.644 50.168 328.94 50.312C329.244 50.448 329.608 50.516 330.032 50.516C330.4 50.516 330.712 50.472 330.968 50.384C331.232 50.288 331.432 50.148 331.568 49.964C331.704 49.78 331.772 49.556 331.772 49.292C331.772 49.052 331.712 48.84 331.592 48.656C331.48 48.464 331.26 48.292 330.932 48.14C330.612 47.98 330.14 47.824 329.516 47.672C328.836 47.504 328.292 47.32 327.884 47.12C327.476 46.92 327.18 46.672 326.996 46.376C326.82 46.072 326.732 45.7 326.732 45.26C326.732 44.772 326.848 44.344 327.08 43.976C327.32 43.6 327.66 43.308 328.1 43.1C328.54 42.892 329.068 42.788 329.684 42.788C330.332 42.788 330.884 42.908 331.34 43.148C331.804 43.388 332.168 43.716 332.432 44.132C332.704 44.548 332.872 45.024 332.936 45.56L331.604 45.632C331.564 45.304 331.464 45.016 331.304 44.768C331.144 44.512 330.928 44.316 330.656 44.18C330.384 44.036 330.052 43.964 329.66 43.964C329.164 43.964 328.772 44.08 328.484 44.312C328.204 44.536 328.064 44.836 328.064 45.212C328.064 45.452 328.12 45.656 328.232 45.824C328.352 45.984 328.56 46.124 328.856 46.244C329.16 46.364 329.588 46.492 330.14 46.628C330.876 46.796 331.46 47.004 331.892 47.252C332.332 47.492 332.644 47.776 332.828 48.104C333.012 48.432 333.104 48.804 333.104 49.22C333.104 49.724 332.972 50.164 332.708 50.54C332.452 50.908 332.092 51.192 331.628 51.392C331.164 51.592 330.624 51.692 330.008 51.692ZM337.424 51.644C336.8 51.644 336.26 51.508 335.804 51.236C335.356 50.964 335.008 50.576 334.76 50.072C334.52 49.568 334.4 48.98 334.4 48.308C334.4 47.636 334.52 47.052 334.76 46.556C335.008 46.052 335.356 45.664 335.804 45.392C336.252 45.112 336.78 44.972 337.388 44.972C337.964 44.972 338.472 45.108 338.912 45.38C339.352 45.644 339.692 46.028 339.932 46.532C340.18 47.036 340.304 47.644 340.304 48.356V48.68H335.72C335.752 49.304 335.916 49.772 336.212 50.084C336.516 50.396 336.924 50.552 337.436 50.552C337.812 50.552 338.124 50.464 338.372 50.288C338.62 50.112 338.792 49.876 338.888 49.58L340.208 49.664C340.04 50.256 339.708 50.736 339.212 51.104C338.724 51.464 338.128 51.644 337.424 51.644ZM335.72 47.72H338.96C338.92 47.152 338.756 46.732 338.468 46.46C338.188 46.188 337.828 46.052 337.388 46.052C336.932 46.052 336.556 46.196 336.26 46.484C335.972 46.764 335.792 47.176 335.72 47.72ZM341.593 51.5V45.116H342.757L342.805 46.808L342.697 46.772C342.785 46.196 342.961 45.776 343.225 45.512C343.497 45.248 343.861 45.116 344.317 45.116H344.929V46.256H344.317C343.997 46.256 343.729 46.308 343.513 46.412C343.297 46.516 343.133 46.676 343.021 46.892C342.917 47.108 342.865 47.388 342.865 47.732V51.5H341.593ZM347.715 51.5L345.387 45.116H346.743L348.483 50.204L350.223 45.116H351.591L349.251 51.5H347.715ZM352.621 51.5V45.116H353.893V51.5H352.621ZM352.597 44.192V42.92H353.917V44.192H352.597ZM358.202 51.644C357.594 51.644 357.062 51.508 356.606 51.236C356.15 50.964 355.798 50.576 355.55 50.072C355.302 49.568 355.178 48.98 355.178 48.308C355.178 47.636 355.302 47.052 355.55 46.556C355.798 46.052 356.15 45.664 356.606 45.392C357.062 45.112 357.594 44.972 358.202 44.972C358.722 44.972 359.182 45.064 359.582 45.248C359.99 45.424 360.318 45.684 360.566 46.028C360.822 46.372 360.986 46.792 361.058 47.288L359.726 47.36C359.662 46.944 359.494 46.628 359.222 46.412C358.95 46.188 358.61 46.076 358.202 46.076C357.666 46.076 357.246 46.276 356.942 46.676C356.646 47.068 356.498 47.612 356.498 48.308C356.498 49.004 356.646 49.552 356.942 49.952C357.246 50.344 357.666 50.54 358.202 50.54C358.61 50.54 358.95 50.428 359.222 50.204C359.494 49.972 359.662 49.624 359.726 49.16L361.058 49.232C360.986 49.72 360.822 50.144 360.566 50.504C360.318 50.864 359.99 51.144 359.582 51.344C359.182 51.544 358.722 51.644 358.202 51.644ZM364.846 51.644C364.222 51.644 363.682 51.508 363.226 51.236C362.778 50.964 362.43 50.576 362.182 50.072C361.942 49.568 361.822 48.98 361.822 48.308C361.822 47.636 361.942 47.052 362.182 46.556C362.43 46.052 362.778 45.664 363.226 45.392C363.674 45.112 364.202 44.972 364.81 44.972C365.386 44.972 365.894 45.108 366.334 45.38C366.774 45.644 367.114 46.028 367.354 46.532C367.602 47.036 367.726 47.644 367.726 48.356V48.68H363.142C363.174 49.304 363.338 49.772 363.634 50.084C363.938 50.396 364.346 50.552 364.858 50.552C365.234 50.552 365.546 50.464 365.794 50.288C366.042 50.112 366.214 49.876 366.31 49.58L367.63 49.664C367.462 50.256 367.13 50.736 366.634 51.104C366.146 51.464 365.55 51.644 364.846 51.644ZM363.142 47.72H366.382C366.342 47.152 366.178 46.732 365.89 46.46C365.61 46.188 365.25 46.052 364.81 46.052C364.354 46.052 363.978 46.196 363.682 46.484C363.394 46.764 363.214 47.176 363.142 47.72ZM371.475 51.644C370.875 51.644 370.367 51.552 369.951 51.368C369.543 51.184 369.227 50.932 369.003 50.612C368.779 50.284 368.651 49.908 368.619 49.484L369.927 49.424C369.991 49.776 370.143 50.056 370.383 50.264C370.623 50.472 370.987 50.576 371.475 50.576C371.875 50.576 372.191 50.512 372.423 50.384C372.655 50.256 372.771 50.052 372.771 49.772C372.771 49.62 372.731 49.492 372.651 49.388C372.579 49.276 372.435 49.184 372.219 49.112C372.003 49.032 371.683 48.956 371.259 48.884C370.627 48.764 370.131 48.624 369.771 48.464C369.411 48.304 369.155 48.1 369.003 47.852C368.851 47.604 368.775 47.304 368.775 46.952C368.775 46.368 368.991 45.892 369.423 45.524C369.863 45.156 370.495 44.972 371.319 44.972C371.871 44.972 372.335 45.068 372.711 45.26C373.087 45.444 373.379 45.696 373.587 46.016C373.803 46.328 373.939 46.68 373.995 47.072L372.687 47.144C372.647 46.92 372.567 46.728 372.447 46.568C372.335 46.4 372.183 46.272 371.991 46.184C371.799 46.088 371.571 46.04 371.307 46.04C370.899 46.04 370.595 46.12 370.395 46.28C370.195 46.44 370.095 46.648 370.095 46.904C370.095 47.096 370.139 47.252 370.227 47.372C370.323 47.492 370.475 47.592 370.683 47.672C370.891 47.744 371.167 47.808 371.511 47.864C372.175 47.976 372.695 48.116 373.071 48.284C373.447 48.444 373.711 48.644 373.863 48.884C374.015 49.124 374.091 49.416 374.091 49.76C374.091 50.16 373.979 50.5 373.755 50.78C373.531 51.06 373.223 51.276 372.831 51.428C372.439 51.572 371.987 51.644 371.475 51.644Z" fill="#A89491"/>
</g>
<defs>
<filter id="filter0_dd_343_25597" x="-3" y="0" width="408" height="80" filterUnits="userSpaceOnUse" color-interpolation-filters="sRGB">
<feFlood flood-opacity="0" result="BackgroundImageFix"/>
<feColorMatrix in="SourceAlpha" type="matrix" values="0 0 0 0 0 0 0 0 0 0 0 0 0 0 0 0 0 0 127 0" result="hardAlpha"/>
<feOffset dy="1"/>
<feGaussianBlur stdDeviation="1.5"/>
<feColorMatrix type="matrix" values="0 0 0 0 0 0 0 0 0 0 0 0 0 0 0 0 0 0 0.15 0"/>
<feBlend mode="normal" in2="BackgroundImageFix" result="effect1_dropShadow_343_25597"/>
<feColorMatrix in="SourceAlpha" type="matrix" values="0 0 0 0 0 0 0 0 0 0 0 0 0 0 0 0 0 0 127 0" result="hardAlpha"/>
<feOffset/>
<feGaussianBlur stdDeviation="0.25"/>
<feColorMatrix type="matrix" values="0 0 0 0 0 0 0 0 0 0 0 0 0 0 0 0 0 0 0.3 0"/>
<feBlend mode="normal" in2="effect1_dropShadow_343_25597" result="effect2_dropShadow_343_25597"/>
<feBlend mode="normal" in="SourceGraphic" in2="effect2_dropShadow_343_25597" result="shape"/>
</filter>
<radialGradient id="paint0_radial_343_25597" cx="0" cy="0" r="1" gradientUnits="userSpaceOnUse" gradientTransform="translate(250.75 34) rotate(90) scale(26 47.75)">
<stop stop-color="#D6B960" stop-opacity="0.1"/>
<stop offset="1" stop-color="#C0A142" stop-opacity="0"/>
</radialGradient>
<linearGradient id="paint1_linear_343_25597" x1="250.748" y1="16.5039" x2="250.748" y2="32.4971" gradientUnits="userSpaceOnUse">
<stop stop-color="#D6B960"/>
<stop offset="1" stop-color="#C0A142"/>
</linearGradient>
<linearGradient id="paint2_linear_343_25597" x1="268.5" y1="3" x2="252" y2="26" gradientUnits="userSpaceOnUse">
<stop stop-color="white" stop-opacity="0"/>
<stop offset="0.519231" stop-color="white"/>
<stop offset="1" stop-color="white" stop-opacity="0"/>
</linearGradient>
</defs>
</svg>
