<svg width="403" height="75" viewBox="0 0 403 75" fill="none" xmlns="http://www.w3.org/2000/svg">
<g filter="url(#filter0_d_372_28941)">
<mask id="path-1-inside-1_372_28941" fill="white">
<path d="M0.5 0.5H402.5V74.5H0.5V0.5Z"/>
</mask>
<path d="M0.5 0.5H402.5V74.5H0.5V0.5Z" fill="white"/>
<path d="M0.5 0.5V1.5H402.5V0.5V-0.5H0.5V0.5Z" fill="black" fill-opacity="0.1" mask="url(#path-1-inside-1_372_28941)"/>
<rect x="4.5" y="6.5" width="95.5" height="52" rx="16" fill="url(#paint0_radial_372_28941)"/>
<path d="M53.2092 14.2316C52.6267 13.8499 51.8733 13.8499 51.2908 14.2316L44.0408 18.9825C43.5473 19.3059 43.25 19.8562 43.25 20.4463V30.2498C43.25 31.2163 44.0335 31.9998 45 31.9998H49C49.4142 31.9998 49.75 31.664 49.75 31.2498V27.7498C49.75 26.3691 50.8693 25.2498 52.25 25.2498C53.6307 25.2498 54.75 26.3691 54.75 27.7498V31.2498C54.75 31.664 55.0858 31.9998 55.5 31.9998H59.5C60.4665 31.9998 61.25 31.2163 61.25 30.2498V20.4463C61.25 19.8562 60.9527 19.3059 60.4592 18.9825L53.2092 14.2316Z" fill="url(#paint1_linear_372_28941)"/>
<line x1="51.5547" y1="14.6679" x2="60.5547" y2="20.6679" stroke="url(#paint2_linear_372_28941)" stroke-width="2"/>
<path d="M36.8816 50V41.48H38.1776V45.584L37.5536 45.128H42.7376L42.1136 45.584V41.48H43.4096V50H42.1136V45.848L42.7376 46.304H37.5536L38.1776 45.848V50H36.8816ZM47.8503 50.144C47.2423 50.144 46.7103 50.008 46.2543 49.736C45.7983 49.464 45.4463 49.076 45.1983 48.572C44.9503 48.068 44.8263 47.48 44.8263 46.808C44.8263 46.128 44.9503 45.54 45.1983 45.044C45.4463 44.548 45.7983 44.164 46.2543 43.892C46.7103 43.612 47.2423 43.472 47.8503 43.472C48.4583 43.472 48.9903 43.612 49.4463 43.892C49.9023 44.164 50.2543 44.548 50.5023 45.044C50.7503 45.54 50.8743 46.128 50.8743 46.808C50.8743 47.48 50.7503 48.068 50.5023 48.572C50.2543 49.076 49.9023 49.464 49.4463 49.736C48.9903 50.008 48.4583 50.144 47.8503 50.144ZM47.8503 49.04C48.3943 49.04 48.8143 48.844 49.1103 48.452C49.4063 48.052 49.5543 47.504 49.5543 46.808C49.5543 46.112 49.4063 45.568 49.1103 45.176C48.8143 44.776 48.3943 44.576 47.8503 44.576C47.3143 44.576 46.8943 44.776 46.5903 45.176C46.2943 45.568 46.1463 46.112 46.1463 46.808C46.1463 47.504 46.2943 48.052 46.5903 48.452C46.8943 48.844 47.3143 49.04 47.8503 49.04ZM52.1598 50V43.616H53.3238L53.3598 45.2L53.2158 45.152C53.2878 44.8 53.4118 44.5 53.5878 44.252C53.7718 44.004 53.9958 43.812 54.2598 43.676C54.5238 43.54 54.8118 43.472 55.1238 43.472C55.6678 43.472 56.1118 43.628 56.4558 43.94C56.7998 44.244 57.0158 44.664 57.1038 45.2H56.8998C56.9718 44.824 57.0918 44.512 57.2598 44.264C57.4358 44.008 57.6598 43.812 57.9318 43.676C58.2038 43.54 58.5118 43.472 58.8558 43.472C59.3038 43.472 59.6838 43.568 59.9958 43.76C60.3158 43.944 60.5558 44.216 60.7158 44.576C60.8838 44.936 60.9678 45.376 60.9678 45.896V50H59.6958V46.208C59.6958 45.656 59.5958 45.24 59.3958 44.96C59.1958 44.68 58.8918 44.54 58.4838 44.54C58.2198 44.54 57.9878 44.608 57.7878 44.744C57.5878 44.88 57.4318 45.076 57.3198 45.332C57.2158 45.588 57.1638 45.896 57.1638 46.256V50H55.9518V46.256C55.9518 45.712 55.8598 45.292 55.6758 44.996C55.4998 44.692 55.1958 44.54 54.7638 44.54C54.4918 44.54 54.2558 44.608 54.0558 44.744C53.8638 44.88 53.7118 45.08 53.5998 45.344C53.4878 45.6 53.4318 45.904 53.4318 46.256V50H52.1598ZM65.2643 50.144C64.6403 50.144 64.1003 50.008 63.6443 49.736C63.1963 49.464 62.8483 49.076 62.6003 48.572C62.3603 48.068 62.2403 47.48 62.2403 46.808C62.2403 46.136 62.3603 45.552 62.6003 45.056C62.8483 44.552 63.1963 44.164 63.6443 43.892C64.0923 43.612 64.6203 43.472 65.2283 43.472C65.8043 43.472 66.3123 43.608 66.7523 43.88C67.1923 44.144 67.5323 44.528 67.7723 45.032C68.0203 45.536 68.1443 46.144 68.1443 46.856V47.18H63.5603C63.5923 47.804 63.7563 48.272 64.0523 48.584C64.3563 48.896 64.7643 49.052 65.2763 49.052C65.6523 49.052 65.9643 48.964 66.2123 48.788C66.4603 48.612 66.6323 48.376 66.7283 48.08L68.0483 48.164C67.8803 48.756 67.5483 49.236 67.0523 49.604C66.5643 49.964 65.9683 50.144 65.2643 50.144ZM63.5603 46.22H66.8003C66.7603 45.652 66.5963 45.232 66.3083 44.96C66.0283 44.688 65.6683 44.552 65.2283 44.552C64.7723 44.552 64.3963 44.696 64.1003 44.984C63.8123 45.264 63.6323 45.676 63.5603 46.22Z" fill="#C0A142"/>
<path d="M143.75 31.25V14.75C143.75 13.7835 144.534 13 145.5 13H152.086C152.55 13 152.995 13.1845 153.323 13.5127L159.237 19.4268C159.565 19.7548 159.75 20.1999 159.75 20.6641V31.25C159.75 32.2165 158.967 33 158 33H145.5C144.534 33 143.75 32.2165 143.75 31.25ZM145.25 31.25C145.25 31.3881 145.362 31.5 145.5 31.5H158C158.138 31.5 158.25 31.3881 158.25 31.25V20.6641C158.25 20.6144 158.235 20.5662 158.208 20.5254L158.177 20.4873L152.263 14.5732C152.216 14.5265 152.152 14.5 152.086 14.5H145.5C145.362 14.5 145.25 14.6119 145.25 14.75V31.25Z" fill="#A89491"/>
<path d="M155 27.5C155.414 27.5 155.75 27.8358 155.75 28.25C155.75 28.6642 155.414 29 155 29H148.5C148.086 29 147.75 28.6642 147.75 28.25C147.75 27.8358 148.086 27.5 148.5 27.5H155ZM152 23.5C152.414 23.5 152.75 23.8358 152.75 24.25C152.75 24.6642 152.414 25 152 25H148.5C148.086 25 147.75 24.6642 147.75 24.25C147.75 23.8358 148.086 23.5 148.5 23.5H152Z" fill="#A89491"/>
<path d="M151.75 19.25V14.25C151.75 13.8358 152.086 13.5 152.5 13.5C152.914 13.5 153.25 13.8358 153.25 14.25V19.25C153.25 19.3881 153.362 19.5 153.5 19.5H158.5C158.914 19.5 159.25 19.8358 159.25 20.25C159.25 20.6642 158.914 21 158.5 21H153.5C152.533 21 151.75 20.2165 151.75 19.25Z" fill="#A89491"/>
<path d="M118.516 50V42.668H115.9V41.48H122.428V42.668H119.812V50H118.516ZM122.902 50V43.616H124.066L124.114 45.308L124.006 45.272C124.094 44.696 124.27 44.276 124.534 44.012C124.806 43.748 125.17 43.616 125.626 43.616H126.238V44.756H125.626C125.306 44.756 125.038 44.808 124.822 44.912C124.606 45.016 124.442 45.176 124.33 45.392C124.226 45.608 124.174 45.888 124.174 46.232V50H122.902ZM128.956 50.144C128.292 50.144 127.76 49.992 127.36 49.688C126.968 49.384 126.772 48.956 126.772 48.404C126.772 47.852 126.936 47.424 127.264 47.12C127.6 46.808 128.116 46.584 128.812 46.448L131.008 46.028C131.008 45.532 130.892 45.164 130.66 44.924C130.428 44.676 130.084 44.552 129.628 44.552C129.22 44.552 128.9 44.644 128.668 44.828C128.436 45.004 128.276 45.268 128.188 45.62L126.88 45.536C127 44.896 127.296 44.392 127.768 44.024C128.248 43.656 128.868 43.472 129.628 43.472C130.492 43.472 131.148 43.704 131.596 44.168C132.052 44.624 132.28 45.268 132.28 46.1V48.584C132.28 48.736 132.304 48.844 132.352 48.908C132.408 48.964 132.496 48.992 132.616 48.992H132.844V50C132.804 50.008 132.74 50.016 132.652 50.024C132.564 50.032 132.472 50.036 132.376 50.036C132.104 50.036 131.868 49.992 131.668 49.904C131.476 49.816 131.332 49.672 131.236 49.472C131.14 49.264 131.092 48.988 131.092 48.644L131.224 48.704C131.16 48.984 131.02 49.232 130.804 49.448C130.596 49.664 130.328 49.836 130 49.964C129.68 50.084 129.332 50.144 128.956 50.144ZM129.16 49.136C129.544 49.136 129.872 49.064 130.144 48.92C130.416 48.768 130.628 48.56 130.78 48.296C130.932 48.032 131.008 47.732 131.008 47.396V46.988L129.136 47.348C128.752 47.42 128.48 47.536 128.32 47.696C128.168 47.848 128.092 48.044 128.092 48.284C128.092 48.556 128.184 48.768 128.368 48.92C128.56 49.064 128.824 49.136 129.16 49.136ZM133.918 50V43.616H135.082L135.13 45.32L134.974 45.236C135.046 44.82 135.182 44.484 135.382 44.228C135.582 43.972 135.826 43.784 136.114 43.664C136.402 43.536 136.714 43.472 137.05 43.472C137.53 43.472 137.926 43.58 138.238 43.796C138.558 44.004 138.798 44.292 138.958 44.66C139.126 45.02 139.21 45.432 139.21 45.896V50H137.938V46.28C137.938 45.904 137.898 45.588 137.818 45.332C137.738 45.076 137.606 44.88 137.422 44.744C137.238 44.608 136.998 44.54 136.702 44.54C136.254 44.54 135.89 44.688 135.61 44.984C135.33 45.28 135.19 45.712 135.19 46.28V50H133.918ZM143.327 50.144C142.727 50.144 142.219 50.052 141.803 49.868C141.395 49.684 141.079 49.432 140.855 49.112C140.631 48.784 140.503 48.408 140.471 47.984L141.779 47.924C141.843 48.276 141.995 48.556 142.235 48.764C142.475 48.972 142.839 49.076 143.327 49.076C143.727 49.076 144.043 49.012 144.275 48.884C144.507 48.756 144.623 48.552 144.623 48.272C144.623 48.12 144.583 47.992 144.503 47.888C144.431 47.776 144.287 47.684 144.071 47.612C143.855 47.532 143.535 47.456 143.111 47.384C142.479 47.264 141.983 47.124 141.623 46.964C141.263 46.804 141.007 46.6 140.855 46.352C140.703 46.104 140.627 45.804 140.627 45.452C140.627 44.868 140.843 44.392 141.275 44.024C141.715 43.656 142.347 43.472 143.171 43.472C143.723 43.472 144.187 43.568 144.563 43.76C144.939 43.944 145.231 44.196 145.439 44.516C145.655 44.828 145.791 45.18 145.847 45.572L144.539 45.644C144.499 45.42 144.419 45.228 144.299 45.068C144.187 44.9 144.035 44.772 143.843 44.684C143.651 44.588 143.423 44.54 143.159 44.54C142.751 44.54 142.447 44.62 142.247 44.78C142.047 44.94 141.947 45.148 141.947 45.404C141.947 45.596 141.991 45.752 142.079 45.872C142.175 45.992 142.327 46.092 142.535 46.172C142.743 46.244 143.019 46.308 143.363 46.364C144.027 46.476 144.547 46.616 144.923 46.784C145.299 46.944 145.563 47.144 145.715 47.384C145.867 47.624 145.943 47.916 145.943 48.26C145.943 48.66 145.831 49 145.607 49.28C145.383 49.56 145.075 49.776 144.683 49.928C144.291 50.072 143.839 50.144 143.327 50.144ZM149.147 50.144C148.483 50.144 147.951 49.992 147.551 49.688C147.159 49.384 146.963 48.956 146.963 48.404C146.963 47.852 147.127 47.424 147.455 47.12C147.791 46.808 148.307 46.584 149.003 46.448L151.199 46.028C151.199 45.532 151.083 45.164 150.851 44.924C150.619 44.676 150.275 44.552 149.819 44.552C149.411 44.552 149.091 44.644 148.859 44.828C148.627 45.004 148.467 45.268 148.379 45.62L147.071 45.536C147.191 44.896 147.487 44.392 147.959 44.024C148.439 43.656 149.059 43.472 149.819 43.472C150.683 43.472 151.339 43.704 151.787 44.168C152.243 44.624 152.471 45.268 152.471 46.1V48.584C152.471 48.736 152.495 48.844 152.543 48.908C152.599 48.964 152.687 48.992 152.807 48.992H153.035V50C152.995 50.008 152.931 50.016 152.843 50.024C152.755 50.032 152.663 50.036 152.567 50.036C152.295 50.036 152.059 49.992 151.859 49.904C151.667 49.816 151.523 49.672 151.427 49.472C151.331 49.264 151.283 48.988 151.283 48.644L151.415 48.704C151.351 48.984 151.211 49.232 150.995 49.448C150.787 49.664 150.519 49.836 150.191 49.964C149.871 50.084 149.523 50.144 149.147 50.144ZM149.351 49.136C149.735 49.136 150.063 49.064 150.335 48.92C150.607 48.768 150.819 48.56 150.971 48.296C151.123 48.032 151.199 47.732 151.199 47.396V46.988L149.327 47.348C148.943 47.42 148.671 47.536 148.511 47.696C148.359 47.848 148.283 48.044 148.283 48.284C148.283 48.556 148.375 48.768 148.559 48.92C148.751 49.064 149.015 49.136 149.351 49.136ZM156.69 50.144C156.082 50.144 155.55 50.008 155.094 49.736C154.638 49.464 154.286 49.076 154.038 48.572C153.79 48.068 153.666 47.48 153.666 46.808C153.666 46.136 153.79 45.552 154.038 45.056C154.286 44.552 154.638 44.164 155.094 43.892C155.55 43.612 156.082 43.472 156.69 43.472C157.21 43.472 157.67 43.564 158.07 43.748C158.478 43.924 158.806 44.184 159.054 44.528C159.31 44.872 159.474 45.292 159.546 45.788L158.214 45.86C158.15 45.444 157.982 45.128 157.71 44.912C157.438 44.688 157.098 44.576 156.69 44.576C156.154 44.576 155.734 44.776 155.43 45.176C155.134 45.568 154.986 46.112 154.986 46.808C154.986 47.504 155.134 48.052 155.43 48.452C155.734 48.844 156.154 49.04 156.69 49.04C157.098 49.04 157.438 48.928 157.71 48.704C157.982 48.472 158.15 48.124 158.214 47.66L159.546 47.732C159.474 48.22 159.31 48.644 159.054 49.004C158.806 49.364 158.478 49.644 158.07 49.844C157.67 50.044 157.21 50.144 156.69 50.144ZM162.92 50C162.312 50 161.864 49.86 161.576 49.58C161.288 49.3 161.144 48.864 161.144 48.272V42.116H162.416V48.176C162.416 48.472 162.48 48.676 162.608 48.788C162.736 48.9 162.932 48.956 163.196 48.956H164.108V50H162.92ZM160.172 44.66V43.616H164.108V44.66H160.172ZM165.324 50V43.616H166.596V50H165.324ZM165.3 42.692V41.42H166.62V42.692H165.3ZM170.905 50.144C170.297 50.144 169.765 50.008 169.309 49.736C168.853 49.464 168.501 49.076 168.253 48.572C168.005 48.068 167.881 47.48 167.881 46.808C167.881 46.128 168.005 45.54 168.253 45.044C168.501 44.548 168.853 44.164 169.309 43.892C169.765 43.612 170.297 43.472 170.905 43.472C171.513 43.472 172.045 43.612 172.501 43.892C172.957 44.164 173.309 44.548 173.557 45.044C173.805 45.54 173.929 46.128 173.929 46.808C173.929 47.48 173.805 48.068 173.557 48.572C173.309 49.076 172.957 49.464 172.501 49.736C172.045 50.008 171.513 50.144 170.905 50.144ZM170.905 49.04C171.449 49.04 171.869 48.844 172.165 48.452C172.461 48.052 172.609 47.504 172.609 46.808C172.609 46.112 172.461 45.568 172.165 45.176C171.869 44.776 171.449 44.576 170.905 44.576C170.369 44.576 169.949 44.776 169.645 45.176C169.349 45.568 169.201 46.112 169.201 46.808C169.201 47.504 169.349 48.052 169.645 48.452C169.949 48.844 170.369 49.04 170.905 49.04ZM175.214 50V43.616H176.378L176.426 45.32L176.27 45.236C176.342 44.82 176.478 44.484 176.678 44.228C176.878 43.972 177.122 43.784 177.41 43.664C177.698 43.536 178.01 43.472 178.346 43.472C178.826 43.472 179.222 43.58 179.534 43.796C179.854 44.004 180.094 44.292 180.254 44.66C180.422 45.02 180.506 45.432 180.506 45.896V50H179.234V46.28C179.234 45.904 179.194 45.588 179.114 45.332C179.034 45.076 178.902 44.88 178.718 44.744C178.534 44.608 178.294 44.54 177.998 44.54C177.55 44.54 177.186 44.688 176.906 44.984C176.626 45.28 176.486 45.712 176.486 46.28V50H175.214ZM184.624 50.144C184.024 50.144 183.516 50.052 183.1 49.868C182.692 49.684 182.376 49.432 182.152 49.112C181.928 48.784 181.8 48.408 181.768 47.984L183.076 47.924C183.14 48.276 183.292 48.556 183.532 48.764C183.772 48.972 184.136 49.076 184.624 49.076C185.024 49.076 185.34 49.012 185.572 48.884C185.804 48.756 185.92 48.552 185.92 48.272C185.92 48.12 185.88 47.992 185.8 47.888C185.728 47.776 185.584 47.684 185.368 47.612C185.152 47.532 184.832 47.456 184.408 47.384C183.776 47.264 183.28 47.124 182.92 46.964C182.56 46.804 182.304 46.6 182.152 46.352C182 46.104 181.924 45.804 181.924 45.452C181.924 44.868 182.14 44.392 182.572 44.024C183.012 43.656 183.644 43.472 184.468 43.472C185.02 43.472 185.484 43.568 185.86 43.76C186.236 43.944 186.528 44.196 186.736 44.516C186.952 44.828 187.088 45.18 187.144 45.572L185.836 45.644C185.796 45.42 185.716 45.228 185.596 45.068C185.484 44.9 185.332 44.772 185.14 44.684C184.948 44.588 184.72 44.54 184.456 44.54C184.048 44.54 183.744 44.62 183.544 44.78C183.344 44.94 183.244 45.148 183.244 45.404C183.244 45.596 183.288 45.752 183.376 45.872C183.472 45.992 183.624 46.092 183.832 46.172C184.04 46.244 184.316 46.308 184.66 46.364C185.324 46.476 185.844 46.616 186.22 46.784C186.596 46.944 186.86 47.144 187.012 47.384C187.164 47.624 187.24 47.916 187.24 48.26C187.24 48.66 187.128 49 186.904 49.28C186.68 49.56 186.372 49.776 185.98 49.928C185.588 50.072 185.136 50.144 184.624 50.144Z" fill="#A89491"/>
<path d="M259.746 21.9971H242.75V29.7432C242.75 29.8812 242.862 29.9932 243 29.9932H259.496C259.634 29.9932 259.746 29.8813 259.746 29.7432V21.9971ZM249 23.9971C249.414 23.9971 249.75 24.3329 249.75 24.7471C249.75 25.1613 249.414 25.4971 249 25.4971H246C245.586 25.4971 245.25 25.1613 245.25 24.7471C245.25 24.3329 245.586 23.9971 246 23.9971H249ZM261.246 29.7432C261.246 30.7097 260.463 31.4932 259.496 31.4932H243C242.034 31.4932 241.25 30.7097 241.25 29.7432V17.25C241.25 16.2835 242.034 15.5 243 15.5H259.495C260.459 15.5 261.243 16.2806 261.244 17.2461C261.246 18.5802 261.246 19.9143 261.246 21.2471V29.7432ZM242.75 20.4971H259.746C259.746 19.4137 259.746 18.3307 259.744 17.248C259.744 17.1114 259.633 17 259.495 17H243C242.862 17 242.75 17.1119 242.75 17.25V20.4971Z" fill="#A89491"/>
<path d="M239.096 50.192C238.328 50.192 237.652 50.016 237.068 49.664C236.484 49.304 236.028 48.792 235.7 48.128C235.372 47.464 235.208 46.672 235.208 45.752C235.208 44.84 235.368 44.052 235.688 43.388C236.016 42.716 236.472 42.2 237.056 41.84C237.64 41.472 238.324 41.288 239.108 41.288C240.164 41.288 240.984 41.552 241.568 42.08C242.152 42.608 242.532 43.34 242.708 44.276L241.352 44.348C241.24 43.764 241 43.308 240.632 42.98C240.264 42.644 239.756 42.476 239.108 42.476C238.588 42.476 238.136 42.608 237.752 42.872C237.376 43.136 237.08 43.512 236.864 44C236.656 44.488 236.552 45.072 236.552 45.752C236.552 46.432 236.656 47.016 236.864 47.504C237.08 47.992 237.38 48.364 237.764 48.62C238.148 48.876 238.592 49.004 239.096 49.004C239.784 49.004 240.316 48.824 240.692 48.464C241.076 48.096 241.316 47.592 241.412 46.952L242.768 47.024C242.664 47.672 242.456 48.232 242.144 48.704C241.832 49.176 241.42 49.544 240.908 49.808C240.396 50.064 239.792 50.192 239.096 50.192ZM245.852 50.144C245.188 50.144 244.656 49.992 244.256 49.688C243.864 49.384 243.668 48.956 243.668 48.404C243.668 47.852 243.832 47.424 244.16 47.12C244.496 46.808 245.012 46.584 245.708 46.448L247.904 46.028C247.904 45.532 247.788 45.164 247.556 44.924C247.324 44.676 246.98 44.552 246.524 44.552C246.116 44.552 245.796 44.644 245.564 44.828C245.332 45.004 245.172 45.268 245.084 45.62L243.776 45.536C243.896 44.896 244.192 44.392 244.664 44.024C245.144 43.656 245.764 43.472 246.524 43.472C247.388 43.472 248.044 43.704 248.492 44.168C248.948 44.624 249.176 45.268 249.176 46.1V48.584C249.176 48.736 249.2 48.844 249.248 48.908C249.304 48.964 249.392 48.992 249.512 48.992H249.74V50C249.7 50.008 249.636 50.016 249.548 50.024C249.46 50.032 249.368 50.036 249.272 50.036C249 50.036 248.764 49.992 248.564 49.904C248.372 49.816 248.228 49.672 248.132 49.472C248.036 49.264 247.988 48.988 247.988 48.644L248.12 48.704C248.056 48.984 247.916 49.232 247.7 49.448C247.492 49.664 247.224 49.836 246.896 49.964C246.576 50.084 246.228 50.144 245.852 50.144ZM246.056 49.136C246.44 49.136 246.768 49.064 247.04 48.92C247.312 48.768 247.524 48.56 247.676 48.296C247.828 48.032 247.904 47.732 247.904 47.396V46.988L246.032 47.348C245.648 47.42 245.376 47.536 245.216 47.696C245.064 47.848 244.988 48.044 244.988 48.284C244.988 48.556 245.08 48.768 245.264 48.92C245.456 49.064 245.72 49.136 246.056 49.136ZM250.814 50V43.616H251.978L252.026 45.308L251.918 45.272C252.006 44.696 252.182 44.276 252.446 44.012C252.718 43.748 253.082 43.616 253.538 43.616H254.15V44.756H253.538C253.218 44.756 252.95 44.808 252.734 44.912C252.518 45.016 252.354 45.176 252.242 45.392C252.138 45.608 252.086 45.888 252.086 46.232V50H250.814ZM257.324 50.144C256.78 50.144 256.304 50.008 255.896 49.736C255.496 49.464 255.188 49.08 254.972 48.584C254.764 48.08 254.66 47.488 254.66 46.808C254.66 46.128 254.768 45.54 254.984 45.044C255.2 44.54 255.508 44.152 255.908 43.88C256.308 43.608 256.78 43.472 257.324 43.472C257.764 43.472 258.156 43.564 258.5 43.748C258.844 43.932 259.104 44.188 259.28 44.516V41.48H260.552V50H259.364L259.328 49.04C259.152 49.384 258.884 49.656 258.524 49.856C258.172 50.048 257.772 50.144 257.324 50.144ZM257.66 49.04C258.004 49.04 258.296 48.952 258.536 48.776C258.776 48.6 258.96 48.344 259.088 48.008C259.216 47.672 259.28 47.272 259.28 46.808C259.28 46.328 259.216 45.924 259.088 45.596C258.96 45.26 258.776 45.008 258.536 44.84C258.296 44.664 258.004 44.576 257.66 44.576C257.148 44.576 256.74 44.776 256.436 45.176C256.132 45.568 255.98 46.112 255.98 46.808C255.98 47.496 256.132 48.04 256.436 48.44C256.74 48.84 257.148 49.04 257.66 49.04ZM264.7 50.144C264.1 50.144 263.592 50.052 263.176 49.868C262.768 49.684 262.452 49.432 262.228 49.112C262.004 48.784 261.876 48.408 261.844 47.984L263.152 47.924C263.216 48.276 263.368 48.556 263.608 48.764C263.848 48.972 264.212 49.076 264.7 49.076C265.1 49.076 265.416 49.012 265.648 48.884C265.88 48.756 265.996 48.552 265.996 48.272C265.996 48.12 265.956 47.992 265.876 47.888C265.804 47.776 265.66 47.684 265.444 47.612C265.228 47.532 264.908 47.456 264.484 47.384C263.852 47.264 263.356 47.124 262.996 46.964C262.636 46.804 262.38 46.6 262.228 46.352C262.076 46.104 262 45.804 262 45.452C262 44.868 262.216 44.392 262.648 44.024C263.088 43.656 263.72 43.472 264.544 43.472C265.096 43.472 265.56 43.568 265.936 43.76C266.312 43.944 266.604 44.196 266.812 44.516C267.028 44.828 267.164 45.18 267.22 45.572L265.912 45.644C265.872 45.42 265.792 45.228 265.672 45.068C265.56 44.9 265.408 44.772 265.216 44.684C265.024 44.588 264.796 44.54 264.532 44.54C264.124 44.54 263.82 44.62 263.62 44.78C263.42 44.94 263.32 45.148 263.32 45.404C263.32 45.596 263.364 45.752 263.452 45.872C263.548 45.992 263.7 46.092 263.908 46.172C264.116 46.244 264.392 46.308 264.736 46.364C265.4 46.476 265.92 46.616 266.296 46.784C266.672 46.944 266.936 47.144 267.088 47.384C267.24 47.624 267.316 47.916 267.316 48.26C267.316 48.66 267.204 49 266.98 49.28C266.756 49.56 266.448 49.776 266.056 49.928C265.664 50.072 265.212 50.144 264.7 50.144Z" fill="#A89491"/>
<path d="M357.75 24.25H352V31H357.5C357.638 31 357.75 30.8881 357.75 30.75V24.25ZM344.75 30.75C344.75 30.8881 344.862 31 345 31H350.5V24.25H344.75V30.75ZM358.75 20.25C358.75 20.1119 358.638 20 358.5 20H352V22.75H358.5C358.638 22.75 358.75 22.6381 358.75 22.5V20.25ZM343.75 22.5C343.75 22.6381 343.862 22.75 344 22.75H350.5V20H344C343.862 20 343.75 20.1119 343.75 20.25V22.5ZM355.5 15.917C355.5 15.4107 355.089 15 354.583 15C353.157 15.0002 352 16.1565 352 17.583V18.5H352.917C354.343 18.4998 355.5 17.3435 355.5 15.917ZM347 15.917C347 17.3435 348.157 18.4998 349.583 18.5H350.5V17.583C350.5 16.1565 349.343 15.0002 347.917 15C347.411 15 347 15.4107 347 15.917ZM357 15.917C357 16.8972 356.654 17.7962 356.078 18.5H358.5C359.467 18.5 360.25 19.2835 360.25 20.25V22.5C360.25 23.1977 359.841 23.798 359.25 24.0791V30.75C359.25 31.7165 358.467 32.5 357.5 32.5H345C344.034 32.5 343.25 31.7165 343.25 30.75V24.0791C342.659 23.798 342.25 23.1977 342.25 22.5V20.25C342.25 19.2835 343.034 18.5 344 18.5H346.422C345.846 17.7962 345.5 16.8972 345.5 15.917C345.5 14.5823 346.582 13.5 347.917 13.5C349.294 13.5001 350.51 14.1824 351.25 15.2266C351.99 14.1824 353.206 13.5001 354.583 13.5C355.918 13.5 357 14.5823 357 15.917Z" fill="#A89491"/>
<path d="M330.508 50.192C329.828 50.192 329.236 50.068 328.732 49.82C328.236 49.572 327.844 49.228 327.556 48.788C327.268 48.348 327.1 47.836 327.052 47.252L328.384 47.168C328.44 47.568 328.556 47.908 328.732 48.188C328.908 48.46 329.144 48.668 329.44 48.812C329.744 48.948 330.108 49.016 330.532 49.016C330.9 49.016 331.212 48.972 331.468 48.884C331.732 48.788 331.932 48.648 332.068 48.464C332.204 48.28 332.272 48.056 332.272 47.792C332.272 47.552 332.212 47.34 332.092 47.156C331.98 46.964 331.76 46.792 331.432 46.64C331.112 46.48 330.64 46.324 330.016 46.172C329.336 46.004 328.792 45.82 328.384 45.62C327.976 45.42 327.68 45.172 327.496 44.876C327.32 44.572 327.232 44.2 327.232 43.76C327.232 43.272 327.348 42.844 327.58 42.476C327.82 42.1 328.16 41.808 328.6 41.6C329.04 41.392 329.568 41.288 330.184 41.288C330.832 41.288 331.384 41.408 331.84 41.648C332.304 41.888 332.668 42.216 332.932 42.632C333.204 43.048 333.372 43.524 333.436 44.06L332.104 44.132C332.064 43.804 331.964 43.516 331.804 43.268C331.644 43.012 331.428 42.816 331.156 42.68C330.884 42.536 330.552 42.464 330.16 42.464C329.664 42.464 329.272 42.58 328.984 42.812C328.704 43.036 328.564 43.336 328.564 43.712C328.564 43.952 328.62 44.156 328.732 44.324C328.852 44.484 329.06 44.624 329.356 44.744C329.66 44.864 330.088 44.992 330.64 45.128C331.376 45.296 331.96 45.504 332.392 45.752C332.832 45.992 333.144 46.276 333.328 46.604C333.512 46.932 333.604 47.304 333.604 47.72C333.604 48.224 333.472 48.664 333.208 49.04C332.952 49.408 332.592 49.692 332.128 49.892C331.664 50.092 331.124 50.192 330.508 50.192ZM337.924 50.144C337.3 50.144 336.76 50.008 336.304 49.736C335.856 49.464 335.508 49.076 335.26 48.572C335.02 48.068 334.9 47.48 334.9 46.808C334.9 46.136 335.02 45.552 335.26 45.056C335.508 44.552 335.856 44.164 336.304 43.892C336.752 43.612 337.28 43.472 337.888 43.472C338.464 43.472 338.972 43.608 339.412 43.88C339.852 44.144 340.192 44.528 340.432 45.032C340.68 45.536 340.804 46.144 340.804 46.856V47.18H336.22C336.252 47.804 336.416 48.272 336.712 48.584C337.016 48.896 337.424 49.052 337.936 49.052C338.312 49.052 338.624 48.964 338.872 48.788C339.12 48.612 339.292 48.376 339.388 48.08L340.708 48.164C340.54 48.756 340.208 49.236 339.712 49.604C339.224 49.964 338.628 50.144 337.924 50.144ZM336.22 46.22H339.46C339.42 45.652 339.256 45.232 338.968 44.96C338.688 44.688 338.328 44.552 337.888 44.552C337.432 44.552 337.056 44.696 336.76 44.984C336.472 45.264 336.292 45.676 336.22 46.22ZM342.093 50V43.616H343.257L343.305 45.308L343.197 45.272C343.285 44.696 343.461 44.276 343.725 44.012C343.997 43.748 344.361 43.616 344.817 43.616H345.429V44.756H344.817C344.497 44.756 344.229 44.808 344.013 44.912C343.797 45.016 343.633 45.176 343.521 45.392C343.417 45.608 343.365 45.888 343.365 46.232V50H342.093ZM348.215 50L345.887 43.616H347.243L348.983 48.704L350.723 43.616H352.091L349.751 50H348.215ZM353.121 50V43.616H354.393V50H353.121ZM353.097 42.692V41.42H354.417V42.692H353.097ZM358.702 50.144C358.094 50.144 357.562 50.008 357.106 49.736C356.65 49.464 356.298 49.076 356.05 48.572C355.802 48.068 355.678 47.48 355.678 46.808C355.678 46.136 355.802 45.552 356.05 45.056C356.298 44.552 356.65 44.164 357.106 43.892C357.562 43.612 358.094 43.472 358.702 43.472C359.222 43.472 359.682 43.564 360.082 43.748C360.49 43.924 360.818 44.184 361.066 44.528C361.322 44.872 361.486 45.292 361.558 45.788L360.226 45.86C360.162 45.444 359.994 45.128 359.722 44.912C359.45 44.688 359.11 44.576 358.702 44.576C358.166 44.576 357.746 44.776 357.442 45.176C357.146 45.568 356.998 46.112 356.998 46.808C356.998 47.504 357.146 48.052 357.442 48.452C357.746 48.844 358.166 49.04 358.702 49.04C359.11 49.04 359.45 48.928 359.722 48.704C359.994 48.472 360.162 48.124 360.226 47.66L361.558 47.732C361.486 48.22 361.322 48.644 361.066 49.004C360.818 49.364 360.49 49.644 360.082 49.844C359.682 50.044 359.222 50.144 358.702 50.144ZM365.346 50.144C364.722 50.144 364.182 50.008 363.726 49.736C363.278 49.464 362.93 49.076 362.682 48.572C362.442 48.068 362.322 47.48 362.322 46.808C362.322 46.136 362.442 45.552 362.682 45.056C362.93 44.552 363.278 44.164 363.726 43.892C364.174 43.612 364.702 43.472 365.31 43.472C365.886 43.472 366.394 43.608 366.834 43.88C367.274 44.144 367.614 44.528 367.854 45.032C368.102 45.536 368.226 46.144 368.226 46.856V47.18H363.642C363.674 47.804 363.838 48.272 364.134 48.584C364.438 48.896 364.846 49.052 365.358 49.052C365.734 49.052 366.046 48.964 366.294 48.788C366.542 48.612 366.714 48.376 366.81 48.08L368.13 48.164C367.962 48.756 367.63 49.236 367.134 49.604C366.646 49.964 366.05 50.144 365.346 50.144ZM363.642 46.22H366.882C366.842 45.652 366.678 45.232 366.39 44.96C366.11 44.688 365.75 44.552 365.31 44.552C364.854 44.552 364.478 44.696 364.182 44.984C363.894 45.264 363.714 45.676 363.642 46.22ZM371.975 50.144C371.375 50.144 370.867 50.052 370.451 49.868C370.043 49.684 369.727 49.432 369.503 49.112C369.279 48.784 369.151 48.408 369.119 47.984L370.427 47.924C370.491 48.276 370.643 48.556 370.883 48.764C371.123 48.972 371.487 49.076 371.975 49.076C372.375 49.076 372.691 49.012 372.923 48.884C373.155 48.756 373.271 48.552 373.271 48.272C373.271 48.12 373.231 47.992 373.151 47.888C373.079 47.776 372.935 47.684 372.719 47.612C372.503 47.532 372.183 47.456 371.759 47.384C371.127 47.264 370.631 47.124 370.271 46.964C369.911 46.804 369.655 46.6 369.503 46.352C369.351 46.104 369.275 45.804 369.275 45.452C369.275 44.868 369.491 44.392 369.923 44.024C370.363 43.656 370.995 43.472 371.819 43.472C372.371 43.472 372.835 43.568 373.211 43.76C373.587 43.944 373.879 44.196 374.087 44.516C374.303 44.828 374.439 45.18 374.495 45.572L373.187 45.644C373.147 45.42 373.067 45.228 372.947 45.068C372.835 44.9 372.683 44.772 372.491 44.684C372.299 44.588 372.071 44.54 371.807 44.54C371.399 44.54 371.095 44.62 370.895 44.78C370.695 44.94 370.595 45.148 370.595 45.404C370.595 45.596 370.639 45.752 370.727 45.872C370.823 45.992 370.975 46.092 371.183 46.172C371.391 46.244 371.667 46.308 372.011 46.364C372.675 46.476 373.195 46.616 373.571 46.784C373.947 46.944 374.211 47.144 374.363 47.384C374.515 47.624 374.591 47.916 374.591 48.26C374.591 48.66 374.479 49 374.255 49.28C374.031 49.56 373.723 49.776 373.331 49.928C372.939 50.072 372.487 50.144 371.975 50.144Z" fill="#A89491"/>
</g>
<defs>
<filter id="filter0_d_372_28941" x="0" y="0" width="403" height="75" filterUnits="userSpaceOnUse" color-interpolation-filters="sRGB">
<feFlood flood-opacity="0" result="BackgroundImageFix"/>
<feColorMatrix in="SourceAlpha" type="matrix" values="0 0 0 0 0 0 0 0 0 0 0 0 0 0 0 0 0 0 127 0" result="hardAlpha"/>
<feOffset/>
<feGaussianBlur stdDeviation="0.25"/>
<feColorMatrix type="matrix" values="0 0 0 0 0 0 0 0 0 0 0 0 0 0 0 0 0 0 0.3 0"/>
<feBlend mode="normal" in2="BackgroundImageFix" result="effect1_dropShadow_372_28941"/>
<feBlend mode="normal" in="SourceGraphic" in2="effect1_dropShadow_372_28941" result="shape"/>
</filter>
<radialGradient id="paint0_radial_372_28941" cx="0" cy="0" r="1" gradientUnits="userSpaceOnUse" gradientTransform="translate(52.25 32.5) rotate(90) scale(26 47.75)">
<stop stop-color="#D6B960" stop-opacity="0.1"/>
<stop offset="1" stop-color="#C0A142" stop-opacity="0"/>
</radialGradient>
<linearGradient id="paint1_linear_372_28941" x1="52.25" y1="13.9453" x2="52.25" y2="31.9998" gradientUnits="userSpaceOnUse">
<stop stop-color="#D6B960"/>
<stop offset="1" stop-color="#C0A142"/>
</linearGradient>
<linearGradient id="paint2_linear_372_28941" x1="50.7226" y1="15.916" x2="59.7227" y2="21.916" gradientUnits="userSpaceOnUse">
<stop stop-color="white" stop-opacity="0"/>
<stop offset="0.519231" stop-color="white"/>
<stop offset="1" stop-color="white" stop-opacity="0"/>
</linearGradient>
</defs>
</svg>
