<svg width="348" height="124" viewBox="0 0 348 124" fill="none" xmlns="http://www.w3.org/2000/svg">
<path d="M28.416 12.192C27.648 12.192 26.972 12.016 26.388 11.664C25.804 11.304 25.348 10.792 25.02 10.128C24.692 9.464 24.528 8.672 24.528 7.752C24.528 6.84 24.688 6.052 25.008 5.388C25.336 4.716 25.792 4.2 26.376 3.84C26.96 3.472 27.644 3.288 28.428 3.288C29.484 3.288 30.304 3.552 30.888 4.08C31.472 4.608 31.852 5.34 32.028 6.276L30.672 6.348C30.56 5.764 30.32 5.308 29.952 4.98C29.584 4.644 29.076 4.476 28.428 4.476C27.908 4.476 27.456 4.608 27.072 4.872C26.696 5.136 26.4 5.512 26.184 6C25.976 6.488 25.872 7.072 25.872 7.752C25.872 8.432 25.976 9.016 26.184 9.504C26.4 9.992 26.7 10.364 27.084 10.62C27.468 10.876 27.912 11.004 28.416 11.004C29.104 11.004 29.636 10.824 30.012 10.464C30.396 10.096 30.636 9.592 30.732 8.952L32.088 9.024C31.984 9.672 31.776 10.232 31.464 10.704C31.152 11.176 30.74 11.544 30.228 11.808C29.716 12.064 29.112 12.192 28.416 12.192ZM38.1587 12.192C37.4867 12.192 36.8987 12.064 36.3947 11.808C35.8987 11.544 35.5147 11.172 35.2427 10.692C34.9787 10.212 34.8467 9.644 34.8467 8.988V3.468H36.1427V8.988C36.1427 9.636 36.3187 10.136 36.6707 10.488C37.0227 10.832 37.5187 11.004 38.1587 11.004C38.7987 11.004 39.2947 10.832 39.6467 10.488C39.9987 10.136 40.1747 9.636 40.1747 8.988V3.468H41.4707V8.988C41.4707 9.644 41.3347 10.212 41.0627 10.692C40.7987 11.172 40.4187 11.544 39.9227 11.808C39.4267 12.064 38.8387 12.192 38.1587 12.192ZM44.9745 12V3.48H48.3705C48.9785 3.48 49.5025 3.584 49.9425 3.792C50.3825 4 50.7225 4.296 50.9625 4.68C51.2025 5.064 51.3225 5.52 51.3225 6.048C51.3225 6.432 51.2345 6.776 51.0585 7.08C50.8905 7.384 50.6625 7.628 50.3745 7.812C50.0945 7.988 49.7945 8.088 49.4745 8.112L49.4145 8.004C49.9505 8.004 50.3665 8.128 50.6625 8.376C50.9585 8.616 51.1305 8.996 51.1785 9.516L51.4065 12H50.0985L49.8945 9.684C49.8705 9.34 49.7545 9.088 49.5465 8.928C49.3385 8.76 48.9985 8.676 48.5265 8.676H46.2705V12H44.9745ZM46.2705 7.488H48.3945C48.8825 7.488 49.2665 7.368 49.5465 7.128C49.8345 6.88 49.9785 6.532 49.9785 6.084C49.9785 5.628 49.8345 5.28 49.5465 5.04C49.2585 4.792 48.8385 4.668 48.2865 4.668H46.2705V7.488ZM53.6616 12L56.7336 3.48H58.3776L61.4496 12H60.0696L59.2896 9.78H55.8096L55.0416 12H53.6616ZM56.2176 8.604H58.8936L57.5496 4.716L56.2176 8.604ZM64.7817 12V4.668H62.1657V3.48H68.6937V4.668H66.0777V12H64.7817ZM70.9976 12V3.48H76.5416V4.668H72.2936V7.152H76.3976V8.304H72.2936V10.812H76.6376V12H70.9976ZM79.6564 12V3.48H82.3924C83.7284 3.48 84.7564 3.852 85.4764 4.596C86.1964 5.332 86.5564 6.384 86.5564 7.752C86.5564 9.112 86.2004 10.16 85.4884 10.896C84.7844 11.632 83.7764 12 82.4644 12H79.6564ZM80.9524 10.812H82.3924C83.3364 10.812 84.0404 10.56 84.5044 10.056C84.9764 9.544 85.2124 8.776 85.2124 7.752C85.2124 6.712 84.9764 5.94 84.5044 5.436C84.0404 4.924 83.3364 4.668 82.3924 4.668H80.9524V10.812ZM93.9153 12V3.48H99.4473V4.668H94.5273L95.2113 3.96V7.872L94.5273 7.26H99.2313V8.412H94.5273L95.2113 7.8V12H93.9153ZM105.96 12.192C105.136 12.192 104.428 12.016 103.836 11.664C103.244 11.304 102.788 10.792 102.468 10.128C102.148 9.464 101.988 8.672 101.988 7.752C101.988 6.832 102.148 6.04 102.468 5.376C102.788 4.704 103.244 4.188 103.836 3.828C104.428 3.468 105.136 3.288 105.96 3.288C106.792 3.288 107.504 3.468 108.096 3.828C108.696 4.188 109.152 4.704 109.464 5.376C109.784 6.04 109.944 6.832 109.944 7.752C109.944 8.672 109.784 9.464 109.464 10.128C109.152 10.792 108.696 11.304 108.096 11.664C107.504 12.016 106.792 12.192 105.96 12.192ZM105.96 11.004C106.512 11.004 106.984 10.876 107.376 10.62C107.776 10.364 108.08 9.996 108.288 9.516C108.496 9.028 108.6 8.44 108.6 7.752C108.6 7.064 108.496 6.476 108.288 5.988C108.08 5.5 107.776 5.128 107.376 4.872C106.984 4.608 106.512 4.476 105.96 4.476C105.416 4.476 104.948 4.608 104.556 4.872C104.164 5.128 103.86 5.5 103.644 5.988C103.436 6.476 103.332 7.064 103.332 7.752C103.332 8.44 103.436 9.028 103.644 9.516C103.86 9.996 104.164 10.364 104.556 10.62C104.948 10.876 105.416 11.004 105.96 11.004ZM112.768 12V3.48H116.164C116.772 3.48 117.296 3.584 117.736 3.792C118.176 4 118.516 4.296 118.756 4.68C118.996 5.064 119.116 5.52 119.116 6.048C119.116 6.432 119.028 6.776 118.852 7.08C118.684 7.384 118.456 7.628 118.168 7.812C117.888 7.988 117.588 8.088 117.268 8.112L117.208 8.004C117.744 8.004 118.16 8.128 118.456 8.376C118.752 8.616 118.924 8.996 118.972 9.516L119.2 12H117.892L117.688 9.684C117.664 9.34 117.548 9.088 117.34 8.928C117.132 8.76 116.792 8.676 116.32 8.676H114.064V12H112.768ZM114.064 7.488H116.188C116.676 7.488 117.06 7.368 117.34 7.128C117.628 6.88 117.772 6.532 117.772 6.084C117.772 5.628 117.628 5.28 117.34 5.04C117.052 4.792 116.632 4.668 116.08 4.668H114.064V7.488ZM128.606 12V8.58L125.618 3.48H127.106L129.254 7.284L131.414 3.48H132.902L129.902 8.58V12H128.606ZM138.251 12.192C137.427 12.192 136.719 12.016 136.127 11.664C135.535 11.304 135.079 10.792 134.759 10.128C134.439 9.464 134.279 8.672 134.279 7.752C134.279 6.832 134.439 6.04 134.759 5.376C135.079 4.704 135.535 4.188 136.127 3.828C136.719 3.468 137.427 3.288 138.251 3.288C139.083 3.288 139.795 3.468 140.387 3.828C140.987 4.188 141.443 4.704 141.755 5.376C142.075 6.04 142.235 6.832 142.235 7.752C142.235 8.672 142.075 9.464 141.755 10.128C141.443 10.792 140.987 11.304 140.387 11.664C139.795 12.016 139.083 12.192 138.251 12.192ZM138.251 11.004C138.803 11.004 139.275 10.876 139.667 10.62C140.067 10.364 140.371 9.996 140.579 9.516C140.787 9.028 140.891 8.44 140.891 7.752C140.891 7.064 140.787 6.476 140.579 5.988C140.371 5.5 140.067 5.128 139.667 4.872C139.275 4.608 138.803 4.476 138.251 4.476C137.707 4.476 137.239 4.608 136.847 4.872C136.455 5.128 136.151 5.5 135.935 5.988C135.727 6.476 135.623 7.064 135.623 7.752C135.623 8.44 135.727 9.028 135.935 9.516C136.151 9.996 136.455 10.364 136.847 10.62C137.239 10.876 137.707 11.004 138.251 11.004ZM148.367 12.192C147.695 12.192 147.107 12.064 146.603 11.808C146.107 11.544 145.723 11.172 145.451 10.692C145.187 10.212 145.055 9.644 145.055 8.988V3.468H146.351V8.988C146.351 9.636 146.527 10.136 146.879 10.488C147.231 10.832 147.727 11.004 148.367 11.004C149.007 11.004 149.503 10.832 149.855 10.488C150.207 10.136 150.383 9.636 150.383 8.988V3.468H151.679V8.988C151.679 9.644 151.543 10.212 151.271 10.692C151.007 11.172 150.627 11.544 150.131 11.808C149.635 12.064 149.047 12.192 148.367 12.192ZM163.195 9.12V7.608H164.743V9.12H163.195ZM176.434 12V3.48H179.17C180.506 3.48 181.534 3.852 182.254 4.596C182.974 5.332 183.334 6.384 183.334 7.752C183.334 9.112 182.978 10.16 182.266 10.896C181.562 11.632 180.554 12 179.242 12H176.434ZM177.73 10.812H179.17C180.114 10.812 180.818 10.56 181.282 10.056C181.754 9.544 181.99 8.776 181.99 7.752C181.99 6.712 181.754 5.94 181.282 5.436C180.818 4.924 180.114 4.668 179.17 4.668H177.73V10.812ZM186.159 12V3.48H187.455V12H186.159ZM190.751 12V3.48H192.395L196.331 10.428V3.48H197.627V12H195.923L192.047 5.208V12H190.751ZM200.922 12V3.48H202.218V12H200.922ZM205.514 12V3.48H207.158L211.094 10.428V3.48H212.39V12H210.686L206.81 5.208V12H205.514ZM219.068 12.192C218.26 12.192 217.567 12.004 216.992 11.628C216.416 11.244 215.976 10.72 215.672 10.056C215.368 9.384 215.216 8.616 215.216 7.752C215.216 6.896 215.368 6.132 215.672 5.46C215.984 4.788 216.432 4.26 217.016 3.876C217.6 3.484 218.3 3.288 219.116 3.288C219.812 3.288 220.4 3.412 220.88 3.66C221.368 3.908 221.752 4.248 222.032 4.68C222.32 5.112 222.52 5.604 222.632 6.156L221.276 6.228C221.18 5.708 220.964 5.288 220.628 4.968C220.292 4.64 219.788 4.476 219.116 4.476C218.524 4.476 218.04 4.624 217.664 4.92C217.288 5.216 217.008 5.612 216.824 6.108C216.648 6.604 216.56 7.152 216.56 7.752C216.56 8.376 216.648 8.932 216.824 9.42C217.008 9.908 217.288 10.296 217.664 10.584C218.048 10.864 218.536 11.004 219.128 11.004C219.592 11.004 219.992 10.904 220.328 10.704C220.664 10.504 220.924 10.232 221.108 9.888C221.3 9.544 221.404 9.164 221.42 8.748H219.14V7.656H222.656V12H221.768L221.684 10.08L221.852 10.224C221.764 10.608 221.584 10.948 221.312 11.244C221.04 11.54 220.708 11.772 220.316 11.94C219.932 12.108 219.516 12.192 219.068 12.192Z" fill="#E6D9B3"/>
<path d="M26.408 50V30.12H29.432V39.696L27.976 38.632H40.072L38.616 39.696V30.12H41.64V50H38.616V40.312L40.072 41.376H27.976L29.432 40.312V50H26.408ZM52.0015 50.336C50.5829 50.336 49.3415 50.0187 48.2775 49.384C47.2135 48.7493 46.3922 47.844 45.8135 46.668C45.2349 45.492 44.9455 44.12 44.9455 42.552C44.9455 40.9653 45.2349 39.5933 45.8135 38.436C46.3922 37.2787 47.2135 36.3827 48.2775 35.748C49.3415 35.0947 50.5829 34.768 52.0015 34.768C53.4202 34.768 54.6615 35.0947 55.7255 35.748C56.7895 36.3827 57.6109 37.2787 58.1895 38.436C58.7682 39.5933 59.0575 40.9653 59.0575 42.552C59.0575 44.12 58.7682 45.492 58.1895 46.668C57.6109 47.844 56.7895 48.7493 55.7255 49.384C54.6615 50.0187 53.4202 50.336 52.0015 50.336ZM52.0015 47.76C53.2709 47.76 54.2509 47.3027 54.9415 46.388C55.6322 45.4547 55.9775 44.176 55.9775 42.552C55.9775 40.928 55.6322 39.6587 54.9415 38.744C54.2509 37.8107 53.2709 37.344 52.0015 37.344C50.7509 37.344 49.7709 37.8107 49.0615 38.744C48.3709 39.6587 48.0255 40.928 48.0255 42.552C48.0255 44.176 48.3709 45.4547 49.0615 46.388C49.7709 47.3027 50.7509 47.76 52.0015 47.76ZM47.8855 33.312L50.4615 29.42H53.5415L56.1175 33.312H53.8495L51.7215 30.428H52.2815L50.1535 33.312H47.8855ZM67.2222 50C65.8035 50 64.7582 49.6733 64.0862 49.02C63.4142 48.3667 63.0782 47.3493 63.0782 45.968V31.604H66.0462V45.744C66.0462 46.4347 66.1955 46.9107 66.4942 47.172C66.7928 47.4333 67.2502 47.564 67.8662 47.564H69.9942V50H67.2222ZM60.8102 37.54V35.104H69.9942V37.54H60.8102ZM78.7164 50.336C77.2604 50.336 76.0004 50.0187 74.9364 49.384C73.891 48.7493 73.079 47.844 72.5004 46.668C71.9404 45.492 71.6604 44.12 71.6604 42.552C71.6604 40.984 71.9404 39.6213 72.5004 38.464C73.079 37.288 73.891 36.3827 74.9364 35.748C75.9817 35.0947 77.2137 34.768 78.6324 34.768C79.9764 34.768 81.1617 35.0853 82.1884 35.72C83.215 36.336 84.0084 37.232 84.5684 38.408C85.147 39.584 85.4364 41.0027 85.4364 42.664V43.42H74.7404C74.815 44.876 75.1977 45.968 75.8884 46.696C76.5977 47.424 77.5497 47.788 78.7444 47.788C79.6217 47.788 80.3497 47.5827 80.9284 47.172C81.507 46.7613 81.9084 46.2107 82.1324 45.52L85.2124 45.716C84.8204 47.0973 84.0457 48.2173 82.8884 49.076C81.7497 49.916 80.359 50.336 78.7164 50.336ZM74.7404 41.18H82.3004C82.207 39.8547 81.8244 38.8747 81.1524 38.24C80.499 37.6053 79.659 37.288 78.6324 37.288C77.5684 37.288 76.691 37.624 76.0004 38.296C75.3284 38.9493 74.9084 39.9107 74.7404 41.18ZM91.8285 50C90.8578 50 90.0738 49.748 89.4765 49.244C88.8791 48.74 88.5805 47.9373 88.5805 46.836V30.12H91.5485V46.556C91.5485 46.892 91.6325 47.144 91.8005 47.312C91.9871 47.48 92.2485 47.564 92.5845 47.564H93.7605V50H91.8285ZM108.583 50.336C107.314 50.336 106.203 50.0187 105.251 49.384C104.318 48.7493 103.599 47.8533 103.095 46.696C102.61 45.52 102.367 44.1387 102.367 42.552C102.367 40.9653 102.619 39.5933 103.123 38.436C103.627 37.26 104.346 36.3547 105.279 35.72C106.213 35.0853 107.314 34.768 108.583 34.768C109.61 34.768 110.525 34.9827 111.327 35.412C112.13 35.8413 112.737 36.4387 113.147 37.204V30.12H116.115V50H113.343L113.259 47.76C112.849 48.5627 112.223 49.1973 111.383 49.664C110.562 50.112 109.629 50.336 108.583 50.336ZM109.367 47.76C110.17 47.76 110.851 47.5547 111.411 47.144C111.971 46.7333 112.401 46.136 112.699 45.352C112.998 44.568 113.147 43.6347 113.147 42.552C113.147 41.432 112.998 40.4893 112.699 39.724C112.401 38.94 111.971 38.352 111.411 37.96C110.851 37.5493 110.17 37.344 109.367 37.344C108.173 37.344 107.221 37.8107 106.511 38.744C105.802 39.6587 105.447 40.928 105.447 42.552C105.447 44.1573 105.802 45.4267 106.511 46.36C107.221 47.2933 108.173 47.76 109.367 47.76ZM124.707 50.336C123.214 50.336 122.019 49.8413 121.123 48.852C120.246 47.844 119.807 46.4533 119.807 44.68V35.104H122.775V43.924C122.775 45.268 123.008 46.2573 123.475 46.892C123.942 47.5267 124.651 47.844 125.603 47.844C126.686 47.844 127.526 47.4987 128.123 46.808C128.739 46.0987 129.047 45.1093 129.047 43.84V35.104H132.015V50H129.243L129.187 46.108L129.607 46.276C129.346 47.5827 128.795 48.5907 127.955 49.3C127.115 49.9907 126.032 50.336 124.707 50.336ZM143.33 50V30.12H150.75C153.027 30.12 154.801 30.6707 156.07 31.772C157.339 32.8547 157.974 34.3667 157.974 36.308C157.974 37.596 157.685 38.716 157.106 39.668C156.527 40.6013 155.697 41.32 154.614 41.824C153.55 42.3093 152.262 42.552 150.75 42.552H146.354V50H143.33ZM146.354 39.808H150.666C152.029 39.808 153.065 39.5187 153.774 38.94C154.483 38.3427 154.838 37.4653 154.838 36.308C154.838 35.1693 154.483 34.32 153.774 33.76C153.065 33.1813 152.029 32.892 150.666 32.892H146.354V39.808ZM164.967 50.336C163.418 50.336 162.177 49.9813 161.243 49.272C160.329 48.5627 159.871 47.564 159.871 46.276C159.871 44.988 160.254 43.9893 161.019 43.28C161.803 42.552 163.007 42.0293 164.631 41.712L169.755 40.732C169.755 39.5747 169.485 38.716 168.943 38.156C168.402 37.5773 167.599 37.288 166.535 37.288C165.583 37.288 164.837 37.5027 164.295 37.932C163.754 38.3427 163.381 38.9587 163.175 39.78L160.123 39.584C160.403 38.0907 161.094 36.9147 162.195 36.056C163.315 35.1973 164.762 34.768 166.535 34.768C168.551 34.768 170.082 35.3093 171.127 36.392C172.191 37.456 172.723 38.9587 172.723 40.9V46.696C172.723 47.0507 172.779 47.3027 172.891 47.452C173.022 47.5827 173.227 47.648 173.507 47.648H174.039V50C173.946 50.0187 173.797 50.0373 173.591 50.056C173.386 50.0747 173.171 50.084 172.947 50.084C172.313 50.084 171.762 49.9813 171.295 49.776C170.847 49.5707 170.511 49.2347 170.287 48.768C170.063 48.2827 169.951 47.6387 169.951 46.836L170.259 46.976C170.11 47.6293 169.783 48.208 169.279 48.712C168.794 49.216 168.169 49.6173 167.403 49.916C166.657 50.196 165.845 50.336 164.967 50.336ZM165.443 47.984C166.339 47.984 167.105 47.816 167.739 47.48C168.374 47.1253 168.869 46.64 169.223 46.024C169.578 45.408 169.755 44.708 169.755 43.924V42.972L165.387 43.812C164.491 43.98 163.857 44.2507 163.483 44.624C163.129 44.9787 162.951 45.436 162.951 45.996C162.951 46.6307 163.166 47.1253 163.595 47.48C164.043 47.816 164.659 47.984 165.443 47.984ZM179.602 50C178.631 50 177.847 49.748 177.25 49.244C176.653 48.74 176.354 47.9373 176.354 46.836V30.12H179.322V46.556C179.322 46.892 179.406 47.144 179.574 47.312C179.761 47.48 180.022 47.564 180.358 47.564H181.534V50H179.602ZM188.401 50.336C186.852 50.336 185.61 49.9813 184.677 49.272C183.762 48.5627 183.305 47.564 183.305 46.276C183.305 44.988 183.688 43.9893 184.453 43.28C185.237 42.552 186.441 42.0293 188.065 41.712L193.189 40.732C193.189 39.5747 192.918 38.716 192.377 38.156C191.836 37.5773 191.033 37.288 189.969 37.288C189.017 37.288 188.27 37.5027 187.729 37.932C187.188 38.3427 186.814 38.9587 186.609 39.78L183.557 39.584C183.837 38.0907 184.528 36.9147 185.629 36.056C186.749 35.1973 188.196 34.768 189.969 34.768C191.985 34.768 193.516 35.3093 194.561 36.392C195.625 37.456 196.157 38.9587 196.157 40.9V46.696C196.157 47.0507 196.213 47.3027 196.325 47.452C196.456 47.5827 196.661 47.648 196.941 47.648H197.473V50C197.38 50.0187 197.23 50.0373 197.025 50.056C196.82 50.0747 196.605 50.084 196.381 50.084C195.746 50.084 195.196 49.9813 194.729 49.776C194.281 49.5707 193.945 49.2347 193.721 48.768C193.497 48.2827 193.385 47.6387 193.385 46.836L193.693 46.976C193.544 47.6293 193.217 48.208 192.713 48.712C192.228 49.216 191.602 49.6173 190.837 49.916C190.09 50.196 189.278 50.336 188.401 50.336ZM188.877 47.984C189.773 47.984 190.538 47.816 191.173 47.48C191.808 47.1253 192.302 46.64 192.657 46.024C193.012 45.408 193.189 44.708 193.189 43.924V42.972L188.821 43.812C187.925 43.98 187.29 44.2507 186.917 44.624C186.562 44.9787 186.385 45.436 186.385 45.996C186.385 46.6307 186.6 47.1253 187.029 47.48C187.477 47.816 188.093 47.984 188.877 47.984ZM199.842 50V35.104H202.81V50H199.842ZM199.786 32.948V29.98H202.866V32.948H199.786ZM212.473 50.336C211.073 50.336 209.887 50.1213 208.917 49.692C207.965 49.2627 207.227 48.6747 206.705 47.928C206.182 47.1627 205.883 46.2853 205.809 45.296L208.861 45.156C209.01 45.9773 209.365 46.6307 209.925 47.116C210.485 47.6013 211.334 47.844 212.473 47.844C213.406 47.844 214.143 47.6947 214.685 47.396C215.226 47.0973 215.497 46.6213 215.497 45.968C215.497 45.6133 215.403 45.3147 215.217 45.072C215.049 44.8107 214.713 44.596 214.209 44.428C213.705 44.2413 212.958 44.064 211.969 43.896C210.494 43.616 209.337 43.2893 208.497 42.916C207.657 42.5427 207.059 42.0667 206.705 41.488C206.35 40.9093 206.173 40.2093 206.173 39.388C206.173 38.0253 206.677 36.9147 207.685 36.056C208.711 35.1973 210.186 34.768 212.109 34.768C213.397 34.768 214.479 34.992 215.357 35.44C216.234 35.8693 216.915 36.4573 217.401 37.204C217.905 37.932 218.222 38.7533 218.353 39.668L215.301 39.836C215.207 39.3133 215.021 38.8653 214.741 38.492C214.479 38.1 214.125 37.8013 213.677 37.596C213.229 37.372 212.697 37.26 212.081 37.26C211.129 37.26 210.419 37.4467 209.953 37.82C209.486 38.1933 209.253 38.6787 209.253 39.276C209.253 39.724 209.355 40.088 209.561 40.368C209.785 40.648 210.139 40.8813 210.625 41.068C211.11 41.236 211.754 41.3853 212.557 41.516C214.106 41.7773 215.319 42.104 216.197 42.496C217.074 42.8693 217.69 43.336 218.045 43.896C218.399 44.456 218.577 45.1373 218.577 45.94C218.577 46.8733 218.315 47.6667 217.793 48.32C217.27 48.9733 216.551 49.4773 215.637 49.832C214.722 50.168 213.667 50.336 212.473 50.336Z" fill="#FAFAFA"/>
<path d="M25.288 78V68.06H28.858C29.9687 68.06 30.832 68.326 31.448 68.858C32.064 69.39 32.372 70.1273 32.372 71.07C32.372 71.7047 32.232 72.2553 31.952 72.722C31.672 73.1793 31.2707 73.5293 30.748 73.772C30.2253 74.0147 29.5953 74.136 28.858 74.136H26.492V78H25.288ZM26.492 72.96H28.858C29.6047 72.96 30.1647 72.8013 30.538 72.484C30.9207 72.1667 31.112 71.6953 31.112 71.07C31.112 70.4633 30.9207 70.006 30.538 69.698C30.1647 69.39 29.6047 69.236 28.858 69.236H26.492V72.96ZM34.0888 78V70.58H35.1248L35.1808 72.456L35.0688 72.414C35.1621 71.7793 35.3628 71.3173 35.6708 71.028C35.9881 70.7293 36.4081 70.58 36.9308 70.58H37.6588V71.7H36.9448C36.5714 71.7 36.2588 71.77 36.0068 71.91C35.7641 72.0407 35.5774 72.2413 35.4468 72.512C35.3254 72.7733 35.2648 73.1093 35.2648 73.52V78H34.0888ZM38.9696 78V70.58H40.1456V78H38.9696ZM38.9416 69.418V68.046H40.1736V69.418H38.9416ZM44.1409 78L41.4389 70.58H42.7269L44.8829 76.796L47.0389 70.58H48.3269L45.6249 78H44.1409ZM51.4443 78.168C50.6789 78.168 50.0676 77.9907 49.6103 77.636C49.1623 77.2813 48.9383 76.7867 48.9383 76.152C48.9383 75.5173 49.1249 75.018 49.4983 74.654C49.8716 74.29 50.4643 74.0333 51.2763 73.884L53.9083 73.394C53.9083 72.7687 53.7589 72.302 53.4603 71.994C53.1709 71.686 52.7323 71.532 52.1443 71.532C51.6309 71.532 51.2249 71.6487 50.9263 71.882C50.6276 72.106 50.4223 72.4327 50.3103 72.862L49.0643 72.764C49.2043 72.064 49.5403 71.4993 50.0723 71.07C50.6136 70.6313 51.3043 70.412 52.1443 70.412C53.0963 70.412 53.8243 70.6827 54.3283 71.224C54.8323 71.756 55.0843 72.4933 55.0843 73.436V76.502C55.0843 76.67 55.1123 76.7913 55.1683 76.866C55.2336 76.9313 55.3363 76.964 55.4763 76.964H55.7703V78C55.7329 78.0093 55.6723 78.014 55.5883 78.014C55.5043 78.0233 55.4156 78.028 55.3223 78.028C54.9863 78.028 54.7109 77.9767 54.4963 77.874C54.2909 77.762 54.1416 77.594 54.0483 77.37C53.9549 77.1367 53.9083 76.8333 53.9083 76.46L54.0483 76.488C53.9829 76.8053 53.8243 77.0947 53.5723 77.356C53.3203 77.608 53.0076 77.8087 52.6343 77.958C52.2609 78.098 51.8643 78.168 51.4443 78.168ZM51.5563 77.132C52.0509 77.132 52.4709 77.0387 52.8163 76.852C53.1709 76.656 53.4416 76.3947 53.6283 76.068C53.8149 75.732 53.9083 75.3587 53.9083 74.948V74.416L51.5003 74.864C50.9963 74.9573 50.6463 75.102 50.4503 75.298C50.2636 75.4847 50.1703 75.732 50.1703 76.04C50.1703 76.3853 50.2916 76.656 50.5343 76.852C50.7863 77.0387 51.1269 77.132 51.5563 77.132ZM59.4454 78C58.7734 78 58.274 77.846 57.9474 77.538C57.63 77.23 57.4714 76.7493 57.4714 76.096V68.844H58.6474V76.068C58.6474 76.404 58.722 76.6373 58.8714 76.768C59.0207 76.8987 59.2494 76.964 59.5574 76.964H60.6214V78H59.4454ZM56.3794 71.616V70.58H60.6214V71.616H56.3794ZM64.891 78.168C64.191 78.168 63.5844 78.0093 63.071 77.692C62.567 77.3747 62.175 76.9267 61.895 76.348C61.6244 75.76 61.489 75.074 61.489 74.29C61.489 73.506 61.6244 72.8247 61.895 72.246C62.175 71.6673 62.5624 71.2193 63.057 70.902C63.561 70.5753 64.1537 70.412 64.835 70.412C65.479 70.412 66.0484 70.566 66.543 70.874C67.0377 71.1727 67.4204 71.6113 67.691 72.19C67.971 72.7687 68.111 73.4733 68.111 74.304V74.654H62.721C62.7677 75.4473 62.9777 76.0447 63.351 76.446C63.7337 76.8473 64.247 77.048 64.891 77.048C65.3764 77.048 65.773 76.936 66.081 76.712C66.3984 76.4787 66.6177 76.1753 66.739 75.802L67.999 75.9C67.803 76.5627 67.4297 77.1087 66.879 77.538C66.3377 77.958 65.675 78.168 64.891 78.168ZM62.721 73.618H66.823C66.767 72.8993 66.557 72.372 66.193 72.036C65.8384 71.7 65.3857 71.532 64.835 71.532C64.2657 71.532 63.7944 71.7093 63.421 72.064C63.057 72.4093 62.8237 72.9273 62.721 73.618ZM76.2387 78.168C75.548 78.168 74.946 78.0093 74.4327 77.692C73.9287 77.3747 73.5367 76.9267 73.2567 76.348C72.9767 75.76 72.8367 75.074 72.8367 74.29C72.8367 73.506 72.9767 72.8247 73.2567 72.246C73.5367 71.6673 73.9287 71.2193 74.4327 70.902C74.946 70.5753 75.548 70.412 76.2387 70.412C76.808 70.412 77.312 70.5147 77.7507 70.72C78.1987 70.916 78.5627 71.2053 78.8427 71.588C79.1227 71.9707 79.3047 72.4373 79.3887 72.988L78.1567 73.072C78.0727 72.5773 77.858 72.1993 77.5127 71.938C77.1674 71.6673 76.7427 71.532 76.2387 71.532C75.5574 71.532 75.0254 71.7793 74.6427 72.274C74.26 72.7593 74.0687 73.4313 74.0687 74.29C74.0687 75.1487 74.26 75.8253 74.6427 76.32C75.0254 76.8053 75.5574 77.048 76.2387 77.048C76.7427 77.048 77.1674 76.908 77.5127 76.628C77.858 76.348 78.0727 75.928 78.1567 75.368L79.3887 75.452C79.3047 76.0027 79.1227 76.4833 78.8427 76.894C78.5627 77.2953 78.1987 77.608 77.7507 77.832C77.312 78.056 76.808 78.168 76.2387 78.168ZM80.8466 78V68.06H82.0226V72.218L81.8826 72.19C81.9759 71.7793 82.1346 71.4433 82.3586 71.182C82.5826 70.9207 82.8579 70.7293 83.1846 70.608C83.5112 70.4773 83.8706 70.412 84.2626 70.412C84.7946 70.412 85.2426 70.5333 85.6066 70.776C85.9799 71.0093 86.2599 71.3407 86.4466 71.77C86.6426 72.19 86.7406 72.6753 86.7406 73.226V78H85.5646V73.562C85.5646 72.8433 85.4339 72.3113 85.1726 71.966C84.9206 71.6207 84.5332 71.448 84.0106 71.448C83.4132 71.448 82.9326 71.63 82.5686 71.994C82.2046 72.358 82.0226 72.8853 82.0226 73.576V78H80.8466ZM91.7153 78.168C91.0153 78.168 90.4086 78.0093 89.8953 77.692C89.3913 77.3747 88.9993 76.9267 88.7193 76.348C88.4486 75.76 88.3133 75.074 88.3133 74.29C88.3133 73.506 88.4486 72.8247 88.7193 72.246C88.9993 71.6673 89.3866 71.2193 89.8813 70.902C90.3853 70.5753 90.9779 70.412 91.6593 70.412C92.3033 70.412 92.8726 70.566 93.3673 70.874C93.8619 71.1727 94.2446 71.6113 94.5153 72.19C94.7953 72.7687 94.9353 73.4733 94.9353 74.304V74.654H89.5453C89.5919 75.4473 89.8019 76.0447 90.1753 76.446C90.5579 76.8473 91.0713 77.048 91.7153 77.048C92.2006 77.048 92.5973 76.936 92.9053 76.712C93.2226 76.4787 93.4419 76.1753 93.5633 75.802L94.8233 75.9C94.6273 76.5627 94.2539 77.1087 93.7033 77.538C93.1619 77.958 92.4993 78.168 91.7153 78.168ZM89.5453 73.618H93.6473C93.5913 72.8993 93.3813 72.372 93.0173 72.036C92.6626 71.7 92.2099 71.532 91.6593 71.532C91.0899 71.532 90.6186 71.7093 90.2453 72.064C89.8813 72.4093 89.6479 72.9273 89.5453 73.618ZM96.9691 78V69.908C96.9691 69.3573 97.1278 68.914 97.4451 68.578C97.7624 68.2327 98.2571 68.06 98.9291 68.06H100.105V69.096H99.0131C98.7238 69.096 98.5044 69.1753 98.3551 69.334C98.2151 69.4927 98.1451 69.712 98.1451 69.992V78H96.9691ZM95.9611 71.616V70.58H100.007V71.616H95.9611ZM101.499 71.784L101.275 69.18V68.06H102.507V69.18L102.283 71.784H101.499ZM106.818 78.168C106.155 78.168 105.591 78.0607 105.124 77.846C104.667 77.6313 104.307 77.3373 104.046 76.964C103.794 76.5813 103.649 76.1473 103.612 75.662L104.844 75.578C104.919 76.026 105.11 76.3853 105.418 76.656C105.726 76.9173 106.193 77.048 106.818 77.048C107.322 77.048 107.723 76.9687 108.022 76.81C108.33 76.642 108.484 76.376 108.484 76.012C108.484 75.816 108.437 75.6527 108.344 75.522C108.251 75.3913 108.069 75.2793 107.798 75.186C107.527 75.0833 107.126 74.9853 106.594 74.892C105.885 74.7613 105.325 74.6027 104.914 74.416C104.513 74.22 104.223 73.982 104.046 73.702C103.878 73.4127 103.794 73.072 103.794 72.68C103.794 72.0173 104.037 71.476 104.522 71.056C105.007 70.6267 105.698 70.412 106.594 70.412C107.201 70.412 107.709 70.524 108.12 70.748C108.54 70.9627 108.867 71.252 109.1 71.616C109.343 71.9707 109.501 72.3627 109.576 72.792L108.344 72.876C108.288 72.6147 108.185 72.386 108.036 72.19C107.887 71.9847 107.691 71.826 107.448 71.714C107.205 71.5927 106.916 71.532 106.58 71.532C106.048 71.532 105.656 71.6347 105.404 71.84C105.152 72.0453 105.026 72.3067 105.026 72.624C105.026 72.8667 105.082 73.0673 105.194 73.226C105.315 73.3753 105.507 73.5013 105.768 73.604C106.029 73.6973 106.379 73.7813 106.818 73.856C107.574 73.9867 108.162 74.1453 108.582 74.332C109.002 74.5187 109.296 74.7473 109.464 75.018C109.632 75.2887 109.716 75.62 109.716 76.012C109.716 76.4693 109.585 76.8613 109.324 77.188C109.072 77.5053 108.727 77.748 108.288 77.916C107.859 78.084 107.369 78.168 106.818 78.168ZM117.674 78C117.002 78 116.503 77.846 116.176 77.538C115.859 77.23 115.7 76.7493 115.7 76.096V68.844H116.876V76.068C116.876 76.404 116.951 76.6373 117.1 76.768C117.249 76.8987 117.478 76.964 117.786 76.964H118.85V78H117.674ZM114.608 71.616V70.58H118.85V71.616H114.608ZM122.306 78.168C121.54 78.168 120.929 77.9907 120.472 77.636C120.024 77.2813 119.8 76.7867 119.8 76.152C119.8 75.5173 119.986 75.018 120.36 74.654C120.733 74.29 121.326 74.0333 122.138 73.884L124.77 73.394C124.77 72.7687 124.62 72.302 124.322 71.994C124.032 71.686 123.594 71.532 123.006 71.532C122.492 71.532 122.086 71.6487 121.788 71.882C121.489 72.106 121.284 72.4327 121.172 72.862L119.926 72.764C120.066 72.064 120.402 71.4993 120.934 71.07C121.475 70.6313 122.166 70.412 123.006 70.412C123.958 70.412 124.686 70.6827 125.19 71.224C125.694 71.756 125.946 72.4933 125.946 73.436V76.502C125.946 76.67 125.974 76.7913 126.03 76.866C126.095 76.9313 126.198 76.964 126.338 76.964H126.632V78C126.594 78.0093 126.534 78.014 126.45 78.014C126.366 78.0233 126.277 78.028 126.184 78.028C125.848 78.028 125.572 77.9767 125.358 77.874C125.152 77.762 125.003 77.594 124.91 77.37C124.816 77.1367 124.77 76.8333 124.77 76.46L124.91 76.488C124.844 76.8053 124.686 77.0947 124.434 77.356C124.182 77.608 123.869 77.8087 123.496 77.958C123.122 78.098 122.726 78.168 122.306 78.168ZM122.418 77.132C122.912 77.132 123.332 77.0387 123.678 76.852C124.032 76.656 124.303 76.3947 124.49 76.068C124.676 75.732 124.77 75.3587 124.77 74.948V74.416L122.362 74.864C121.858 74.9573 121.508 75.102 121.312 75.298C121.125 75.4847 121.032 75.732 121.032 76.04C121.032 76.3853 121.153 76.656 121.396 76.852C121.648 77.0387 121.988 77.132 122.418 77.132ZM131.307 78.168C130.794 78.168 130.336 78.056 129.935 77.832C129.534 77.5987 129.226 77.2813 129.011 76.88L128.969 78H127.905V68.06H129.081V71.616C129.268 71.308 129.557 71.0327 129.949 70.79C130.341 70.538 130.794 70.412 131.307 70.412C131.96 70.412 132.525 70.5707 133.001 70.888C133.477 71.2053 133.846 71.6533 134.107 72.232C134.368 72.8107 134.499 73.4967 134.499 74.29C134.499 75.0833 134.368 75.7693 134.107 76.348C133.846 76.9267 133.477 77.3747 133.001 77.692C132.525 78.0093 131.96 78.168 131.307 78.168ZM131.237 77.048C131.862 77.048 132.357 76.8007 132.721 76.306C133.085 75.8113 133.267 75.1393 133.267 74.29C133.267 73.4313 133.085 72.7593 132.721 72.274C132.357 71.7793 131.872 71.532 131.265 71.532C130.808 71.532 130.416 71.644 130.089 71.868C129.762 72.0827 129.51 72.3953 129.333 72.806C129.165 73.2167 129.081 73.7113 129.081 74.29C129.081 74.85 129.165 75.34 129.333 75.76C129.51 76.1707 129.758 76.488 130.075 76.712C130.402 76.936 130.789 77.048 131.237 77.048ZM137.619 78C137.19 78 136.84 77.888 136.569 77.664C136.298 77.44 136.163 77.0853 136.163 76.6V68.06H137.339V76.502C137.339 76.6513 137.376 76.768 137.451 76.852C137.535 76.9267 137.652 76.964 137.801 76.964H138.445V78H137.619ZM142.711 78.168C142.011 78.168 141.405 78.0093 140.891 77.692C140.387 77.3747 139.995 76.9267 139.715 76.348C139.445 75.76 139.309 75.074 139.309 74.29C139.309 73.506 139.445 72.8247 139.715 72.246C139.995 71.6673 140.383 71.2193 140.877 70.902C141.381 70.5753 141.974 70.412 142.655 70.412C143.299 70.412 143.869 70.566 144.363 70.874C144.858 71.1727 145.241 71.6113 145.511 72.19C145.791 72.7687 145.931 73.4733 145.931 74.304V74.654H140.541C140.588 75.4473 140.798 76.0447 141.171 76.446C141.554 76.8473 142.067 77.048 142.711 77.048C143.197 77.048 143.593 76.936 143.901 76.712C144.219 76.4787 144.438 76.1753 144.559 75.802L145.819 75.9C145.623 76.5627 145.25 77.1087 144.699 77.538C144.158 77.958 143.495 78.168 142.711 78.168ZM140.541 73.618H144.643C144.587 72.8993 144.377 72.372 144.013 72.036C143.659 71.7 143.206 71.532 142.655 71.532C142.086 71.532 141.615 71.7093 141.241 72.064C140.877 72.4093 140.644 72.9273 140.541 73.618ZM152.645 78L150.349 70.58H151.637L153.373 76.768L155.137 70.58H156.397L158.161 76.768L159.911 70.58H161.199L158.903 78H157.419L155.767 72.358L154.115 78H152.645ZM162.495 78V70.58H163.671V78H162.495ZM162.467 69.418V68.046H163.699V69.418H162.467ZM168.068 78C167.396 78 166.897 77.846 166.57 77.538C166.253 77.23 166.094 76.7493 166.094 76.096V68.844H167.27V76.068C167.27 76.404 167.345 76.6373 167.494 76.768C167.644 76.8987 167.872 76.964 168.18 76.964H169.244V78H168.068ZM165.002 71.616V70.58H169.244V71.616H165.002ZM170.753 78V68.06H171.929V72.218L171.789 72.19C171.882 71.7793 172.041 71.4433 172.265 71.182C172.489 70.9207 172.764 70.7293 173.091 70.608C173.417 70.4773 173.777 70.412 174.169 70.412C174.701 70.412 175.149 70.5333 175.513 70.776C175.886 71.0093 176.166 71.3407 176.353 71.77C176.549 72.19 176.647 72.6753 176.647 73.226V78H175.471V73.562C175.471 72.8433 175.34 72.3113 175.079 71.966C174.827 71.6207 174.439 71.448 173.917 71.448C173.319 71.448 172.839 71.63 172.475 71.994C172.111 72.358 171.929 72.8853 171.929 73.576V78H170.753ZM184.39 78.168C183.624 78.168 183.013 77.9907 182.556 77.636C182.108 77.2813 181.884 76.7867 181.884 76.152C181.884 75.5173 182.07 75.018 182.444 74.654C182.817 74.29 183.41 74.0333 184.222 73.884L186.854 73.394C186.854 72.7687 186.704 72.302 186.406 71.994C186.116 71.686 185.678 71.532 185.09 71.532C184.576 71.532 184.17 71.6487 183.872 71.882C183.573 72.106 183.368 72.4327 183.256 72.862L182.01 72.764C182.15 72.064 182.486 71.4993 183.018 71.07C183.559 70.6313 184.25 70.412 185.09 70.412C186.042 70.412 186.77 70.6827 187.274 71.224C187.778 71.756 188.03 72.4933 188.03 73.436V76.502C188.03 76.67 188.058 76.7913 188.114 76.866C188.179 76.9313 188.282 76.964 188.422 76.964H188.716V78C188.678 78.0093 188.618 78.014 188.534 78.014C188.45 78.0233 188.361 78.028 188.268 78.028C187.932 78.028 187.656 77.9767 187.442 77.874C187.236 77.762 187.087 77.594 186.994 77.37C186.9 77.1367 186.854 76.8333 186.854 76.46L186.994 76.488C186.928 76.8053 186.77 77.0947 186.518 77.356C186.266 77.608 185.953 77.8087 185.58 77.958C185.206 78.098 184.81 78.168 184.39 78.168ZM184.502 77.132C184.996 77.132 185.416 77.0387 185.762 76.852C186.116 76.656 186.387 76.3947 186.574 76.068C186.76 75.732 186.854 75.3587 186.854 74.948V74.416L184.446 74.864C183.942 74.9573 183.592 75.102 183.396 75.298C183.209 75.4847 183.116 75.732 183.116 76.04C183.116 76.3853 183.237 76.656 183.48 76.852C183.732 77.0387 184.072 77.132 184.502 77.132ZM197.001 78.168C196.487 78.168 196.03 78.056 195.629 77.832C195.227 77.5987 194.919 77.2813 194.705 76.88L194.663 78H193.599V68.06H194.775V71.616C194.961 71.308 195.251 71.0327 195.643 70.79C196.035 70.538 196.487 70.412 197.001 70.412C197.654 70.412 198.219 70.5707 198.695 70.888C199.171 71.2053 199.539 71.6533 199.801 72.232C200.062 72.8107 200.193 73.4967 200.193 74.29C200.193 75.0833 200.062 75.7693 199.801 76.348C199.539 76.9267 199.171 77.3747 198.695 77.692C198.219 78.0093 197.654 78.168 197.001 78.168ZM196.931 77.048C197.556 77.048 198.051 76.8007 198.415 76.306C198.779 75.8113 198.961 75.1393 198.961 74.29C198.961 73.4313 198.779 72.7593 198.415 72.274C198.051 71.7793 197.565 71.532 196.959 71.532C196.501 71.532 196.109 71.644 195.783 71.868C195.456 72.0827 195.204 72.3953 195.027 72.806C194.859 73.2167 194.775 73.7113 194.775 74.29C194.775 74.85 194.859 75.34 195.027 75.76C195.204 76.1707 195.451 76.488 195.769 76.712C196.095 76.936 196.483 77.048 196.931 77.048ZM204.686 78.168C203.986 78.168 203.379 78.0093 202.866 77.692C202.362 77.3747 201.97 76.9267 201.69 76.348C201.419 75.76 201.284 75.074 201.284 74.29C201.284 73.506 201.419 72.8247 201.69 72.246C201.97 71.6673 202.357 71.2193 202.852 70.902C203.356 70.5753 203.949 70.412 204.63 70.412C205.274 70.412 205.843 70.566 206.338 70.874C206.833 71.1727 207.215 71.6113 207.486 72.19C207.766 72.7687 207.906 73.4733 207.906 74.304V74.654H202.516C202.563 75.4473 202.773 76.0447 203.146 76.446C203.529 76.8473 204.042 77.048 204.686 77.048C205.171 77.048 205.568 76.936 205.876 76.712C206.193 76.4787 206.413 76.1753 206.534 75.802L207.794 75.9C207.598 76.5627 207.225 77.1087 206.674 77.538C206.133 77.958 205.47 78.168 204.686 78.168ZM202.516 73.618H206.618C206.562 72.8993 206.352 72.372 205.988 72.036C205.633 71.7 205.181 71.532 204.63 71.532C204.061 71.532 203.589 71.7093 203.216 72.064C202.852 72.4093 202.619 72.9273 202.516 73.618ZM212.201 78.168C211.538 78.168 210.974 78.0607 210.507 77.846C210.05 77.6313 209.69 77.3373 209.429 76.964C209.177 76.5813 209.032 76.1473 208.995 75.662L210.227 75.578C210.302 76.026 210.493 76.3853 210.801 76.656C211.109 76.9173 211.576 77.048 212.201 77.048C212.705 77.048 213.106 76.9687 213.405 76.81C213.713 76.642 213.867 76.376 213.867 76.012C213.867 75.816 213.82 75.6527 213.727 75.522C213.634 75.3913 213.452 75.2793 213.181 75.186C212.91 75.0833 212.509 74.9853 211.977 74.892C211.268 74.7613 210.708 74.6027 210.297 74.416C209.896 74.22 209.606 73.982 209.429 73.702C209.261 73.4127 209.177 73.072 209.177 72.68C209.177 72.0173 209.42 71.476 209.905 71.056C210.39 70.6267 211.081 70.412 211.977 70.412C212.584 70.412 213.092 70.524 213.503 70.748C213.923 70.9627 214.25 71.252 214.483 71.616C214.726 71.9707 214.884 72.3627 214.959 72.792L213.727 72.876C213.671 72.6147 213.568 72.386 213.419 72.19C213.27 71.9847 213.074 71.826 212.831 71.714C212.588 71.5927 212.299 71.532 211.963 71.532C211.431 71.532 211.039 71.6347 210.787 71.84C210.535 72.0453 210.409 72.3067 210.409 72.624C210.409 72.8667 210.465 73.0673 210.577 73.226C210.698 73.3753 210.89 73.5013 211.151 73.604C211.412 73.6973 211.762 73.7813 212.201 73.856C212.957 73.9867 213.545 74.1453 213.965 74.332C214.385 74.5187 214.679 74.7473 214.847 75.018C215.015 75.2887 215.099 75.62 215.099 76.012C215.099 76.4693 214.968 76.8613 214.707 77.188C214.455 77.5053 214.11 77.748 213.671 77.916C213.242 78.084 212.752 78.168 212.201 78.168ZM216.704 80.1V70.58H217.796L217.824 72.176L217.656 72.092C217.843 71.5413 218.151 71.126 218.58 70.846C219.019 70.5567 219.523 70.412 220.092 70.412C220.829 70.412 221.431 70.594 221.898 70.958C222.374 71.322 222.724 71.798 222.948 72.386C223.181 72.974 223.298 73.6087 223.298 74.29C223.298 74.9713 223.181 75.606 222.948 76.194C222.724 76.782 222.374 77.258 221.898 77.622C221.431 77.986 220.829 78.168 220.092 78.168C219.709 78.168 219.35 78.1027 219.014 77.972C218.687 77.8413 218.407 77.6593 218.174 77.426C217.95 77.1927 217.796 76.9173 217.712 76.6L217.88 76.404V80.1H216.704ZM219.98 77.048C220.624 77.048 221.133 76.8053 221.506 76.32C221.879 75.8347 222.066 75.158 222.066 74.29C222.066 73.422 221.879 72.7453 221.506 72.26C221.133 71.7747 220.624 71.532 219.98 71.532C219.551 71.532 219.177 71.6347 218.86 71.84C218.552 72.0453 218.309 72.3533 218.132 72.764C217.964 73.1747 217.88 73.6833 217.88 74.29C217.88 74.8967 217.964 75.4053 218.132 75.816C218.3 76.2267 218.543 76.5347 218.86 76.74C219.177 76.9453 219.551 77.048 219.98 77.048ZM227.791 78.168C227.11 78.168 226.513 78.0093 225.999 77.692C225.486 77.3747 225.089 76.9267 224.809 76.348C224.529 75.76 224.389 75.074 224.389 74.29C224.389 73.4967 224.529 72.8107 224.809 72.232C225.089 71.6533 225.486 71.2053 225.999 70.888C226.513 70.5707 227.11 70.412 227.791 70.412C228.473 70.412 229.065 70.5707 229.569 70.888C230.083 71.2053 230.479 71.6533 230.759 72.232C231.039 72.8107 231.179 73.4967 231.179 74.29C231.179 75.074 231.039 75.76 230.759 76.348C230.479 76.9267 230.083 77.3747 229.569 77.692C229.065 78.0093 228.473 78.168 227.791 78.168ZM227.791 77.048C228.473 77.048 229 76.8053 229.373 76.32C229.756 75.8253 229.947 75.1487 229.947 74.29C229.947 73.4313 229.756 72.7593 229.373 72.274C229 71.7793 228.473 71.532 227.791 71.532C227.11 71.532 226.578 71.7793 226.195 72.274C225.813 72.7593 225.621 73.4313 225.621 74.29C225.621 75.1487 225.813 75.8253 226.195 76.32C226.578 76.8053 227.11 77.048 227.791 77.048ZM232.782 78V68.06H233.958V74.57L237.57 70.58H239.138L236.212 73.73L239.264 78H237.836L235.414 74.528L233.958 76.068V78H232.782ZM243.241 78.168C242.541 78.168 241.934 78.0093 241.421 77.692C240.917 77.3747 240.525 76.9267 240.245 76.348C239.974 75.76 239.839 75.074 239.839 74.29C239.839 73.506 239.974 72.8247 240.245 72.246C240.525 71.6673 240.912 71.2193 241.407 70.902C241.911 70.5753 242.503 70.412 243.185 70.412C243.829 70.412 244.398 70.566 244.893 70.874C245.387 71.1727 245.77 71.6113 246.041 72.19C246.321 72.7687 246.461 73.4733 246.461 74.304V74.654H241.071C241.117 75.4473 241.327 76.0447 241.701 76.446C242.083 76.8473 242.597 77.048 243.241 77.048C243.726 77.048 244.123 76.936 244.431 76.712C244.748 76.4787 244.967 76.1753 245.089 75.802L246.349 75.9C246.153 76.5627 245.779 77.1087 245.229 77.538C244.687 77.958 244.025 78.168 243.241 78.168ZM241.071 73.618H245.173C245.117 72.8993 244.907 72.372 244.543 72.036C244.188 71.7 243.735 71.532 243.185 71.532C242.615 71.532 242.144 71.7093 241.771 72.064C241.407 72.4093 241.173 72.9273 241.071 73.618ZM251.858 78V68.06H253.538L256.716 76.684L259.88 68.06H261.56V78H260.356V70.3L257.514 78H255.904L253.062 70.3V78H251.858ZM263.694 78V70.58H264.87V78H263.694ZM263.666 69.418V68.046H264.898V69.418H263.666ZM269.873 78.168C269.183 78.168 268.581 78.0093 268.067 77.692C267.563 77.3747 267.171 76.9267 266.891 76.348C266.611 75.76 266.471 75.074 266.471 74.29C266.471 73.506 266.611 72.8247 266.891 72.246C267.171 71.6673 267.563 71.2193 268.067 70.902C268.581 70.5753 269.183 70.412 269.873 70.412C270.443 70.412 270.947 70.5147 271.385 70.72C271.833 70.916 272.197 71.2053 272.477 71.588C272.757 71.9707 272.939 72.4373 273.023 72.988L271.791 73.072C271.707 72.5773 271.493 72.1993 271.147 71.938C270.802 71.6673 270.377 71.532 269.873 71.532C269.192 71.532 268.66 71.7793 268.277 72.274C267.895 72.7593 267.703 73.4313 267.703 74.29C267.703 75.1487 267.895 75.8253 268.277 76.32C268.66 76.8053 269.192 77.048 269.873 77.048C270.377 77.048 270.802 76.908 271.147 76.628C271.493 76.348 271.707 75.928 271.791 75.368L273.023 75.452C272.939 76.0027 272.757 76.4833 272.477 76.894C272.197 77.2953 271.833 77.608 271.385 77.832C270.947 78.056 270.443 78.168 269.873 78.168ZM274.481 78V68.06H275.657V72.218L275.517 72.19C275.611 71.7793 275.769 71.4433 275.993 71.182C276.217 70.9207 276.493 70.7293 276.819 70.608C277.146 70.4773 277.505 70.412 277.897 70.412C278.429 70.412 278.877 70.5333 279.241 70.776C279.615 71.0093 279.895 71.3407 280.081 71.77C280.277 72.19 280.375 72.6753 280.375 73.226V78H279.199V73.562C279.199 72.8433 279.069 72.3113 278.807 71.966C278.555 71.6207 278.168 71.448 277.645 71.448C277.048 71.448 276.567 71.63 276.203 71.994C275.839 72.358 275.657 72.8853 275.657 73.576V78H274.481ZM285.35 78.168C284.65 78.168 284.043 78.0093 283.53 77.692C283.026 77.3747 282.634 76.9267 282.354 76.348C282.083 75.76 281.948 75.074 281.948 74.29C281.948 73.506 282.083 72.8247 282.354 72.246C282.634 71.6673 283.021 71.2193 283.516 70.902C284.02 70.5753 284.613 70.412 285.294 70.412C285.938 70.412 286.507 70.566 287.002 70.874C287.497 71.1727 287.879 71.6113 288.15 72.19C288.43 72.7687 288.57 73.4733 288.57 74.304V74.654H283.18C283.227 75.4473 283.437 76.0447 283.81 76.446C284.193 76.8473 284.706 77.048 285.35 77.048C285.835 77.048 286.232 76.936 286.54 76.712C286.857 76.4787 287.077 76.1753 287.198 75.802L288.458 75.9C288.262 76.5627 287.889 77.1087 287.338 77.538C286.797 77.958 286.134 78.168 285.35 78.168ZM283.18 73.618H287.282C287.226 72.8993 287.016 72.372 286.652 72.036C286.297 71.7 285.845 71.532 285.294 71.532C284.725 71.532 284.253 71.7093 283.88 72.064C283.516 72.4093 283.283 72.9273 283.18 73.618ZM291.687 78C291.258 78 290.908 77.888 290.637 77.664C290.367 77.44 290.231 77.0853 290.231 76.6V68.06H291.407V76.502C291.407 76.6513 291.445 76.768 291.519 76.852C291.603 76.9267 291.72 76.964 291.869 76.964H292.513V78H291.687ZM293.854 78V70.58H295.03V78H293.854ZM293.826 69.418V68.046H295.058V69.418H293.826ZM297.409 78V70.58H298.487L298.529 72.47L298.389 72.344C298.482 71.9053 298.646 71.546 298.879 71.266C299.112 70.9767 299.392 70.762 299.719 70.622C300.055 70.482 300.414 70.412 300.797 70.412C301.366 70.412 301.833 70.538 302.197 70.79C302.57 71.042 302.846 71.3827 303.023 71.812C303.21 72.232 303.303 72.7033 303.303 73.226V78H302.127V73.562C302.127 73.1047 302.071 72.722 301.959 72.414C301.856 72.0967 301.688 71.8587 301.455 71.7C301.222 71.532 300.918 71.448 300.545 71.448C299.976 71.448 299.504 71.63 299.131 71.994C298.767 72.3487 298.585 72.8713 298.585 73.562V78H297.409ZM25.12 96V88.58H26.198L26.24 90.456L26.072 90.4C26.156 89.9893 26.3007 89.6393 26.506 89.35C26.7207 89.0513 26.982 88.8227 27.29 88.664C27.598 88.496 27.9387 88.412 28.312 88.412C28.956 88.412 29.4787 88.5893 29.88 88.944C30.2907 89.2987 30.5473 89.7933 30.65 90.428L30.426 90.414C30.5007 89.9847 30.636 89.6253 30.832 89.336C31.0373 89.0373 31.2987 88.8087 31.616 88.65C31.9333 88.4913 32.2973 88.412 32.708 88.412C33.24 88.412 33.688 88.524 34.052 88.748C34.416 88.9627 34.6913 89.28 34.878 89.7C35.0647 90.12 35.158 90.6287 35.158 91.226V96H33.982V91.478C33.982 90.806 33.8513 90.302 33.59 89.966C33.3287 89.6207 32.9413 89.448 32.428 89.448C32.0827 89.448 31.7793 89.532 31.518 89.7C31.266 89.868 31.07 90.1107 30.93 90.428C30.79 90.736 30.72 91.114 30.72 91.562V96H29.544V91.562C29.544 90.8993 29.4273 90.3813 29.194 90.008C28.9607 89.6347 28.5687 89.448 28.018 89.448C27.6727 89.448 27.3693 89.532 27.108 89.7C26.856 89.868 26.6553 90.1107 26.506 90.428C26.366 90.7453 26.296 91.1233 26.296 91.562V96H25.12ZM40.1313 96.168C39.4313 96.168 38.8246 96.0093 38.3113 95.692C37.8073 95.3747 37.4153 94.9267 37.1353 94.348C36.8646 93.76 36.7293 93.074 36.7293 92.29C36.7293 91.506 36.8646 90.8247 37.1353 90.246C37.4153 89.6673 37.8026 89.2193 38.2973 88.902C38.8013 88.5753 39.3939 88.412 40.0753 88.412C40.7193 88.412 41.2886 88.566 41.7833 88.874C42.2779 89.1727 42.6606 89.6113 42.9313 90.19C43.2113 90.7687 43.3513 91.4733 43.3513 92.304V92.654H37.9613C38.0079 93.4473 38.2179 94.0447 38.5913 94.446C38.9739 94.8473 39.4873 95.048 40.1313 95.048C40.6166 95.048 41.0133 94.936 41.3213 94.712C41.6386 94.4787 41.8579 94.1753 41.9793 93.802L43.2393 93.9C43.0433 94.5627 42.6699 95.1087 42.1193 95.538C41.5779 95.958 40.9153 96.168 40.1313 96.168ZM37.9613 91.618H42.0633C42.0073 90.8993 41.7973 90.372 41.4333 90.036C41.0786 89.7 40.6259 89.532 40.0753 89.532C39.5059 89.532 39.0346 89.7093 38.6613 90.064C38.2973 90.4093 38.0639 90.9273 37.9613 91.618ZM44.9442 96V88.58H46.0222L46.0642 90.47L45.9242 90.344C46.0176 89.9053 46.1809 89.546 46.4142 89.266C46.6476 88.9767 46.9276 88.762 47.2542 88.622C47.5902 88.482 47.9496 88.412 48.3322 88.412C48.9016 88.412 49.3682 88.538 49.7322 88.79C50.1056 89.042 50.3809 89.3827 50.5582 89.812C50.7449 90.232 50.8382 90.7033 50.8382 91.226V96H49.6622V91.562C49.6622 91.1047 49.6062 90.722 49.4942 90.414C49.3916 90.0967 49.2236 89.8587 48.9902 89.7C48.7569 89.532 48.4536 89.448 48.0802 89.448C47.5109 89.448 47.0396 89.63 46.6662 89.994C46.3022 90.3487 46.1202 90.8713 46.1202 91.562V96H44.9442ZM55.3099 96.168C54.5726 96.168 53.9799 95.9207 53.5319 95.426C53.0932 94.922 52.8739 94.2313 52.8739 93.354V88.58H54.0499V93.032C54.0499 93.7507 54.1759 94.2827 54.4279 94.628C54.6892 94.964 55.0859 95.132 55.6179 95.132C56.2059 95.132 56.6679 94.9453 57.0039 94.572C57.3399 94.1893 57.5079 93.6667 57.5079 93.004V88.58H58.6839V96H57.5639V94.166L57.7459 94.264C57.5966 94.8707 57.3119 95.342 56.8919 95.678C56.4719 96.0047 55.9446 96.168 55.3099 96.168ZM64.4266 96V88.58H65.6026V96H64.4266ZM64.3986 87.418V86.046H65.6306V87.418H64.3986ZM67.9813 96V88.58H69.0593L69.1013 90.47L68.9613 90.344C69.0547 89.9053 69.218 89.546 69.4513 89.266C69.6847 88.9767 69.9647 88.762 70.2913 88.622C70.6273 88.482 70.9867 88.412 71.3693 88.412C71.9387 88.412 72.4053 88.538 72.7693 88.79C73.1427 89.042 73.418 89.3827 73.5953 89.812C73.782 90.232 73.8753 90.7033 73.8753 91.226V96H72.6993V91.562C72.6993 91.1047 72.6433 90.722 72.5313 90.414C72.4287 90.0967 72.2607 89.8587 72.0273 89.7C71.794 89.532 71.4907 89.448 71.1173 89.448C70.548 89.448 70.0767 89.63 69.7033 89.994C69.3393 90.3487 69.1573 90.8713 69.1573 91.562V96H67.9813ZM79.7841 96V86.06H83.2001C84.3761 86.06 85.2581 86.2747 85.8461 86.704C86.4341 87.1333 86.7281 87.81 86.7281 88.734C86.7281 89.1633 86.6348 89.5413 86.4481 89.868C86.2614 90.1947 85.9954 90.4513 85.6501 90.638C85.3048 90.8153 84.8941 90.904 84.4181 90.904L84.4041 90.82C85.2534 90.82 85.9208 91.0487 86.4061 91.506C86.9008 91.954 87.1481 92.542 87.1481 93.27C87.1481 94.1753 86.8541 94.8567 86.2661 95.314C85.6781 95.7713 84.8428 96 83.7601 96H79.7841ZM80.9881 94.824H83.7601C84.4414 94.824 84.9641 94.684 85.3281 94.404C85.7014 94.124 85.8881 93.7227 85.8881 93.2C85.8881 92.6773 85.7014 92.2713 85.3281 91.982C84.9641 91.6833 84.4414 91.534 83.7601 91.534H80.9881V94.824ZM80.9881 90.358H83.2001C83.9281 90.358 84.4881 90.2227 84.8801 89.952C85.2721 89.672 85.4681 89.2847 85.4681 88.79C85.4681 88.2673 85.2768 87.88 84.8941 87.628C84.5208 87.3667 83.9561 87.236 83.2001 87.236H80.9881V90.358ZM89.0223 96V88.58H90.1983V96H89.0223ZM88.9943 87.418V86.046H90.2263V87.418H88.9943ZM94.3056 96.168C93.5403 96.168 92.9289 95.9907 92.4716 95.636C92.0236 95.2813 91.7996 94.7867 91.7996 94.152C91.7996 93.5173 91.9863 93.018 92.3596 92.654C92.7329 92.29 93.3256 92.0333 94.1376 91.884L96.7696 91.394C96.7696 90.7687 96.6203 90.302 96.3216 89.994C96.0323 89.686 95.5936 89.532 95.0056 89.532C94.4923 89.532 94.0863 89.6487 93.7876 89.882C93.4889 90.106 93.2836 90.4327 93.1716 90.862L91.9256 90.764C92.0656 90.064 92.4016 89.4993 92.9336 89.07C93.4749 88.6313 94.1656 88.412 95.0056 88.412C95.9576 88.412 96.6856 88.6827 97.1896 89.224C97.6936 89.756 97.9456 90.4933 97.9456 91.436V94.502C97.9456 94.67 97.9736 94.7913 98.0296 94.866C98.0949 94.9313 98.1976 94.964 98.3376 94.964H98.6316V96C98.5943 96.0093 98.5336 96.014 98.4496 96.014C98.3656 96.0233 98.2769 96.028 98.1836 96.028C97.8476 96.028 97.5723 95.9767 97.3576 95.874C97.1523 95.762 97.0029 95.594 96.9096 95.37C96.8163 95.1367 96.7696 94.8333 96.7696 94.46L96.9096 94.488C96.8443 94.8053 96.6856 95.0947 96.4336 95.356C96.1816 95.608 95.8689 95.8087 95.4956 95.958C95.1223 96.098 94.7256 96.168 94.3056 96.168ZM94.4176 95.132C94.9123 95.132 95.3323 95.0387 95.6776 94.852C96.0323 94.656 96.3029 94.3947 96.4896 94.068C96.6763 93.732 96.7696 93.3587 96.7696 92.948V92.416L94.3616 92.864C93.8576 92.9573 93.5076 93.102 93.3116 93.298C93.1249 93.4847 93.0316 93.732 93.0316 94.04C93.0316 94.3853 93.1529 94.656 93.3956 94.852C93.6476 95.0387 93.9883 95.132 94.4176 95.132ZM99.9598 96V88.58H100.996L101.052 90.456L100.94 90.414C101.033 89.7793 101.234 89.3173 101.542 89.028C101.859 88.7293 102.279 88.58 102.802 88.58H103.53V89.7H102.816C102.443 89.7 102.13 89.77 101.878 89.91C101.635 90.0407 101.449 90.2413 101.318 90.512C101.197 90.7733 101.136 91.1093 101.136 91.52V96H99.9598ZM104.704 96V88.58H105.74L105.796 90.456L105.684 90.414C105.777 89.7793 105.978 89.3173 106.286 89.028C106.603 88.7293 107.023 88.58 107.546 88.58H108.274V89.7H107.56C107.187 89.7 106.874 89.77 106.622 89.91C106.379 90.0407 106.193 90.2413 106.062 90.512C105.941 90.7733 105.88 91.1093 105.88 91.52V96H104.704ZM109.585 96V88.58H110.761V96H109.585ZM109.557 87.418V86.046H110.789V87.418H109.557ZM115.158 96C114.486 96 113.987 95.846 113.66 95.538C113.343 95.23 113.184 94.7493 113.184 94.096V86.844H114.36V94.068C114.36 94.404 114.435 94.6373 114.584 94.768C114.734 94.8987 114.962 94.964 115.27 94.964H116.334V96H115.158ZM112.092 89.616V88.58H116.334V89.616H112.092ZM117.63 96V94.824L122.32 89.616H117.77V88.58H123.608V89.756L118.918 94.964H123.72V96H117.63ZM125.132 96V94.418H126.714V96H125.132ZM132.12 96V86.06H135.886C136.586 86.06 137.188 86.1813 137.692 86.424C138.196 86.6667 138.583 87.0167 138.854 87.474C139.134 87.922 139.274 88.454 139.274 89.07C139.274 89.518 139.167 89.9193 138.952 90.274C138.747 90.6193 138.481 90.8947 138.154 91.1C137.827 91.3053 137.487 91.4173 137.132 91.436L137.048 91.31C137.655 91.31 138.131 91.45 138.476 91.73C138.831 92.01 139.036 92.458 139.092 93.074L139.372 96H138.154L137.902 93.2C137.865 92.7893 137.715 92.486 137.454 92.29C137.202 92.094 136.787 91.996 136.208 91.996H133.324V96H132.12ZM133.324 90.82H136.04C136.647 90.82 137.127 90.666 137.482 90.358C137.837 90.05 138.014 89.6113 138.014 89.042C138.014 88.4633 137.832 88.02 137.468 87.712C137.104 87.3947 136.577 87.236 135.886 87.236H133.324V90.82ZM144.092 96.168C143.392 96.168 142.786 96.0093 142.272 95.692C141.768 95.3747 141.376 94.9267 141.096 94.348C140.826 93.76 140.69 93.074 140.69 92.29C140.69 91.506 140.826 90.8247 141.096 90.246C141.376 89.6673 141.764 89.2193 142.258 88.902C142.762 88.5753 143.355 88.412 144.036 88.412C144.68 88.412 145.25 88.566 145.744 88.874C146.239 89.1727 146.622 89.6113 146.892 90.19C147.172 90.7687 147.312 91.4733 147.312 92.304V92.654H141.922C141.969 93.4473 142.179 94.0447 142.552 94.446C142.935 94.8473 143.448 95.048 144.092 95.048C144.578 95.048 144.974 94.936 145.282 94.712C145.6 94.4787 145.819 94.1753 145.94 93.802L147.2 93.9C147.004 94.5627 146.631 95.1087 146.08 95.538C145.539 95.958 144.876 96.168 144.092 96.168ZM141.922 91.618H146.024C145.968 90.8993 145.758 90.372 145.394 90.036C145.04 89.7 144.587 89.532 144.036 89.532C143.467 89.532 142.996 89.7093 142.622 90.064C142.258 90.4093 142.025 90.9273 141.922 91.618ZM151.607 96.168C150.944 96.168 150.38 96.0607 149.913 95.846C149.456 95.6313 149.096 95.3373 148.835 94.964C148.583 94.5813 148.438 94.1473 148.401 93.662L149.633 93.578C149.708 94.026 149.899 94.3853 150.207 94.656C150.515 94.9173 150.982 95.048 151.607 95.048C152.111 95.048 152.512 94.9687 152.811 94.81C153.119 94.642 153.273 94.376 153.273 94.012C153.273 93.816 153.226 93.6527 153.133 93.522C153.04 93.3913 152.858 93.2793 152.587 93.186C152.316 93.0833 151.915 92.9853 151.383 92.892C150.674 92.7613 150.114 92.6027 149.703 92.416C149.302 92.22 149.012 91.982 148.835 91.702C148.667 91.4127 148.583 91.072 148.583 90.68C148.583 90.0173 148.826 89.476 149.311 89.056C149.796 88.6267 150.487 88.412 151.383 88.412C151.99 88.412 152.498 88.524 152.909 88.748C153.329 88.9627 153.656 89.252 153.889 89.616C154.132 89.9707 154.29 90.3627 154.365 90.792L153.133 90.876C153.077 90.6147 152.974 90.386 152.825 90.19C152.676 89.9847 152.48 89.826 152.237 89.714C151.994 89.5927 151.705 89.532 151.369 89.532C150.837 89.532 150.445 89.6347 150.193 89.84C149.941 90.0453 149.815 90.3067 149.815 90.624C149.815 90.8667 149.871 91.0673 149.983 91.226C150.104 91.3753 150.296 91.5013 150.557 91.604C150.818 91.6973 151.168 91.7813 151.607 91.856C152.363 91.9867 152.951 92.1453 153.371 92.332C153.791 92.5187 154.085 92.7473 154.253 93.018C154.421 93.2887 154.505 93.62 154.505 94.012C154.505 94.4693 154.374 94.8613 154.113 95.188C153.861 95.5053 153.516 95.748 153.077 95.916C152.648 96.084 152.158 96.168 151.607 96.168ZM159.008 96.168C158.308 96.168 157.702 96.0093 157.188 95.692C156.684 95.3747 156.292 94.9267 156.012 94.348C155.742 93.76 155.606 93.074 155.606 92.29C155.606 91.506 155.742 90.8247 156.012 90.246C156.292 89.6673 156.68 89.2193 157.174 88.902C157.678 88.5753 158.271 88.412 158.952 88.412C159.596 88.412 160.166 88.566 160.66 88.874C161.155 89.1727 161.538 89.6113 161.808 90.19C162.088 90.7687 162.228 91.4733 162.228 92.304V92.654H156.838C156.885 93.4473 157.095 94.0447 157.468 94.446C157.851 94.8473 158.364 95.048 159.008 95.048C159.494 95.048 159.89 94.936 160.198 94.712C160.516 94.4787 160.735 94.1753 160.856 93.802L162.116 93.9C161.92 94.5627 161.547 95.1087 160.996 95.538C160.455 95.958 159.792 96.168 159.008 96.168ZM156.838 91.618H160.94C160.884 90.8993 160.674 90.372 160.31 90.036C159.956 89.7 159.503 89.532 158.952 89.532C158.383 89.532 157.912 89.7093 157.538 90.064C157.174 90.4093 156.941 90.9273 156.838 91.618ZM163.821 96V88.58H164.857L164.913 90.456L164.801 90.414C164.895 89.7793 165.095 89.3173 165.403 89.028C165.721 88.7293 166.141 88.58 166.663 88.58H167.391V89.7H166.677C166.304 89.7 165.991 89.77 165.739 89.91C165.497 90.0407 165.31 90.2413 165.179 90.512C165.058 90.7733 164.997 91.1093 164.997 91.52V96H163.821ZM170.66 96L167.958 88.58H169.246L171.402 94.796L173.558 88.58H174.846L172.144 96H170.66ZM178.805 96.168C178.105 96.168 177.498 96.0093 176.985 95.692C176.481 95.3747 176.089 94.9267 175.809 94.348C175.538 93.76 175.403 93.074 175.403 92.29C175.403 91.506 175.538 90.8247 175.809 90.246C176.089 89.6673 176.476 89.2193 176.971 88.902C177.475 88.5753 178.068 88.412 178.749 88.412C179.393 88.412 179.962 88.566 180.457 88.874C180.952 89.1727 181.334 89.6113 181.605 90.19C181.885 90.7687 182.025 91.4733 182.025 92.304V92.654H176.635C176.682 93.4473 176.892 94.0447 177.265 94.446C177.648 94.8473 178.161 95.048 178.805 95.048C179.29 95.048 179.687 94.936 179.995 94.712C180.312 94.4787 180.532 94.1753 180.653 93.802L181.913 93.9C181.717 94.5627 181.344 95.1087 180.793 95.538C180.252 95.958 179.589 96.168 178.805 96.168ZM176.635 91.618H180.737C180.681 90.8993 180.471 90.372 180.107 90.036C179.752 89.7 179.3 89.532 178.749 89.532C178.18 89.532 177.708 89.7093 177.335 90.064C176.971 90.4093 176.738 90.9273 176.635 91.618ZM186.25 96.168C185.606 96.168 185.046 96.0093 184.57 95.692C184.103 95.3747 183.744 94.9267 183.492 94.348C183.24 93.7693 183.114 93.0833 183.114 92.29C183.114 91.4967 183.24 90.8107 183.492 90.232C183.744 89.6533 184.103 89.2053 184.57 88.888C185.046 88.5707 185.606 88.412 186.25 88.412C186.745 88.412 187.197 88.5193 187.608 88.734C188.019 88.9393 188.327 89.2333 188.532 89.616V86.06H189.708V96H188.644L188.602 94.88C188.397 95.2813 188.084 95.5987 187.664 95.832C187.244 96.056 186.773 96.168 186.25 96.168ZM186.488 95.048C186.927 95.048 187.295 94.936 187.594 94.712C187.902 94.488 188.135 94.1707 188.294 93.76C188.453 93.34 188.532 92.85 188.532 92.29C188.532 91.7113 188.453 91.2167 188.294 90.806C188.135 90.3953 187.902 90.0827 187.594 89.868C187.295 89.644 186.927 89.532 186.488 89.532C185.835 89.532 185.312 89.7793 184.92 90.274C184.537 90.7593 184.346 91.4313 184.346 92.29C184.346 93.1393 184.537 93.8113 184.92 94.306C185.312 94.8007 185.835 95.048 186.488 95.048ZM198.342 96.168C197.661 96.168 197.064 96.0093 196.55 95.692C196.037 95.3747 195.64 94.9267 195.36 94.348C195.08 93.76 194.94 93.074 194.94 92.29C194.94 91.4967 195.08 90.8107 195.36 90.232C195.64 89.6533 196.037 89.2053 196.55 88.888C197.064 88.5707 197.661 88.412 198.342 88.412C199.024 88.412 199.616 88.5707 200.12 88.888C200.634 89.2053 201.03 89.6533 201.31 90.232C201.59 90.8107 201.73 91.4967 201.73 92.29C201.73 93.074 201.59 93.76 201.31 94.348C201.03 94.9267 200.634 95.3747 200.12 95.692C199.616 96.0093 199.024 96.168 198.342 96.168ZM198.342 95.048C199.024 95.048 199.551 94.8053 199.924 94.32C200.307 93.8253 200.498 93.1487 200.498 92.29C200.498 91.4313 200.307 90.7593 199.924 90.274C199.551 89.7793 199.024 89.532 198.342 89.532C197.661 89.532 197.129 89.7793 196.746 90.274C196.364 90.7593 196.172 91.4313 196.172 92.29C196.172 93.1487 196.364 93.8253 196.746 94.32C197.129 94.8053 197.661 95.048 198.342 95.048ZM203.333 96V88.58H204.411L204.453 90.47L204.313 90.344C204.406 89.9053 204.57 89.546 204.803 89.266C205.036 88.9767 205.316 88.762 205.643 88.622C205.979 88.482 206.338 88.412 206.721 88.412C207.29 88.412 207.757 88.538 208.121 88.79C208.494 89.042 208.77 89.3827 208.947 89.812C209.134 90.232 209.227 90.7033 209.227 91.226V96H208.051V91.562C208.051 91.1047 207.995 90.722 207.883 90.414C207.78 90.0967 207.612 89.8587 207.379 89.7C207.146 89.532 206.842 89.448 206.469 89.448C205.9 89.448 205.428 89.63 205.055 89.994C204.691 90.3487 204.509 90.8713 204.509 91.562V96H203.333ZM214.968 96V88.58H216.004L216.06 90.456L215.948 90.414C216.041 89.7793 216.242 89.3173 216.55 89.028C216.867 88.7293 217.287 88.58 217.81 88.58H218.538V89.7H217.824C217.45 89.7 217.138 89.77 216.886 89.91C216.643 90.0407 216.456 90.2413 216.326 90.512C216.204 90.7733 216.144 91.1093 216.144 91.52V96H214.968ZM222.61 96.168C221.91 96.168 221.303 96.0093 220.79 95.692C220.286 95.3747 219.894 94.9267 219.614 94.348C219.343 93.76 219.208 93.074 219.208 92.29C219.208 91.506 219.343 90.8247 219.614 90.246C219.894 89.6673 220.281 89.2193 220.776 88.902C221.28 88.5753 221.872 88.412 222.554 88.412C223.198 88.412 223.767 88.566 224.262 88.874C224.756 89.1727 225.139 89.6113 225.41 90.19C225.69 90.7687 225.83 91.4733 225.83 92.304V92.654H220.44C220.486 93.4473 220.696 94.0447 221.07 94.446C221.452 94.8473 221.966 95.048 222.61 95.048C223.095 95.048 223.492 94.936 223.8 94.712C224.117 94.4787 224.336 94.1753 224.458 93.802L225.718 93.9C225.522 94.5627 225.148 95.1087 224.598 95.538C224.056 95.958 223.394 96.168 222.61 96.168ZM220.44 91.618H224.542C224.486 90.8993 224.276 90.372 223.912 90.036C223.557 89.7 223.104 89.532 222.554 89.532C221.984 89.532 221.513 89.7093 221.14 90.064C220.776 90.4093 220.542 90.9273 220.44 91.618ZM233.513 98.1H232.337V94.404L232.505 94.6C232.421 94.9173 232.262 95.1927 232.029 95.426C231.805 95.6593 231.525 95.8413 231.189 95.972C230.862 96.1027 230.507 96.168 230.125 96.168C229.387 96.168 228.781 95.986 228.305 95.622C227.838 95.258 227.488 94.782 227.255 94.194C227.031 93.606 226.919 92.9713 226.919 92.29C226.919 91.6087 227.031 90.974 227.255 90.386C227.488 89.798 227.838 89.322 228.305 88.958C228.781 88.594 229.387 88.412 230.125 88.412C230.703 88.412 231.207 88.5567 231.637 88.846C232.075 89.126 232.383 89.5413 232.561 90.092L232.393 90.176L232.421 88.58H233.513V98.1ZM230.237 95.048C230.675 95.048 231.049 94.9453 231.357 94.74C231.674 94.5347 231.917 94.2267 232.085 93.816C232.253 93.4053 232.337 92.8967 232.337 92.29C232.337 91.6833 232.248 91.1747 232.071 90.764C231.903 90.3533 231.66 90.0453 231.343 89.84C231.035 89.6347 230.666 89.532 230.237 89.532C229.593 89.532 229.084 89.7747 228.711 90.26C228.337 90.7453 228.151 91.422 228.151 92.29C228.151 93.158 228.337 93.8347 228.711 94.32C229.084 94.8053 229.593 95.048 230.237 95.048ZM238.185 96.168C237.448 96.168 236.855 95.9207 236.407 95.426C235.968 94.922 235.749 94.2313 235.749 93.354V88.58H236.925V93.032C236.925 93.7507 237.051 94.2827 237.303 94.628C237.564 94.964 237.961 95.132 238.493 95.132C239.081 95.132 239.543 94.9453 239.879 94.572C240.215 94.1893 240.383 93.6667 240.383 93.004V88.58H241.559V96H240.439V94.166L240.621 94.264C240.472 94.8707 240.187 95.342 239.767 95.678C239.347 96.0047 238.82 96.168 238.185 96.168ZM246.563 96.168C245.863 96.168 245.256 96.0093 244.743 95.692C244.239 95.3747 243.847 94.9267 243.567 94.348C243.296 93.76 243.161 93.074 243.161 92.29C243.161 91.506 243.296 90.8247 243.567 90.246C243.847 89.6673 244.234 89.2193 244.729 88.902C245.233 88.5753 245.826 88.412 246.507 88.412C247.151 88.412 247.72 88.566 248.215 88.874C248.71 89.1727 249.092 89.6113 249.363 90.19C249.643 90.7687 249.783 91.4733 249.783 92.304V92.654H244.393C244.44 93.4473 244.65 94.0447 245.023 94.446C245.406 94.8473 245.919 95.048 246.563 95.048C247.048 95.048 247.445 94.936 247.753 94.712C248.07 94.4787 248.29 94.1753 248.411 93.802L249.671 93.9C249.475 94.5627 249.102 95.1087 248.551 95.538C248.01 95.958 247.347 96.168 246.563 96.168ZM244.393 91.618H248.495C248.439 90.8993 248.229 90.372 247.865 90.036C247.51 89.7 247.058 89.532 246.507 89.532C245.938 89.532 245.466 89.7093 245.093 90.064C244.729 90.4093 244.496 90.9273 244.393 91.618ZM254.078 96.168C253.415 96.168 252.851 96.0607 252.384 95.846C251.927 95.6313 251.567 95.3373 251.306 94.964C251.054 94.5813 250.909 94.1473 250.872 93.662L252.104 93.578C252.179 94.026 252.37 94.3853 252.678 94.656C252.986 94.9173 253.453 95.048 254.078 95.048C254.582 95.048 254.983 94.9687 255.282 94.81C255.59 94.642 255.744 94.376 255.744 94.012C255.744 93.816 255.697 93.6527 255.604 93.522C255.511 93.3913 255.329 93.2793 255.058 93.186C254.787 93.0833 254.386 92.9853 253.854 92.892C253.145 92.7613 252.585 92.6027 252.174 92.416C251.773 92.22 251.483 91.982 251.306 91.702C251.138 91.4127 251.054 91.072 251.054 90.68C251.054 90.0173 251.297 89.476 251.782 89.056C252.267 88.6267 252.958 88.412 253.854 88.412C254.461 88.412 254.969 88.524 255.38 88.748C255.8 88.9627 256.127 89.252 256.36 89.616C256.603 89.9707 256.761 90.3627 256.836 90.792L255.604 90.876C255.548 90.6147 255.445 90.386 255.296 90.19C255.147 89.9847 254.951 89.826 254.708 89.714C254.465 89.5927 254.176 89.532 253.84 89.532C253.308 89.532 252.916 89.6347 252.664 89.84C252.412 90.0453 252.286 90.3067 252.286 90.624C252.286 90.8667 252.342 91.0673 252.454 91.226C252.575 91.3753 252.767 91.5013 253.028 91.604C253.289 91.6973 253.639 91.7813 254.078 91.856C254.834 91.9867 255.422 92.1453 255.842 92.332C256.262 92.5187 256.556 92.7473 256.724 93.018C256.892 93.2887 256.976 93.62 256.976 94.012C256.976 94.4693 256.845 94.8613 256.584 95.188C256.332 95.5053 255.987 95.748 255.548 95.916C255.119 96.084 254.629 96.168 254.078 96.168ZM261.01 96C260.338 96 259.838 95.846 259.512 95.538C259.194 95.23 259.036 94.7493 259.036 94.096V86.844H260.212V94.068C260.212 94.404 260.286 94.6373 260.436 94.768C260.585 94.8987 260.814 94.964 261.122 94.964H262.186V96H261.01ZM257.944 89.616V88.58H262.186V89.616H257.944ZM263.628 96V94.418H265.21V96H263.628Z" fill="white" fill-opacity="0.75"/>
<path d="M27.864 120L24.28 110.06H25.89L28.816 118.32L31.742 110.06H33.352L29.754 120H27.864ZM34.3469 120V112.552H35.8309V120H34.3469ZM34.3189 111.474V109.99H35.8589V111.474H34.3189ZM40.8582 120.168C40.1302 120.168 39.5002 120.009 38.9682 119.692C38.4455 119.375 38.0395 118.922 37.7502 118.334C37.4702 117.746 37.3302 117.06 37.3302 116.276C37.3302 115.492 37.4702 114.811 37.7502 114.232C38.0395 113.644 38.4455 113.191 38.9682 112.874C39.4909 112.547 40.1069 112.384 40.8162 112.384C41.4882 112.384 42.0809 112.543 42.5942 112.86C43.1075 113.168 43.5042 113.616 43.7842 114.204C44.0735 114.792 44.2182 115.501 44.2182 116.332V116.71H38.8702C38.9075 117.438 39.0989 117.984 39.4442 118.348C39.7989 118.712 40.2749 118.894 40.8722 118.894C41.3109 118.894 41.6749 118.791 41.9642 118.586C42.2535 118.381 42.4542 118.105 42.5662 117.76L44.1062 117.858C43.9102 118.549 43.5229 119.109 42.9442 119.538C42.3749 119.958 41.6795 120.168 40.8582 120.168ZM38.8702 115.59H42.6502C42.6035 114.927 42.4122 114.437 42.0762 114.12C41.7495 113.803 41.3295 113.644 40.8162 113.644C40.2842 113.644 39.8455 113.812 39.5002 114.148C39.1642 114.475 38.9542 114.955 38.8702 115.59ZM47.0155 120L44.7475 112.552H46.3015L47.8975 118.376L49.5355 112.552H50.9355L52.5735 118.376L54.1835 112.552H55.7375L53.4695 120H51.8035L50.2355 114.68L48.6675 120H47.0155ZM63.5672 120.168C62.8578 120.168 62.2372 120.009 61.7052 119.692C61.1732 119.375 60.7625 118.922 60.4732 118.334C60.1838 117.746 60.0392 117.06 60.0392 116.276C60.0392 115.483 60.1838 114.797 60.4732 114.218C60.7625 113.639 61.1732 113.191 61.7052 112.874C62.2372 112.547 62.8578 112.384 63.5672 112.384C64.2765 112.384 64.8972 112.547 65.4292 112.874C65.9612 113.191 66.3718 113.639 66.6612 114.218C66.9505 114.797 67.0952 115.483 67.0952 116.276C67.0952 117.06 66.9505 117.746 66.6612 118.334C66.3718 118.922 65.9612 119.375 65.4292 119.692C64.8972 120.009 64.2765 120.168 63.5672 120.168ZM63.5672 118.88C64.2018 118.88 64.6918 118.651 65.0372 118.194C65.3825 117.727 65.5552 117.088 65.5552 116.276C65.5552 115.464 65.3825 114.829 65.0372 114.372C64.6918 113.905 64.2018 113.672 63.5672 113.672C62.9418 113.672 62.4518 113.905 62.0972 114.372C61.7518 114.829 61.5792 115.464 61.5792 116.276C61.5792 117.088 61.7518 117.727 62.0972 118.194C62.4518 118.651 62.9418 118.88 63.5672 118.88ZM69.0638 120V112.076C69.0638 111.46 69.2365 110.97 69.5818 110.606C69.9271 110.242 70.4685 110.06 71.2058 110.06H72.5218V111.278H71.4018C71.1125 111.278 70.8978 111.357 70.7578 111.516C70.6178 111.665 70.5478 111.88 70.5478 112.16V120H69.0638ZM68.0278 113.854V112.65H72.4098V113.854H68.0278ZM73.3758 120V112.076C73.3758 111.46 73.5485 110.97 73.8938 110.606C74.2391 110.242 74.7805 110.06 75.5178 110.06H76.8338V111.278H75.7138C75.4245 111.278 75.2098 111.357 75.0698 111.516C74.9298 111.665 74.8598 111.88 74.8598 112.16V120H73.3758ZM72.3398 113.854V112.65H76.7218V113.854H72.3398ZM80.8621 120.168C80.1341 120.168 79.5041 120.009 78.9721 119.692C78.4494 119.375 78.0434 118.922 77.7541 118.334C77.4741 117.746 77.3341 117.06 77.3341 116.276C77.3341 115.492 77.4741 114.811 77.7541 114.232C78.0434 113.644 78.4494 113.191 78.9721 112.874C79.4948 112.547 80.1108 112.384 80.8201 112.384C81.4921 112.384 82.0848 112.543 82.5981 112.86C83.1114 113.168 83.5081 113.616 83.7881 114.204C84.0774 114.792 84.2221 115.501 84.2221 116.332V116.71H78.8741C78.9114 117.438 79.1028 117.984 79.4481 118.348C79.8028 118.712 80.2788 118.894 80.8761 118.894C81.3148 118.894 81.6788 118.791 81.9681 118.586C82.2574 118.381 82.4581 118.105 82.5701 117.76L84.1101 117.858C83.9141 118.549 83.5268 119.109 82.9481 119.538C82.3788 119.958 81.6834 120.168 80.8621 120.168ZM78.8741 115.59H82.6541C82.6074 114.927 82.4161 114.437 82.0801 114.12C81.7534 113.803 81.3334 113.644 80.8201 113.644C80.2881 113.644 79.8494 113.812 79.5041 114.148C79.1681 114.475 78.9581 114.955 78.8741 115.59ZM85.7258 120V112.552H87.0838L87.1398 114.526L87.0138 114.484C87.1164 113.812 87.3218 113.322 87.6298 113.014C87.9471 112.706 88.3718 112.552 88.9038 112.552H89.6178V113.882H88.9038C88.5304 113.882 88.2178 113.943 87.9658 114.064C87.7138 114.185 87.5224 114.372 87.3918 114.624C87.2704 114.876 87.2098 115.203 87.2098 115.604V120H85.7258ZM101.446 119.37L105.8 115.002L101.46 110.662H103.21L107.55 115.016L103.196 119.37H101.446ZM97.6101 114.288H106.696V115.744H97.6101V114.288Z" fill="#FAFAFA"/>
</svg>
