<svg width="24" height="24" viewBox="0 0 24 24" fill="none" xmlns="http://www.w3.org/2000/svg">
<path d="M13.555 3.40669C12.6179 2.76418 11.3821 2.76418 10.445 3.40669L4.19496 7.69172C3.44705 8.2045 3 9.05302 3 9.95984V18.2499C3 19.7687 4.23122 20.9999 5.75 20.9999H8.75C9.16421 20.9999 9.5 20.6641 9.5 20.2499V16.7499C9.5 15.3692 10.6193 14.2499 12 14.2499C13.3807 14.2499 14.5 15.3692 14.5 16.7499V20.2499C14.5 20.6641 14.8358 20.9999 15.25 20.9999H18.25C19.7688 20.9999 21 19.7687 21 18.2499V9.95984C21 9.05302 20.553 8.2045 19.805 7.69172L13.555 3.40669Z" fill="#403535"/>
</svg>
