<svg width="24" height="24" viewBox="0 0 24 24" fill="none" xmlns="http://www.w3.org/2000/svg">
<path d="M4 19.25V4.75C4 3.23122 5.23122 2 6.75 2H11.9219C12.6511 2.00007 13.3505 2.29002 13.8662 2.80566L19.1943 8.13379C19.71 8.64946 19.9999 9.3489 20 10.0781V19.25C20 20.7688 18.7688 22 17.25 22H6.75C5.23122 22 4 20.7688 4 19.25ZM5.5 19.25C5.5 19.9404 6.05964 20.5 6.75 20.5H17.25C17.9404 20.5 18.5 19.9404 18.5 19.25V10.0781C18.4999 9.74673 18.3682 9.42869 18.1338 9.19434L12.8057 3.86621C12.5713 3.63183 12.2533 3.50007 11.9219 3.5H6.75C6.05964 3.5 5.5 4.05964 5.5 4.75V19.25Z" fill="#403535"/>
<path d="M12 7.25V3.25H13.5V7.25C13.5 7.94036 14.0596 8.5 14.75 8.5H18.75V10H14.75C13.2312 10 12 8.76878 12 7.25Z" fill="#403535"/>
<path d="M12.25 12.5C12.6642 12.5 13 12.8358 13 13.25C13 13.6642 12.6642 14 12.25 14H8.75C8.33579 14 8 13.6642 8 13.25C8 12.8358 8.33579 12.5 8.75 12.5H12.25Z" fill="#403535"/>
<path d="M15.25 16.5C15.6642 16.5 16 16.8358 16 17.25C16 17.6642 15.6642 18 15.25 18H8.75C8.33579 18 8 17.6642 8 17.25C8 16.8358 8.33579 16.5 8.75 16.5H15.25Z" fill="#403535"/>
</svg>
