<svg width="24" height="24" viewBox="0 0 24 24" fill="none" xmlns="http://www.w3.org/2000/svg">
<path d="M18.5 12.7373C18.4176 12.7448 18.3343 12.75 18.25 12.75H12.75V19.5H17.25C17.9404 19.5 18.5 18.9404 18.5 18.25V12.7373ZM5.5 18.25C5.5 18.9404 6.05964 19.5 6.75 19.5H11.25V12.75H5.75C5.66574 12.75 5.58244 12.7448 5.5 12.7373V18.25ZM19.5 9.75C19.5 9.05964 18.9404 8.5 18.25 8.5H12.75V11.25H18.25C18.4788 11.25 18.6909 11.1889 18.874 11.083C19.2496 10.8657 19.5 10.4617 19.5 10V9.75ZM4.5 10C4.5 10.4617 4.75039 10.8657 5.12598 11.083C5.309 11.1889 5.52116 11.25 5.75 11.25H11.25V8.5H5.75C5.05964 8.5 4.5 9.05964 4.5 9.75V10ZM16.25 4.41699C16.25 3.91074 15.8393 3.5 15.333 3.5C13.9066 3.50016 12.7502 4.65652 12.75 6.08301V7H13.667C15.0934 6.99984 16.2498 5.84348 16.25 4.41699ZM7.75 4.41699C7.75017 5.84349 8.90655 6.99984 10.333 7H11.25V6.08301C11.2498 4.65653 10.0935 3.50017 8.66699 3.5C8.16073 3.5 7.75 3.91073 7.75 4.41699ZM17.75 4.41699C17.7499 5.39719 17.4039 6.29623 16.8281 7H18.25C19.7688 7 21 8.23122 21 9.75V10C21 10.8542 20.6092 11.6155 20 12.1191V18.25C20 19.7688 18.7688 21 17.25 21H6.75C5.23122 21 4 19.7688 4 18.25V12.1191C3.39078 11.6155 3 10.8542 3 10V9.75C3 8.23122 4.23122 7 5.75 7H7.17188C6.59611 6.29623 6.25008 5.39719 6.25 4.41699C6.25 3.0823 7.3323 2 8.66699 2C10.0438 2.00011 11.2604 2.68244 12 3.72656C12.7396 2.68243 13.9562 2.0001 15.333 2C16.6677 2 17.75 3.08229 17.75 4.41699Z" fill="#403535"/>
</svg>
