<svg width="24" height="24" viewBox="0 0 24 24" fill="none" xmlns="http://www.w3.org/2000/svg">
<path d="M20.4961 10.5H3.5V17.2461C3.5 17.9365 4.05964 18.4961 4.75 18.4961H19.2461C19.9365 18.4961 20.4961 17.9365 20.4961 17.2461V10.5ZM9.75 12.5C10.1642 12.5 10.5 12.8358 10.5 13.25C10.5 13.6642 10.1642 14 9.75 14H6.75C6.33579 14 6 13.6642 6 13.25C6 12.8358 6.33579 12.5 6.75 12.5H9.75ZM21.9961 17.2461C21.9961 18.7649 20.7649 19.9961 19.2461 19.9961H4.75C3.23122 19.9961 2 18.7649 2 17.2461V6.75293C2 5.23415 3.23122 4.00293 4.75 4.00293H19.248C20.7632 4.00296 21.9946 5.2291 21.9961 6.74609V17.2461ZM3.5 9H20.4961C20.4961 8.24916 20.4966 7.49864 20.4961 6.74805C20.4955 6.06066 19.9373 5.50296 19.248 5.50293H4.75C4.05964 5.50293 3.5 6.06257 3.5 6.75293V9Z" fill="#403535"/>
</svg>
