<svg width="895" height="895" viewBox="0 0 895 895" fill="none" xmlns="http://www.w3.org/2000/svg">
<path d="M447.122 178.847L473.414 152.544L447.122 126.24V178.847Z" fill="#511A1E"/>
<path d="M420.819 152.544L447.123 178.847V126.24" fill="#471014"/>
<path d="M536.545 89.4235L510.241 63.1196L483.937 89.4235H536.545Z" fill="#420B0F"/>
<path d="M510.241 115.728L536.545 89.4238H483.937" fill="#4D161A"/>
<path d="M383.991 115.716L447.123 89.4238L420.819 152.544L383.991 115.716Z" fill="#481115"/>
<path d="M510.242 63.12L447.122 89.4239L473.414 26.304L510.242 63.12Z" fill="#471014"/>
<path d="M473.414 152.544L447.122 89.4238L510.242 115.728L473.414 152.544Z" fill="#511A1E"/>
<path d="M420.819 26.304L447.123 89.4239L383.991 63.12L420.819 26.304Z" fill="#3E070B"/>
<path d="M410.294 89.4235L383.99 63.1196L357.698 89.4235H410.294Z" fill="#420B0F"/>
<path d="M383.99 115.716L410.294 89.4238H357.698" fill="#541D21"/>
<path d="M447.122 52.596L473.414 26.3038L447.122 0V52.596Z" fill="#511A1E"/>
<path d="M420.819 26.3038L447.123 52.596V0" fill="#3E070B"/>
<path d="M447.122 89.4239V52.5961L473.414 26.304L447.122 89.4239Z" fill="#420B0F"/>
<path d="M447.123 89.4239L420.819 26.304L447.123 52.5961V89.4239Z" fill="#4F181C"/>
<path d="M447.123 89.4235H410.295L383.991 63.1196L447.123 89.4235Z" fill="#4D161A"/>
<path d="M447.123 89.4238L383.991 115.716L410.295 89.4238H447.123Z" fill="#3E070B"/>
<path d="M447.122 89.4235H483.938L510.242 63.1196L447.122 89.4235Z" fill="#541D21"/>
<path d="M447.122 89.4238L510.242 115.728L483.938 89.4238H447.122Z" fill="#481115"/>
<path d="M447.122 89.4238V126.24L473.414 152.544L447.122 89.4238Z" fill="#4B1418"/>
<path d="M447.123 89.4238L420.819 152.544L447.123 126.24V89.4238Z" fill="#541D21"/>
<path d="M536.544 268.271L562.836 241.967L536.544 215.663V268.271Z" fill="#511A1E"/>
<path d="M510.24 241.967L536.544 268.271V215.663" fill="#471014"/>
<path d="M625.954 178.847L599.662 152.543L573.358 178.847H625.954Z" fill="#420B0F"/>
<path d="M599.662 205.14L625.954 178.847H573.358" fill="#4D161A"/>
<path d="M473.412 205.14L536.544 178.847L510.24 241.967L473.412 205.14Z" fill="#481115"/>
<path d="M599.663 152.543L536.543 178.847L562.835 115.716L599.663 152.543Z" fill="#471014"/>
<path d="M562.835 241.967L536.543 178.847L599.663 205.14L562.835 241.967Z" fill="#511A1E"/>
<path d="M510.24 115.727L536.544 178.847L473.412 152.543L510.24 115.727Z" fill="#3E070B"/>
<path d="M499.715 178.847L473.411 152.543L447.119 178.847H499.715Z" fill="#420B0F"/>
<path d="M473.411 205.14L499.715 178.847H447.119" fill="#541D21"/>
<path d="M536.543 142.02L562.835 115.716L536.543 89.4236V142.02Z" fill="#511A1E"/>
<path d="M510.24 115.727L536.544 142.02V89.4236" fill="#3E070B"/>
<path d="M536.543 178.847V142.019L562.835 115.716L536.543 178.847Z" fill="#420B0F"/>
<path d="M536.544 178.847L510.24 115.727L536.544 142.019V178.847Z" fill="#4F181C"/>
<path d="M536.544 178.847H499.716L473.412 152.543L536.544 178.847Z" fill="#4D161A"/>
<path d="M536.544 178.847L473.412 205.14L499.716 178.847H536.544Z" fill="#3E070B"/>
<path d="M536.543 178.847H573.359L599.663 152.543L536.543 178.847Z" fill="#541D21"/>
<path d="M536.543 178.847L599.663 205.14L573.359 178.847H536.543Z" fill="#481115"/>
<path d="M536.543 178.847V215.663L562.835 241.967L536.543 178.847Z" fill="#4B1418"/>
<path d="M536.544 178.847L510.24 241.967L536.544 215.663V178.847Z" fill="#541D21"/>
<path d="M625.955 357.695L652.259 331.391L625.967 305.087L625.955 357.695Z" fill="#511A1E"/>
<path d="M599.664 331.391L625.957 357.695L625.968 305.087" fill="#471014"/>
<path d="M715.378 268.271L689.086 241.967L662.783 268.271H715.378Z" fill="#420B0F"/>
<path d="M689.086 294.564L715.378 268.271H662.783" fill="#4D161A"/>
<path d="M562.837 294.564L625.956 268.271L599.664 331.391L562.837 294.564Z" fill="#481115"/>
<path d="M689.086 241.967L625.955 268.271L652.259 205.139L689.086 241.967Z" fill="#471014"/>
<path d="M652.259 331.391L625.955 268.271L689.086 294.564L652.259 331.391Z" fill="#511A1E"/>
<path d="M599.664 205.139L625.956 268.271L562.837 241.967L599.664 205.139Z" fill="#3E070B"/>
<path d="M589.14 268.271L562.836 241.967L536.544 268.271H589.14Z" fill="#420B0F"/>
<path d="M562.836 294.564L589.14 268.271H536.544" fill="#541D21"/>
<path d="M625.955 231.443L652.259 205.14L625.955 178.847V231.443Z" fill="#511A1E"/>
<path d="M599.664 205.14L625.957 231.443V178.847" fill="#3E070B"/>
<path d="M625.955 268.271V231.443L652.259 205.139L625.955 268.271Z" fill="#420B0F"/>
<path d="M625.957 268.271L599.664 205.139L625.957 231.443V268.271Z" fill="#4F181C"/>
<path d="M625.956 268.271H589.14L562.837 241.967L625.956 268.271Z" fill="#4D161A"/>
<path d="M625.956 268.271L562.837 294.564L589.14 268.271H625.956Z" fill="#3E070B"/>
<path d="M625.955 268.271H662.783L689.086 241.967L625.955 268.271Z" fill="#541D21"/>
<path d="M625.955 268.271L689.086 294.564L662.783 268.271H625.955Z" fill="#481115"/>
<path d="M625.955 268.271L625.967 305.088L652.259 331.391L625.955 268.271Z" fill="#4B1418"/>
<path d="M625.957 268.271L599.664 331.391L625.968 305.088L625.957 268.271Z" fill="#541D21"/>
<path d="M715.381 447.119L741.685 420.815L715.381 394.511V447.119Z" fill="#511A1E"/>
<path d="M689.088 420.815L715.38 447.119V394.511" fill="#471014"/>
<path d="M804.805 357.695L778.513 331.391L752.209 357.695H804.805Z" fill="#420B0F"/>
<path d="M778.513 383.987L804.805 357.695H752.209" fill="#4D161A"/>
<path d="M652.26 383.987L715.38 357.695L689.088 420.815L652.26 383.987Z" fill="#481115"/>
<path d="M778.512 331.391L715.381 357.695L741.685 294.563L778.512 331.391Z" fill="#471014"/>
<path d="M741.685 420.815L715.381 357.695L778.512 383.987L741.685 420.815Z" fill="#511A1E"/>
<path d="M689.088 294.563L715.38 357.695L652.26 331.391L689.088 294.563Z" fill="#3E070B"/>
<path d="M678.564 357.695L652.261 331.391L625.957 357.695H678.564Z" fill="#420B0F"/>
<path d="M652.261 383.987L678.564 357.695H625.957" fill="#541D21"/>
<path d="M715.381 320.867L741.685 294.564L715.381 268.271V320.867Z" fill="#511A1E"/>
<path d="M689.088 294.564L715.38 320.867V268.271" fill="#3E070B"/>
<path d="M715.381 357.695V320.867L741.685 294.563L715.381 357.695Z" fill="#420B0F"/>
<path d="M715.38 357.695L689.088 294.563L715.38 320.867V357.695Z" fill="#4F181C"/>
<path d="M715.38 357.695H678.564L652.26 331.391L715.38 357.695Z" fill="#4D161A"/>
<path d="M715.38 357.695L652.26 383.987L678.564 357.695H715.38Z" fill="#3E070B"/>
<path d="M715.381 357.695H752.209L778.512 331.391L715.381 357.695Z" fill="#541D21"/>
<path d="M715.381 357.695L778.512 383.987L752.209 357.695H715.393H715.381Z" fill="#481115"/>
<path d="M715.381 357.695V394.511L741.685 420.815L715.381 357.695Z" fill="#4B1418"/>
<path d="M715.38 357.695L689.088 420.815L715.38 394.511V357.695Z" fill="#541D21"/>
<path d="M804.806 536.543L831.109 510.239L804.806 483.935V536.543Z" fill="#511A1E"/>
<path d="M778.513 510.239L804.805 536.543V483.935" fill="#471014"/>
<path d="M894.229 447.119L867.937 420.815L841.633 447.119H894.229Z" fill="#420B0F"/>
<path d="M867.937 473.411L894.229 447.119H841.633" fill="#4D161A"/>
<path d="M741.685 473.411L804.805 447.119L778.513 510.239L741.685 473.411Z" fill="#481115"/>
<path d="M867.937 420.815L804.806 447.119L831.109 383.987L867.937 420.815Z" fill="#471014"/>
<path d="M831.109 510.239L804.806 447.119L867.937 473.411L831.109 510.239Z" fill="#511A1E"/>
<path d="M778.513 383.987L804.805 447.119L741.685 420.815L778.513 383.987Z" fill="#3E070B"/>
<path d="M767.989 447.119L741.685 420.815L715.381 447.119H767.989Z" fill="#420B0F"/>
<path d="M741.685 473.411L767.989 447.119H715.381" fill="#541D21"/>
<path d="M804.806 410.291L831.109 383.987L804.806 357.695V410.291Z" fill="#511A1E"/>
<path d="M778.513 383.987L804.805 410.291V357.695" fill="#3E070B"/>
<path d="M804.806 447.119V410.291L831.109 383.987L804.806 447.119Z" fill="#420B0F"/>
<path d="M804.805 447.119L778.513 383.987L804.805 410.291V447.107V447.119Z" fill="#4F181C"/>
<path d="M804.805 447.119H767.989L741.685 420.815L804.805 447.119Z" fill="#4D161A"/>
<path d="M804.805 447.119L741.685 473.411L767.989 447.119H804.805Z" fill="#3E070B"/>
<path d="M804.806 447.119H841.633L867.937 420.815L804.806 447.119Z" fill="#541D21"/>
<path d="M804.806 447.119L867.937 473.411L841.633 447.119H804.817H804.806Z" fill="#481115"/>
<path d="M804.806 447.119V483.935L831.109 510.239L804.806 447.119Z" fill="#4B1418"/>
<path d="M804.805 447.119L778.513 510.239L804.805 483.935V447.119Z" fill="#541D21"/>
<path d="M357.698 268.271L383.99 241.967L357.698 215.663V268.271Z" fill="#511A1E"/>
<path d="M331.395 241.967L357.699 268.271V215.663" fill="#471014"/>
<path d="M447.121 178.847L420.817 152.543L394.513 178.847H447.121Z" fill="#420B0F"/>
<path d="M420.817 205.14L447.121 178.847H394.513" fill="#4D161A"/>
<path d="M294.567 205.14L357.699 178.847L331.395 241.967L294.567 205.14Z" fill="#481115"/>
<path d="M420.818 152.543L357.698 178.847L383.99 115.727L420.818 152.543Z" fill="#471014"/>
<path d="M383.99 241.967L357.698 178.847L420.818 205.14L383.99 241.967Z" fill="#511A1E"/>
<path d="M331.395 115.727L357.699 178.847L294.567 152.543L331.395 115.727Z" fill="#3E070B"/>
<path d="M320.87 178.847L294.566 152.543L268.274 178.847H320.87Z" fill="#420B0F"/>
<path d="M294.566 205.14L320.87 178.847H268.274" fill="#541D21"/>
<path d="M357.698 142.02L383.99 115.716L357.698 89.4238V142.02Z" fill="#511A1E"/>
<path d="M331.395 115.728L357.699 142.02V89.4238" fill="#3E070B"/>
<path d="M357.698 178.847V142.02L383.99 115.716L357.698 178.847Z" fill="#420B0F"/>
<path d="M357.699 178.847L331.395 115.727L357.699 142.019V178.847Z" fill="#4F181C"/>
<path d="M357.697 178.847H320.869L294.577 152.543L357.697 178.847Z" fill="#4D161A"/>
<path d="M357.699 178.847L294.567 205.14L320.871 178.847H357.699Z" fill="#3E070B"/>
<path d="M357.698 178.847H394.514L420.818 152.543L357.698 178.847Z" fill="#541D21"/>
<path d="M357.698 178.847L420.818 205.14L394.514 178.847H357.698Z" fill="#481115"/>
<path d="M357.698 178.847V215.663L383.99 241.967L357.698 178.847Z" fill="#4B1418"/>
<path d="M357.699 178.847L331.395 241.967L357.699 215.663V178.847Z" fill="#541D21"/>
<path d="M447.122 357.695L473.414 331.391L447.122 305.087V357.695Z" fill="#511A1E"/>
<path d="M420.819 331.391L447.123 357.695V305.087" fill="#471014"/>
<path d="M536.545 268.271L510.241 241.967L483.937 268.271H536.545Z" fill="#420B0F"/>
<path d="M510.241 294.564L536.545 268.271H483.937" fill="#4D161A"/>
<path d="M383.991 294.564L447.123 268.271L420.819 331.391L383.991 294.564Z" fill="#481115"/>
<path d="M510.242 241.967L447.122 268.271L473.414 205.151L510.242 241.967Z" fill="#471014"/>
<path d="M473.414 331.391L447.122 268.271L510.242 294.564L473.414 331.391Z" fill="#511A1E"/>
<path d="M420.819 205.139L447.123 268.271L383.991 241.967L420.819 205.139Z" fill="#3E070B"/>
<path d="M410.294 268.271L383.99 241.967L357.698 268.271H410.294Z" fill="#420B0F"/>
<path d="M383.99 294.564L410.294 268.271H357.698" fill="#541D21"/>
<path d="M447.122 231.443L473.414 205.14L447.122 178.847V231.443Z" fill="#511A1E"/>
<path d="M420.819 205.14L447.123 231.443V178.847" fill="#3E070B"/>
<path d="M447.122 268.271V231.443L473.414 205.139L447.122 268.271Z" fill="#420B0F"/>
<path d="M447.123 268.271L420.819 205.139L447.123 231.443V268.271Z" fill="#4F181C"/>
<path d="M447.123 268.271H410.295L383.991 241.967L447.123 268.271Z" fill="#4D161A"/>
<path d="M447.123 268.271L383.991 294.564L410.295 268.271H447.123Z" fill="#3E070B"/>
<path d="M447.122 268.271H483.938L510.242 241.967L447.122 268.271Z" fill="#541D21"/>
<path d="M447.122 268.271L510.242 294.564L483.938 268.271H447.122Z" fill="#481115"/>
<path d="M447.122 268.271V305.088L473.414 331.391L447.122 268.271Z" fill="#4B1418"/>
<path d="M447.123 268.271L420.819 331.391L447.123 305.088V268.271Z" fill="#541D21"/>
<path d="M536.544 447.119L562.836 420.815L536.544 394.511V447.119Z" fill="#511A1E"/>
<path d="M510.24 420.815L536.544 447.119V394.511" fill="#471014"/>
<path d="M625.954 357.695L599.662 331.391L573.358 357.695H625.954Z" fill="#420B0F"/>
<path d="M599.662 383.987L625.954 357.695H573.358" fill="#4D161A"/>
<path d="M473.412 383.987L536.544 357.695L510.24 420.815L473.412 383.987Z" fill="#481115"/>
<path d="M599.651 331.391L536.543 357.695L562.835 294.575L599.651 331.391Z" fill="#471014"/>
<path d="M562.835 420.815L536.543 357.695L599.663 383.987L562.835 420.815Z" fill="#511A1E"/>
<path d="M510.24 294.563L536.544 357.695L473.412 331.391L510.24 294.563Z" fill="#3E070B"/>
<path d="M499.715 357.695L473.411 331.391L447.119 357.695H499.715Z" fill="#420B0F"/>
<path d="M473.411 383.987L499.715 357.695H447.119" fill="#541D21"/>
<path d="M536.543 320.867L562.835 294.564L536.543 268.271V320.867Z" fill="#511A1E"/>
<path d="M510.24 294.564L536.544 320.867V268.271" fill="#3E070B"/>
<path d="M536.543 357.695V320.867L562.835 294.563L536.543 357.695Z" fill="#420B0F"/>
<path d="M536.544 357.695L510.24 294.563L536.544 320.867V357.695Z" fill="#4F181C"/>
<path d="M536.544 357.695H499.716L473.412 331.391L536.544 357.695Z" fill="#4D161A"/>
<path d="M536.544 357.695L473.412 383.987L499.716 357.695H536.544Z" fill="#3E070B"/>
<path d="M536.543 357.695H573.359L599.663 331.391L536.543 357.695Z" fill="#541D21"/>
<path d="M536.543 357.695L599.663 383.987L573.359 357.695H536.543Z" fill="#481115"/>
<path d="M536.543 357.695V394.511L562.835 420.815L536.543 357.695Z" fill="#4B1418"/>
<path d="M536.544 357.695L510.24 420.815L536.544 394.511V357.695Z" fill="#541D21"/>
<path d="M625.955 536.543L652.259 510.239L625.955 483.935V536.543Z" fill="#511A1E"/>
<path d="M599.664 510.239L625.957 536.543V483.935" fill="#471014"/>
<path d="M715.378 447.119L689.086 420.815L662.783 447.119H715.378Z" fill="#420B0F"/>
<path d="M689.086 473.411L715.378 447.119H662.783" fill="#4D161A"/>
<path d="M562.837 473.411L625.956 447.119L599.664 510.239L562.837 473.411Z" fill="#481115"/>
<path d="M689.075 420.815L625.955 447.118L652.259 383.999L689.075 420.815Z" fill="#471014"/>
<path d="M652.259 510.239L625.955 447.119L689.086 473.411L652.259 510.239Z" fill="#511A1E"/>
<path d="M599.664 383.987L625.956 447.119L562.837 420.815L599.664 383.987Z" fill="#3E070B"/>
<path d="M589.14 447.119L562.836 420.815L536.544 447.119H589.14Z" fill="#420B0F"/>
<path d="M562.836 473.411L589.14 447.119H536.544" fill="#541D21"/>
<path d="M625.955 410.291L652.259 383.987L625.955 357.695V410.291Z" fill="#511A1E"/>
<path d="M599.664 383.987L625.957 410.291V357.695" fill="#3E070B"/>
<path d="M625.955 447.119V410.291L652.259 383.987L625.955 447.119Z" fill="#420B0F"/>
<path d="M625.957 447.119L599.664 383.987L625.957 410.291V447.107V447.119Z" fill="#4F181C"/>
<path d="M625.956 447.119H589.14L562.837 420.815L625.956 447.119Z" fill="#4D161A"/>
<path d="M625.956 447.119L562.837 473.411L589.14 447.119H625.956Z" fill="#3E070B"/>
<path d="M625.955 447.119H662.783L689.086 420.815L625.955 447.119Z" fill="#541D21"/>
<path d="M625.955 447.119L689.086 473.411L662.783 447.119H625.967H625.955Z" fill="#481115"/>
<path d="M625.955 447.119V483.935L652.259 510.239L625.955 447.119Z" fill="#4B1418"/>
<path d="M625.957 447.119L599.664 510.239L625.957 483.935V447.119Z" fill="#541D21"/>
<path d="M715.381 625.954L741.685 599.662L715.381 573.358V625.954Z" fill="#511A1E"/>
<path d="M689.088 599.662L715.38 625.954V573.358" fill="#471014"/>
<path d="M804.805 536.543L778.513 510.239L752.209 536.543H804.805Z" fill="#420B0F"/>
<path d="M778.513 562.835L804.805 536.543H752.209" fill="#4D161A"/>
<path d="M652.26 562.835L715.38 536.543L689.088 599.663L652.26 562.835Z" fill="#481115"/>
<path d="M778.501 510.239L715.381 536.543L741.685 473.423L778.501 510.239Z" fill="#471014"/>
<path d="M741.685 599.663L715.381 536.543L778.512 562.835L741.685 599.663Z" fill="#511A1E"/>
<path d="M689.088 473.411L715.38 536.543L652.26 510.239L689.088 473.411Z" fill="#3E070B"/>
<path d="M678.564 536.543L652.261 510.239L625.957 536.543H678.564Z" fill="#420B0F"/>
<path d="M652.261 562.835L678.564 536.543H625.957" fill="#541D21"/>
<path d="M715.381 499.715L741.685 473.411L715.381 447.119V499.715Z" fill="#511A1E"/>
<path d="M689.088 473.411L715.38 499.715V447.119" fill="#3E070B"/>
<path d="M715.381 536.543V499.715L741.685 473.411L715.381 536.543Z" fill="#420B0F"/>
<path d="M715.38 536.543L689.088 473.411L715.38 499.715V536.531V536.543Z" fill="#4F181C"/>
<path d="M715.38 536.543H678.564L652.26 510.239L715.38 536.543Z" fill="#4D161A"/>
<path d="M715.38 536.543L652.26 562.835L678.564 536.543H715.38Z" fill="#3E070B"/>
<path d="M715.381 536.543H752.209L778.512 510.239L715.381 536.543Z" fill="#541D21"/>
<path d="M715.381 536.543L778.512 562.835L752.209 536.543H715.393H715.381Z" fill="#481115"/>
<path d="M715.381 536.543V573.359L741.685 599.663L715.381 536.543Z" fill="#4B1418"/>
<path d="M715.38 536.543L689.088 599.663L715.38 573.359V536.543Z" fill="#541D21"/>
<path d="M268.274 357.695L294.578 331.391L268.274 305.087V357.695Z" fill="#511A1E"/>
<path d="M241.97 331.391L268.274 357.695V305.087" fill="#471014"/>
<path d="M357.696 268.271L331.392 241.967L305.089 268.271H357.696Z" fill="#420B0F"/>
<path d="M331.392 294.575L357.696 268.271H305.089" fill="#4D161A"/>
<path d="M205.142 294.564L268.274 268.271L241.97 331.391L205.142 294.564Z" fill="#481115"/>
<path d="M331.393 241.968L268.273 268.271L294.565 205.152L331.393 241.968Z" fill="#471014"/>
<path d="M294.577 331.391L268.273 268.271L331.393 294.575L294.577 331.391Z" fill="#511A1E"/>
<path d="M241.969 205.152L268.272 268.271L205.152 241.968L241.969 205.152Z" fill="#3E070B"/>
<path d="M231.445 268.271L205.153 241.968L178.849 268.271H231.445Z" fill="#420B0F"/>
<path d="M205.141 294.564L231.445 268.271H178.849" fill="#541D21"/>
<path d="M268.273 231.444L294.565 205.14L268.273 178.848V231.444Z" fill="#511A1E"/>
<path d="M241.97 205.152L268.274 231.444V178.848" fill="#3E070B"/>
<path d="M268.273 268.271V231.443L294.565 205.14L268.273 268.271Z" fill="#420B0F"/>
<path d="M268.274 268.271L241.97 205.152L268.274 231.444V268.271Z" fill="#4F181C"/>
<path d="M268.272 268.271H231.445L205.152 241.968L268.272 268.271Z" fill="#4D161A"/>
<path d="M268.274 268.271L205.142 294.564L231.446 268.271H268.274Z" fill="#3E070B"/>
<path d="M268.273 268.271H305.089L331.393 241.968L268.273 268.271Z" fill="#541D21"/>
<path d="M268.273 268.271L331.393 294.575L305.089 268.271H268.273Z" fill="#481115"/>
<path d="M268.273 268.271V305.088L294.577 331.391L268.273 268.271Z" fill="#4B1418"/>
<path d="M268.274 268.271L241.97 331.391L268.274 305.088V268.271Z" fill="#541D21"/>
<path d="M357.698 447.119L383.99 420.815L357.698 394.511V447.119Z" fill="#511A1E"/>
<path d="M331.395 420.815L357.699 447.119V394.511" fill="#471014"/>
<path d="M447.121 357.695L420.817 331.391L394.513 357.695H447.121Z" fill="#420B0F"/>
<path d="M420.817 383.987L447.121 357.695H394.513" fill="#4D161A"/>
<path d="M294.567 383.987L357.699 357.695L331.395 420.815L294.567 383.987Z" fill="#481115"/>
<path d="M420.818 331.391L357.698 357.695L383.99 294.575L420.818 331.391Z" fill="#471014"/>
<path d="M383.99 420.815L357.698 357.695L420.818 383.987L383.99 420.815Z" fill="#511A1E"/>
<path d="M331.393 294.575L357.697 357.695L294.577 331.391L331.393 294.575Z" fill="#3E070B"/>
<path d="M320.87 357.695L294.578 331.391L268.274 357.695H320.87Z" fill="#420B0F"/>
<path d="M294.566 383.987L320.87 357.695H268.274" fill="#541D21"/>
<path d="M357.698 320.867L383.99 294.564L357.698 268.271V320.867Z" fill="#511A1E"/>
<path d="M331.395 294.575L357.699 320.867V268.271" fill="#3E070B"/>
<path d="M357.698 357.695V320.867L383.99 294.563L357.698 357.695Z" fill="#420B0F"/>
<path d="M357.699 357.695L331.395 294.575L357.699 320.867V357.695Z" fill="#4F181C"/>
<path d="M357.697 357.695H320.869L294.577 331.391L357.697 357.695Z" fill="#4D161A"/>
<path d="M357.699 357.695L294.567 383.987L320.871 357.695H357.699Z" fill="#3E070B"/>
<path d="M357.698 357.695H394.514L420.818 331.391L357.698 357.695Z" fill="#541D21"/>
<path d="M357.698 357.695L420.818 383.987L394.514 357.695H357.698Z" fill="#481115"/>
<path d="M357.698 357.695V394.511L383.99 420.815L357.698 357.695Z" fill="#4B1418"/>
<path d="M357.699 357.695L331.395 420.815L357.699 394.511V357.695Z" fill="#541D21"/>
<path d="M447.122 536.543L473.414 510.239L447.122 483.935V536.543Z" fill="#511A1E"/>
<path d="M420.819 510.239L447.123 536.543V483.935" fill="#471014"/>
<path d="M536.545 447.119L510.241 420.815L483.937 447.119H536.545Z" fill="#420B0F"/>
<path d="M510.241 473.411L536.545 447.119H483.937" fill="#4D161A"/>
<path d="M383.991 473.411L447.123 447.119L420.819 510.239L383.991 473.411Z" fill="#481115"/>
<path d="M510.242 420.815L447.122 447.118L473.414 383.999L510.242 420.815Z" fill="#471014"/>
<path d="M473.414 510.239L447.122 447.119L510.242 473.411L473.414 510.239Z" fill="#511A1E"/>
<path d="M420.819 383.987L447.123 447.119L383.991 420.815L420.819 383.987Z" fill="#3E070B"/>
<path d="M410.294 447.119L384.002 420.815L357.698 447.119H410.294Z" fill="#420B0F"/>
<path d="M383.99 473.411L410.294 447.119H357.698" fill="#541D21"/>
<path d="M447.122 410.291L473.414 383.987L447.122 357.695V410.291Z" fill="#511A1E"/>
<path d="M420.819 383.999L447.123 410.291V357.695" fill="#3E070B"/>
<path d="M447.122 447.119V410.291L473.414 383.987L447.122 447.119Z" fill="#420B0F"/>
<path d="M447.123 447.119L420.819 383.987L447.123 410.291V447.119Z" fill="#4F181C"/>
<path d="M447.123 447.119H410.295L383.991 420.815L447.123 447.119Z" fill="#4D161A"/>
<path d="M447.123 447.119L383.991 473.411L410.295 447.119H447.123Z" fill="#3E070B"/>
<path d="M447.122 447.119H483.938L510.242 420.815L447.122 447.119Z" fill="#541D21"/>
<path d="M447.122 447.119L510.242 473.411L483.938 447.119H447.122Z" fill="#481115"/>
<path d="M447.122 447.119V483.935L473.414 510.239L447.122 447.119Z" fill="#4B1418"/>
<path d="M447.123 447.119L420.819 510.239L447.123 483.935V447.119Z" fill="#541D21"/>
<path d="M536.544 625.954L562.836 599.662L536.544 573.358V625.954Z" fill="#511A1E"/>
<path d="M510.24 599.662L536.544 625.954V573.358" fill="#471014"/>
<path d="M625.954 536.543L599.662 510.239L573.358 536.543H625.954Z" fill="#420B0F"/>
<path d="M599.662 562.835L625.954 536.543H573.358" fill="#4D161A"/>
<path d="M473.412 562.835L536.544 536.543L510.24 599.663L473.412 562.835Z" fill="#481115"/>
<path d="M599.651 510.239L536.543 536.543L562.835 473.423L599.651 510.239Z" fill="#471014"/>
<path d="M562.835 599.663L536.543 536.543L599.663 562.835L562.835 599.663Z" fill="#511A1E"/>
<path d="M510.24 473.411L536.544 536.543L473.412 510.239L510.24 473.411Z" fill="#3E070B"/>
<path d="M499.715 536.543L473.411 510.239L447.119 536.543H499.715Z" fill="#420B0F"/>
<path d="M473.411 562.835L499.715 536.543H447.119" fill="#541D21"/>
<path d="M536.543 499.715L562.835 473.411L536.543 447.119V499.715Z" fill="#511A1E"/>
<path d="M510.24 473.411L536.544 499.715V447.119" fill="#3E070B"/>
<path d="M536.543 536.543V499.715L562.835 473.411L536.543 536.543Z" fill="#420B0F"/>
<path d="M536.544 536.543L510.24 473.411L536.544 499.715V536.543Z" fill="#4F181C"/>
<path d="M536.544 536.543H499.716L473.412 510.239L536.544 536.543Z" fill="#4D161A"/>
<path d="M536.544 536.543L473.412 562.835L499.716 536.543H536.544Z" fill="#3E070B"/>
<path d="M536.543 536.543H573.359L599.663 510.239L536.543 536.543Z" fill="#541D21"/>
<path d="M536.543 536.543L599.663 562.835L573.359 536.543H536.543Z" fill="#481115"/>
<path d="M536.543 536.543V573.359L562.835 599.663L536.543 536.543Z" fill="#4B1418"/>
<path d="M536.544 536.543L510.24 599.663L536.544 573.359V536.543Z" fill="#541D21"/>
<path d="M625.955 715.378L652.259 689.086L625.955 662.782V715.378Z" fill="#511A1E"/>
<path d="M599.664 689.086L625.957 715.378V662.782" fill="#471014"/>
<path d="M715.378 625.954L689.086 599.662L662.783 625.954H715.378Z" fill="#420B0F"/>
<path d="M689.086 652.258L715.378 625.955H662.783" fill="#4D161A"/>
<path d="M562.837 652.258L625.956 625.966L599.664 689.086L562.837 652.258Z" fill="#481115"/>
<path d="M689.075 599.663L625.955 625.967L652.259 562.847L689.075 599.663Z" fill="#471014"/>
<path d="M652.259 689.086L625.955 625.966L689.086 652.258L652.259 689.086Z" fill="#511A1E"/>
<path d="M599.664 562.835L625.956 625.967L562.837 599.663L599.664 562.835Z" fill="#3E070B"/>
<path d="M589.14 625.954L562.836 599.662L536.544 625.954H589.14Z" fill="#420B0F"/>
<path d="M562.836 652.258L589.14 625.955H536.544" fill="#541D21"/>
<path d="M625.955 589.138L652.259 562.835L625.955 536.542V589.138Z" fill="#511A1E"/>
<path d="M599.664 562.835L625.957 589.138V536.542" fill="#3E070B"/>
<path d="M625.955 625.967V589.139L652.259 562.835L625.955 625.967Z" fill="#420B0F"/>
<path d="M625.957 625.967L599.664 562.835L625.957 589.139V625.955V625.967Z" fill="#4F181C"/>
<path d="M625.956 625.966L589.14 625.954L562.837 599.662L625.956 625.966Z" fill="#4D161A"/>
<path d="M625.956 625.966L562.837 652.258L589.14 625.955H625.956V625.966Z" fill="#3E070B"/>
<path d="M625.955 625.966L662.783 625.954L689.086 599.662L625.955 625.966Z" fill="#541D21"/>
<path d="M625.955 625.966L689.086 652.258L662.783 625.955H625.967L625.955 625.966Z" fill="#481115"/>
<path d="M625.955 625.966V662.782L652.259 689.086L625.955 625.966Z" fill="#4B1418"/>
<path d="M625.957 625.966L599.664 689.086L625.957 662.782V625.966Z" fill="#541D21"/>
<path d="M178.849 447.119L205.142 420.815L178.849 394.511V447.119Z" fill="#511A1E"/>
<path d="M152.546 420.815L178.85 447.119V394.511" fill="#471014"/>
<path d="M268.272 357.695L241.968 331.391L215.664 357.695H268.272Z" fill="#420B0F"/>
<path d="M241.968 383.987L268.272 357.695H215.664" fill="#4D161A"/>
<path d="M115.718 383.987L178.849 357.695L152.545 420.815L115.718 383.987Z" fill="#481115"/>
<path d="M241.969 331.391L178.849 357.695L205.141 294.575L241.969 331.391Z" fill="#471014"/>
<path d="M205.141 420.815L178.849 357.695L241.969 383.987L205.141 420.815Z" fill="#511A1E"/>
<path d="M152.544 294.575L178.848 357.695L115.728 331.391L152.544 294.575Z" fill="#3E070B"/>
<path d="M142.021 357.695L115.728 331.391L89.4246 357.695H142.021Z" fill="#420B0F"/>
<path d="M115.717 383.987L142.021 357.695H89.4246" fill="#541D21"/>
<path d="M178.849 320.867L205.141 294.564L178.849 268.271V320.867Z" fill="#511A1E"/>
<path d="M152.545 294.575L178.849 320.867V268.271" fill="#3E070B"/>
<path d="M178.849 357.695V320.867L205.141 294.563L178.849 357.695Z" fill="#420B0F"/>
<path d="M178.849 357.695L152.545 294.575L178.849 320.867V357.695Z" fill="#4F181C"/>
<path d="M178.848 357.695H142.02L115.728 331.391L178.848 357.695Z" fill="#4D161A"/>
<path d="M178.849 357.695L115.718 383.987L142.021 357.695H178.849Z" fill="#3E070B"/>
<path d="M178.849 357.695H215.665L241.969 331.391L178.849 357.695Z" fill="#541D21"/>
<path d="M178.849 357.695L241.969 383.999L215.665 357.695H178.849Z" fill="#481115"/>
<path d="M178.849 357.695V394.511L205.153 420.815L178.849 357.695Z" fill="#4B1418"/>
<path d="M178.849 357.695L152.545 420.815L178.849 394.511V357.695Z" fill="#541D21"/>
<path d="M268.274 536.543L294.566 510.239L268.274 483.935V536.543Z" fill="#511A1E"/>
<path d="M241.97 510.239L268.274 536.543V483.935" fill="#471014"/>
<path d="M357.696 447.119L331.392 420.815L305.089 447.119H357.696Z" fill="#420B0F"/>
<path d="M331.392 473.411L357.696 447.119H305.089" fill="#4D161A"/>
<path d="M205.142 473.411L268.274 447.119L241.97 510.239L205.142 473.411Z" fill="#481115"/>
<path d="M331.393 420.815L268.273 447.119L294.565 383.999L331.393 420.815Z" fill="#471014"/>
<path d="M294.565 510.239L268.273 447.119L331.393 473.411L294.565 510.239Z" fill="#511A1E"/>
<path d="M241.969 383.999L268.272 447.119L205.152 420.815L241.969 383.999Z" fill="#3E070B"/>
<path d="M231.445 447.119L205.153 420.815L178.849 447.119H231.445Z" fill="#420B0F"/>
<path d="M205.141 473.411L231.445 447.119H178.849" fill="#541D21"/>
<path d="M268.273 410.291L294.565 383.987L268.273 357.695V410.291Z" fill="#511A1E"/>
<path d="M241.97 383.999L268.274 410.291V357.695" fill="#3E070B"/>
<path d="M268.273 447.119V410.291L294.565 383.987L268.273 447.119Z" fill="#420B0F"/>
<path d="M268.274 447.119L241.97 383.999L268.274 410.291V447.119Z" fill="#4F181C"/>
<path d="M268.274 447.119H231.446L205.142 420.815L268.274 447.119Z" fill="#4D161A"/>
<path d="M268.274 447.119L205.142 473.411L231.446 447.119H268.274Z" fill="#3E070B"/>
<path d="M268.273 447.119H305.089L331.393 420.815L268.273 447.119Z" fill="#541D21"/>
<path d="M268.273 447.119L331.393 473.411L305.089 447.119H268.273Z" fill="#481115"/>
<path d="M268.273 447.119V483.935L294.565 510.239L268.273 447.119Z" fill="#4B1418"/>
<path d="M268.274 447.119L241.97 510.239L268.274 483.935V447.119Z" fill="#541D21"/>
<path d="M357.698 625.954L383.99 599.662L357.698 573.358V625.954Z" fill="#511A1E"/>
<path d="M331.395 599.662L357.699 625.954V573.358" fill="#471014"/>
<path d="M447.121 536.542L420.817 510.238L394.513 536.542H447.121Z" fill="#420B0F"/>
<path d="M420.817 562.835L447.121 536.542H394.513" fill="#4D161A"/>
<path d="M294.567 562.835L357.699 536.542L331.395 599.662L294.567 562.835Z" fill="#481115"/>
<path d="M420.818 510.238L357.698 536.542L383.99 473.422L420.818 510.238Z" fill="#471014"/>
<path d="M383.99 599.662L357.698 536.542L420.818 562.835L383.99 599.662Z" fill="#511A1E"/>
<path d="M331.395 473.411L357.699 536.542L294.567 510.238L331.395 473.411Z" fill="#3E070B"/>
<path d="M320.87 536.542L294.566 510.238L268.274 536.542H320.87Z" fill="#420B0F"/>
<path d="M294.566 562.835L320.87 536.542H268.274" fill="#541D21"/>
<path d="M357.698 499.715L383.99 473.411L357.698 447.119V499.715Z" fill="#511A1E"/>
<path d="M331.395 473.411L357.699 499.715V447.119" fill="#3E070B"/>
<path d="M357.698 536.542V499.715L383.99 473.411L357.698 536.542Z" fill="#420B0F"/>
<path d="M357.699 536.542L331.395 473.411L357.699 499.715V536.542Z" fill="#4F181C"/>
<path d="M357.699 536.542H320.871L294.567 510.238L357.699 536.542Z" fill="#4D161A"/>
<path d="M357.699 536.542L294.567 562.835L320.871 536.542H357.699Z" fill="#3E070B"/>
<path d="M357.698 536.542H394.514L420.818 510.238L357.698 536.542Z" fill="#541D21"/>
<path d="M357.698 536.542L420.818 562.835L394.514 536.542H357.698Z" fill="#481115"/>
<path d="M357.698 536.542V573.359L383.99 599.662L357.698 536.542Z" fill="#4B1418"/>
<path d="M357.699 536.542L331.395 599.662L357.699 573.359V536.542Z" fill="#541D21"/>
<path d="M447.122 715.378L473.414 689.086L447.122 662.782V715.378Z" fill="#511A1E"/>
<path d="M420.819 689.086L447.123 715.378V662.782" fill="#471014"/>
<path d="M536.545 625.954L510.241 599.662L483.937 625.954H536.545Z" fill="#420B0F"/>
<path d="M510.241 652.258L536.545 625.955H483.937" fill="#4D161A"/>
<path d="M383.991 652.258L447.123 625.966L420.819 689.086L383.991 652.258Z" fill="#481115"/>
<path d="M510.23 599.663L447.122 625.967L473.414 562.847L510.23 599.663Z" fill="#471014"/>
<path d="M473.414 689.086L447.122 625.966L510.242 652.258L473.414 689.086Z" fill="#511A1E"/>
<path d="M420.819 562.835L447.123 625.967L383.991 599.663L420.819 562.835Z" fill="#3E070B"/>
<path d="M410.294 625.954L383.99 599.662L357.698 625.954H410.294Z" fill="#420B0F"/>
<path d="M383.99 652.258L410.294 625.955H357.698" fill="#541D21"/>
<path d="M447.122 589.138L473.414 562.835L447.122 536.542V589.138Z" fill="#511A1E"/>
<path d="M420.819 562.835L447.123 589.138V536.542" fill="#3E070B"/>
<path d="M447.122 625.967V589.139L473.414 562.835L447.122 625.967Z" fill="#420B0F"/>
<path d="M447.123 625.967L420.819 562.835L447.123 589.139V625.955V625.967Z" fill="#4F181C"/>
<path d="M447.123 625.966L410.295 625.954L383.991 599.662L447.123 625.966Z" fill="#4D161A"/>
<path d="M447.123 625.966L383.991 652.258L410.295 625.955L447.123 625.966Z" fill="#3E070B"/>
<path d="M447.122 625.966L483.938 625.954L510.242 599.662L447.122 625.966Z" fill="#541D21"/>
<path d="M447.122 625.966L510.242 652.258L483.938 625.955H447.122V625.966Z" fill="#481115"/>
<path d="M447.122 625.966V662.782L473.414 689.086L447.122 625.966Z" fill="#4B1418"/>
<path d="M447.123 625.966L420.819 689.086L447.123 662.782V625.966Z" fill="#541D21"/>
<path d="M536.544 804.802L562.836 778.51L536.544 752.206V804.802Z" fill="#511A1E"/>
<path d="M510.24 778.51L536.544 804.802V752.206" fill="#471014"/>
<path d="M625.954 715.378L599.662 689.086L573.358 715.378H625.954Z" fill="#420B0F"/>
<path d="M599.662 741.682L625.954 715.378H573.358" fill="#4D161A"/>
<path d="M473.412 741.682L536.544 715.378L510.24 778.51L473.412 741.682Z" fill="#481115"/>
<path d="M599.651 689.086L536.543 715.39L562.835 652.27L599.651 689.086Z" fill="#471014"/>
<path d="M562.835 778.51L536.543 715.39L599.663 741.682L562.835 778.51Z" fill="#511A1E"/>
<path d="M510.24 652.259L536.544 715.39L473.412 689.087L510.24 652.259Z" fill="#3E070B"/>
<path d="M499.715 715.378L473.411 689.086L447.119 715.378H499.715Z" fill="#420B0F"/>
<path d="M473.411 741.682L499.715 715.378H447.119" fill="#541D21"/>
<path d="M536.543 678.562L562.835 652.258L536.543 625.955V678.562Z" fill="#511A1E"/>
<path d="M510.24 652.258L536.544 678.562V625.955" fill="#3E070B"/>
<path d="M536.543 715.39V678.563L562.835 652.259L536.543 715.39Z" fill="#420B0F"/>
<path d="M536.544 715.39L510.24 652.259L536.544 678.563V715.379V715.39Z" fill="#4F181C"/>
<path d="M536.544 715.39L499.716 715.378L473.412 689.086L536.544 715.39Z" fill="#4D161A"/>
<path d="M536.544 715.39L473.412 741.682L499.716 715.378H536.532L536.544 715.39Z" fill="#3E070B"/>
<path d="M536.543 715.39L573.359 715.378L599.663 689.086L536.543 715.39Z" fill="#541D21"/>
<path d="M536.543 715.378V715.39L599.663 741.682L573.359 715.378H536.543Z" fill="#481115"/>
<path d="M536.543 715.39V752.206L562.835 778.51L536.543 715.39Z" fill="#4B1418"/>
<path d="M536.544 715.378L510.24 778.51L536.544 752.206V715.39V715.378Z" fill="#541D21"/>
<path d="M89.4121 536.543L115.716 510.239L89.4238 483.935L89.4121 536.543Z" fill="#511A1E"/>
<path d="M63.1217 510.239L89.4138 536.543L89.4256 483.935" fill="#471014"/>
<path d="M178.836 447.119L152.544 420.815L126.24 447.119H178.836Z" fill="#420B0F"/>
<path d="M152.544 473.411L178.836 447.119H126.24" fill="#4D161A"/>
<path d="M26.3033 473.411L89.4232 447.119L63.1194 510.239L26.3033 473.411Z" fill="#481115"/>
<path d="M152.543 420.815L89.4111 447.119L115.715 383.999L152.543 420.815Z" fill="#471014"/>
<path d="M115.716 510.239L89.4241 447.119L152.544 473.411L115.716 510.239Z" fill="#511A1E"/>
<path d="M63.1194 383.999L89.4232 447.119L26.3033 420.815L63.1194 383.999Z" fill="#3E070B"/>
<path d="M52.596 447.119L26.3038 420.815L0 447.119H52.596Z" fill="#420B0F"/>
<path d="M26.2921 473.423L52.596 447.119H0" fill="#541D21"/>
<path d="M89.4241 410.291L115.716 383.999L89.4241 357.695V410.291Z" fill="#511A1E"/>
<path d="M63.1207 383.999L89.4246 410.291V357.695" fill="#3E070B"/>
<path d="M89.4241 447.119V410.291L115.716 383.999L89.4241 447.119Z" fill="#420B0F"/>
<path d="M89.4246 447.119L63.1207 383.999L89.4246 410.291V447.119Z" fill="#4F181C"/>
<path d="M89.4246 447.119H52.5968L26.293 420.815L89.4246 447.119Z" fill="#4D161A"/>
<path d="M89.4246 447.119L26.293 473.423L52.5968 447.119H89.4246Z" fill="#3E070B"/>
<path d="M89.4241 447.119H126.24L152.544 420.815L89.4241 447.119Z" fill="#541D21"/>
<path d="M89.4241 447.119L152.544 473.411L126.24 447.119H89.4241Z" fill="#481115"/>
<path d="M89.4241 447.119V483.935L115.716 510.239L89.4241 447.119Z" fill="#4B1418"/>
<path d="M89.4246 447.119L63.1207 510.239L89.4246 483.935V447.119Z" fill="#541D21"/>
<path d="M178.837 625.966L205.141 599.662L178.849 573.358L178.837 625.966Z" fill="#511A1E"/>
<path d="M152.544 599.662L178.836 625.966L178.848 573.358" fill="#471014"/>
<path d="M268.261 536.542L241.969 510.238L215.665 536.542H268.261Z" fill="#420B0F"/>
<path d="M241.969 562.835L268.261 536.542H215.665" fill="#4D161A"/>
<path d="M115.716 562.835L178.848 536.542L152.544 599.662L115.716 562.835Z" fill="#481115"/>
<path d="M241.957 510.238L178.837 536.542L205.141 473.422L241.957 510.238Z" fill="#471014"/>
<path d="M205.14 599.662L178.847 536.542L241.967 562.835L205.14 599.662Z" fill="#511A1E"/>
<path d="M152.544 473.411L178.848 536.542L115.716 510.238L152.544 473.411Z" fill="#3E070B"/>
<path d="M142.021 536.542L115.717 510.238L89.413 536.542H142.021Z" fill="#420B0F"/>
<path d="M115.717 562.846L142.021 536.542H89.413" fill="#541D21"/>
<path d="M178.849 499.715L205.141 473.422L178.837 447.119L178.849 499.715Z" fill="#511A1E"/>
<path d="M152.544 473.411L178.848 499.715L178.836 447.119" fill="#3E070B"/>
<path d="M178.847 536.542V499.715L205.14 473.422L178.847 536.542Z" fill="#420B0F"/>
<path d="M178.848 536.542L152.544 473.411L178.848 499.715V536.542Z" fill="#4F181C"/>
<path d="M178.848 536.542H142.02L115.716 510.238L178.848 536.542Z" fill="#4D161A"/>
<path d="M178.848 536.542L115.716 562.846L142.02 536.542H178.848Z" fill="#3E070B"/>
<path d="M178.847 536.542H215.664L241.967 510.238L178.847 536.542Z" fill="#541D21"/>
<path d="M178.847 536.542L241.967 562.835L215.664 536.542H178.847Z" fill="#481115"/>
<path d="M178.847 536.542V573.359L205.14 599.662L178.847 536.542Z" fill="#4B1418"/>
<path d="M178.848 536.542L152.544 599.662L178.848 573.359V536.542Z" fill="#541D21"/>
<path d="M268.272 715.378L294.565 689.086L268.261 662.782L268.272 715.378Z" fill="#511A1E"/>
<path d="M241.97 689.086L268.274 715.378L268.262 662.782" fill="#471014"/>
<path d="M357.684 625.966L331.381 599.662L305.089 625.954L357.684 625.966Z" fill="#420B0F"/>
<path d="M331.392 652.258L357.684 625.966L305.089 625.955" fill="#4D161A"/>
<path d="M205.142 652.258L268.274 625.966L241.97 689.086L205.142 652.258Z" fill="#481115"/>
<path d="M331.381 599.663L268.273 625.967L294.565 562.847L331.381 599.663Z" fill="#471014"/>
<path d="M294.565 689.086L268.273 625.966L331.393 652.258L294.565 689.086Z" fill="#511A1E"/>
<path d="M241.97 562.835L268.274 625.967L205.142 599.663L241.97 562.835Z" fill="#3E070B"/>
<path d="M231.445 625.966L205.141 599.662L178.849 625.954L231.445 625.966Z" fill="#420B0F"/>
<path d="M205.141 652.258L231.445 625.966L178.849 625.955" fill="#541D21"/>
<path d="M268.272 589.138L294.564 562.846L268.26 536.542L268.272 589.138Z" fill="#511A1E"/>
<path d="M241.97 562.835L268.274 589.138L268.262 536.542" fill="#3E070B"/>
<path d="M268.273 625.967V589.139L294.565 562.847L268.273 625.967Z" fill="#420B0F"/>
<path d="M268.274 625.967L241.97 562.835L268.274 589.139V625.967Z" fill="#4F181C"/>
<path d="M268.274 625.966H231.446L205.142 599.662L268.274 625.966Z" fill="#4D161A"/>
<path d="M268.274 625.966L205.142 652.258L231.446 625.966L268.262 625.955L268.274 625.966Z" fill="#3E070B"/>
<path d="M268.273 625.966L305.089 625.954L331.381 599.662L268.273 625.966Z" fill="#541D21"/>
<path d="M268.273 625.966L331.393 652.258L305.089 625.955L268.273 625.966Z" fill="#481115"/>
<path d="M268.272 625.966L268.26 662.782L294.564 689.086L268.272 625.966Z" fill="#4B1418"/>
<path d="M268.274 625.966L241.97 689.086L268.262 662.782L268.274 625.966Z" fill="#541D21"/>
<path d="M357.697 804.802L383.989 778.51L357.685 752.206L357.697 804.802Z" fill="#511A1E"/>
<path d="M331.395 778.51L357.699 804.802L357.687 752.206" fill="#471014"/>
<path d="M447.109 715.39L420.805 689.086L394.513 715.379L447.109 715.39Z" fill="#420B0F"/>
<path d="M420.817 741.683L447.109 715.391L394.513 715.379" fill="#4D161A"/>
<path d="M294.567 741.683L357.687 715.379L331.395 778.511L294.567 741.683Z" fill="#481115"/>
<path d="M420.805 689.087L357.685 715.379L383.989 652.271L420.805 689.087Z" fill="#471014"/>
<path d="M383.99 778.51L357.698 715.39L420.818 741.682L383.99 778.51Z" fill="#511A1E"/>
<path d="M331.395 652.259L357.699 715.39L294.567 689.087L331.395 652.259Z" fill="#3E070B"/>
<path d="M320.87 715.39L294.566 689.086L268.274 715.379L320.87 715.39Z" fill="#420B0F"/>
<path d="M294.566 741.683L320.87 715.391L268.274 715.379" fill="#541D21"/>
<path d="M357.697 678.563L383.989 652.271L357.685 625.967L357.697 678.563Z" fill="#511A1E"/>
<path d="M331.395 652.259L357.699 678.563L357.687 625.967" fill="#3E070B"/>
<path d="M357.685 715.379L357.697 678.563L383.989 652.271L357.685 715.379Z" fill="#420B0F"/>
<path d="M357.699 715.39L331.395 652.259L357.699 678.563L357.687 715.379L357.699 715.39Z" fill="#4F181C"/>
<path d="M357.687 715.379L320.871 715.39L294.567 689.086L357.687 715.379Z" fill="#4D161A"/>
<path d="M357.687 715.379L357.699 715.391L294.567 741.683L320.871 715.391L357.687 715.379Z" fill="#3E070B"/>
<path d="M357.698 715.39L394.514 715.379L420.806 689.086L357.698 715.39Z" fill="#541D21"/>
<path d="M357.698 715.391L420.818 741.683L394.514 715.379L357.698 715.391Z" fill="#481115"/>
<path d="M357.697 715.39L357.685 752.206L383.989 778.51L357.697 715.39Z" fill="#4B1418"/>
<path d="M357.699 715.391L357.687 715.379L331.395 778.511L357.687 752.207L357.699 715.391Z" fill="#541D21"/>
<path d="M447.121 894.225L473.413 867.933L447.109 841.629L447.121 894.225Z" fill="#511A1E"/>
<path d="M420.819 867.933L447.123 894.225L447.111 841.629" fill="#471014"/>
<path d="M536.533 804.813L510.229 778.509L483.937 804.801L536.533 804.813Z" fill="#420B0F"/>
<path d="M510.241 831.106L536.533 804.814L483.937 804.802" fill="#4D161A"/>
<path d="M383.991 831.106L447.111 804.802L420.819 867.933L383.991 831.106Z" fill="#481115"/>
<path d="M510.229 778.51L447.109 804.802L473.413 741.694L510.229 778.51Z" fill="#471014"/>
<path d="M473.413 867.933L447.109 804.802L510.241 831.106L473.413 867.933Z" fill="#511A1E"/>
<path d="M420.819 741.682L447.111 804.802L383.991 778.51L420.819 741.682Z" fill="#3E070B"/>
<path d="M410.294 804.813L383.99 778.509L357.698 804.801L410.294 804.813Z" fill="#420B0F"/>
<path d="M383.99 831.106L410.294 804.814L357.698 804.802" fill="#541D21"/>
<path d="M447.121 767.986L473.413 741.694L447.109 715.39L447.121 767.986Z" fill="#511A1E"/>
<path d="M420.819 741.682L447.123 767.986L447.111 715.39" fill="#3E070B"/>
<path d="M447.109 804.802L447.121 767.986L473.413 741.694L447.109 804.802Z" fill="#420B0F"/>
<path d="M447.111 804.802L420.819 741.682L447.123 767.986L447.111 804.802Z" fill="#4F181C"/>
<path d="M447.111 804.801L410.295 804.813L383.991 778.509L447.111 804.801Z" fill="#4D161A"/>
<path d="M447.111 804.802L383.991 831.106L410.295 804.814L447.111 804.802Z" fill="#3E070B"/>
<path d="M447.109 804.801H483.937L510.229 778.509L447.109 804.801Z" fill="#541D21"/>
<path d="M447.109 804.802L510.241 831.106L483.937 804.802L447.121 804.814L447.109 804.802Z" fill="#481115"/>
<path d="M447.109 804.802V841.63L473.413 867.933L447.109 804.802Z" fill="#4B1418"/>
<path d="M447.111 804.802L420.819 867.933L447.111 841.63L447.123 804.814L447.111 804.802Z" fill="#541D21"/>
</svg>